<svg width="50" height="51" viewBox="0 0 50 51" fill="none" xmlns="http://www.w3.org/2000/svg">
<g clip-path="url(#clip0_672_4635)">
<path d="M31.6667 40.6515L31.1364 40.803C31.2879 35.4242 25.9848 27.2424 24.7727 25.3485L26.2879 22.2424C26.8939 21.0303 25.7576 19.7424 24.5455 20.0455L23.1061 20.4242L20.2273 19.7424C20 19.6667 19.697 19.6667 19.4697 19.7424L16.5909 20.4242L15.1515 20.1212C13.8636 19.8182 12.803 21.1061 13.4091 22.3182L14.9242 25.4242C13.9394 26.8636 10.3788 32.3939 9.01515 37.3182C8.0303 37.4697 7.04545 37.697 6.13636 38V37.0909C6.13636 36.6364 5.83333 36.3333 5.37878 36.3333H1.13636C0.681814 36.3333 0.378784 36.6364 0.378784 37.0909V48.9848C0.378784 49.4394 0.681814 49.7424 1.13636 49.7424H5.37878C5.83333 49.7424 6.13636 49.4394 6.13636 48.9848V47.6212C10.1515 46.9394 14.2424 48.9848 14.2424 48.9848C17.2727 50.5 20.9848 50.3485 23.4091 49.1364L34.2424 44.2879C35.4545 43.7576 35.7576 42.2424 34.8485 41.3333C33.6364 40.197 31.7424 40.5758 31.6667 40.6515ZM16.2121 21.9394C16.8182 22.0909 17.1212 21.8636 19.8485 21.2576C22.5758 21.8636 22.803 22.0909 23.4091 21.9394L24.8485 21.6364L23.4091 24.6667H16.2121L14.7727 21.5606L16.2121 21.9394ZM16.1364 26.1818H18.5606V31.1061C18.5606 31.5606 18.8636 31.8636 19.3182 31.8636C19.7727 31.8636 20.0758 31.5606 20.0758 31.1061V26.1818H23.4848C24.697 27.9242 30.1515 36.4091 29.6212 41.1818L25.5303 42.2424C25.303 41.2576 24.5455 40.6515 23.7121 40.5758C19.5455 40.1212 16.7424 39.1364 13.4091 37.697C12.5 37.3182 11.5151 37.1667 10.6061 37.1667C11.8939 32.6212 15.2273 27.4697 16.1364 26.1818ZM4.62121 48.2273H1.89394V37.8485H4.62121V48.2273ZM33.6364 43L22.803 47.8485C22.7273 47.8485 18.8636 49.6667 14.9242 47.697C14.697 47.6212 10.4545 45.4242 6.0606 46.1061V39.5909C13.1061 36.8636 12.5 40.8788 23.4091 42.0909C23.6364 42.0909 23.8636 42.2424 23.8636 42.4697V42.697V42.7727V42.8485C23.8636 42.8485 23.8636 42.8485 23.7879 42.9242C23.7121 43.1515 23.4848 43.2273 23.2576 43.2273L17.6515 42.6212C17.2727 42.5455 16.8939 42.8485 16.8182 43.303C16.7424 43.6818 17.0455 44.0606 17.5 44.1364L23.1061 44.7424C23.8636 44.8182 24.5455 44.5152 25 43.9848L31.9697 42.1667C31.9697 42.1667 33.1061 41.9394 33.7121 42.5455C33.9394 42.6212 33.8636 42.9242 33.6364 43Z" fill="url(#paint0_linear_672_4635)"/>
<path d="M48.7878 25.5758L45.606 24.0606C44.8484 23.6818 43.9393 24.0606 43.5606 24.7424L43.4848 24.9697C41.2878 21.7879 39.9999 16.2576 39.8484 15.5V2.54546C39.8484 1.63637 39.0909 0.80304 38.106 0.80304C36.2121 0.80304 34.6212 2.39395 34.6212 4.28789V13.1515C32.1212 11.5606 29.8484 13.6061 31.4393 16.7121L33.6363 20.803C33.0303 24.8182 32.7272 29.7424 34.0151 31.4849C34.0909 31.5606 35.606 33.6061 38.4848 35.197L38.2575 35.6515C37.8787 36.4091 38.1818 37.3182 38.9393 37.697L42.1212 39.2121C42.8787 39.5909 43.7878 39.2121 44.1666 38.5303L49.3939 27.6212C49.8484 26.7879 49.5454 25.8788 48.7878 25.5758ZM32.7272 16.0303C31.8939 14.3636 32.5757 13.1515 34.5454 15.1212V15.5C34.3939 16.0303 34.2424 17.0909 34.0151 18.3788L32.7272 16.0303ZM35.2272 30.5758C33.8636 28.9091 34.9999 20.5758 36.0606 15.7273C36.0606 15.6515 36.0606 15.6515 36.0606 15.5758V4.36365C36.0606 3.30304 36.9696 2.39395 38.0303 2.39395C38.106 2.39395 38.2575 2.46971 38.2575 2.62122V15.6515V15.803C38.3333 16.1061 39.8484 23 42.6515 26.5606L39.1666 33.8333C36.6666 32.4697 35.303 30.6515 35.2272 30.5758ZM42.8787 37.8485L39.6969 36.3333C40.7575 34.0606 44.1666 26.9394 44.9242 25.4243L48.106 26.9394L42.8787 37.8485Z" fill="url(#paint1_linear_672_4635)"/>
</g>
<defs>
<linearGradient id="paint0_linear_672_4635" x1="35.3771" y1="50.0833" x2="-0.373885" y2="49.1707" gradientUnits="userSpaceOnUse">
<stop stop-color="#0D83D0"/>
<stop offset="1" stop-color="#284D95"/>
</linearGradient>
<linearGradient id="paint1_linear_672_4635" x1="49.6075" y1="39.3622" x2="30.4982" y2="39.1568" gradientUnits="userSpaceOnUse">
<stop stop-color="#0D83D0"/>
<stop offset="1" stop-color="#284D95"/>
</linearGradient>
<clipPath id="clip0_672_4635">
<rect width="50" height="50" fill="white" transform="translate(0 0.5)"/>
</clipPath>
</defs>
</svg>
