<svg width="50" height="51" viewBox="0 0 50 51" fill="none" xmlns="http://www.w3.org/2000/svg">
<path d="M46.2879 7.54547H40.9091V4.43941C40.9091 3.00001 39.7727 1.86365 38.3333 1.86365C36.8939 1.86365 35.7576 3.00001 35.7576 4.43941V7.54547H14.2424V4.43941C14.2424 3.00001 13.1061 1.86365 11.6667 1.86365C10.2273 1.86365 9.0909 3.07577 9.0909 4.43941V7.54547H3.71211C2.04545 7.54547 0.757568 8.9091 0.757568 10.5V46.1818C0.757568 47.7727 2.04545 49.1364 3.71211 49.1364H46.2879C47.8788 49.1364 49.2424 47.8485 49.2424 46.1818V10.5C49.2424 8.9091 47.9545 7.54547 46.2879 7.54547ZM38.3333 3.3788C38.9394 3.3788 39.4697 3.9091 39.4697 4.51516V10.5C39.4697 11.1061 38.9394 11.6364 38.3333 11.6364C37.7273 11.6364 37.197 11.1061 37.197 10.5C37.197 10.3485 37.197 4.43941 37.197 4.51516C37.197 3.83334 37.7273 3.3788 38.3333 3.3788ZM11.6667 3.3788C12.2727 3.3788 12.803 3.9091 12.803 4.51516V10.5C12.803 11.1061 12.2727 11.6364 11.6667 11.6364C11.0606 11.6364 10.5303 11.1061 10.5303 10.5C10.5303 10.3485 10.5303 4.43941 10.5303 4.51516C10.6061 3.83334 11.0606 3.3788 11.6667 3.3788ZM3.71211 9.06062H9.0909V10.5C9.0909 11.9394 10.2273 13.0758 11.6667 13.0758C13.1061 13.0758 14.2424 11.9394 14.2424 10.5V9.06062H35.7576V10.5C35.7576 11.9394 36.8939 13.0758 38.3333 13.0758C39.7727 13.0758 40.9091 11.8636 40.9091 10.4243V8.98486H46.3636C47.197 8.98486 47.803 9.66668 47.803 10.4243V14.6667H2.19696V10.4243C2.19696 9.66668 2.87878 9.06062 3.71211 9.06062ZM46.2879 47.6212H3.71211C2.87878 47.6212 2.27272 46.9394 2.27272 46.1818V16.1818H47.803V46.1818C47.803 47.0152 47.1212 47.6212 46.2879 47.6212Z" fill="url(#paint0_linear_672_4642)"/>
<path d="M33.3334 28.2273H27.4243C27.0455 28.2273 26.6667 28.5303 26.6667 28.9849V34.894C26.6667 35.2728 26.9697 35.6515 27.4243 35.6515H33.3334C33.7121 35.6515 34.0909 35.3485 34.0909 34.894V28.9849C34.0909 28.6061 33.7121 28.2273 33.3334 28.2273ZM32.5758 34.1364H28.1818V29.7424H32.5758V34.1364Z" fill="url(#paint1_linear_672_4642)"/>
<path d="M33.3334 19.1364H27.4243C27.0455 19.1364 26.6667 19.4394 26.6667 19.8939V25.803C26.6667 26.1818 26.9697 26.5606 27.4243 26.5606H33.3334C33.7121 26.5606 34.0909 26.2576 34.0909 25.803V19.8939C34.0909 19.4394 33.7121 19.1364 33.3334 19.1364ZM32.5758 24.9697H28.1818V20.5757H32.5758V24.9697Z" fill="url(#paint2_linear_672_4642)"/>
<path d="M44.0909 28.2273H38.1818C37.803 28.2273 37.4243 28.5303 37.4243 28.9849V34.894C37.4243 35.2728 37.7273 35.6515 38.1818 35.6515H44.0909C44.4697 35.6515 44.8485 35.3485 44.8485 34.894V28.9849C44.8485 28.6061 44.4697 28.2273 44.0909 28.2273ZM43.3333 34.1364H38.9394V29.7424H43.3333V34.1364Z" fill="url(#paint3_linear_672_4642)"/>
<path d="M32.7273 38.5303L29.3939 41.8636L28.0303 40.4242C27.7273 40.1212 27.2727 40.1212 26.9697 40.4242C26.6667 40.7273 26.6667 41.1818 26.9697 41.4848L28.8636 43.3788C29.0152 43.5303 29.1667 43.6061 29.3939 43.6061C29.5455 43.6061 29.7727 43.5303 29.9243 43.3788L33.7879 39.5152C34.0909 39.2121 34.0909 38.7576 33.7879 38.4545C33.4849 38.2273 33.0303 38.2273 32.7273 38.5303Z" fill="url(#paint4_linear_672_4642)"/>
<path d="M44.0909 19.1364H38.1818C37.803 19.1364 37.4243 19.4394 37.4243 19.8939V25.803C37.4243 26.1818 37.7273 26.5606 38.1818 26.5606H44.0909C44.4697 26.5606 44.8485 26.2576 44.8485 25.803V19.8939C44.8485 19.4394 44.4697 19.1364 44.0909 19.1364ZM43.3333 24.9697H38.9394V20.5757H43.3333V24.9697Z" fill="url(#paint5_linear_672_4642)"/>
<path d="M22.5757 28.2273H16.6666C16.2878 28.2273 15.9091 28.5303 15.9091 28.9849V34.894C15.9091 35.2728 16.2121 35.6515 16.6666 35.6515H22.5757C22.9545 35.6515 23.3333 35.3485 23.3333 34.894V28.9849C23.2575 28.6061 22.9545 28.2273 22.5757 28.2273ZM21.8181 34.1364H17.4242V29.7424H21.8181V34.1364Z" fill="url(#paint6_linear_672_4642)"/>
<path d="M22.5757 37.3939H16.6666C16.2878 37.3939 15.9091 37.697 15.9091 38.1515V44.0606C15.9091 44.4394 16.2121 44.8182 16.6666 44.8182H22.5757C22.9545 44.8182 23.3333 44.5151 23.3333 44.0606V38.1515C23.2575 37.697 22.9545 37.3939 22.5757 37.3939ZM21.8181 43.2273H17.4242V38.8333H21.8181V43.2273Z" fill="url(#paint7_linear_672_4642)"/>
<path d="M22.5757 19.1364H16.6666C16.2878 19.1364 15.9091 19.4394 15.9091 19.8939V25.803C15.9091 26.1818 16.2121 26.5606 16.6666 26.5606H22.5757C22.9545 26.5606 23.3333 26.2576 23.3333 25.803V19.8939C23.2575 19.4394 22.9545 19.1364 22.5757 19.1364ZM21.8181 24.9697H17.4242V20.5757H21.8181V24.9697Z" fill="url(#paint8_linear_672_4642)"/>
<path d="M11.7424 28.2273H5.90907C5.53028 28.2273 5.15149 28.5303 5.15149 28.9849V34.894C5.15149 35.2728 5.45452 35.6515 5.90907 35.6515H11.8182C12.1969 35.6515 12.5757 35.3485 12.5757 34.894V28.9849C12.5 28.6061 12.1969 28.2273 11.7424 28.2273ZM11.0606 34.1364H6.66664V29.7424H11.0606V34.1364Z" fill="url(#paint9_linear_672_4642)"/>
<path d="M11.7424 37.3939H5.90907C5.53028 37.3939 5.15149 37.697 5.15149 38.1515V44.0606C5.15149 44.4394 5.45452 44.8182 5.90907 44.8182H11.8182C12.1969 44.8182 12.5757 44.5151 12.5757 44.0606V38.1515C12.5 37.697 12.1969 37.3939 11.7424 37.3939ZM11.0606 43.2273H6.66664V38.8333H11.0606V43.2273Z" fill="url(#paint10_linear_672_4642)"/>
<path d="M11.7424 19.1364H5.90907C5.53028 19.1364 5.15149 19.4394 5.15149 19.8939V25.803C5.15149 26.1818 5.45452 26.5606 5.90907 26.5606H11.8182C12.1969 26.5606 12.5757 26.2576 12.5757 25.803V19.8939C12.5 19.4394 12.1969 19.1364 11.7424 19.1364ZM11.0606 24.9697H6.66664V20.5757H11.0606V24.9697Z" fill="url(#paint11_linear_672_4642)"/>
<defs>
<linearGradient id="paint0_linear_672_4642" x1="49.2424" y1="49.1364" x2="-0.291801" y2="48.01" gradientUnits="userSpaceOnUse">
<stop stop-color="#0D83D0"/>
<stop offset="1" stop-color="#284D95"/>
</linearGradient>
<linearGradient id="paint1_linear_672_4642" x1="34.0909" y1="35.6515" x2="26.5058" y2="35.4834" gradientUnits="userSpaceOnUse">
<stop stop-color="#0D83D0"/>
<stop offset="1" stop-color="#284D95"/>
</linearGradient>
<linearGradient id="paint2_linear_672_4642" x1="34.0909" y1="26.5606" x2="26.5058" y2="26.3924" gradientUnits="userSpaceOnUse">
<stop stop-color="#0D83D0"/>
<stop offset="1" stop-color="#284D95"/>
</linearGradient>
<linearGradient id="paint3_linear_672_4642" x1="44.8485" y1="35.6515" x2="37.2634" y2="35.4834" gradientUnits="userSpaceOnUse">
<stop stop-color="#0D83D0"/>
<stop offset="1" stop-color="#284D95"/>
</linearGradient>
<linearGradient id="paint4_linear_672_4642" x1="34.0152" y1="43.6061" x2="26.588" y2="43.3807" gradientUnits="userSpaceOnUse">
<stop stop-color="#0D83D0"/>
<stop offset="1" stop-color="#284D95"/>
</linearGradient>
<linearGradient id="paint5_linear_672_4642" x1="44.8485" y1="26.5606" x2="37.2634" y2="26.3924" gradientUnits="userSpaceOnUse">
<stop stop-color="#0D83D0"/>
<stop offset="1" stop-color="#284D95"/>
</linearGradient>
<linearGradient id="paint6_linear_672_4642" x1="23.3333" y1="35.6515" x2="15.7482" y2="35.4834" gradientUnits="userSpaceOnUse">
<stop stop-color="#0D83D0"/>
<stop offset="1" stop-color="#284D95"/>
</linearGradient>
<linearGradient id="paint7_linear_672_4642" x1="23.3333" y1="44.8182" x2="15.7482" y2="44.65" gradientUnits="userSpaceOnUse">
<stop stop-color="#0D83D0"/>
<stop offset="1" stop-color="#284D95"/>
</linearGradient>
<linearGradient id="paint8_linear_672_4642" x1="23.3333" y1="26.5606" x2="15.7482" y2="26.3924" gradientUnits="userSpaceOnUse">
<stop stop-color="#0D83D0"/>
<stop offset="1" stop-color="#284D95"/>
</linearGradient>
<linearGradient id="paint9_linear_672_4642" x1="12.5757" y1="35.6515" x2="4.99061" y2="35.4834" gradientUnits="userSpaceOnUse">
<stop stop-color="#0D83D0"/>
<stop offset="1" stop-color="#284D95"/>
</linearGradient>
<linearGradient id="paint10_linear_672_4642" x1="12.5757" y1="44.8182" x2="4.99061" y2="44.65" gradientUnits="userSpaceOnUse">
<stop stop-color="#0D83D0"/>
<stop offset="1" stop-color="#284D95"/>
</linearGradient>
<linearGradient id="paint11_linear_672_4642" x1="12.5757" y1="26.5606" x2="4.99061" y2="26.3924" gradientUnits="userSpaceOnUse">
<stop stop-color="#0D83D0"/>
<stop offset="1" stop-color="#284D95"/>
</linearGradient>
</defs>
</svg>
