<svg width="51" height="51" viewBox="0 0 51 51" fill="none" xmlns="http://www.w3.org/2000/svg">
<path d="M29.3565 18.2654C29.3565 14.5593 26.3411 11.5441 22.6349 11.5441C18.9288 11.5441 15.9136 14.5593 15.9136 18.2654C15.9136 21.9716 18.9288 24.987 22.6349 24.987C26.3411 24.987 29.3565 21.9716 29.3565 18.2654ZM22.6349 23.4547C19.7737 23.4547 17.4459 21.1269 17.4459 18.2654C17.4459 15.4042 19.7737 13.0764 22.6349 13.0764C25.4964 13.0764 27.8243 15.4042 27.8243 18.2654C27.8243 21.1269 25.4964 23.4547 22.6349 23.4547Z" fill="#005AB0"/>
<path d="M24.7657 15.9975L21.8548 18.9084L20.5044 17.558C20.2051 17.2587 19.7203 17.2587 19.421 17.558C19.1218 17.857 19.1218 18.3423 19.421 18.6413L21.3132 20.5334C21.4628 20.6831 21.6588 20.7579 21.8548 20.7579C22.0509 20.7579 22.2469 20.6831 22.3965 20.5334L25.8491 17.0809C26.1483 16.7819 26.1483 16.2965 25.8491 15.9975C25.5498 15.6983 25.065 15.6983 24.7657 15.9975Z" fill="#005AB0"/>
<path d="M48.7438 35.4621L42.7355 33.2944C42.0916 32.6794 39.1844 30.0686 35.676 29.5025C32.8959 29.0541 30.1944 29.5921 28.4941 30.0871C31.0855 28.173 32.6305 25.7877 33.4131 24.2987C33.9934 23.2109 34.3001 21.9664 34.3001 20.7V9.75452C34.3001 9.33131 33.9572 8.9884 33.534 8.9884C31.3077 8.9884 30.1194 8.2936 28.7432 7.48931C27.2833 6.6359 25.6284 5.66852 22.6347 5.66852C19.6403 5.66852 17.9856 6.63615 16.5256 7.49006C15.1507 8.2941 13.9634 8.9884 11.7403 8.9884C11.3171 8.9884 10.9742 9.33131 10.9742 9.75452V20.7C10.9742 21.9622 11.2787 23.2056 11.8543 24.2955C12.8121 26.1117 14.8583 29.1828 18.4788 31.1791C18.0222 31.4888 17.6621 31.921 17.4477 32.4233C16.7588 32.1492 16.0919 31.8711 15.4415 31.5998C13.084 30.6165 10.8572 29.6875 8.1753 29.1823C6.73108 28.9072 5.2709 29.6369 4.62598 30.9472L4.58782 31.0237C4.02345 32.16 4.48881 33.5466 5.62404 34.1142L6.31684 34.4616C11.1183 36.8687 14.9111 38.77 18.8629 41.2138C19.8183 41.8019 20.9658 42.062 22.0933 41.9433C29.6243 41.1485 38.8331 40.7899 43.2301 45.1118C43.3792 45.2584 43.573 45.3315 43.767 45.3315C43.9653 45.3315 44.1635 45.2549 44.3134 45.1023C44.6099 44.8005 44.6057 44.3155 44.3039 44.019C39.4782 39.2756 30.2867 39.5372 21.9331 40.4195C21.1406 40.5013 20.3356 40.321 19.6674 39.9098C15.6587 37.4308 11.8393 35.516 7.00366 33.0919L6.31011 32.744C5.92755 32.5528 5.77068 32.0869 5.95872 31.7081L5.99812 31.629C6.34253 30.9292 7.12063 30.5409 7.89074 30.6878C10.4156 31.1637 12.5703 32.0625 14.8517 33.0139C15.6271 33.3373 16.4258 33.6704 17.2635 33.9977C17.4843 35.3691 18.6968 36.4322 20.14 36.4412L29.2435 36.4986H29.2483C29.6692 36.4986 30.0116 36.1587 30.0144 35.7372C30.0171 35.3143 29.6762 34.9691 29.253 34.9664L20.1495 34.909C19.3934 34.9043 18.7699 34.302 18.7599 33.567V33.4735C18.7724 32.8401 19.3098 32.2852 19.9839 32.2106C22.1948 31.9659 24.5627 31.7924 26.8925 32.1699C27.0374 32.1944 27.1878 32.1747 27.3232 32.1153C27.3634 32.0979 31.3903 30.3626 35.4321 31.0153C38.8296 31.5634 41.7459 34.4686 41.7749 34.498C41.8549 34.5786 41.9524 34.6409 42.0592 34.6796L48.2236 36.9036C48.3096 36.9345 48.3974 36.9493 48.4837 36.9493C48.7974 36.9493 49.0917 36.755 49.2044 36.443C49.3478 36.045 49.1416 35.6058 48.7438 35.4621ZM20.812 30.5848C16.5297 28.9056 14.2141 25.4855 13.2092 23.5802C12.7496 22.7096 12.5065 21.7138 12.5065 20.7V10.495C14.6781 10.3453 16.0084 9.56748 17.299 8.81258C18.7165 7.98385 20.0552 7.20077 22.6347 7.20077C25.2134 7.20077 26.5523 7.98336 27.9699 8.81208C29.2617 9.56723 30.5932 10.3456 32.7679 10.495V20.7C32.7679 21.7158 32.5235 22.7108 32.0591 23.5817C31.0996 25.4068 28.892 28.7014 24.8261 30.4338C23.4595 30.3825 22.1129 30.4612 20.812 30.5848Z" fill="#005AB0"/>
<path d="M38.5722 18.2655C38.5722 18.6887 38.9151 19.0316 39.3383 19.0316H42.754C43.1772 19.0316 43.5201 18.6887 43.5201 18.2655C43.5201 17.8422 43.1772 17.4993 42.754 17.4993H39.3383C38.9151 17.4993 38.5722 17.8422 38.5722 18.2655Z" fill="#005AB0"/>
<path d="M37.3375 14.2014C37.5335 14.2014 37.7295 14.1266 37.8792 13.9769L40.2945 11.5618C40.5938 11.2628 40.5938 10.7777 40.2945 10.4785C39.9952 10.1792 39.5104 10.1792 39.2111 10.4785L36.7958 12.8936C36.4965 13.1926 36.4965 13.6777 36.7958 13.9769C36.9454 14.1266 37.1415 14.2014 37.3375 14.2014Z" fill="#005AB0"/>
<path d="M39.2111 26.0527C39.3608 26.2023 39.5568 26.2771 39.7528 26.2771C39.9488 26.2771 40.1451 26.2023 40.2945 26.0527C40.5938 25.7534 40.5938 25.2683 40.2945 24.9693L37.8792 22.5542C37.5799 22.255 37.0946 22.255 36.7958 22.5542C36.4965 22.8535 36.4965 23.3386 36.7958 23.6376L39.2111 26.0527Z" fill="#005AB0"/>
<path d="M6.6979 18.2655C6.6979 17.8422 6.35499 17.4993 5.93177 17.4993H2.51613C2.09291 17.4993 1.75 17.8422 1.75 18.2655C1.75 18.6887 2.09291 19.0316 2.51613 19.0316H5.93177C6.35499 19.0316 6.6979 18.6887 6.6979 18.2655Z" fill="#005AB0"/>
<path d="M7.3907 13.9769C7.54034 14.1266 7.73636 14.2014 7.93238 14.2014C8.1284 14.2014 8.32442 14.1266 8.47405 13.9769C8.77332 13.6779 8.77332 13.1926 8.47405 12.8936L6.05896 10.4785C5.75969 10.1792 5.27488 10.1792 4.97561 10.4785C4.67634 10.7775 4.67634 11.2628 4.97561 11.5618L7.3907 13.9769Z" fill="#005AB0"/>
<path d="M7.3907 22.5542L4.97561 24.9693C4.67634 25.2683 4.67634 25.7536 4.97561 26.0527C5.12524 26.2023 5.32127 26.2771 5.51729 26.2771C5.71331 26.2771 5.90933 26.2023 6.05896 26.0527L8.47405 23.6376C8.77332 23.3386 8.77332 22.8532 8.47405 22.5542C8.17479 22.255 7.68997 22.255 7.3907 22.5542Z" fill="#005AB0"/>
</svg>
