<svg width="23" height="23" viewBox="0 0 23 23" fill="none" xmlns="http://www.w3.org/2000/svg">
<path d="M11.5 0C9.22552 0 7.00211 0.674463 5.11095 1.9381C3.21978 3.20174 1.7458 4.99779 0.875391 7.09914C0.00498281 9.20049 -0.222756 11.5128 0.220974 13.7435C0.664704 15.9743 1.75997 18.0234 3.36828 19.6317C4.97658 21.24 7.02568 22.3353 9.25647 22.779C11.4872 23.2228 13.7995 22.995 15.9009 22.1246C18.0022 21.2542 19.7983 19.7802 21.0619 17.8891C22.3255 15.9979 23 13.7745 23 11.5C23 8.45001 21.7884 5.52494 19.6317 3.36827C17.4751 1.2116 14.55 0 11.5 0ZM11.5144 4.3125C12.2338 4.31483 12.9364 4.53041 13.5334 4.932C14.1303 5.33358 14.5948 5.90314 14.8681 6.56866C15.1414 7.23419 15.2112 7.9658 15.0688 8.67101C14.9263 9.37622 14.578 10.0234 14.0678 10.5306C13.5576 11.0379 12.9085 11.3825 12.2025 11.5209C11.4964 11.6593 10.7652 11.5853 10.1013 11.3081C9.43735 11.031 8.87047 10.5633 8.47232 9.96406C8.07418 9.36482 7.86263 8.66098 7.86444 7.94153C7.86581 7.46359 7.9613 6.99059 8.14547 6.54956C8.32964 6.10852 8.59888 5.70807 8.93781 5.37109C9.27673 5.0341 9.67872 4.76717 10.1208 4.58554C10.5629 4.4039 11.0364 4.31113 11.5144 4.3125ZM15.589 13.0172C15.144 13.4665 14.6067 13.8139 14.0143 14.0352C13.4373 14.2425 12.8368 14.3773 12.2266 14.4364C12.3181 14.5357 12.3573 14.5854 12.42 14.6429C13.2472 15.474 14.0784 16.3026 14.903 17.1376C15.0343 17.257 15.1234 17.4159 15.1569 17.5902C15.1903 17.7646 15.1664 17.9451 15.0885 18.1047C15.0088 18.2793 14.8797 18.4267 14.7171 18.5286C14.5545 18.6306 14.3656 18.6826 14.1738 18.6784C13.9494 18.6556 13.7418 18.5492 13.5922 18.3804C12.9676 17.7518 12.3311 17.135 11.7195 16.4947C11.5418 16.3078 11.4582 16.3431 11.2988 16.5051C10.6702 17.1585 10.0311 17.7884 9.38949 18.4222C9.27045 18.5544 9.11072 18.6432 8.93557 18.6744C8.76043 18.7057 8.57986 18.6776 8.42245 18.5947C8.25163 18.5153 8.10744 18.3882 8.00727 18.2286C7.9071 18.0691 7.85522 17.884 7.8579 17.6956C7.87711 17.4624 7.98574 17.2456 8.16108 17.0906C8.98089 16.2725 9.79853 15.4536 10.614 14.6338C10.6689 14.5789 10.7185 14.5214 10.7982 14.4377C9.68353 14.3214 8.67858 14.0457 7.8187 13.374C7.70932 13.2923 7.6042 13.2051 7.50375 13.1126C7.12739 12.7519 7.08949 12.3377 7.38745 11.9103C7.64228 11.5457 8.06961 11.4477 8.51523 11.6568C8.59926 11.6999 8.67968 11.7497 8.75569 11.8058C9.55267 12.347 10.4919 12.6405 11.4553 12.6494C12.4186 12.6582 13.3631 12.382 14.1698 11.8555C14.3236 11.7297 14.5015 11.6367 14.6926 11.5823C14.8701 11.5305 15.0599 11.5396 15.2317 11.6083C15.4034 11.677 15.5472 11.8013 15.64 11.9613C15.8818 12.3442 15.8792 12.7193 15.589 13.0172ZM11.5092 9.73057C11.862 9.72873 12.2063 9.62214 12.4985 9.42433C12.7907 9.22651 13.0175 8.94637 13.1502 8.61946C13.283 8.29254 13.3156 7.93356 13.244 7.58806C13.1724 7.24256 12.9999 6.9261 12.7482 6.67883C12.4965 6.43155 12.177 6.26459 11.8303 6.19913C11.4836 6.13367 11.1253 6.17265 10.8008 6.31114C10.4762 6.44963 10.2001 6.68138 10.0075 6.977C9.8149 7.27262 9.71442 7.61878 9.71881 7.97159C9.72017 8.20485 9.76764 8.43553 9.85848 8.65037C9.94933 8.86521 10.0818 9.05997 10.2481 9.22344C10.4145 9.38692 10.6116 9.51588 10.828 9.60291C11.0444 9.68995 11.2759 9.73333 11.5092 9.73057Z" fill="url(#paint0_linear_2001_1689)"/>
<defs>
<linearGradient id="paint0_linear_2001_1689" x1="23" y1="23" x2="-0.498394" y2="22.479" gradientUnits="userSpaceOnUse">
<stop stop-color="#4CB501"/>
<stop offset="1" stop-color="#92E800"/>
</linearGradient>
</defs>
</svg>
