<svg width="26" height="30" viewBox="0 0 26 30" fill="none" xmlns="http://www.w3.org/2000/svg">
<path fill-rule="evenodd" clip-rule="evenodd" d="M7.17108 0H17.8654C21.8255 0 25.0365 3.21525 25.0365 7.1806V22.8193C25.0365 26.7847 21.8255 30 17.8654 30L7.17108 29.9999C3.21099 29.9999 0 26.7847 0 22.8193V7.1806C0 3.21519 3.21092 0 7.17108 0Z" fill="#070908"/>
<path fill-rule="evenodd" clip-rule="evenodd" d="M23.6897 21.9761C23.6897 25.4945 20.8398 28.3481 17.3261 28.3481H7.73412C4.22033 28.3481 1.37049 25.4945 1.37049 21.9761V8.02542C1.37049 4.50696 4.22033 1.6534 7.73412 1.6534L17.3261 1.65334C20.8398 1.65334 23.6896 4.50702 23.6896 8.02548L23.6897 21.9761Z" fill="#FEC516"/>
<path fill-rule="evenodd" clip-rule="evenodd" d="M10.4347 19.282C10.3984 19.4858 10.2029 19.6216 9.99826 19.5846L9.03317 19.409C8.82917 19.3721 8.69356 19.1763 8.73092 18.972L8.73775 18.9347C8.77399 18.7309 8.96956 18.5951 9.17412 18.6321L10.1393 18.8077C10.3432 18.8447 10.4788 19.0405 10.4415 19.2448L10.4347 19.282ZM9.68558 8.62568C9.83541 9.39953 9.60825 9.78328 8.95063 10.2839C7.93657 11.0545 6.65278 12.37 6.21908 13.5686C5.66554 15.1004 5.47314 17.1202 7.1496 18.0377C7.43187 18.1924 7.86712 18.2809 8.16521 18.4057C8.293 18.4593 8.36394 18.5983 8.3308 18.7325L8.2961 18.8841C8.25353 19.0657 8.06901 19.1779 7.88766 19.1305C6.76319 18.8431 5.80115 18.3931 4.99997 17.7803C4.68611 17.5402 4.58836 17.286 4.65303 16.8802C4.90538 15.2962 5.10883 14.2287 5.26181 13.6791C5.73021 11.9941 6.82153 10.8287 8.22988 9.78172C8.57527 9.52587 8.87019 9.18003 9.11466 8.74575C9.1951 8.60356 9.34802 8.53253 9.57517 8.53414C9.6288 8.53408 9.67609 8.57205 9.68558 8.62568ZM12.4061 7.95774C12.537 7.98614 12.5985 8.13778 12.5259 8.24989C11.8856 9.23528 11.4803 10.3297 11.31 11.533C11.168 12.5311 11.004 13.7928 10.8195 15.3183C10.7943 15.5268 10.6097 15.6799 10.4 15.6689L10.3858 15.6689C10.1776 15.6563 10.0168 15.4841 10.0152 15.2757C10.0104 13.379 10.0073 11.3388 10.0089 9.1579C10.0089 8.79466 10.1682 8.54676 10.4851 8.41408C10.8889 8.2451 11.8982 7.84718 12.4061 7.95774ZM13.3602 17.883L13.3429 17.8845C13.1284 17.9018 12.9454 17.7329 12.9439 17.5182C12.9139 14.1371 12.9123 11.1319 12.9391 8.50574C12.9423 8.18196 13.1016 8.04773 13.417 8.10614C14.0573 8.22459 14.5557 8.37623 14.9105 8.56416C15.1801 8.70623 15.2449 8.95102 15.1045 9.30003C14.9152 9.77222 14.6124 10.1544 14.4642 10.6313C13.775 12.8563 13.7229 14.9898 13.7481 17.4566C13.7513 17.6792 13.581 17.8656 13.3602 17.883ZM16.7526 10.8003C16.7068 10.7608 16.6358 10.7829 16.6216 10.8413C16.2794 12.2405 16.3094 13.7092 16.2715 15.3262C16.2668 15.541 16.0776 15.7052 15.8646 15.6816L15.8489 15.6799C15.6281 15.6563 15.4625 15.47 15.4609 15.2472C15.4404 11.9263 15.442 9.74537 15.4656 8.70312C15.4656 8.66042 15.4735 8.63202 15.4877 8.61779C15.5934 8.5104 15.7716 8.5278 15.8551 8.65415L16.4056 9.48324C16.4498 9.54955 16.5049 9.60486 16.5712 9.64743C17.5806 10.2996 18.3896 11.0151 19.0694 12.0036C19.4147 12.5058 19.6938 13.1991 19.9068 14.0835C20.1449 15.0704 20.3184 16.0227 20.4288 16.9433C20.4398 17.0317 20.4745 17.117 20.5265 17.1881C20.8009 17.5545 21.0643 17.8403 21.2662 18.2935C22.0627 20.0954 19.033 21.0934 17.8471 21.4314C16.3031 21.8719 14.3633 22.082 12.0244 22.0615C10.0925 22.0441 8.23776 21.7599 6.46194 21.2071C5.52993 20.9166 4.77449 20.5091 4.19724 19.9849C3.64208 19.4779 3.51913 18.8683 3.82821 18.153C3.85502 18.0913 3.91652 18.0535 3.98436 18.0566C4.28555 18.0772 4.56155 18.2367 4.81545 18.5383C4.86436 18.5951 4.87857 18.6741 4.85648 18.7452C4.41645 20.1443 8.34818 20.8249 9.21558 20.934C12.048 21.2924 14.7906 21.1945 17.4449 20.6386C18.2129 20.4776 20.5486 19.8206 20.167 18.6599C20.1449 18.5951 20.0755 18.5604 20.0109 18.5841C18.336 19.1936 16.5254 19.5932 14.5809 19.7827C14.3759 19.8032 14.1882 19.669 14.1377 19.4684L14.133 19.4526C14.0809 19.2458 14.215 19.0373 14.4248 18.9994C15.7858 18.7483 16.7999 18.2635 17.4702 17.5466C18.2744 16.6859 19.134 15.3073 18.9447 14.1103C18.7255 12.7158 17.8139 11.7526 16.7526 10.8003Z" fill="#070908"/>
</svg>
