<svg width="137" height="130" viewBox="0 0 137 130" fill="none" xmlns="http://www.w3.org/2000/svg">
<path d="M0.963437 -87.0388C0.411527 -87.0186 -0.0195157 -86.5548 0.000681195 -86.0029C0.0208781 -85.451 0.484665 -85.02 1.03658 -85.0402L0.963437 -87.0388ZM113.288 128.418C113.327 128.969 113.805 129.384 114.356 129.345L123.334 128.712C123.885 128.673 124.3 128.195 124.261 127.644C124.222 127.093 123.744 126.678 123.193 126.717L115.213 127.279L114.65 119.299C114.611 118.748 114.133 118.333 113.582 118.372C113.031 118.411 112.616 118.889 112.655 119.44L113.288 128.418ZM1.03658 -85.0402C14.178 -85.5211 29.3111 -80.4336 44.3696 -72.0953C59.4095 -63.7672 74.2784 -52.2499 86.8633 -40.0059C99.4542 -27.756 109.713 -14.8235 115.571 -3.68667C118.502 1.88565 120.3 6.95136 120.773 11.2218C121.244 15.4821 120.388 18.843 118.15 21.197L119.6 22.575C122.375 19.6555 123.272 15.6274 122.76 11.002C122.25 6.38666 120.333 1.07001 117.341 -4.61772C111.353 -16.001 100.942 -29.0994 88.258 -41.4393C75.5685 -53.7851 60.5592 -65.4168 45.3384 -73.8449C30.1362 -82.2628 14.6262 -87.5388 0.963437 -87.0388L1.03658 -85.0402ZM118.15 21.197C113.249 26.3528 109.095 27.9469 106.036 27.9002C102.982 27.8536 100.83 26.1752 99.8434 24.3623C99.3465 23.4491 99.1747 22.5568 99.2713 21.8597C99.3633 21.1956 99.6916 20.7007 100.284 20.4143C100.92 20.1071 102.002 19.9739 103.688 20.4089C105.363 20.8412 107.541 21.8121 110.274 23.5695L111.355 21.8874C108.514 20.0601 106.138 18.9754 104.188 18.4723C102.248 17.972 100.634 18.0239 99.414 18.6135C98.1507 19.224 97.4631 20.3376 97.2902 21.5851C97.1219 22.7998 97.4359 24.1222 98.0866 25.3182C99.3955 27.7238 102.185 29.8417 106.006 29.9C109.821 29.9582 114.475 27.966 119.6 22.575L118.15 21.197ZM110.274 23.5695C132.054 37.5789 150.5 85.111 113.531 127.692L115.041 129.003C152.809 85.5021 134.161 36.5559 111.355 21.8874L110.274 23.5695Z" fill="#0D83D0"/>
</svg>
