<svg width="207" height="149" viewBox="0 0 207 149" fill="none" xmlns="http://www.w3.org/2000/svg">
<path d="M205.305 124.916C206.446 125.694 206.741 127.249 205.963 128.39L193.29 146.982C192.512 148.123 190.957 148.417 189.816 147.639C188.675 146.862 188.381 145.306 189.159 144.166L200.423 127.64L183.898 116.375C182.757 115.597 182.462 114.042 183.24 112.901C184.018 111.76 185.573 111.466 186.714 112.243L205.305 124.916ZM0.0719615 3.29019C-0.0562281 1.91544 0.954308 0.69707 2.32906 0.568881C3.7038 0.440691 4.92218 1.45123 5.05037 2.82598L0.0719615 3.29019ZM5.05037 2.82598C7.6841 31.0711 27.323 67.1868 61.4141 93.4256C95.409 119.59 143.67 135.839 203.432 124.526L204.362 129.439C143.131 141.03 93.4343 124.38 58.3645 97.3879C23.3908 70.4699 2.85823 33.1712 0.0719615 3.29019L5.05037 2.82598Z" fill="#0D83D0"/>
</svg>
