<svg width="700" height="83" viewBox="0 0 700 83" fill="none" xmlns="http://www.w3.org/2000/svg">
<path d="M699.316 -60.4912C699.521 -61.8567 698.579 -63.1293 697.214 -63.3337C695.848 -63.5381 694.576 -62.5968 694.371 -61.2314L699.316 -60.4912ZM10.3578 -119.022C9.04394 -119.446 7.63482 -118.725 7.21037 -117.411L0.294244 -96.0004C-0.1302 -94.6866 0.590879 -93.2774 1.90474 -92.853C3.21861 -92.4286 4.62773 -93.1497 5.05217 -94.4635L11.1998 -113.495L30.2315 -107.348C31.5454 -106.923 32.9546 -107.644 33.379 -108.958C33.8034 -110.272 33.0823 -111.681 31.7685 -112.105L10.3578 -119.022ZM694.371 -61.2314C687.509 -15.388 661.52 16.9656 625.779 38.8612C589.968 60.7994 544.388 72.2088 498.655 75.9507C452.939 79.6912 407.27 75.7533 371.414 67.1649C353.481 62.8697 338.085 57.4306 326.392 51.2601C314.611 45.0432 306.967 38.2812 303.952 31.5422L299.388 33.5842C303.097 41.8751 311.971 49.3033 324.059 55.6822C336.235 62.1075 352.057 67.6699 370.249 72.0273C406.641 80.7441 452.842 84.7159 499.062 80.9341C545.265 77.1537 591.688 65.609 628.391 43.1247C665.163 20.5979 692.198 -12.9392 699.316 -60.4912L694.371 -61.2314ZM303.952 31.5422C297.346 16.7773 297.77 7.98228 300.137 3.19646C302.453 -1.48642 306.956 -2.9781 310.391 -2.54718C312.151 -2.32645 313.274 -1.64878 313.745 -1.04306C313.956 -0.77224 314.043 -0.516637 314.051 -0.250327C314.06 0.0285975 313.987 0.487371 313.602 1.14293C312.793 2.51768 310.782 4.44968 306.618 6.61926C302.506 8.76133 296.523 11.0182 288.106 13.177L289.348 18.0202C297.992 15.8032 304.367 13.4296 308.928 11.0535C313.436 8.70484 316.409 6.23084 317.911 3.6787C318.68 2.37081 319.094 0.98591 319.049 -0.413198C319.003 -1.82493 318.493 -3.08173 317.693 -4.11181C316.141 -6.1079 313.582 -7.18607 311.013 -7.5083C305.792 -8.16334 299.053 -5.88952 295.655 0.979549C292.308 7.74569 292.544 18.2891 299.388 33.5842L303.952 31.5422ZM288.106 13.177C254.618 21.7663 200.331 18.051 146.896 -2.45284C93.521 -22.9335 41.3694 -60.0228 11.8149 -117.781L7.3638 -115.504C37.6286 -56.357 90.9252 -18.5741 145.104 2.21529C199.223 22.9815 254.595 26.934 289.348 18.0202L288.106 13.177Z" fill="#0D83D0"/>
</svg>
