<svg width="559" height="196" viewBox="0 0 559 196" fill="none" xmlns="http://www.w3.org/2000/svg">
<path d="M1.02703 193.647C1.13689 195.023 2.34169 196.05 3.71803 195.94C5.09436 195.83 6.12104 194.625 6.01118 193.249L1.02703 193.647ZM552.665 93.8661C554.031 94.0617 555.298 93.1122 555.494 91.7454L558.68 69.4723C558.876 68.1055 557.927 66.8389 556.56 66.6434C555.193 66.4478 553.926 67.3973 553.731 68.7641L550.898 88.5624L531.1 85.7296C529.733 85.534 528.466 86.4835 528.271 87.8503C528.075 89.2171 529.025 90.4836 530.391 90.6792L552.665 93.8661ZM6.01118 193.249C-0.85231 107.263 62.6273 52.8058 132.849 25.7472C167.897 12.2418 204.37 5.68855 234.033 5.50401C248.869 5.41172 261.909 6.91328 272.177 9.87825C282.511 12.8626 289.682 17.2246 293.284 22.5692L297.43 19.7752C292.87 13.0083 284.363 8.19307 273.564 5.07454C262.698 1.93666 249.149 0.409878 234.002 0.504108C203.699 0.692621 166.63 7.37191 131.051 21.0816C60.0166 48.4534 -6.10026 104.356 1.02703 193.647L6.01118 193.249ZM293.284 22.5692C301.273 34.426 302.669 42.5129 301.719 47.4456C300.785 52.2903 297.566 54.4025 295.17 54.7239C293.919 54.8917 293.128 54.565 292.785 54.2519C292.564 54.0501 292.184 53.5527 292.53 52.2193C292.903 50.7829 294.103 48.6094 296.914 45.7579C299.697 42.9349 303.922 39.5868 310.079 35.7811L307.45 31.5281C301.073 35.4698 296.5 39.0561 293.353 42.2475C290.235 45.4104 288.374 48.3312 287.691 50.9621C286.98 53.6959 287.547 56.2387 289.412 57.9429C291.155 59.5358 293.588 59.9809 295.835 59.6795C300.435 59.0623 305.303 55.2712 306.629 48.3915C307.937 41.5999 305.763 32.1413 297.43 19.7752L293.284 22.5692ZM310.079 35.7811C334.529 20.6675 377.621 11.9964 423.316 18.6743C468.92 25.3388 516.803 47.2488 551.018 92.8909L555.019 89.8918C519.864 42.9971 470.686 20.5438 424.039 13.7268C377.483 6.92307 333.133 15.6519 307.45 31.5281L310.079 35.7811Z" fill="#0D83D0"/>
</svg>
