<svg width="294" height="236" viewBox="0 0 294 236" fill="none" xmlns="http://www.w3.org/2000/svg">
<path d="M34.0949 419.192C34.9632 420.266 36.5374 420.432 37.6109 419.564C38.6843 418.696 38.8507 417.121 37.9823 416.048L34.0949 419.192ZM432.852 25.1705C434.09 24.5596 434.598 23.0605 433.987 21.8224L424.032 1.64482C423.421 0.406637 421.922 -0.10186 420.683 0.509094C419.445 1.12001 418.937 2.61903 419.548 3.85722L428.397 21.7928L410.462 30.6424C409.223 31.2533 408.715 32.7523 409.326 33.9905C409.937 35.2287 411.436 35.7372 412.674 35.1263L432.852 25.1705ZM37.9823 416.048C-16.2655 348.983 5.33853 268.183 47.9865 206.18C69.2729 175.234 95.6622 149.218 120.032 132.305C132.221 123.846 143.828 117.717 153.975 114.362C164.187 110.985 172.569 110.532 178.56 112.906L180.402 108.258C172.817 105.252 163.077 106.085 152.405 109.614C141.667 113.165 129.626 119.561 117.181 128.198C92.2862 145.475 65.4753 171.932 43.8669 203.347C0.725315 266.067 -22.2381 349.549 34.0949 419.192L37.9823 416.048ZM178.56 112.906C191.851 118.175 197.573 124.058 199.576 128.665C201.543 133.189 200.08 136.751 198.285 138.37C197.348 139.215 196.51 139.393 196.051 139.328C195.754 139.287 195.159 139.091 194.692 137.795C194.188 136.399 193.949 133.928 194.658 129.987C195.359 126.086 196.953 120.936 199.883 114.317L195.31 112.293C192.276 119.149 190.529 124.692 189.737 129.103C188.951 133.474 189.066 136.936 189.988 139.493C190.947 142.149 192.852 143.927 195.353 144.279C197.692 144.609 199.95 143.601 201.634 142.083C205.08 138.975 206.955 133.096 204.161 126.671C201.403 120.328 194.265 113.753 180.402 108.258L178.56 112.906ZM199.883 114.317C211.515 88.0322 242.17 56.5291 283.644 36.2193C325.036 15.95 376.923 6.97161 430.942 25.296L432.548 20.5611C377.046 1.73374 323.784 10.9958 281.445 31.7288C239.189 52.4214 207.53 84.6824 195.31 112.293L199.883 114.317Z" fill="#0D83D0"/>
</svg>
