<svg width="126" height="628" viewBox="0 0 126 628" fill="none" xmlns="http://www.w3.org/2000/svg">
<path d="M123.954 671.904C124.498 672 125.017 671.637 125.113 671.093C125.209 670.55 124.847 670.031 124.303 669.935L123.954 671.904ZM27.23 1.08633C27.0548 0.562567 26.4882 0.279986 25.9644 0.455149L17.4292 3.30989C16.9054 3.48506 16.6228 4.0517 16.798 4.57546C16.9732 5.09923 17.5398 5.38181 18.0636 5.20659L25.6504 2.66904L28.188 10.2559C28.3632 10.7797 28.9298 11.0623 29.4536 10.8871C29.9773 10.712 30.2599 10.1453 30.0847 9.62154L27.23 1.08633ZM124.303 669.935C87.5033 663.426 61.2626 648.271 43.1599 628.418C25.0494 608.558 15.0279 583.934 10.7817 558.407C2.28022 507.299 16.9641 452.802 35.8868 426.248L34.258 425.087C15 452.112 0.228734 507.155 8.80884 558.735C13.1035 584.553 23.2569 609.56 41.6821 629.766C60.115 649.98 86.7705 665.327 123.954 671.904L124.303 669.935ZM35.8868 426.248C45.3262 413.001 54.5313 408.315 62.1044 408.04C69.6948 407.764 75.925 411.907 79.4535 416.902C81.2172 419.398 82.2668 422.055 82.4937 424.403C82.7202 426.747 82.1279 428.693 80.7309 429.979C79.324 431.274 76.9042 432.08 73.0915 431.703C69.282 431.326 64.201 429.774 57.6569 426.511L56.7643 428.3C63.4275 431.624 68.7533 433.284 72.8947 433.693C77.0329 434.102 80.1082 433.27 82.0851 431.451C84.0719 429.623 84.7521 426.981 84.4844 424.211C84.2172 421.446 83.006 418.464 81.087 415.748C77.2499 410.317 70.4263 405.736 62.0318 406.041C53.62 406.346 43.9089 411.544 34.258 425.087L35.8868 426.248ZM57.6569 426.511C31.2398 413.335 -17.569 390.055 -39.2663 328.795C-60.9743 267.505 -55.6377 167.901 27.1765 1.84983L25.3867 0.957224C-57.5164 167.187 -63.13 267.409 -41.1515 329.463C-19.1623 391.547 30.3521 415.128 56.7643 428.3L57.6569 426.511Z" fill="#0D83D0"/>
</svg>
