<svg width="333" height="246" viewBox="0 0 333 246" fill="none" xmlns="http://www.w3.org/2000/svg">
<path d="M331.617 248.313C332.802 247.606 333.191 246.071 332.484 244.885C331.776 243.699 330.242 243.311 329.056 244.018L331.617 248.313ZM-36.386 1.71132C-37.1386 0.553746 -38.6871 0.225461 -39.8447 0.978055L-58.7083 13.2424C-59.8658 13.995 -60.1941 15.5435 -59.4415 16.701C-58.6889 17.8586 -57.1404 18.1869 -55.9829 17.4343L-39.2152 6.53267L-28.3136 23.3004C-27.561 24.4579 -26.0125 24.7862 -24.8549 24.0336C-23.6974 23.281 -23.3691 21.7325 -24.1217 20.5749L-36.386 1.71132ZM329.056 244.018C308.765 256.116 280.395 261.163 249.186 260.97C218.032 260.778 184.329 255.366 153.601 246.812C122.852 238.253 95.2351 226.59 76.1959 213.99C66.6671 207.684 59.4214 201.23 54.9751 194.93C50.542 188.649 49.0391 182.754 50.4513 177.32L45.612 176.062C43.7082 183.389 45.9338 190.791 50.8901 197.813C55.8331 204.817 63.6376 211.674 73.4364 218.159C93.0526 231.142 121.201 242.983 152.26 251.629C183.338 260.28 217.485 265.774 249.155 265.97C280.772 266.165 310.2 261.082 331.617 248.313L329.056 244.018ZM50.4513 177.32C53.6647 164.953 58.7703 159.011 63.4338 156.55C68.086 154.096 72.7222 154.866 75.7 156.777C77.2046 157.743 78.1537 158.913 78.5518 159.946C78.9202 160.901 78.8359 161.727 78.3 162.482C77.6941 163.337 76.2724 164.425 73.2982 165.176C70.3513 165.92 66.1157 166.268 60.2713 165.847L59.9117 170.834C66.0774 171.279 70.887 170.942 74.5221 170.024C78.13 169.113 80.8271 167.563 82.3787 165.375C84.0002 163.088 84.112 160.467 83.2169 158.146C82.3514 155.902 80.5773 153.966 78.401 152.569C74.0166 149.755 67.4593 148.773 61.1005 152.128C54.753 155.477 49.0302 162.907 45.612 176.062L50.4513 177.32ZM60.2713 165.847C13.7361 162.491 -57.1472 103.169 -36.0363 3.59251L-40.9276 2.55552C-62.6706 105.114 10.3664 167.261 59.9117 170.834L60.2713 165.847Z" fill="#0D83D0"/>
</svg>
