<svg width="25" height="24" viewBox="0 0 25 24" fill="none" xmlns="http://www.w3.org/2000/svg">
<path d="M16.2727 5.99981C16.2735 6.13142 16.2482 6.26188 16.1985 6.38372C16.1487 6.50556 16.0754 6.61637 15.9827 6.70981L11.3927 11.2898C11.299 11.3828 11.2246 11.4934 11.1738 11.6152C11.123 11.7371 11.0969 11.8678 11.0969 11.9998C11.0969 12.1318 11.123 12.2625 11.1738 12.3844C11.2246 12.5062 11.299 12.6169 11.3927 12.7098L15.9827 17.2898C16.171 17.4781 16.2768 17.7335 16.2768 17.9998C16.2768 18.2661 16.171 18.5215 15.9827 18.7098C15.7944 18.8981 15.539 19.0039 15.2727 19.0039C15.1408 19.0039 15.0103 18.9779 14.8885 18.9275C14.7666 18.877 14.6559 18.8031 14.5627 18.7098L9.98271 14.1198C9.43514 13.5499 9.12933 12.7902 9.12933 11.9998C9.12933 11.2095 9.43514 10.4498 9.98271 9.87981L14.5627 5.28981C14.6557 5.19609 14.7663 5.12169 14.8881 5.07092C15.01 5.02015 15.1407 4.99401 15.2727 4.99401C15.4047 4.99401 15.5354 5.02015 15.6573 5.07092C15.7791 5.12169 15.8897 5.19609 15.9827 5.28981C16.0754 5.38325 16.1487 5.49407 16.1985 5.61591C16.2482 5.73774 16.2735 5.86821 16.2727 5.99981Z" fill="#151516"/>
</svg>
