<svg width="55" height="54" viewBox="0 0 55 54" fill="none" xmlns="http://www.w3.org/2000/svg">
<rect x="1.3125" y="0.5" width="53" height="53" rx="26.5" stroke="url(#paint0_linear_24_1349)"/>
<g clip-path="url(#clip0_24_1349)">
<path d="M34.186 9.5C32.3734 9.62537 30.2548 10.7856 29.0202 12.2965C27.8939 13.6671 26.9675 15.7028 27.3287 17.6812C29.3092 17.7428 31.3556 16.555 32.5413 15.0186C33.6505 13.5885 34.4899 11.5655 34.186 9.5Z" fill="url(#paint1_linear_24_1349)"/>
<path d="M41.3494 20.9069C39.609 18.7246 37.1631 17.4581 34.8533 17.4581C31.8039 17.4581 30.5141 18.9179 28.3954 18.9179C26.211 18.9179 24.5513 17.4623 21.9142 17.4623C19.3239 17.4623 16.5656 19.0454 14.8168 21.7527C12.3582 25.5649 12.7789 32.7325 16.7633 38.8376C18.1891 41.0221 20.0931 43.4785 22.5836 43.4998C24.8 43.521 25.4247 42.0782 28.4273 42.0633C31.4299 42.0463 31.9994 43.5189 34.2115 43.4955C36.7041 43.4764 38.7123 40.7543 40.1381 38.5698C41.1602 37.0037 41.5406 36.2153 42.3332 34.4473C36.5681 32.2522 35.6438 24.054 41.3494 20.9069Z" fill="url(#paint2_linear_24_1349)"/>
</g>
<defs>
<linearGradient id="paint0_linear_24_1349" x1="54.8125" y1="54" x2="-0.357643" y2="52.7768" gradientUnits="userSpaceOnUse">
<stop stop-color="#0D83D0"/>
<stop offset="1" stop-color="#284D95"/>
</linearGradient>
<linearGradient id="paint1_linear_24_1349" x1="34.2488" y1="17.6835" x2="27.0968" y2="17.5479" gradientUnits="userSpaceOnUse">
<stop stop-color="#0D83D0"/>
<stop offset="1" stop-color="#284D95"/>
</linearGradient>
<linearGradient id="paint2_linear_24_1349" x1="42.3332" y1="43.5" x2="12.6661" y2="42.7665" gradientUnits="userSpaceOnUse">
<stop stop-color="#0D83D0"/>
<stop offset="1" stop-color="#284D95"/>
</linearGradient>
<clipPath id="clip0_24_1349">
<rect width="34" height="34" fill="white" transform="translate(10.8125 9.5)"/>
</clipPath>
</defs>
</svg>
