<svg width="50" height="50" viewBox="0 0 50 50" fill="none" xmlns="http://www.w3.org/2000/svg">
<path fill-rule="evenodd" clip-rule="evenodd" d="M23.4824 0.094816C20.8493 0.398881 20.8126 0.257391 18.1456 0.972929C13.7098 2.16302 9.49415 4.88609 6.53039 8.13527C-2.69195 18.2457 -2.20211 34.051 8.06488 43.4492C12.5396 47.5453 18.5995 50.3076 26.5214 49.9754C33.1786 49.6962 39.1722 46.4164 43.4178 41.8948C50.0319 34.851 52.2232 22.9765 47.2592 13.6715C45.8194 10.9726 43.9877 8.48926 41.8584 6.58586C39.6915 4.64881 37.2176 3.01605 34.1738 1.78133C31.4336 0.669811 26.9688 -0.307749 23.4824 0.094816ZM11.6589 41.4618L13.2622 41.4804L13.8327 39.9709L16.6285 39.9296L17.2077 41.4891L18.759 41.4835C18.7526 41.0712 16.1889 34.2604 15.8166 33.3526L14.668 33.3338L11.6589 41.4618ZM14.3644 38.6882L16.1187 38.6911L15.2602 36.2172C15.0189 36.7517 14.4168 38.1709 14.3644 38.6882ZM34.7621 35.8457C30.911 36.4781 32.0135 42.3713 35.9561 41.5477C39.5835 40.7898 38.7954 35.1835 34.7621 35.8457ZM34.918 37.3014C32.9241 37.918 33.8716 40.6546 35.7259 40.1464C37.7065 39.6037 36.8279 36.7109 34.918 37.3014ZM20.4114 41.4696L22.2916 41.481C22.6668 40.3634 24.1665 36.6811 24.285 35.9108C22.7428 35.919 22.8603 35.804 22.661 36.2918L21.3638 39.7369C21.3557 39.7497 21.338 39.7757 21.3231 39.7936L19.8572 35.9328L18.3704 35.9143C18.4487 36.3692 20.2045 41.1722 20.4114 41.4696ZM28.5133 34.7723L28.5019 35.9022L27.3207 35.9236L27.3115 37.1425L28.5057 37.1541C28.5712 39.1099 27.7994 42.4272 31.8119 41.4049C31.8397 41.0118 31.7691 40.5097 31.625 40.2073C29.9427 40.3002 29.8719 40.0666 30.0522 37.1475L31.8679 37.1404L31.8647 35.9173L30.0365 35.9114L30.0369 34.4336L28.5143 34.383L28.5133 34.7723ZM24.9955 41.4821L26.4792 41.4793L26.4999 35.921L25.0137 35.9109C24.9103 36.3168 24.9104 40.9821 24.9955 41.4821ZM25.4743 33.347C24.2998 33.6624 24.6932 35.6344 26.0406 35.2237C27.1364 34.8896 26.756 33.0028 25.4743 33.347ZM18.36 7.77596C21.1578 7.77596 23.4258 10.0421 23.4258 12.8376C23.4258 15.633 21.1578 17.8992 18.36 17.8992C15.5623 17.8992 13.2943 15.633 13.2943 12.8376C13.2943 10.0421 15.5623 7.77596 18.36 7.77596ZM30.3136 18.4557C33.8099 18.4557 36.6443 21.2878 36.6443 24.7813C36.6443 28.2748 33.8099 31.1068 30.3136 31.1068C26.8172 31.1068 23.9828 28.2748 23.9828 24.7813C23.9828 21.2878 26.8172 18.4557 30.3136 18.4557ZM30.3136 8.72077C32.5891 8.72077 34.4337 10.5639 34.4337 12.8376C34.4337 15.1112 32.5891 16.9544 30.3136 16.9544C28.0381 16.9544 26.1934 15.1112 26.1934 12.8376C26.1934 10.5639 28.0381 8.72077 30.3136 8.72077ZM18.36 21.7558C20.0323 21.7558 21.388 23.1103 21.388 24.7813C21.388 26.4522 20.0323 27.8068 18.36 27.8068C16.6877 27.8068 15.3321 26.4522 15.3321 24.7813C15.3321 23.1103 16.6877 21.7558 18.36 21.7558Z" fill="url(#paint0_linear_2001_4810)"/>
<defs>
<linearGradient id="paint0_linear_2001_4810" x1="49.9692" y1="50.0024" x2="-1.11404" y2="48.8698" gradientUnits="userSpaceOnUse">
<stop stop-color="#0D83D0"/>
<stop offset="1" stop-color="#284D95"/>
</linearGradient>
</defs>
</svg>
