<svg width="38" height="38" viewBox="0 0 38 38" fill="none" xmlns="http://www.w3.org/2000/svg">
<path fill-rule="evenodd" clip-rule="evenodd" d="M17.8467 0.0719442C15.8455 0.303033 15.8176 0.195501 13.7907 0.73931C10.4194 1.64378 7.21555 3.71331 4.9631 6.18269C-2.04588 13.8667 -1.6736 25.8787 6.12931 33.0212C9.5301 36.1343 14.1356 38.2336 20.1563 37.9812C25.2157 37.769 29.7708 35.2763 32.9975 31.84C38.0242 26.4867 39.6896 17.462 35.917 10.3902C34.8228 8.33906 33.4306 6.45172 31.8124 5.00514C30.1656 3.53298 28.2854 2.29208 25.9721 1.35369C23.8895 0.50894 20.4963 -0.234005 17.8467 0.0719442ZM8.86079 31.5109L10.0793 31.525L10.5129 30.3778L12.6376 30.3464L13.0778 31.5316L14.2568 31.5273C14.252 31.214 12.3036 26.0378 12.0206 25.3479L11.1476 25.3336L8.86079 31.5109ZM10.9169 29.4029L12.2502 29.4052L11.5977 27.5249C11.4143 27.9312 10.9568 29.0098 10.9169 29.4029ZM26.4192 27.2426C23.4924 27.7232 24.3303 32.2021 27.3266 31.5761C30.0835 31.0001 29.4845 26.7393 26.4192 27.2426ZM26.5377 28.349C25.0223 28.8176 25.7424 30.8974 27.1517 30.5112C28.657 30.0987 27.9892 27.9002 26.5377 28.349ZM15.5127 31.5167L16.9416 31.5255C17.2268 30.6761 18.3665 27.8775 18.4566 27.2921C17.2845 27.2983 17.3738 27.2109 17.2224 27.5817L16.2365 30.1999C16.2303 30.2097 16.2169 30.2294 16.2055 30.243L15.0915 27.3088L13.9615 27.2947C14.021 27.6405 15.3554 31.2907 15.5127 31.5167ZM21.6701 26.4268L21.6615 27.2856L20.7638 27.3018L20.7568 28.2282L21.6643 28.237C21.7141 29.7234 21.1275 32.2445 24.1771 31.4676C24.1982 31.1689 24.1445 30.7872 24.035 30.5574C22.7564 30.628 22.7027 30.4505 22.8397 28.232L24.2196 28.2266L24.2172 27.297L22.8278 27.2926L22.828 26.1694L21.6709 26.131L21.6701 26.4268ZM18.9966 31.5263L20.1242 31.5242L20.1399 27.2999L19.0104 27.2922C18.9318 27.6006 18.9319 31.1463 18.9966 31.5263ZM19.3604 25.3436C18.4679 25.5833 18.7669 27.0821 19.7909 26.7699C20.6237 26.516 20.3345 25.082 19.3604 25.3436ZM13.9536 5.90961C16.0799 5.90961 17.8036 7.63189 17.8036 9.75643C17.8036 11.881 16.0799 13.6032 13.9536 13.6032C11.8273 13.6032 10.1037 11.881 10.1037 9.75643C10.1037 7.63189 11.8273 5.90961 13.9536 5.90961ZM23.0383 14.0262C25.6956 14.0262 27.8497 16.1786 27.8497 18.8337C27.8497 21.4887 25.6956 23.6411 23.0383 23.6411C20.3811 23.6411 18.227 21.4887 18.227 18.8337C18.227 16.1786 20.3811 14.0262 23.0383 14.0262ZM23.0383 6.62767C24.7677 6.62767 26.1696 8.02846 26.1696 9.75643C26.1696 11.4844 24.7677 12.8852 23.0383 12.8852C21.3089 12.8852 19.907 11.4844 19.907 9.75643C19.907 8.02846 21.3089 6.62767 23.0383 6.62767ZM13.9536 16.5343C15.2246 16.5343 16.2549 17.5637 16.2549 18.8337C16.2549 20.1036 15.2246 21.133 13.9536 21.133C12.6827 21.133 11.6524 20.1036 11.6524 18.8337C11.6524 17.5637 12.6827 16.5343 13.9536 16.5343Z" fill="#F0F0F0"/>
</svg>
