<svg width="32" height="15" viewBox="0 0 32 15" fill="none" xmlns="http://www.w3.org/2000/svg">
<path d="M31.5888 6.50568L25.9249 0.841807C25.4402 0.357046 24.7298 0.284607 24.1572 0.661678C23.5845 1.03875 23.3704 1.71995 23.6242 2.35684L24.9267 5.62503H8.02931C7.77043 5.62503 7.56055 5.83491 7.56055 6.0938C7.56055 6.35268 7.77043 6.56256 8.02931 6.56256H25.6181C25.7736 6.56256 25.9189 6.48549 26.0061 6.3568C26.0934 6.22811 26.1111 6.06461 26.0536 5.92023L24.495 2.00971C24.3638 1.68039 24.5979 1.49395 24.6727 1.44463C24.7475 1.39538 25.0113 1.25407 25.2619 1.50463L30.9258 7.16851C31.0144 7.25707 31.0631 7.37476 31.0631 7.49995C31.0631 7.62514 31.0144 7.74289 30.9258 7.83146L25.2619 13.4953C25.0112 13.746 24.7475 13.6046 24.6727 13.5553C24.5978 13.506 24.3638 13.3196 24.495 12.9903L26.0536 9.0798C26.1111 8.93536 26.0933 8.77185 26.0061 8.64323C25.9189 8.51453 25.7736 8.43747 25.6181 8.43747H22.2754C22.0165 8.43747 21.8067 8.64735 21.8067 8.90623C21.8067 9.16511 22.0165 9.37499 22.2754 9.37499H24.9267L23.6241 12.6432C23.3703 13.2801 23.5845 13.9613 24.1571 14.3383C24.4016 14.4994 24.6712 14.5784 24.9377 14.5784C25.2952 14.5784 25.6471 14.436 25.9249 14.1582L31.5888 8.49435C32.1371 7.94615 32.1371 7.05394 31.5888 6.50568Z" fill="url(#paint0_linear_666_4799)"/>
<path d="M20.4004 8.43756H0.93752V6.56252H6.15426C6.41314 6.56252 6.62302 6.35264 6.62302 6.09376C6.62302 5.83488 6.41314 5.625 6.15426 5.625H0.46876C0.209879 5.625 0 5.83488 0 6.09376V8.90632C0 9.1652 0.209879 9.37508 0.46876 9.37508H20.4004C20.6593 9.37508 20.8691 9.1652 20.8691 8.90632C20.8691 8.64744 20.6593 8.43756 20.4004 8.43756Z" fill="url(#paint1_linear_666_4799)"/>
<defs>
<linearGradient id="paint0_linear_666_4799" x1="32" y1="14.5784" x2="7.05523" y2="13.6236" gradientUnits="userSpaceOnUse">
<stop stop-color="#0D83D0"/>
<stop offset="1" stop-color="#284D95"/>
</linearGradient>
<linearGradient id="paint1_linear_666_4799" x1="20.8691" y1="9.37508" x2="-0.142822" y2="6.78254" gradientUnits="userSpaceOnUse">
<stop stop-color="#0D83D0"/>
<stop offset="1" stop-color="#284D95"/>
</linearGradient>
</defs>
</svg>
