<svg width="24" height="25" viewBox="0 0 24 25" fill="none" xmlns="http://www.w3.org/2000/svg">
<g clip-path="url(#clip0_422_5425)">
<path d="M2.91602 7.53125L4.16144 22.5657C4.25069 23.6499 5.17422 24.5 6.26256 24.5H17.7378C18.8261 24.5 19.7497 23.6499 19.8389 22.5657L21.0843 7.53125H2.91602ZM8.48387 21.6875C8.11581 21.6875 7.80616 21.4012 7.78281 21.0283L7.07969 9.68455C7.05564 9.29661 7.3502 8.96291 7.73748 8.93886C8.13916 8.91069 8.45847 9.20872 8.48317 9.59666L9.1863 20.9404C9.21119 21.3421 8.89333 21.6875 8.48387 21.6875ZM12.7033 20.9844C12.7033 21.373 12.3888 21.6875 12.0002 21.6875C11.6115 21.6875 11.297 21.373 11.297 20.9844V9.64062C11.297 9.25198 11.6115 8.9375 12.0002 8.9375C12.3888 8.9375 12.7033 9.25198 12.7033 9.64062V20.9844ZM16.9206 9.68459L16.2175 21.0283C16.1944 21.3974 15.8868 21.705 15.4718 21.6861C15.0845 21.6621 14.79 21.3284 14.814 20.9405L15.5171 9.5967C15.5412 9.20877 15.8811 8.92653 16.2628 8.93891C16.6501 8.96295 16.9447 9.29666 16.9206 9.68459Z" fill="white"/>
<path d="M21.1406 3.3125H16.9219V2.60938C16.9219 1.44622 15.9757 0.5 14.8125 0.5H9.1875C8.02434 0.5 7.07812 1.44622 7.07812 2.60938V3.3125H2.85938C2.0827 3.3125 1.45312 3.94208 1.45312 4.71875C1.45312 5.49533 2.0827 6.125 2.85938 6.125C9.32653 6.125 14.6737 6.125 21.1406 6.125C21.9173 6.125 22.5469 5.49533 22.5469 4.71875C22.5469 3.94208 21.9173 3.3125 21.1406 3.3125ZM15.5156 3.3125H8.48438V2.60938C8.48438 2.22144 8.79956 1.90625 9.1875 1.90625H14.8125C15.2004 1.90625 15.5156 2.22144 15.5156 2.60938V3.3125Z" fill="white"/>
</g>
<defs>
<clipPath id="clip0_422_5425">
<rect width="24" height="24" fill="white" transform="translate(0 0.5)"/>
</clipPath>
</defs>
</svg>
