<svg width="24" height="25" viewBox="0 0 24 25" fill="none" xmlns="http://www.w3.org/2000/svg">
<path d="M23.25 11.75H0.75C0.3 11.75 0 11.45 0 11C0 10.55 0.3 10.25 0.75 10.25H23.25C23.7 10.25 24 10.55 24 11C24 11.45 23.7 11.75 23.25 11.75Z" fill="#FFFFFF"/>
<path d="M5.25 11.7501C5.175 11.7501 5.025 11.7501 4.95 11.6751C4.575 11.5251 4.425 11.0751 4.575 10.7001L7.575 3.95006C7.725 3.57506 8.175 3.42506 8.55 3.57506C8.925 3.72506 9.075 4.17506 8.925 4.55006L5.925 11.3001C5.775 11.6001 5.55 11.7501 5.25 11.7501Z" fill="#FFFFFF"/>
<path d="M18.75 11.7501C18.45 11.7501 18.225 11.6001 18.075 11.3001L15.075 4.55006C14.925 4.17506 15.075 3.72506 15.45 3.57506C15.825 3.42506 16.275 3.57506 16.425 3.95006L19.425 10.7001C19.575 11.0751 19.425 11.5251 19.05 11.6751C18.975 11.7501 18.825 11.7501 18.75 11.7501Z" fill="#FFFFFF"/>
<path d="M1.875 11V11.15L3.525 19.7C3.75 20.75 4.65 21.5 5.775 21.5H18.3C19.35 21.5 20.325 20.75 20.475 19.7L22.125 11.15C22.125 11.075 22.125 11.075 22.125 11H1.875ZM8.4 18.5C8.325 18.5 8.325 18.5 8.25 18.5C7.875 18.5 7.575 18.275 7.5 17.9L6.75 14.15C6.675 13.7 6.9 13.325 7.35 13.25C7.725 13.175 8.175 13.4 8.25 13.85L9 17.6C9.075 17.975 8.775 18.425 8.4 18.5ZM12.75 17.75C12.75 18.125 12.375 18.5 12 18.5C11.625 18.5 11.25 18.125 11.25 17.75V14C11.25 13.625 11.625 13.25 12 13.25C12.375 13.25 12.75 13.625 12.75 14V17.75ZM17.25 14.15L16.5 17.9C16.425 18.275 16.125 18.5 15.75 18.5C15.675 18.5 15.675 18.5 15.6 18.5C15.225 18.425 14.925 18.05 15 17.6L15.75 13.85C15.825 13.475 16.2 13.175 16.65 13.25C17.025 13.325 17.325 13.7 17.25 14.15Z" fill="#FFFFFF"/>
</svg>
