<svg width="40" height="40" viewBox="0 0 40 40" fill="none" xmlns="http://www.w3.org/2000/svg">
<path d="M32.8001 14.6H4.0001C2.6721 14.6 1.6001 13.528 1.6001 12.2C1.6001 10.872 2.6721 9.80004 4.0001 9.80004H32.8001C34.1281 9.80004 35.2001 10.872 35.2001 12.2C35.2001 13.528 34.1281 14.6 32.8001 14.6ZM25.1601 7.40004H27.9601L24.2321 1.18404C23.8881 0.616038 23.1521 0.432038 22.5841 0.776038C22.0161 1.12004 21.8321 1.85604 22.1761 2.42404L25.1601 7.40004ZM14.6321 2.41604C14.9761 1.84804 14.7921 1.11204 14.2241 0.768038C13.6561 0.424038 12.9201 0.608038 12.5761 1.17604L8.8481 7.39204H11.6481L14.6321 2.41604ZM23.5361 24.376C22.0081 26.04 21.0161 28.208 20.8321 30.6H9.8241C8.2961 30.6 6.9841 29.52 6.6881 28.024L4.4801 17H32.3201L31.5201 21.008C31.4161 21.008 31.3041 21 31.2001 21C29.3681 21 27.6481 21.472 26.1521 22.304L26.3121 20.712C26.3761 20.056 25.8961 19.464 25.2401 19.4C24.5841 19.336 23.9921 19.816 23.9281 20.472L23.5361 24.376ZM13.5121 26.88L12.8721 20.48C12.8081 19.824 12.2161 19.336 11.5601 19.408C10.9041 19.472 10.4161 20.064 10.4881 20.72L11.1281 27.12C11.1921 27.776 11.7841 28.264 12.4401 28.192C13.0961 28.128 13.5761 27.544 13.5121 26.88ZM19.6001 20.6C19.6001 19.936 19.0641 19.4 18.4001 19.4C17.7361 19.4 17.2001 19.936 17.2001 20.6V27C17.2001 27.664 17.7361 28.2 18.4001 28.2C19.0641 28.2 19.6001 27.664 19.6001 27V20.6ZM39.2001 31.4C39.2001 35.816 35.6161 39.4 31.2001 39.4C26.7841 39.4 23.2001 35.816 23.2001 31.4C23.2001 26.984 26.7841 23.4 31.2001 23.4C35.6161 23.4 39.2001 26.984 39.2001 31.4ZM35.6001 31.4C35.6001 30.736 35.0641 30.2 34.4001 30.2H32.4001V28.2C32.4001 27.536 31.8641 27 31.2001 27C30.5361 27 30.0001 27.536 30.0001 28.2V30.2H28.0001C27.3361 30.2 26.8001 30.736 26.8001 31.4C26.8001 32.064 27.3361 32.6 28.0001 32.6H30.0001V34.6C30.0001 35.264 30.5361 35.8 31.2001 35.8C31.8641 35.8 32.4001 35.264 32.4001 34.6V32.6H34.4001C35.0641 32.6 35.6001 32.064 35.6001 31.4Z" fill="white"/>
</svg>
