<svg width="31" height="31" viewBox="0 0 31 31" fill="none" xmlns="http://www.w3.org/2000/svg">
<path d="M16.5833 23H6.58331C5.83331 23 5.33331 22.5 5.33331 21.75C5.33331 21 5.83331 20.5 6.58331 20.5H16.5833C17.3333 20.5 17.8333 21 17.8333 21.75C17.8333 22.5 17.3333 23 16.5833 23Z" fill="white"/>
<path d="M24.0833 16.75H6.58331C5.83331 16.75 5.33331 16.25 5.33331 15.5C5.33331 14.75 5.83331 14.25 6.58331 14.25H24.0833C24.8333 14.25 25.3333 14.75 25.3333 15.5C25.3333 16.25 24.8333 16.75 24.0833 16.75Z" fill="white"/>
<path d="M24.0833 10.5H14.0833C13.3333 10.5 12.8333 10 12.8333 9.25C12.8333 8.5 13.3333 8 14.0833 8H24.0833C24.8333 8 25.3333 8.5 25.3333 9.25C25.3333 10 24.8333 10.5 24.0833 10.5Z" fill="white"/>
</svg>
