<svg width="24" height="25" viewBox="0 0 24 25" fill="none" xmlns="http://www.w3.org/2000/svg">
<g clip-path="url(#clip0_118_187)">
<path d="M12 0.5C5.38324 0.5 0 5.88273 0 12.5C0 19.1173 5.38324 24.5 12 24.5C18.6173 24.5 24 19.1173 24 12.5C24 5.88273 18.6173 0.5 12 0.5ZM12 23.4565C5.95822 23.4565 1.04348 18.5413 1.04348 12.5C1.04348 6.45873 5.95822 1.54348 12 1.54348C18.0413 1.54348 22.9565 6.45873 22.9565 12.5C22.9565 18.5413 18.0413 23.4565 12 23.4565Z" fill="black"/>
<path d="M12 20.3261C11.7121 20.3261 11.4783 20.5592 11.4783 20.8478C11.4783 21.1365 11.7121 21.3696 12 21.3696C16.8908 21.3696 20.8696 17.3908 20.8696 12.5C20.8696 12.2114 20.6365 11.9783 20.3478 11.9783C20.0592 11.9783 19.8261 12.2114 19.8261 12.5C19.8261 16.8153 16.3153 20.3261 12 20.3261Z" fill="black"/>
<path d="M12 4.67391C12.2879 4.67391 12.5217 4.44081 12.5217 4.15217C12.5217 3.86353 12.2879 3.63043 12 3.63043C7.1092 3.63043 3.13043 7.6092 3.13043 12.5C3.13043 12.7886 3.3643 13.0217 3.65217 13.0217C3.94004 13.0217 4.17391 12.7886 4.17391 12.5C4.17391 8.1847 7.6847 4.67391 12 4.67391Z" fill="black"/>
<path d="M12 6.76086C11.7121 6.76086 11.4783 6.99397 11.4783 7.2826V12.5C11.4783 12.7886 11.7121 13.0217 12 13.0217H17.2174C17.506 13.0217 17.7391 12.7886 17.7391 12.5C17.7391 12.2114 17.506 11.9783 17.2174 11.9783H12.5217V7.2826C12.5217 6.99397 12.2879 6.76086 12 6.76086Z" fill="black"/>
<path d="M6.46644 17.2958L5.72867 18.0336C5.52461 18.2376 5.52461 18.5673 5.72867 18.7713C5.83031 18.873 5.96406 18.9242 6.09755 18.9242C6.23104 18.9242 6.36479 18.873 6.46644 18.7713L7.20421 18.0336C7.40827 17.8295 7.40827 17.4999 7.20421 17.2958C7.00015 17.0917 6.66999 17.0922 6.46644 17.2958Z" fill="black"/>
<path d="M17.1646 7.85706C17.2981 7.85706 17.4319 7.80586 17.5335 7.70421L18.2713 6.96644C18.4753 6.76238 18.4753 6.43273 18.2713 6.22867C18.0672 6.02461 17.7376 6.02461 17.5335 6.22867L16.7957 6.96644C16.5917 7.1705 16.5917 7.50015 16.7957 7.70421C16.8982 7.80586 17.0316 7.85706 17.1646 7.85706Z" fill="black"/>
</g>
<defs>
<clipPath id="clip0_118_187">
<rect width="24" height="24" fill="white" transform="translate(0 0.5)"/>
</clipPath>
</defs>
</svg>
