<svg width="56" height="55" viewBox="0 0 56 55" fill="none" xmlns="http://www.w3.org/2000/svg">
<path fill-rule="evenodd" clip-rule="evenodd" d="M28 0.625C22.6228 0.625 17.3664 2.21952 12.8954 5.20692C8.42449 8.19432 4.9398 12.4404 2.88204 17.4083C0.82428 22.3762 0.285877 27.8427 1.33491 33.1165C2.38395 38.3904 4.97331 43.2347 8.77555 47.037C12.5778 50.8392 17.4221 53.4286 22.696 54.4776C27.9699 55.5266 33.4364 54.9882 38.4042 52.9305C43.3721 50.8727 47.6182 47.388 50.6056 42.9171C53.593 38.4461 55.1875 33.1897 55.1875 27.8125C55.184 20.603 52.3185 13.6898 47.2206 8.59188C42.1227 3.49398 35.2095 0.628478 28 0.625ZM19.8363 25.2738C19.9233 25.1864 20.0268 25.1172 20.1407 25.0699C20.2546 25.0227 20.3767 24.9983 20.5 24.9983C20.6233 24.9983 20.7454 25.0227 20.8593 25.0699C20.9732 25.1172 21.0767 25.1864 21.1638 25.2738L27.0625 31.1744V12.8125C27.0625 12.5639 27.1613 12.3254 27.3371 12.1496C27.5129 11.9738 27.7514 11.875 28 11.875C28.2487 11.875 28.4871 11.9738 28.6629 12.1496C28.8387 12.3254 28.9375 12.5639 28.9375 12.8125V31.1744L34.8363 25.2738C35.0123 25.0977 35.2511 24.9988 35.5 24.9988C35.749 24.9988 35.9877 25.0977 36.1638 25.2738C36.3398 25.4498 36.4387 25.6885 36.4387 25.9375C36.4387 26.1865 36.3398 26.4252 36.1638 26.6012L28.6638 34.1012C28.5767 34.1886 28.4732 34.2578 28.3593 34.3051C28.2454 34.3523 28.1233 34.3767 28 34.3767C27.8767 34.3767 27.7546 34.3523 27.6407 34.3051C27.5268 34.2578 27.4233 34.1886 27.3363 34.1012L19.8363 26.6012C19.749 26.5142 19.6797 26.4107 19.6324 26.2968C19.5852 26.1829 19.5608 26.0608 19.5608 25.9375C19.5608 25.8142 19.5852 25.6921 19.6324 25.5782C19.6797 25.4643 19.749 25.3608 19.8363 25.2738ZM42.0625 39.0625C42.0625 39.3111 41.9637 39.5496 41.7879 39.7254C41.6121 39.9012 41.3736 40 41.125 40H14.875C14.6264 40 14.3879 39.9012 14.2121 39.7254C14.0363 39.5496 13.9375 39.3111 13.9375 39.0625V34.6881C13.9375 34.4395 14.0363 34.201 14.2121 34.0252C14.3879 33.8494 14.6264 33.7506 14.875 33.7506C15.1237 33.7506 15.3621 33.8494 15.5379 34.0252C15.7137 34.201 15.8125 34.4395 15.8125 34.6881V38.125H40.1875V34.6881C40.1875 34.4395 40.2863 34.201 40.4621 34.0252C40.6379 33.8494 40.8764 33.7506 41.125 33.7506C41.3736 33.7506 41.6121 33.8494 41.7879 34.0252C41.9637 34.201 42.0625 34.4395 42.0625 34.6881V39.0625Z" fill="url(#paint0_linear_24_1322)"/>
<defs>
<linearGradient id="paint0_linear_24_1322" x1="55.1875" y1="55" x2="-0.365769" y2="53.7683" gradientUnits="userSpaceOnUse">
<stop stop-color="#0D83D0"/>
<stop offset="1" stop-color="#284D95"/>
</linearGradient>
</defs>
</svg>
