<svg width="18" height="25" viewBox="0 0 18 25" fill="none" xmlns="http://www.w3.org/2000/svg">
<path d="M8.99999 0.5C4.11133 0.5 0.134277 4.47705 0.134277 9.36571C0.134277 10.9751 0.85605 12.706 0.886298 12.779C1.11941 13.3323 1.57939 14.1918 1.91107 14.6956L7.98982 23.906C8.23858 24.2836 8.60677 24.5 8.99999 24.5C9.39321 24.5 9.7614 24.2836 10.0102 23.9065L16.0894 14.6956C16.4216 14.1918 16.8811 13.3323 17.1142 12.779C17.1444 12.7065 17.8657 10.9756 17.8657 9.36571C17.8657 4.47705 13.8886 0.5 8.99999 0.5ZM16.1525 12.3743C15.9444 12.8703 15.5163 13.6698 15.2185 14.1214L9.13923 23.3323C9.01928 23.5143 8.98121 23.5143 8.86127 23.3323L2.782 14.1214C2.48421 13.6698 2.05605 12.8698 1.84797 12.3738C1.8391 12.3524 1.1773 10.7592 1.1773 9.36571C1.1773 5.05228 4.68656 1.54302 8.99999 1.54302C13.3134 1.54302 16.8227 5.05228 16.8227 9.36571C16.8227 10.7613 16.1593 12.3587 16.1525 12.3743Z" fill="black"/>
<path d="M9.00001 4.67261C6.41174 4.67261 4.3064 6.77847 4.3064 9.36622C4.3064 11.954 6.41174 14.0598 9.00001 14.0598C11.5883 14.0598 13.6936 11.954 13.6936 9.36622C13.6936 6.77847 11.5883 4.67261 9.00001 4.67261ZM9.00001 13.0168C6.98749 13.0168 5.34942 11.3793 5.34942 9.36622C5.34942 7.35318 6.98749 5.71563 9.00001 5.71563C11.0125 5.71563 12.6506 7.35318 12.6506 9.36622C12.6506 11.3793 11.0125 13.0168 9.00001 13.0168Z" fill="black"/>
</svg>
