<svg width="34" height="34" viewBox="0 0 34 34" fill="none" xmlns="http://www.w3.org/2000/svg">
<path fill-rule="evenodd" clip-rule="evenodd" d="M17 34C26.3888 34 34 26.3888 34 17C34 7.61116 26.3888 0 17 0C7.61116 0 0 7.61116 0 17C0 26.3888 7.61116 34 17 34ZM26 19V9C26 8.73478 25.8946 8.48043 25.7071 8.29289C25.5196 8.10536 25.2652 8 25 8H15C14.7348 8 14.4804 8.10536 14.2929 8.29289C14.1054 8.48043 14 8.73478 14 9C14 9.26522 14.1054 9.51957 14.2929 9.70711C14.4804 9.89464 14.7348 10 15 10H22.59L8.29 24.29C8.1017 24.4783 7.99591 24.7337 7.99591 25C7.99591 25.1319 8.02188 25.2624 8.07234 25.3842C8.1228 25.5061 8.19676 25.6168 8.29 25.71C8.38324 25.8032 8.49393 25.8772 8.61575 25.9277C8.73757 25.9781 8.86814 26.0041 9 26.0041C9.2663 26.0041 9.5217 25.8983 9.71 25.71L24 11.41V19C24 19.2652 24.1054 19.5196 24.2929 19.7071C24.4804 19.8946 24.7348 20 25 20C25.2652 20 25.5196 19.8946 25.7071 19.7071C25.8946 19.5196 26 19.2652 26 19Z" fill="white"/>
</svg>
