<svg width="17" height="15" viewBox="0 0 17 15" fill="none" xmlns="http://www.w3.org/2000/svg">
<path fill-rule="evenodd" clip-rule="evenodd" d="M12.6542 2.23121C11.5133 3.23151 10.332 4.21017 9.176 5.19557L0.47361 12.6126C-0.0558904 13.0636 -0.165523 13.7231 0.267677 14.2317C0.690877 14.728 1.35893 14.7429 1.88303 14.2976L10.6007 6.86695C11.7567 5.88135 12.9104 4.87041 14.0788 3.90211C14.0955 3.94521 13.8913 5.20245 13.8666 5.32935C13.7872 5.73755 13.7216 6.33779 13.6397 6.78199L13.3537 8.57935C13.3395 8.69895 13.3152 8.81033 13.2987 8.93873L12.8404 11.8294C12.7978 12.059 12.7545 12.2986 12.8562 12.573C13.089 13.202 13.7152 13.3973 14.1753 13.2698C14.8862 13.0725 14.9765 12.4667 15.0315 12.0188C15.0602 11.7861 15.1171 11.5329 15.1463 11.2996C15.1775 11.0521 15.228 10.8206 15.2617 10.5808L15.4315 9.50172C15.4559 9.36762 15.4676 9.25798 15.4911 9.12818L15.7156 7.69019C15.7604 7.44699 15.7918 7.21986 15.8292 6.97096L16.6902 1.53541C16.7534 1.16801 16.804 0.798304 16.4775 0.414804C16.101 -0.0276966 15.5888 0.0126438 15.0559 0.0256433L13.5851 0.0217371C13.0987 0.0115376 12.6153 0.0359955 12.1294 0.0192957C11.8896 0.011096 11.6434 0.0241718 11.401 0.0202723C9.95848 -0.00442791 8.46514 0.0222006 7.00474 0.00660038C6.75954 0.00380039 6.51636 0.0150242 6.26206 0.00562382C5.84646 -0.00997639 5.20958 0.0214472 4.79148 0.00464725C4.35438 -0.0125532 3.72615 -0.0167398 3.42625 0.63746C3.22615 1.07376 3.30237 1.71789 3.88547 2.05689C4.25798 2.27349 4.88969 2.18541 5.32969 2.20191C5.95439 2.22541 6.88594 2.18164 7.52854 2.20484L9.72715 2.20875C10.1552 2.19255 10.7725 2.2284 11.1971 2.2151C11.3397 2.2109 12.6108 2.20591 12.6542 2.23121Z" fill="black"/>
</svg>
