<svg width="43" height="72" viewBox="0 0 43 72" fill="none" xmlns="http://www.w3.org/2000/svg">
<mask id="mask0_7_21" style="mask-type:luminance" maskUnits="userSpaceOnUse" x="0" y="0" width="43" height="72">
<path fill-rule="evenodd" clip-rule="evenodd" d="M0 18.9C0.1 18.9 0.199997 18.9 0.199997 19C2.9 20.6 7.30001 21.4 10.6 21.7C15.7 22.2 20.7 22.7 25.7 23.2C28.6 23.5 33.1 24.1 35.3 26.1C38.8 29.2 30.4 36.2 28.3 38C27.4 38.7 28.5 40.1 29.3 39.5C32.1 37.2 35.6 34 37.3 30.6C41 23.1 29.2 21.7 24.7 21.2C16 20.4 11.3 20 10.6 19.9C7.30001 19.5 3.6 18.8 0.5 17C0.3 16.9 0.2 16.7 0 16.5V0H42.1V71.6H0V18.9ZM21.5 45.6L27 40C27.2 39.9 27.2 39.6 27 39.5C25.2 37.5 24 36.3 23.4 35.8C22.5 35.1 21.6 35.2 20.7 36C19.7 37 18.3 38.4 16.5 40.2C16.3 40.4 16.3 40.8 16.5 41L21.1 45.6C21.2 45.7 21.4 45.7 21.5 45.6ZM27.6 40.6L22.1 46.1C22 46.3 22 46.5 22.1 46.6L25.7 50.1C26.2 50.6 26.9 50.7 27.3 50.2L31.8 45.8C32.2 45.3 32.1 44.6 31.6 44.1L28.1 40.6C28 40.5 27.7 40.5 27.6 40.6ZM25.8 51.4L15.7 41.3C15.6 41.2 15.4 41.2 15.3 41.3L11.2 45.4C8.3 48.4 8.2 53 11.2 56C14.1 58.9 18.8 58.8 21.7 55.9L25.8 51.8C25.9 51.7 25.9 51.5 25.8 51.4Z" fill="white"/>
</mask>
<g mask="url(#mask0_7_21)">
<path d="M0 59H42V16H0V59Z" fill="url(#paint0_linear_7_21)"/>
</g>
<defs>
<linearGradient id="paint0_linear_7_21" x1="-9.94748e-07" y1="24.3611" x2="19.3001" y2="68.6038" gradientUnits="userSpaceOnUse">
<stop stop-color="#4CB501"/>
<stop offset="1" stop-color="#92E800"/>
</linearGradient>
</defs>
</svg>
