<svg width="182" height="90" viewBox="0 0 182 90" fill="none" xmlns="http://www.w3.org/2000/svg">
<path d="M0.331818 88V85.781L0.622159 85.7395C0.974716 85.6842 1.26679 85.5321 1.49837 85.2832C1.7334 85.0309 1.91314 84.6317 2.03757 84.0856C2.16546 83.536 2.24669 82.7877 2.28125 81.8406L2.44716 77.3818H10.1412V88H7.36222V79.6216H5.10171L4.9358 82.9605C4.87358 84.1979 4.70767 85.1847 4.43807 85.921C4.16847 86.6572 3.75888 87.1877 3.2093 87.5126C2.65973 87.8375 1.93561 88 1.03693 88H0.331818ZM17.0899 88.1452V85.9054H17.6084C17.9126 85.9054 18.1528 85.8812 18.3291 85.8328C18.5088 85.781 18.6471 85.6911 18.7438 85.5632C18.8441 85.4319 18.9288 85.2487 18.9979 85.0136L19.1016 84.7026L15.1198 77.3818H18.0646L20.2837 81.6955L21.9843 77.3818H24.8877L21.2377 85.6773C21.0372 86.1128 20.7987 86.5189 20.5222 86.8957C20.2457 87.269 19.9017 87.5714 19.4904 87.803C19.0791 88.0311 18.5693 88.1452 17.961 88.1452H17.0899ZM30.513 77.3818H33.292V80.7207C33.292 81.0526 33.349 81.3239 33.4631 81.5347C33.5806 81.7456 33.7759 81.9011 34.049 82.0013C34.3255 82.1016 34.7022 82.1517 35.1792 82.1517C35.2656 82.1517 35.4056 82.15 35.5992 82.1465C35.7962 82.1396 36.0088 82.131 36.2369 82.1206C36.465 82.1068 36.6741 82.0912 36.8642 82.0739C37.0578 82.0532 37.1943 82.0307 37.2738 82.0065V84.1841C37.1839 84.2152 37.0353 84.2429 36.8279 84.267C36.6205 84.2878 36.3976 84.3068 36.1591 84.3241C35.9241 84.3379 35.7132 84.35 35.5266 84.3604C35.3399 84.3673 35.2241 84.3707 35.1792 84.3707C34.246 84.3707 33.4285 84.2377 32.7269 83.9715C32.0252 83.7054 31.4808 83.3027 31.0937 82.7635C30.7066 82.2243 30.513 81.5434 30.513 80.7207V77.3818ZM36.7346 77.3818H39.5343V88H36.7346V77.3818ZM46.2731 77.3818H49.0728V85.781H51.6651V77.3818H54.4441V85.781H56.9742V77.3818H59.7532V88H46.2731V77.3818ZM65.8711 77.3818H68.7538V82.9398H68.8367L72.6112 77.3818H75.0583V88H72.1756V82.4213H72.1134L68.2768 88H65.8711V77.3818ZM80.4711 77.3818H83.3538V82.9398H83.4367L87.2112 77.3818H89.6583V88H86.7756V82.4213H86.7134L82.8768 88H80.4711V77.3818ZM86.112 74.5199H87.9163C87.9128 75.1939 87.6553 75.7331 87.1438 76.1375C86.6322 76.5384 85.9426 76.7389 85.0751 76.7389C84.2006 76.7389 83.5076 76.5384 82.996 76.1375C82.4845 75.7331 82.2304 75.1939 82.2339 74.5199H84.0174C84.0139 74.7376 84.0917 74.9381 84.2507 75.1213C84.4132 75.301 84.688 75.3909 85.0751 75.3909C85.4449 75.3909 85.7093 75.3028 85.8683 75.1265C86.0273 74.9502 86.1085 74.748 86.112 74.5199ZM111.175 80.7H109.889C109.813 80.3302 109.68 80.0053 109.49 79.7253C109.303 79.4453 109.075 79.2103 108.805 79.0202C108.539 78.8266 108.244 78.6814 107.919 78.5847C107.594 78.4879 107.255 78.4395 106.902 78.4395C106.26 78.4395 105.677 78.6019 105.155 78.9268C104.637 79.2518 104.224 79.7305 103.916 80.363C103.612 80.9955 103.46 81.7715 103.46 82.6909C103.46 83.6103 103.612 84.3863 103.916 85.0188C104.224 85.6513 104.637 86.1301 105.155 86.455C105.677 86.7799 106.26 86.9423 106.902 86.9423C107.255 86.9423 107.594 86.8939 107.919 86.7972C108.244 86.7004 108.539 86.5569 108.805 86.3668C109.075 86.1733 109.303 85.9365 109.49 85.6565C109.68 85.3731 109.813 85.0482 109.889 84.6818H111.175C111.078 85.2245 110.902 85.7101 110.646 86.1387C110.39 86.5673 110.072 86.932 109.692 87.2327C109.312 87.5299 108.885 87.7563 108.411 87.9119C107.941 88.0674 107.438 88.1452 106.902 88.1452C105.997 88.1452 105.192 87.924 104.486 87.4815C103.781 87.0391 103.227 86.41 102.822 85.5943C102.418 84.7786 102.216 83.8108 102.216 82.6909C102.216 81.571 102.418 80.6032 102.822 79.7875C103.227 78.9718 103.781 78.3427 104.486 77.9003C105.192 77.4579 105.997 77.2366 106.902 77.2366C107.438 77.2366 107.941 77.3144 108.411 77.47C108.885 77.6255 109.312 77.8536 109.692 78.1543C110.072 78.4516 110.39 78.8145 110.646 79.2431C110.902 79.6683 111.078 80.1539 111.175 80.7ZM117.302 88V77.3818H123.71V78.5224H118.587V82.1102H123.378V83.2509H118.587V86.8594H123.793V88H117.302ZM130.077 88V77.3818H133.664C134.497 77.3818 135.178 77.5322 135.707 77.8329C136.239 78.1301 136.633 78.5328 136.889 79.0409C137.145 79.549 137.273 80.1159 137.273 80.7415C137.273 81.3671 137.145 81.9357 136.889 82.4472C136.637 82.9588 136.246 83.3666 135.718 83.6708C135.189 83.9715 134.511 84.1219 133.685 84.1219H131.114V82.9812H133.644C134.214 82.9812 134.672 82.8827 135.018 82.6857C135.363 82.4887 135.614 82.2226 135.769 81.8873C135.928 81.5486 136.008 81.1666 136.008 80.7415C136.008 80.3163 135.928 79.9361 135.769 79.6009C135.614 79.2656 135.362 79.0029 135.012 78.8128C134.663 78.6192 134.2 78.5224 133.623 78.5224H131.362V88H130.077ZM143.393 88V77.3818H147.106C147.845 77.3818 148.455 77.5097 148.936 77.7655C149.416 78.0178 149.774 78.3583 150.009 78.7869C150.244 79.212 150.362 79.6838 150.362 80.2023C150.362 80.6585 150.28 81.0353 150.118 81.3325C149.959 81.6298 149.748 81.8648 149.485 82.0376C149.226 82.2105 148.944 82.3384 148.64 82.4213V82.525C148.965 82.5457 149.292 82.6598 149.62 82.8672C149.949 83.0746 150.223 83.3718 150.445 83.7589C150.666 84.1461 150.776 84.6196 150.776 85.1795C150.776 85.7118 150.655 86.1906 150.413 86.6157C150.171 87.0408 149.79 87.3778 149.268 87.6267C148.746 87.8756 148.067 88 147.23 88H143.393ZM144.679 86.8594H147.23C148.07 86.8594 148.666 86.6969 149.019 86.372C149.375 86.0437 149.553 85.6462 149.553 85.1795C149.553 84.8201 149.461 84.4883 149.278 84.1841C149.095 83.8765 148.834 83.6311 148.495 83.4479C148.156 83.2612 147.755 83.1679 147.292 83.1679H144.679V86.8594ZM144.679 82.048H147.064C147.451 82.048 147.8 81.972 148.111 81.8199C148.426 81.6678 148.675 81.4535 148.858 81.177C149.045 80.9005 149.138 80.5756 149.138 80.2023C149.138 79.7357 148.976 79.3399 148.651 79.015C148.326 78.6866 147.811 78.5224 147.106 78.5224H144.679V82.048ZM156.938 77.3818H158.203V85.7395H158.307L164.114 77.3818H165.358V88H164.072V79.6631H163.969L158.183 88H156.938V77.3818ZM180.525 80.7H179.239C179.163 80.3302 179.03 80.0053 178.84 79.7253C178.653 79.4453 178.425 79.2103 178.155 79.0202C177.889 78.8266 177.594 78.6814 177.269 78.5847C176.944 78.4879 176.605 78.4395 176.252 78.4395C175.61 78.4395 175.027 78.6019 174.505 78.9268C173.987 79.2518 173.574 79.7305 173.266 80.363C172.962 80.9955 172.81 81.7715 172.81 82.6909C172.81 83.6103 172.962 84.3863 173.266 85.0188C173.574 85.6513 173.987 86.1301 174.505 86.455C175.027 86.7799 175.61 86.9423 176.252 86.9423C176.605 86.9423 176.944 86.8939 177.269 86.7972C177.594 86.7004 177.889 86.5569 178.155 86.3668C178.425 86.1733 178.653 85.9365 178.84 85.6565C179.03 85.3731 179.163 85.0482 179.239 84.6818H180.525C180.428 85.2245 180.252 85.7101 179.996 86.1387C179.74 86.5673 179.422 86.932 179.042 87.2327C178.662 87.5299 178.235 87.7563 177.761 87.9119C177.291 88.0674 176.788 88.1452 176.252 88.1452C175.347 88.1452 174.542 87.924 173.836 87.4815C173.131 87.0391 172.577 86.41 172.172 85.5943C171.768 84.7786 171.566 83.8108 171.566 82.6909C171.566 81.571 171.768 80.6032 172.172 79.7875C172.577 78.9718 173.131 78.3427 173.836 77.9003C174.542 77.4579 175.347 77.2366 176.252 77.2366C176.788 77.2366 177.291 77.3144 177.761 77.47C178.235 77.6255 178.662 77.8536 179.042 78.1543C179.422 78.4516 179.74 78.8145 179.996 79.2431C180.252 79.6683 180.428 80.1539 180.525 80.7Z" fill="white"/>
<path fill-rule="evenodd" clip-rule="evenodd" d="M43.1047 0.0499878V71.5886H1V60.2585L17.9866 43.4836C35.1079 46.3169 34.2785 25.6845 32.2511 27.7028C22.4424 37.4661 26.0197 36.1904 17.8905 34.9196L17.0002 27.925L24.7943 19.7892C15.0672 16.9038 6.8006 25.4974 9.0099 34.2653L1 42.3674V0.0744019L43.1047 0.0499878Z" fill="white"/>
<mask id="mask0_7_19" style="mask-type:luminance" maskUnits="userSpaceOnUse" x="46" y="0" width="43" height="72">
<path fill-rule="evenodd" clip-rule="evenodd" d="M46.621 18.9C46.721 18.9 46.821 18.9 46.821 19C49.521 20.6 53.921 21.4 57.221 21.7C62.321 22.2 67.321 22.7 72.321 23.2C75.221 23.5 79.721 24.1 81.921 26.1C85.421 29.2 77.021 36.2 74.921 38C74.021 38.7 75.121 40.1 75.921 39.5C78.721 37.2 82.221 34 83.921 30.6C87.621 23.1 75.821 21.7 71.321 21.2C62.621 20.4 57.921 20 57.221 19.9C53.921 19.5 50.221 18.8 47.121 17C46.921 16.9 46.821 16.7 46.621 16.5V0H88.721V71.6H46.621V18.9ZM68.121 45.6L73.621 40C73.821 39.9 73.821 39.6 73.621 39.5C71.821 37.5 70.621 36.3 70.021 35.8C69.121 35.1 68.221 35.2 67.321 36C66.321 37 64.921 38.4 63.121 40.2C62.921 40.4 62.921 40.8 63.121 41L67.721 45.6C67.821 45.7 68.021 45.7 68.121 45.6ZM74.221 40.6L68.721 46.1C68.621 46.3 68.621 46.5 68.721 46.6L72.321 50.1C72.821 50.6 73.521 50.7 73.921 50.2L78.421 45.8C78.821 45.3 78.721 44.6 78.221 44.1L74.721 40.6C74.621 40.5 74.321 40.5 74.221 40.6ZM72.421 51.4L62.321 41.3C62.221 41.2 62.021 41.2 61.921 41.3L57.821 45.4C54.921 48.4 54.821 53 57.821 56C60.721 58.9 65.421 58.8 68.321 55.9L72.421 51.8C72.521 51.7 72.521 51.5 72.421 51.4Z" fill="white"/>
</mask>
<g mask="url(#mask0_7_19)">
<path d="M-99.2123 8207.28H2018.82V-43.2002H-99.2123V8207.28Z" fill="url(#paint0_linear_7_19)"/>
</g>
<path fill-rule="evenodd" clip-rule="evenodd" d="M134.511 71.5612H92.4058V58.1691C92.4058 57.3436 94.7577 57.3966 95.8598 57.9445C98.6516 59.3306 93.1884 60.9557 100.545 60.9557C101.506 60.9557 100.396 57.7197 102.744 57.6896C106.43 57.6443 102.34 61.829 108.556 57.8483C108.654 57.7859 106.55 51.1286 111.923 54.529L114.003 50.843C111.154 49.6451 111.207 46.4221 114.652 46.7546L114.753 42.3674C112.465 42.8763 110.193 40.3229 113.772 38.3786L111.76 34.694C106.073 37.5663 108.887 31.4064 108.542 31.2062C101.665 27.2332 106.824 31.5344 102.634 31.4318C100.449 31.3785 101.506 28.0739 100.488 28.0739L96.6969 28.5349C97.1317 32.7041 93.5079 31.5217 92.4058 29.6877V0.022644H134.511V71.5612ZM92.4058 53.0002V48.7575C99.8666 58.992 112.902 45.0841 103.187 38.2155C96.658 33.5998 93.1859 40.2375 92.4058 40.4645V35.7375C100.749 31.0711 109.35 36.5658 109.36 44.551C109.377 56.6751 94.7682 56.4361 92.4058 53.0002ZM126.309 27.5837C126.309 35.4689 114.33 35.47 114.33 27.5837C114.33 19.6946 126.309 19.6972 126.309 27.5837ZM124.658 27.5978C124.658 21.9087 116.018 21.9087 116.018 27.5978C116.018 33.2855 124.658 33.2855 124.658 27.5978ZM118.337 20.1257C116.184 20.7071 118.887 17.8565 114.993 19.8708C114.428 20.1631 116.224 23.5674 113.194 22.0554L111.971 24.1618C114.906 26.0854 111.004 25.4589 111.004 27.5837C111.004 29.7109 114.901 29.0908 111.967 31.009L113.184 33.1203C116.343 31.5539 113.813 34.6055 115.661 35.6696C117.497 36.725 118.936 33.0522 119.111 36.5461H121.545C121.761 33.0482 123.142 36.7341 124.995 35.675C126.859 34.6092 124.298 31.5723 127.473 33.1296L128.694 31.0178C125.766 29.0514 129.661 29.7419 129.661 27.5978C129.661 25.4562 125.771 26.1247 128.7 24.1765L127.482 22.0646C124.354 23.6299 126.841 20.5939 125.004 19.5153C123.164 18.4342 121.774 22.1477 121.559 18.6393H119.121C119.069 19.505 118.808 20.001 118.337 20.1257ZM116.056 42.9577C116.056 43.8662 118.161 43.7745 116.591 44.7961C115.288 45.6422 118.831 45.6474 118.178 46.3405L119.515 46.9802C119.89 46.4558 121.497 49.1662 121.55 47.5671C121.624 45.3541 123.675 49.1037 123.806 46.0134C123.819 45.7044 126.475 45.8515 124.937 44.3015C124.587 43.9498 127.217 42.5323 125.111 42.174C124.02 41.9887 126.885 40.2049 124.053 40.1491C123.602 40.14 124.042 37.6154 122.508 38.9279L120.309 38.3395C120.325 40.885 119.139 36.4839 117.711 40.1638C115.116 39.0124 118.012 43.0905 116.509 42.3039L116.056 42.9577Z" fill="white"/>
<mask id="mask1_7_19" style="mask-type:luminance" maskUnits="userSpaceOnUse" x="138" y="0" width="43" height="72">
<path fill-rule="evenodd" clip-rule="evenodd" d="M138.721 0H180.821V71.6H162.121H138.721V56.8C140.321 57.8 145.721 64.7 148.721 63.8L175.421 34.6C177.521 32.4 176.221 30.5 174.121 28.7C170.921 25.9 166.521 22.1 161.221 17.1C159.021 15.2 157.121 14.1 154.921 16.6L138.721 34.3V0ZM138.721 56.5V55.4L140.021 55.8C141.721 53.9 141.721 54.4 139.821 52.7L138.721 53.2V52C139.921 50.8 142.721 53.9 142.021 54.7C141.221 55.7 139.621 57.7 138.721 56.5ZM138.721 49.5V48.3L150.321 58.4L172.821 32.6L156.621 19L138.721 38.8V37.9C141.421 32.9 155.121 18.8 155.921 18L158.021 17.7C171.721 29.8 175.821 31.8 173.421 34.5C167.821 40.7 160.521 48.9 151.221 59.3C149.521 61.3 140.721 51.9 138.721 49.5Z" fill="white"/>
</mask>
<g mask="url(#mask1_7_19)">
<path d="M-98.879 8207.28H2019.16V-43.2002H-98.879V8207.28Z" fill="url(#paint1_linear_7_19)"/>
</g>
<defs>
<linearGradient id="paint0_linear_7_19" x1="46.3277" y1="35.7914" x2="88.4377" y2="35.7914" gradientUnits="userSpaceOnUse">
<stop stop-color="#4CB501"/>
<stop offset="1" stop-color="#92E800"/>
</linearGradient>
<linearGradient id="paint1_linear_7_19" x1="138.671" y1="35.8017" x2="180.781" y2="35.8017" gradientUnits="userSpaceOnUse">
<stop stop-color="#4CB501"/>
<stop offset="1" stop-color="#92E800"/>
</linearGradient>
</defs>
</svg>
