<svg width="168" height="93" viewBox="0 0 168 93" fill="none" xmlns="http://www.w3.org/2000/svg">
<path d="M0.331818 91V88.781L0.622159 88.7395C0.974716 88.6842 1.26679 88.5321 1.49837 88.2832C1.7334 88.0309 1.91314 87.6317 2.03757 87.0856C2.16546 86.536 2.24669 85.7877 2.28125 84.8406L2.44716 80.3818H10.1412V91H7.36222V82.6216H5.10171L4.9358 85.9605C4.87358 87.1979 4.70767 88.1847 4.43807 88.921C4.16847 89.6572 3.75888 90.1877 3.2093 90.5126C2.65973 90.8375 1.93561 91 1.03693 91H0.331818ZM15.9607 91.1452V88.9054H16.4792C16.7833 88.9054 17.0236 88.8812 17.1998 88.8328C17.3796 88.781 17.5178 88.6911 17.6146 88.5632C17.7149 88.4319 17.7995 88.2487 17.8687 88.0136L17.9724 87.7026L13.9905 80.3818H16.9354L19.1545 84.6955L20.855 80.3818H23.7584L20.1084 88.6773C19.908 89.1128 19.6695 89.5189 19.393 89.8957C19.1164 90.269 18.7725 90.5714 18.3612 90.803C17.9499 91.0311 17.4401 91.1452 16.8317 91.1452H15.9607ZM28.2546 80.3818H31.0336V83.7207C31.0336 84.0526 31.0906 84.3239 31.2046 84.5347C31.3222 84.7456 31.5175 84.9011 31.7905 85.0013C32.067 85.1016 32.4438 85.1517 32.9208 85.1517C33.0072 85.1517 33.1472 85.15 33.3407 85.1465C33.5377 85.1396 33.7503 85.131 33.9784 85.1206C34.2066 85.1068 34.4157 85.0912 34.6058 85.0739C34.7993 85.0532 34.9359 85.0307 35.0154 85.0065V87.1841C34.9255 87.2152 34.7769 87.2429 34.5695 87.267C34.3621 87.2878 34.1392 87.3068 33.9007 87.3241C33.6656 87.3379 33.4548 87.35 33.2681 87.3604C33.0815 87.3673 32.9657 87.3707 32.9208 87.3707C31.9875 87.3707 31.1701 87.2377 30.4684 86.9715C29.7668 86.7054 29.2224 86.3027 28.8353 85.7635C28.4481 85.2243 28.2546 84.5434 28.2546 83.7207V80.3818ZM34.4762 80.3818H37.2759V91H34.4762V80.3818ZM42.8854 80.3818H45.6851V88.781H48.2775V80.3818H51.0564V88.781H53.5866V80.3818H56.3655V91H42.8854V80.3818ZM61.3542 80.3818H64.2369V85.9398H64.3198L68.0943 80.3818H70.5414V91H67.6588V85.4213H67.5966L63.7599 91H61.3542V80.3818ZM74.825 80.3818H77.7077V85.9398H77.7906L81.5651 80.3818H84.0122V91H81.1295V85.4213H81.0673L77.2307 91H74.825V80.3818ZM80.4659 77.5199H82.2702C82.2667 78.1939 82.0092 78.7331 81.4977 79.1375C80.9861 79.5384 80.2965 79.7389 79.429 79.7389C78.5545 79.7389 77.8615 79.5384 77.3499 79.1375C76.8384 78.7331 76.5843 78.1939 76.5878 77.5199H78.3713C78.3679 77.7376 78.4456 77.9381 78.6046 78.1213C78.7671 78.301 79.0419 78.3909 79.429 78.3909C79.7988 78.3909 80.0632 78.3028 80.2222 78.1265C80.3812 77.9502 80.4625 77.748 80.4659 77.5199ZM103.27 83.7H101.984C101.908 83.3302 101.775 83.0053 101.585 82.7253C101.398 82.4453 101.17 82.2103 100.901 82.0202C100.635 81.8266 100.339 81.6814 100.014 81.5847C99.6892 81.4879 99.3505 81.4395 98.998 81.4395C98.3551 81.4395 97.7726 81.6019 97.2507 81.9268C96.7323 82.2518 96.3192 82.7305 96.0116 83.363C95.7074 83.9955 95.5553 84.7715 95.5553 85.6909C95.5553 86.6103 95.7074 87.3863 96.0116 88.0188C96.3192 88.6513 96.7323 89.1301 97.2507 89.455C97.7726 89.7799 98.3551 89.9423 98.998 89.9423C99.3505 89.9423 99.6892 89.8939 100.014 89.7972C100.339 89.7004 100.635 89.5569 100.901 89.3668C101.17 89.1733 101.398 88.9365 101.585 88.6565C101.775 88.3731 101.908 88.0482 101.984 87.6818H103.27C103.173 88.2245 102.997 88.7101 102.741 89.1387C102.486 89.5673 102.168 89.932 101.787 90.2327C101.407 90.5299 100.98 90.7563 100.507 90.9119C100.037 91.0674 99.5337 91.1452 98.998 91.1452C98.0924 91.1452 97.287 90.924 96.5819 90.4815C95.8768 90.0391 95.322 89.41 94.9176 88.5943C94.5132 87.7786 94.311 86.8108 94.311 85.6909C94.311 84.571 94.5132 83.6032 94.9176 82.7875C95.322 81.9718 95.8768 81.3427 96.5819 80.9003C97.287 80.4579 98.0924 80.2366 98.998 80.2366C99.5337 80.2366 100.037 80.3144 100.507 80.47C100.98 80.6255 101.407 80.8536 101.787 81.1543C102.168 81.4516 102.486 81.8145 102.741 82.2431C102.997 82.6683 103.173 83.1539 103.27 83.7ZM108.268 91V80.3818H114.676V81.5224H109.554V85.1102H114.344V86.2509H109.554V89.8594H114.759V91H108.268ZM119.914 91V80.3818H123.501C124.334 80.3818 125.015 80.5322 125.544 80.8329C126.076 81.1301 126.471 81.5328 126.726 82.0409C126.982 82.549 127.11 83.1159 127.11 83.7415C127.11 84.3671 126.982 84.9357 126.726 85.4472C126.474 85.9588 126.083 86.3666 125.555 86.6708C125.026 86.9715 124.348 87.1219 123.522 87.1219H120.951V85.9812H123.481C124.051 85.9812 124.509 85.8827 124.855 85.6857C125.2 85.4887 125.451 85.2226 125.606 84.8873C125.765 84.5486 125.845 84.1666 125.845 83.7415C125.845 83.3163 125.765 82.9361 125.606 82.6009C125.451 82.2656 125.199 82.0029 124.849 81.8128C124.5 81.6192 124.037 81.5224 123.46 81.5224H121.199V91H119.914ZM132.101 91V80.3818H135.813C136.553 80.3818 137.163 80.5097 137.644 80.7655C138.124 81.0178 138.482 81.3583 138.717 81.7869C138.952 82.212 139.069 82.6838 139.069 83.2023C139.069 83.6585 138.988 84.0353 138.826 84.3325C138.667 84.6298 138.456 84.8648 138.193 85.0376C137.934 85.2105 137.652 85.3384 137.348 85.4213V85.525C137.673 85.5457 138 85.6598 138.328 85.8672C138.656 86.0746 138.931 86.3718 139.152 86.7589C139.374 87.1461 139.484 87.6196 139.484 88.1795C139.484 88.7118 139.363 89.1906 139.121 89.6157C138.879 90.0408 138.497 90.3778 137.975 90.6267C137.454 90.8756 136.774 91 135.938 91H132.101ZM133.387 89.8594H135.938C136.778 89.8594 137.374 89.6969 137.727 89.372C138.083 89.0437 138.261 88.6462 138.261 88.1795C138.261 87.8201 138.169 87.4883 137.986 87.1841C137.803 86.8765 137.542 86.6311 137.203 86.4479C136.864 86.2612 136.463 86.1679 136 86.1679H133.387V89.8594ZM133.387 85.048H135.772C136.159 85.048 136.508 84.972 136.819 84.8199C137.134 84.6678 137.383 84.4535 137.566 84.177C137.753 83.9005 137.846 83.5756 137.846 83.2023C137.846 82.7357 137.683 82.3399 137.358 82.015C137.034 81.6866 136.519 81.5224 135.813 81.5224H133.387V85.048ZM144.517 80.3818H145.782V88.7395H145.886L151.693 80.3818H152.937V91H151.651V82.6631H151.547L145.761 91H144.517V80.3818ZM166.974 83.7H165.688C165.612 83.3302 165.479 83.0053 165.289 82.7253C165.102 82.4453 164.874 82.2103 164.605 82.0202C164.338 81.8266 164.043 81.6814 163.718 81.5847C163.393 81.4879 163.054 81.4395 162.702 81.4395C162.059 81.4395 161.477 81.6019 160.955 81.9268C160.436 82.2518 160.023 82.7305 159.715 83.363C159.411 83.9955 159.259 84.7715 159.259 85.6909C159.259 86.6103 159.411 87.3863 159.715 88.0188C160.023 88.6513 160.436 89.1301 160.955 89.455C161.477 89.7799 162.059 89.9423 162.702 89.9423C163.054 89.9423 163.393 89.8939 163.718 89.7972C164.043 89.7004 164.338 89.5569 164.605 89.3668C164.874 89.1733 165.102 88.9365 165.289 88.6565C165.479 88.3731 165.612 88.0482 165.688 87.6818H166.974C166.877 88.2245 166.701 88.7101 166.445 89.1387C166.189 89.5673 165.871 89.932 165.491 90.2327C165.111 90.5299 164.684 90.7563 164.211 90.9119C163.741 91.0674 163.238 91.1452 162.702 91.1452C161.796 91.1452 160.991 90.924 160.286 90.4815C159.581 90.0391 159.026 89.41 158.622 88.5943C158.217 87.7786 158.015 86.8108 158.015 85.6909C158.015 84.571 158.217 83.6032 158.622 82.7875C159.026 81.9718 159.581 81.3427 160.286 80.9003C160.991 80.4579 161.796 80.2366 162.702 80.2366C163.238 80.2366 163.741 80.3144 164.211 80.47C164.684 80.6255 165.111 80.8536 165.491 81.1543C165.871 81.4516 166.189 81.8145 166.445 82.2431C166.701 82.6683 166.877 83.1539 166.974 83.7Z" fill="#2C2E35"/>
<path fill-rule="evenodd" clip-rule="evenodd" d="M42.5781 -6.10352e-05V71.5391H0.473389V60.209L17.46 43.4341C34.5813 46.2674 33.7518 25.6351 31.7245 27.6534C21.9158 37.4167 25.4931 36.1409 17.3639 34.8701L16.4735 27.8752L24.2677 19.7396C14.5406 16.8542 6.27389 25.448 8.48319 34.2159L0.473389 42.3177V0.0245667L42.5781 -6.10352e-05Z" fill="#2C2E35"/>
<mask id="mask0_45_29" style="mask-type:luminance" maskUnits="userSpaceOnUse" x="33" y="0" width="43" height="72">
<path fill-rule="evenodd" clip-rule="evenodd" d="M33.4642 18.9966C33.5642 18.9966 33.5642 18.9966 33.6642 18.9966C36.2642 20.6966 40.6642 21.4964 43.9642 21.7964C49.0642 22.2964 54.0642 22.7964 59.0642 23.2964C62.0642 23.5964 66.4642 24.1963 68.6642 26.1963C72.1642 29.2963 63.8642 36.1967 61.6642 38.0967C60.7642 38.7967 61.9642 40.1967 62.6642 39.5967C65.5642 37.1967 69.0642 33.9967 70.7642 30.5967C74.4642 23.0967 62.6642 21.6964 58.1642 21.2964C49.3642 20.4964 44.6642 19.9966 44.0642 19.9966C40.6642 19.4966 37.0642 18.8966 33.9642 16.9966C33.7642 16.8966 33.5642 16.6966 33.4642 16.4966V0.0966797H75.5642V71.5967H33.4642V18.9966ZM54.9642 45.5967L60.4642 40.0967C60.5642 39.8967 60.5642 39.6966 60.4642 39.4966C58.5642 37.5966 57.3642 36.3965 56.7642 35.8965C55.8642 35.1965 54.9642 35.1966 54.1642 35.9966C53.0642 36.9966 51.6642 38.3963 49.9642 40.1963C49.6642 40.4963 49.6642 40.7966 49.9642 40.9966L54.5642 45.5967C54.6642 45.6967 54.7642 45.6967 54.9642 45.5967ZM61.0642 40.6963L55.5642 46.1963C55.4642 46.2963 55.4642 46.5963 55.5642 46.6963L59.0642 50.1963C59.5642 50.6963 60.3642 50.6964 60.7642 50.2964L65.1642 45.7964C65.5642 45.3964 65.5642 44.6963 65.0642 44.1963L61.5642 40.6963C61.3642 40.4963 61.1642 40.4963 61.0642 40.6963ZM59.1642 51.4966L49.1642 41.3965C48.9642 41.2965 48.8642 41.2965 48.7642 41.3965L44.6642 45.4966C41.6642 48.3966 41.6642 53.0967 44.6642 56.0967C47.4642 58.8967 52.1642 58.8965 55.1642 55.8965L59.1642 51.7964C59.2642 51.6964 59.2642 51.5966 59.1642 51.4966Z" fill="white"/>
</mask>
<g mask="url(#mask0_45_29)">
<path d="M-116.136 390.878H2001.9V-7859.6H-116.136V390.878Z" fill="url(#paint0_linear_45_29)"/>
</g>
<path fill-rule="evenodd" clip-rule="evenodd" d="M121.651 71.6113H79.5457V58.219C79.5457 57.3935 81.8976 57.4466 82.9998 57.9945C85.7916 59.3806 80.3284 61.0057 87.6854 61.0057C88.6458 61.0057 87.536 57.77 89.884 57.7399C93.5704 57.6946 89.4803 61.8791 95.6964 57.8984C95.7936 57.836 93.6898 51.1789 99.0634 54.5793L101.143 50.8931C98.2935 49.6952 98.3468 46.4722 101.792 46.8047L101.893 42.4175C99.6045 42.9264 97.3331 40.3732 100.912 38.4289L98.8999 34.7439C93.2133 37.6162 96.0275 31.4563 95.6822 31.2561C88.8054 27.2831 93.9636 31.5847 89.7737 31.482C87.5893 31.4288 88.6458 28.1241 87.6282 28.1241L83.8368 28.585C84.2717 32.7542 80.6479 31.5716 79.5457 29.7376V0.0725098H121.651V71.6113ZM79.5457 53.0503V48.8074C87.0065 59.0419 100.042 45.134 90.3268 38.2654C83.798 33.6497 80.3258 40.2876 79.5457 40.5146V35.7876C87.8892 31.1212 96.4896 36.6156 96.4998 44.6008C96.5168 56.7248 81.9081 56.4862 79.5457 53.0503ZM113.449 27.6337C113.449 35.5189 101.47 35.52 101.47 27.6337C101.47 19.7446 113.449 19.7472 113.449 27.6337ZM111.798 27.6479C111.798 21.9588 103.158 21.9588 103.158 27.6479C103.158 33.3356 111.798 33.3356 111.798 27.6479ZM105.477 20.1755C103.325 20.7569 106.027 17.9066 102.133 19.9209C101.568 20.2132 103.364 23.6176 100.334 22.1056L99.1113 24.212C102.046 26.1356 98.1444 25.5089 98.1444 27.6337C98.1444 29.7608 102.041 29.1406 99.1073 31.0588L100.324 33.1706C103.483 31.6042 100.953 34.6557 102.802 35.7198C104.637 36.7752 106.076 33.102 106.252 36.596H108.685C108.901 33.0981 110.282 36.7843 112.135 35.7252C113.999 34.6594 111.438 31.6224 114.613 33.1797L115.834 31.0679C112.906 29.1015 116.802 29.792 116.802 27.6479C116.802 25.5063 112.911 26.1747 115.84 24.2265L114.622 22.1147C111.494 23.68 113.981 20.6441 112.144 19.5655C110.304 18.4843 108.914 22.1977 108.7 18.6893H106.261C106.209 19.555 105.948 20.0508 105.477 20.1755ZM103.196 43.008C103.196 43.9165 105.301 43.8244 103.731 44.846C102.428 45.6921 105.971 45.6975 105.318 46.3906L106.655 47.0304C107.03 46.506 108.637 49.2162 108.69 47.6171C108.764 45.4041 110.815 49.1538 110.946 46.0635C110.959 45.7545 113.615 45.9013 112.077 44.3513C111.728 43.9996 114.357 42.5822 112.251 42.2239C111.16 42.0386 114.025 40.255 111.193 40.1991C110.742 40.1901 111.182 37.6655 109.648 38.978L107.449 38.3898C107.465 40.9353 106.279 36.5337 104.851 40.2136C102.256 39.0622 105.152 43.1404 103.649 42.3538L103.196 43.008Z" fill="#2C2E35"/>
<mask id="mask1_45_29" style="mask-type:luminance" maskUnits="userSpaceOnUse" x="125" y="0" width="43" height="72">
<path fill-rule="evenodd" clip-rule="evenodd" d="M125.464 0.0966797H167.564V71.5967H148.964H125.464V56.8965C127.064 57.7965 132.464 64.7964 135.564 63.7964L162.264 34.6963C164.264 32.3963 163.064 30.4964 160.964 28.7964C157.664 25.9964 153.364 22.0963 147.964 17.1963C145.864 15.2963 143.964 14.1967 141.764 16.5967L125.464 34.3965V0.0966797ZM125.464 56.4966V55.4966L126.764 55.8965C128.564 53.8965 128.564 54.3963 126.664 52.6963L125.464 53.1963V52.0967C126.664 50.7967 129.564 53.9963 128.864 54.6963C127.964 55.6963 126.464 57.6966 125.464 56.4966ZM125.464 49.5967V48.2964L137.164 58.4966L159.564 32.5967L143.464 19.0967L125.464 38.7964V37.8965C128.264 32.8965 141.964 18.8966 142.664 17.9966L144.764 17.7964C158.464 29.7964 162.664 31.7967 160.164 34.5967C154.664 40.6967 147.264 48.9965 138.064 59.3965C136.264 61.2965 127.564 51.8967 125.464 49.5967Z" fill="white"/>
</mask>
<g mask="url(#mask1_45_29)">
<path d="M-116.136 390.878H2001.9V-7859.6H-116.136V390.878Z" fill="url(#paint1_linear_45_29)"/>
</g>
<defs>
<linearGradient id="paint0_linear_45_29" x1="33.4643" y1="35.8379" x2="75.5743" y2="35.8379" gradientUnits="userSpaceOnUse">
<stop stop-color="#4CB501"/>
<stop offset="1" stop-color="#92E800"/>
</linearGradient>
<linearGradient id="paint1_linear_45_29" x1="125.484" y1="35.8479" x2="167.584" y2="35.8479" gradientUnits="userSpaceOnUse">
<stop stop-color="#4CB501"/>
<stop offset="1" stop-color="#92E800"/>
</linearGradient>
</defs>
</svg>
