<svg width="30" height="31" viewBox="0 0 30 31" fill="none" xmlns="http://www.w3.org/2000/svg">
<path fill-rule="evenodd" clip-rule="evenodd" d="M15 2.375C9.13198 2.375 4.375 7.13198 4.375 13C4.375 17.1238 7.04109 21.0339 9.82872 23.9764C11.2098 25.4342 12.5929 26.6254 13.6315 27.4525C14.1503 27.8656 14.5819 28.1868 14.8825 28.404C14.9243 28.4341 14.9635 28.4622 15 28.4883C15.0365 28.4622 15.0757 28.4341 15.1175 28.404C15.4181 28.1868 15.8497 27.8656 16.3685 27.4525C17.4071 26.6254 18.7902 25.4342 20.1713 23.9764C22.9589 21.0339 25.625 17.1238 25.625 13C25.625 7.13198 20.868 2.375 15 2.375ZM15 29.25C14.6533 29.77 14.6531 29.7699 14.6529 29.7698L14.6523 29.7693L14.6502 29.7679L14.6429 29.7631L14.6166 29.7452C14.5938 29.7297 14.5606 29.7071 14.5178 29.6774C14.4322 29.6182 14.308 29.5309 14.1507 29.4173C13.8361 29.1901 13.3887 28.8571 12.8529 28.4303C11.7821 27.5777 10.3527 26.3471 8.92128 24.8361C6.08391 21.8411 3.125 17.6262 3.125 13C3.125 6.44162 8.44162 1.125 15 1.125C21.5584 1.125 26.875 6.44162 26.875 13C26.875 17.6262 23.9161 21.8411 21.0787 24.8361C19.6473 26.3471 18.2179 27.5777 17.1471 28.4303C16.6113 28.8571 16.1639 29.1901 15.8493 29.4173C15.692 29.5309 15.5678 29.6182 15.4822 29.6774C15.4394 29.7071 15.4062 29.7297 15.3834 29.7452L15.3571 29.7631L15.3498 29.7679L15.3477 29.7693L15.3471 29.7698C15.3469 29.7699 15.3467 29.77 15 29.25ZM15 29.25L15.3467 29.77C15.1368 29.91 14.8632 29.91 14.6533 29.77L15 29.25Z" fill="#0078D2"/>
<path fill-rule="evenodd" clip-rule="evenodd" d="M10.625 13C10.625 10.5838 12.5838 8.625 15 8.625C17.4162 8.625 19.375 10.5838 19.375 13C19.375 15.4162 17.4162 17.375 15 17.375C12.5838 17.375 10.625 15.4162 10.625 13ZM15 9.875C13.2741 9.875 11.875 11.2741 11.875 13C11.875 14.7259 13.2741 16.125 15 16.125C16.7259 16.125 18.125 14.7259 18.125 13C18.125 11.2741 16.7259 9.875 15 9.875Z" fill="#0078D2"/>
</svg>
