<svg width="34" height="35" viewBox="0 0 34 35" fill="none" xmlns="http://www.w3.org/2000/svg">
<path d="M17 0.5C26.3888 0.5 34 8.11116 34 17.5C34 26.8888 26.3888 34.5 17 34.5C7.61116 34.5 0 26.8888 0 17.5C0 8.11116 7.61116 0.5 17 0.5ZM25.0762 19.0938C24.7283 19.11 24.3856 19.2511 24.1201 19.5166C23.8141 19.8226 23.6741 20.2321 23.7002 20.6328C23.7196 20.9293 23.5958 21.2176 23.3857 21.4277L20.5938 24.2207C20.3837 24.4307 20.0952 24.5534 19.7988 24.5342C19.3981 24.508 18.9877 24.6481 18.6816 24.9541C18.4162 25.2196 18.2759 25.5627 18.2598 25.9102C18.2529 26.0582 18.4152 26.1531 18.54 26.0732L19.4004 25.5234C19.5024 25.4585 19.6376 25.4716 19.7236 25.5576L20.124 25.958C20.2107 26.0449 20.2241 26.1802 20.1592 26.2822L19.6074 27.1436C19.5277 27.2684 19.6235 27.4307 19.7715 27.4238C20.1193 27.4077 20.462 27.2663 20.7275 27.001C21.0337 26.6949 21.1737 26.2846 21.1475 25.8838C21.1282 25.5873 21.2518 25.299 21.4619 25.0889L24.2549 22.2959C24.4649 22.086 24.7534 21.9631 25.0498 21.9824C25.4507 22.0084 25.8599 21.8685 26.166 21.5625C26.4314 21.297 26.5718 20.9539 26.5879 20.6064C26.5945 20.4586 26.4324 20.3635 26.3076 20.4434L25.4463 20.9951C25.3442 21.06 25.2091 21.046 25.123 20.96L24.7227 20.5596C24.6366 20.4736 24.6227 20.3384 24.6875 20.2363L25.2402 19.373C25.3195 19.2483 25.224 19.0869 25.0762 19.0938ZM9.54883 20.5654C8.96959 21.003 8.45288 21.5466 8.03613 22.1904C7.37344 23.2095 7 24.4163 7 25.6875C7.00012 26.6439 7.77766 27.4229 8.73828 27.4229H9.55273V27.4189C9.58605 24.5161 9.56328 22.7507 9.55078 21.6963C9.54454 21.209 9.54053 20.8446 9.54883 20.5654ZM11.5703 19.2998C11.1077 19.4332 10.657 19.6167 10.1943 19.873C9.78622 20.1 10.0531 20.0474 9.96973 27.4229H19.1914C19.1373 27.2562 19.16 27.071 19.2559 26.9189L19.7393 26.1641L19.5186 25.9414L18.7637 26.4248C18.3738 26.679 17.8237 26.394 17.8428 25.8916C17.8657 25.4269 18.0575 24.9894 18.3867 24.6602C18.7389 24.308 19.2061 24.1143 19.7041 24.1143C19.8126 24.1144 20.0554 24.1692 20.2979 23.9268L23.0918 21.1338C23.2251 21.0005 23.2945 20.8278 23.2842 20.6611C23.2654 20.3923 23.3066 20.1249 23.4004 19.877C23.3983 19.875 23.3945 19.873 23.3906 19.8711C22.8113 19.5502 22.45 19.4335 22.0186 19.3105C21.7603 19.2378 21.4961 19.4026 21.4482 19.665L20.9795 22.2656C20.8085 23.2075 19.9887 23.8906 19.0322 23.8906H14.5547C13.5982 23.8906 12.7763 23.2075 12.6074 22.2656L12.1367 19.6562C12.0888 19.3938 11.8265 19.225 11.5703 19.2998ZM21.7559 25.3828C21.6226 25.5162 21.552 25.6898 21.5645 25.8564C21.6047 26.5054 21.2961 27.1099 20.8789 27.4229H23.6172V23.5225L21.7559 25.3828ZM25.6426 22.334C25.4822 22.3798 25.3153 22.4033 25.1445 22.4033C25.0358 22.4032 24.7909 22.3487 24.5488 22.5908L24.0342 23.1055V27.4229H24.8486C25.8093 27.4229 26.5887 26.644 26.5889 25.6875C26.5888 24.4746 26.2469 23.3218 25.6426 22.334ZM20.6309 19.2812C20.6204 20.9379 18.9079 22.2781 16.7949 22.2783C14.6797 22.2783 12.9686 20.938 12.9561 19.2812C12.7914 19.2917 12.6245 19.31 12.46 19.335C12.5016 19.4099 12.5283 19.4937 12.5449 19.5811L13.0186 22.1924C13.1519 22.9363 13.7982 23.4736 14.5547 23.4736H19.0322C19.7866 23.4736 20.4329 22.9363 20.5684 22.1924L21.0391 19.5918C21.0557 19.5001 21.0853 19.4121 21.127 19.335C20.9624 19.312 20.7975 19.2937 20.6309 19.2812ZM21.3252 12.8564C20.8895 13.5068 20.768 14.5547 19.7764 14.5547C19.6431 14.5547 19.5117 14.5323 19.3867 14.4844C16.2224 13.2969 14.4938 14.5544 13.8105 14.5547C13.4 14.5547 13.0266 14.3295 12.8369 13.9648L12.2617 12.8584C11.995 13.1127 11.8659 13.6049 11.9805 14.1279C12.1139 14.7384 12.5292 15.1805 12.9521 15.1992C13.2116 16.3443 13.8796 17.6048 14.7822 18.416C14.6547 18.9064 14.2099 19.2626 13.6875 19.2627C13.6913 19.2625 13.575 19.2547 13.373 19.2588V19.2793C13.3836 20.7025 14.9173 21.8613 16.7949 21.8613C18.6702 21.8612 20.2063 20.7024 20.2168 19.2793V19.2627C20.0629 19.2627 19.9584 19.2647 19.9082 19.2627C19.3796 19.2627 18.9336 18.9016 18.8105 18.4053C18.9902 18.2452 19.1562 18.0728 19.3037 17.8955C19.4062 17.8428 20.3126 16.6241 20.6377 15.1992C21.5188 15.1507 22.0159 13.5151 21.3252 12.8564ZM19.1445 7.83008C17.5495 7.38164 15.9535 7.38992 14.3584 7.85449C13.6974 8.04715 13.1597 8.54107 12.9023 9.17969C12.4352 10.3389 12.2782 11.4345 12.6377 12.6748L13.208 13.7744C13.3672 14.0806 13.7307 14.2152 14.0537 14.0938C15.9547 13.3791 17.6324 13.3791 19.5332 14.0938C19.8564 14.2153 20.2198 14.0799 20.3789 13.7734L20.9502 12.6748L21.0098 12.4482C21.2828 11.3232 21.1296 10.3101 20.7109 9.24609C20.4384 8.55362 19.8609 8.03163 19.1445 7.83008Z" fill="white"/>
</svg>
