<svg width="30" height="30" viewBox="0 0 30 30" fill="none" xmlns="http://www.w3.org/2000/svg">
<path fill-rule="evenodd" clip-rule="evenodd" d="M15 1.875C12.5136 1.875 10.129 2.86272 8.37087 4.62087C6.61272 6.37903 5.625 8.7636 5.625 11.25C5.625 13.3875 6.675 15.915 8.20687 18.6263C9.7575 21.3694 11.895 24.4519 14.2369 27.7331L15 28.8019L15.7631 27.7331C18.1069 24.4519 20.2425 21.3694 21.7931 18.6263C23.325 15.915 24.375 13.3875 24.375 11.25C24.375 10.0189 24.1325 8.79977 23.6614 7.66234C23.1902 6.52492 22.4997 5.49142 21.6291 4.62087C20.7586 3.75032 19.7251 3.05977 18.5877 2.58863C17.4502 2.11749 16.2311 1.875 15 1.875ZM15 6.5625C13.7568 6.5625 12.5645 7.05636 11.6854 7.93544C10.8064 8.81451 10.3125 10.0068 10.3125 11.25C10.3125 12.4932 10.8064 13.6855 11.6854 14.5646C12.5645 15.4436 13.7568 15.9375 15 15.9375C16.2432 15.9375 17.4355 15.4436 18.3146 14.5646C19.1936 13.6855 19.6875 12.4932 19.6875 11.25C19.6875 10.0068 19.1936 8.81451 18.3146 7.93544C17.4355 7.05636 16.2432 6.5625 15 6.5625Z" fill="url(#paint0_linear_3020_5459)"/>
<defs>
<linearGradient id="paint0_linear_3020_5459" x1="24.375" y1="28.8019" x2="5.21385" y2="28.5061" gradientUnits="userSpaceOnUse">
<stop stop-color="#0D83D0"/>
<stop offset="1" stop-color="#284D95"/>
</linearGradient>
</defs>
</svg>
