<svg width="50" height="50" viewBox="0 0 50 50" fill="none" xmlns="http://www.w3.org/2000/svg">
<path d="M25 0C20.0555 0 15.222 1.46622 11.1108 4.21326C6.99953 6.9603 3.79521 10.8648 1.90302 15.4329C0.0108322 20.0011 -0.484251 25.0277 0.480379 29.8773C1.44501 34.7268 3.82603 39.1814 7.32234 42.6777C10.8187 46.174 15.2732 48.555 20.1228 49.5196C24.9723 50.4843 29.9989 49.9892 34.5671 48.097C39.1352 46.2048 43.0397 43.0005 45.7868 38.8893C48.5338 34.778 50 29.9445 50 25C50 18.3696 47.3661 12.0107 42.6777 7.32233C37.9893 2.63392 31.6304 0 25 0ZM25.0313 9.375C26.5953 9.38006 28.1227 9.84872 29.4204 10.7217C30.7181 11.5947 31.7278 12.8329 32.3219 14.2797C32.916 15.7265 33.0679 17.317 32.7582 18.85C32.4485 20.3831 31.6913 21.7899 30.5822 22.8927C29.473 23.9954 28.0619 24.7446 26.5271 25.0454C24.9923 25.3463 23.4027 25.1853 21.9593 24.5829C20.516 23.9805 19.2836 22.9637 18.4181 21.661C17.5526 20.3583 17.0927 18.8282 17.0966 17.2642C17.0996 16.2252 17.3072 15.1969 17.7076 14.2382C18.1079 13.2794 18.6932 12.4089 19.43 11.6763C20.1668 10.9437 21.0407 10.3634 22.0018 9.96855C22.9628 9.5737 23.9923 9.37201 25.0313 9.375ZM33.8892 28.2983C32.9217 29.2751 31.7537 30.0301 30.4659 30.5114C29.2116 30.962 27.9061 31.255 26.5796 31.3835C26.7784 31.5994 26.8636 31.7074 27 31.8324C28.7983 33.6392 30.6051 35.4403 32.3977 37.2557C32.6833 37.5153 32.877 37.8605 32.9498 38.2396C33.0225 38.6186 32.9704 39.0111 32.8011 39.358C32.6279 39.7375 32.3472 40.0579 31.9938 40.2796C31.6403 40.5013 31.2296 40.6144 30.8125 40.6051C30.3247 40.5557 29.8734 40.3244 29.5483 39.9574C28.1904 38.5909 26.8068 37.25 25.4773 35.858C25.0909 35.4517 24.9091 35.5284 24.5625 35.8807C23.196 37.3011 21.8068 38.6705 20.4119 40.0483C20.1532 40.3357 19.8059 40.5287 19.4252 40.5966C19.0444 40.6645 18.6519 40.6035 18.3097 40.4233C17.9383 40.2507 17.6249 39.9743 17.4071 39.6274C17.1893 39.2806 17.0766 38.8782 17.0824 38.4688C17.1241 37.9617 17.3603 37.4904 17.7415 37.1534C19.5237 35.375 21.3011 33.5947 23.0739 31.8125C23.1932 31.6932 23.3011 31.5682 23.4744 31.3864C21.0511 31.1335 18.8665 30.5341 16.9972 29.0739C16.7594 28.8963 16.5309 28.7067 16.3125 28.5057C15.4943 27.7216 15.4119 26.821 16.0597 25.892C16.6136 25.0994 17.5426 24.8864 18.5114 25.3409C18.6941 25.4346 18.8689 25.5429 19.0341 25.6648C20.7667 26.8414 22.8085 27.4794 24.9027 27.4986C26.997 27.5178 29.0501 26.9174 30.804 25.7727C31.1383 25.4993 31.525 25.2972 31.9404 25.179C32.3263 25.0662 32.739 25.0861 33.1124 25.2355C33.4857 25.3848 33.7982 25.655 34 26.0028C34.5256 26.8352 34.5199 27.6506 33.8892 28.2983ZM25.0199 21.1534C25.7869 21.1494 26.5355 20.9177 27.1706 20.4877C27.8058 20.0576 28.2989 19.4486 28.5874 18.7379C28.876 18.0273 28.947 17.2469 28.7914 16.4958C28.6358 15.7447 28.2606 15.0567 27.7134 14.5192C27.1663 13.9816 26.4718 13.6187 25.7181 13.4764C24.9644 13.3341 24.1854 13.4188 23.4799 13.7199C22.7744 14.0209 22.1742 14.5247 21.7555 15.1674C21.3367 15.81 21.1183 16.5626 21.1279 17.3295C21.1308 17.8366 21.234 18.3381 21.4315 18.8052C21.629 19.2722 21.9169 19.6956 22.2786 20.051C22.6403 20.4063 23.0687 20.6867 23.5392 20.8759C24.0096 21.0651 24.5128 21.1594 25.0199 21.1534Z" fill="url(#paint0_linear_223_931)"/>
<defs>
<linearGradient id="paint0_linear_223_931" x1="-11.1395" y1="25.1397" x2="50.0001" y2="25.0879" gradientUnits="userSpaceOnUse">
<stop stop-color="#4CB501"/>
<stop offset="1" stop-color="#92E800"/>
</linearGradient>
</defs>
</svg>
