<svg width="98" height="78" viewBox="0 0 98 78" fill="none" xmlns="http://www.w3.org/2000/svg">
<path d="M4.4234 77.3354L81.7599 0H93.4755L16.1404 77.3354H4.4234Z" fill="black"/>
<path d="M57.1552 77.3354C55.0417 73.9185 53.9262 69.981 53.9262 65.8569C53.9262 60.0149 56.2047 54.5474 60.307 50.4043C64.4093 46.2609 69.9179 44.0239 75.7595 44.0239C81.6014 44.0239 87.0689 46.302 91.1712 50.4043C98.4526 57.6859 99.4912 68.9256 94.2868 77.3354H82.8926C83.745 76.8039 84.5495 76.1681 85.289 75.4282C90.5499 70.1674 90.5499 61.5494 85.289 56.2886C82.6381 53.6377 79.1997 52.3115 75.7188 52.3115C72.2383 52.3115 68.7996 53.6377 66.1489 56.2886C63.581 58.8565 62.1722 62.2543 62.1722 65.8589C62.1722 69.4631 63.581 72.8589 66.1489 75.4282C66.8942 76.1681 67.7046 76.8039 68.5612 77.3354H57.1552Z" fill="black"/>
<path d="M21.7811 33.751C15.9397 33.751 10.4718 31.4729 6.36946 27.3706C-1.03974 19.9617 -1.98457 8.4541 3.53303 0H15.3487C14.2117 0.618198 13.1558 1.40561 12.2113 2.34961C6.95052 7.61041 6.95052 16.2288 12.2113 21.4893C17.3063 26.5846 26.2548 26.5846 31.3515 21.4893C33.9194 18.9217 35.3284 15.524 35.3284 11.9194C35.3284 8.31523 33.9194 4.91891 31.3515 2.34961C30.4081 1.40561 29.3521 0.617699 28.2154 0H40.0906C42.3952 3.5175 43.6141 7.64766 43.6141 11.96C43.6141 17.802 41.3364 23.2694 37.2341 27.4126C33.1313 31.5554 27.623 33.751 21.7811 33.751Z" fill="black"/>
</svg>
