<svg width="24" height="25" viewBox="0 0 24 25" fill="none" xmlns="http://www.w3.org/2000/svg">
<path d="M18.6931 14.8165C18.0352 14.3877 17.1488 14.3706 16.3796 14.7717C15.0357 15.4723 14.6116 15.816 14.0984 15.5645C11.5351 14.3089 9.90529 12.6791 8.64963 10.1158C8.39922 9.60472 8.73112 9.19924 9.4425 7.83458C9.8436 7.06527 9.82641 6.17878 9.39771 5.52101C8.3056 3.84529 6.92053 2.41513 5.281 1.27032C4.3891 0.647611 3.1125 0.824944 2.24547 1.69192L0.957081 2.98036C0.104567 3.83288 -0.102472 5.10574 0.341712 6.76348C1.91653 12.6407 11.5736 22.2979 17.4508 23.8726C18.8048 24.2354 20.2381 24.253 21.2339 23.2573L22.5223 21.9689C23.3894 21.1019 23.5667 19.8252 22.9439 18.9333C21.7989 17.2935 20.3688 15.9084 18.6931 14.8165ZM21.8783 21.3248L21.7027 21.5005C20.2171 20.2125 18.7762 18.8456 17.4161 17.4309C17.2418 17.2495 16.9536 17.2439 16.7723 17.4181C16.591 17.5924 16.5853 17.8806 16.7596 18.0619C18.1237 19.4809 19.5681 20.8524 21.0571 22.146L20.5899 22.6132C19.9841 23.2191 19.0072 23.347 17.6864 22.9929C12.1221 21.5021 2.71213 12.092 1.22114 6.5277C0.867277 5.20687 0.994983 4.23 1.60085 3.62413L2.06819 3.15679C3.437 4.73223 4.89179 6.25646 6.4002 7.69151C6.58231 7.8648 6.87056 7.85769 7.04385 7.67546C7.21714 7.49335 7.20997 7.2051 7.0278 7.03181C5.5248 5.60188 4.07581 4.0822 2.71367 2.51125L2.88924 2.33568C3.40166 1.82326 4.20921 1.63239 4.75965 2.01676C6.30294 3.09436 7.60675 4.44057 8.63483 6.01806C8.88421 6.40073 8.88432 6.9354 8.63506 7.41356C7.92453 8.77633 7.34564 9.52357 7.83188 10.5163C9.18373 13.2761 10.938 15.0304 13.6978 16.3822C14.6903 16.8684 15.4337 16.2917 16.8006 15.5791C17.2786 15.3298 17.8134 15.3299 18.196 15.5793C19.7733 16.6072 21.1196 17.9111 22.1973 19.4545C22.5609 19.9753 22.4238 20.7794 21.8783 21.3248Z" fill="black"/>
</svg>
