<svg width="55" height="54" viewBox="0 0 55 54" fill="none" xmlns="http://www.w3.org/2000/svg">
<rect x="1.3125" y="0.5" width="53" height="53" rx="26.5" stroke="url(#paint0_linear_24_1348)"/>
<path d="M22.3604 12.4798C21.1868 11.8311 19.8087 11.8461 18.6425 12.4892L32.3105 25.0978L36.9021 20.5062L22.3604 12.4798Z" fill="url(#paint1_linear_24_1348)"/>
<path d="M17.2757 13.7791C16.942 14.3247 16.7508 14.949 16.7508 15.6109V38.3833C16.7508 39.0246 16.9251 39.6358 17.2401 40.1701L30.985 26.4253L17.2757 13.7791Z" fill="url(#paint2_linear_24_1348)"/>
<path d="M42.9899 23.866L38.6101 21.4493L33.6886 26.369L39.7201 31.9318L42.9918 30.1263C44.1692 29.4738 44.8742 28.3039 44.8742 26.9952C44.8723 25.6865 44.1692 24.5166 42.9899 23.866Z" fill="url(#paint3_linear_24_1348)"/>
<path d="M32.363 27.6964L18.5807 41.4788C19.1787 41.82 19.835 42 20.4949 42C21.1324 42 21.7736 41.8387 22.3604 41.5144L37.9914 32.888L32.363 27.6964Z" fill="url(#paint4_linear_24_1348)"/>
<defs>
<linearGradient id="paint0_linear_24_1348" x1="54.8125" y1="54" x2="-0.357643" y2="52.7768" gradientUnits="userSpaceOnUse">
<stop stop-color="#0D83D0"/>
<stop offset="1" stop-color="#284D95"/>
</linearGradient>
<linearGradient id="paint1_linear_24_1348" x1="36.9021" y1="25.0978" x2="18.2555" y2="24.5215" gradientUnits="userSpaceOnUse">
<stop stop-color="#0D83D0"/>
<stop offset="1" stop-color="#284D95"/>
</linearGradient>
<linearGradient id="paint2_linear_24_1348" x1="30.985" y1="40.1701" x2="16.4372" y2="39.9962" gradientUnits="userSpaceOnUse">
<stop stop-color="#0D83D0"/>
<stop offset="1" stop-color="#284D95"/>
</linearGradient>
<linearGradient id="paint3_linear_24_1348" x1="44.8742" y1="31.9318" x2="33.4469" y2="31.6615" gradientUnits="userSpaceOnUse">
<stop stop-color="#0D83D0"/>
<stop offset="1" stop-color="#284D95"/>
</linearGradient>
<linearGradient id="paint4_linear_24_1348" x1="37.9914" y1="42" x2="18.1682" y2="41.4035" gradientUnits="userSpaceOnUse">
<stop stop-color="#0D83D0"/>
<stop offset="1" stop-color="#284D95"/>
</linearGradient>
</defs>
</svg>
