<svg width="100" height="100" viewBox="0 0 100 100" fill="none" xmlns="http://www.w3.org/2000/svg">
<path fill-rule="evenodd" clip-rule="evenodd" d="M12 0C5.37258 0 0 5.37258 0 12V88C0 94.6274 5.37258 100 12 100H88C94.6274 100 100 94.6274 100 88V12C100 5.37258 94.6274 0 88 0H12ZM69.4542 64.0521C70.1562 64.0521 70.8417 63.6979 71.2333 63.0563C71.8354 62.0729 71.5271 60.7917 70.5458 60.1917L53.9021 50L70.5458 39.8083C71.5271 39.2083 71.8354 37.9271 71.2333 36.9438C70.6333 35.9646 69.3542 35.6542 68.3688 36.2563L51.9979 46.2813V27.0833C51.9979 25.9312 51.0667 25 49.9146 25C48.7625 25 47.8312 25.9312 47.8312 27.0833V46.2813L31.4604 36.2563C30.475 35.6542 29.1958 35.9646 28.5958 36.9438C27.9937 37.9271 28.3021 39.2083 29.2833 39.8083L45.9271 50L29.2833 60.1917C28.3021 60.7917 27.9937 62.0729 28.5958 63.0563C28.9896 63.6979 29.6729 64.0521 30.375 64.0521C30.7437 64.0521 31.1208 63.9542 31.4604 63.7458L47.8312 53.7208V72.9188C47.8312 74.0708 48.7625 75.0021 49.9146 75.0021C51.0667 75.0021 51.9979 74.0708 51.9979 72.9188V53.7208L68.3688 63.7458C68.7083 63.9521 69.0833 64.0521 69.4542 64.0521Z" fill="white"/>
</svg>
