<svg width="50" height="32" viewBox="0 0 50 32" fill="none" xmlns="http://www.w3.org/2000/svg">
<g clip-path="url(#clip0_422_6128)">
<rect width="50" height="32" rx="3" fill="#EDEDF0"/>
<path d="M23.9696 16.827V21.2502H22.5664V10.3269H26.288C26.7322 10.3176 27.1739 10.3964 27.5875 10.5587C28.0011 10.721 28.3785 10.9636 28.6979 11.2726C29.0205 11.5627 29.2772 11.9186 29.4508 12.3162C29.6245 12.7138 29.711 13.144 29.7045 13.5778C29.7138 14.014 29.6286 14.447 29.4548 14.8472C29.2811 15.2473 29.0229 15.6052 28.6979 15.8962C28.0471 16.5168 27.2438 16.8268 26.288 16.8262H23.9696V16.827ZM23.9696 11.6717V15.4848H26.3229C26.5808 15.4925 26.8376 15.4462 27.0767 15.3489C27.3157 15.2517 27.5319 15.1056 27.7113 14.9201C27.8897 14.7466 28.0316 14.539 28.1284 14.3098C28.2253 14.0805 28.2752 13.8341 28.2752 13.5853C28.2752 13.3364 28.2253 13.09 28.1284 12.8607C28.0316 12.6315 27.8897 12.4239 27.7113 12.2505C27.5341 12.061 27.3187 11.9113 27.0794 11.8114C26.84 11.7115 26.5821 11.6636 26.3229 11.6709H23.9696V11.6717Z" fill="#5F6368"/>
<path d="M32.9402 13.5326C33.9773 13.5326 34.796 13.8098 35.3963 14.3641C35.9965 14.9184 36.2963 15.6784 36.2957 16.6441V21.2503H34.9535V20.2131H34.8925C34.3114 21.0673 33.5387 21.4943 32.5741 21.4943C31.7508 21.4943 31.062 21.2503 30.5076 20.7622C30.2416 20.5382 30.0289 20.2577 29.8851 19.941C29.7413 19.6244 29.6699 19.2797 29.6762 18.9319C29.6762 18.1586 29.9684 17.5435 30.553 17.0868C31.1375 16.6301 31.9178 16.4012 32.894 16.4C33.7272 16.4 34.4134 16.5526 34.9526 16.8576V16.5369C34.9542 16.2998 34.903 16.0654 34.8028 15.8506C34.7025 15.6358 34.5557 15.4459 34.373 15.2949C34.002 14.9601 33.5184 14.7774 33.0186 14.7833C32.2348 14.7833 31.6145 15.1139 31.1578 15.7751L29.9219 14.9968C30.6018 14.0207 31.6078 13.5326 32.9402 13.5326ZM31.1247 18.9624C31.1238 19.141 31.1655 19.3173 31.2465 19.4764C31.3274 19.6356 31.4452 19.7732 31.5901 19.8776C31.9005 20.1217 32.2857 20.251 32.6805 20.2436C33.2726 20.2427 33.8402 20.007 34.2589 19.5882C34.7237 19.1507 34.9561 18.6374 34.9561 18.0482C34.5186 17.6995 33.9085 17.5252 33.1258 17.5252C32.5558 17.5252 32.0805 17.6627 31.6999 17.9375C31.3156 18.2164 31.1247 18.5554 31.1247 18.9624Z" fill="#5F6368"/>
<path d="M43.9997 13.7767L39.3142 24.5449H37.8656L39.6044 20.7771L36.5234 13.7767H38.0487L40.2755 19.1456H40.306L42.4719 13.7767H43.9997Z" fill="#5F6368"/>
<path d="M18.2994 15.8736C18.3 15.446 18.2638 15.0191 18.1914 14.5977H12.2734V17.0145H15.663C15.5936 17.4005 15.4468 17.7685 15.2314 18.0962C15.016 18.424 14.7365 18.7047 14.4096 18.9215V20.4903H16.4325C17.617 19.3982 18.2994 17.7832 18.2994 15.8736Z" fill="#4285F4"/>
<path d="M12.2748 22.006C13.9682 22.006 15.3941 21.45 16.4339 20.4912L14.411 18.9224C13.8479 19.3042 13.1228 19.5221 12.2748 19.5221C10.638 19.5221 9.24868 18.4187 8.75188 16.9318H6.66797V18.5485C7.19027 19.5878 7.99116 20.4615 8.98123 21.0721C9.97129 21.6826 11.1116 22.006 12.2748 22.006Z" fill="#34A853"/>
<path d="M8.75212 16.9319C8.48948 16.1527 8.48948 15.309 8.75212 14.5298V12.9131H6.6682C6.22883 13.7874 6 14.7524 6 15.7309C6 16.7094 6.22883 17.6743 6.6682 18.5486L8.75212 16.9319Z" fill="#FBBC04"/>
<path d="M12.2748 11.9395C13.1697 11.9248 14.0344 12.263 14.682 12.8807L16.4731 11.0897C15.3374 10.0229 13.8328 9.43729 12.2748 9.45549C11.1116 9.45554 9.97129 9.77889 8.98123 10.3894C7.99116 11 7.19027 11.8737 6.66797 12.913L8.75188 14.5297C9.24868 13.0429 10.638 11.9395 12.2748 11.9395Z" fill="#EA4335"/>
</g>
<defs>
<clipPath id="clip0_422_6128">
<rect width="50" height="32" fill="white"/>
</clipPath>
</defs>
</svg>
