<svg width="50" height="32" viewBox="0 0 50 32" fill="none" xmlns="http://www.w3.org/2000/svg">
<g clip-path="url(#clip0_422_6125)">
<rect width="50" height="32" rx="3" fill="#EDEDF0"/>
<path d="M29.3722 23.8632H20.623V8.1394H29.3722V23.8632Z" fill="#6C6BBD"/>
<path d="M21.1836 16C21.1836 12.8104 22.677 9.9691 25.0026 8.13809C23.3019 6.79916 21.1556 6 18.8229 6C13.3007 6 8.82422 10.4771 8.82422 16C8.82422 21.5229 13.3007 26 18.8229 26C21.1556 26 23.3019 25.2008 25.0026 23.8619C22.677 22.0309 21.1836 19.1896 21.1836 16Z" fill="#EB001B"/>
<path d="M41.1712 16C41.1712 21.5229 36.6948 26 31.1725 26C28.8399 26 26.6935 25.2008 24.9922 23.8619C27.3185 22.0309 28.8119 19.1896 28.8119 16C28.8119 12.8104 27.3185 9.9691 24.9922 8.13809C26.6935 6.79916 28.8399 6 31.1725 6C36.6948 6 41.1712 10.4771 41.1712 16Z" fill="#0078D2"/>
<path d="M34.0126 14.2904C34.1558 14.2904 34.3616 14.3178 34.5188 14.3796L34.2998 15.0493C34.1495 14.9875 33.9993 14.9671 33.8554 14.9671C33.3906 14.9671 33.1583 15.2676 33.1583 15.8074V17.6397H32.4471V14.3725H33.1512V14.7692C33.3359 14.4821 33.6027 14.2904 34.0126 14.2904ZM31.3854 15.0219H30.2236V16.4982C30.2236 16.8261 30.3394 17.0451 30.6954 17.0451C30.88 17.0451 31.1124 16.9833 31.3236 16.8605L31.5286 17.4684C31.3033 17.6256 30.9481 17.7219 30.6406 17.7219C29.7996 17.7219 29.5062 17.2704 29.5062 16.5115V15.0219H28.8427V14.3725H29.5062V13.3813H30.2236V14.3725H31.3854V15.0219ZM22.2872 15.719C22.3631 15.2472 22.6495 14.9257 23.1556 14.9257C23.6133 14.9257 23.9075 15.2128 23.9826 15.719H22.2872ZM24.7212 16.0061C24.7141 14.9875 24.0851 14.2904 23.1689 14.2904C22.2121 14.2904 21.5424 14.9875 21.5424 16.0061C21.5424 17.0443 22.2395 17.7211 23.2175 17.7211C23.7096 17.7211 24.1602 17.5983 24.5569 17.2634L24.2079 16.7369C23.9349 16.9559 23.586 17.0788 23.2581 17.0788C22.8005 17.0788 22.3834 16.8667 22.281 16.2792H24.7071C24.7141 16.19 24.7212 16.1016 24.7212 16.0061ZM27.8444 15.2065C27.6465 15.0829 27.2435 14.9257 26.8265 14.9257C26.4369 14.9257 26.2046 15.0696 26.2046 15.309C26.2046 15.5273 26.4502 15.5891 26.7577 15.6298L27.0925 15.6775C27.8037 15.7808 28.234 16.0812 28.234 16.6555C28.234 17.2775 27.6871 17.7219 26.7444 17.7219C26.2108 17.7219 25.7187 17.585 25.3291 17.2978L25.6639 16.7439C25.9033 16.9285 26.2593 17.0858 26.7514 17.0858C27.2365 17.0858 27.4962 16.9426 27.4962 16.6891C27.4962 16.5053 27.3116 16.402 26.922 16.348L26.5871 16.3003C25.8556 16.197 25.459 15.8692 25.459 15.3364C25.459 14.687 25.9925 14.2904 26.8195 14.2904C27.339 14.2904 27.8108 14.407 28.1519 14.6323L27.8444 15.2065ZM36.6109 14.9656C36.4646 14.9656 36.3292 14.9914 36.2033 15.0422C36.0781 15.0939 35.9693 15.1659 35.8778 15.2582C35.7863 15.3505 35.7143 15.4616 35.6619 15.5907C35.6094 15.7198 35.5836 15.8622 35.5836 16.0171C35.5836 16.1728 35.6094 16.3144 35.6619 16.4435C35.7143 16.5726 35.7863 16.6837 35.8778 16.776C35.9693 16.8683 36.0781 16.9403 36.2033 16.9919C36.3292 17.0436 36.4646 17.0686 36.6109 17.0686C36.7572 17.0686 36.8933 17.0436 37.0185 16.9919C37.1445 16.9403 37.254 16.8683 37.3455 16.776C37.4386 16.6837 37.5106 16.5726 37.5638 16.4435C37.6162 16.3144 37.6421 16.1728 37.6421 16.0171C37.6421 15.8622 37.6162 15.7198 37.5638 15.5907C37.5106 15.4616 37.4386 15.3505 37.3455 15.2582C37.254 15.1659 37.1445 15.0939 37.0185 15.0422C36.8933 14.9914 36.7572 14.9656 36.6109 14.9656ZM36.6109 14.2904C36.8644 14.2904 37.0991 14.3342 37.315 14.4226C37.531 14.5102 37.7179 14.6315 37.8752 14.7856C38.0332 14.9398 38.1561 15.122 38.2453 15.3317C38.3345 15.5422 38.379 15.7706 38.379 16.0171C38.379 16.2635 38.3345 16.492 38.2453 16.7024C38.1561 16.9121 38.0332 17.0952 37.8752 17.2493C37.7179 17.4034 37.531 17.5239 37.315 17.6123C37.0991 17.7 36.8644 17.7438 36.6109 17.7438C36.3574 17.7438 36.1227 17.7 35.9068 17.6123C35.6908 17.5239 35.5054 17.4034 35.3489 17.2493C35.1924 17.0952 35.0696 16.9121 34.9804 16.7024C34.8912 16.492 34.8466 16.2635 34.8466 16.0171C34.8466 15.7706 34.8912 15.5422 34.9804 15.3317C35.0696 15.122 35.1924 14.9398 35.3489 14.7856C35.5054 14.6315 35.6908 14.5102 35.9068 14.4226C36.1227 14.3342 36.3574 14.2904 36.6109 14.2904ZM18.1344 16.0061C18.1344 15.4319 18.5107 14.9601 19.1256 14.9601C19.7132 14.9601 20.1099 15.4115 20.1099 16.0061C20.1099 16.6007 19.7132 17.0514 19.1256 17.0514C18.5107 17.0514 18.1344 16.5804 18.1344 16.0061ZM20.7796 16.0061V14.3725H20.0692V14.7692C19.8431 14.475 19.502 14.2904 19.0372 14.2904C18.1211 14.2904 17.4036 15.0078 17.4036 16.0061C17.4036 17.0037 18.1211 17.7219 19.0372 17.7219C19.502 17.7219 19.8431 17.5372 20.0692 17.2431V17.6397H20.7796V16.0061ZM16.7746 17.6397V15.5891C16.7746 14.8169 16.2825 14.2974 15.49 14.2904C15.073 14.2833 14.6419 14.4132 14.3414 14.8717C14.1161 14.5094 13.7601 14.2904 13.261 14.2904C12.9128 14.2904 12.5709 14.3929 12.3041 14.7755V14.3725H11.5938V17.6397H12.3112V15.8285C12.3112 15.2613 12.6257 14.9601 13.1108 14.9601C13.5825 14.9601 13.8219 15.2676 13.8219 15.8215V17.6397H14.5394V15.8285C14.5394 15.2613 14.868 14.9601 15.339 14.9601C15.8248 14.9601 16.0572 15.2676 16.0572 15.8215V17.6397H16.7746Z" fill="white"/>
</g>
<defs>
<clipPath id="clip0_422_6125">
<rect width="50" height="32" fill="white"/>
</clipPath>
</defs>
</svg>
