<svg width="50" height="32" viewBox="0 0 50 32" fill="none" xmlns="http://www.w3.org/2000/svg">
<path d="M29.3644 23.8652H20.6152V8.14136H29.3644V23.8652Z" fill="#FF5F00"/>
<path d="M21.1757 16.002C21.1757 12.8123 22.6692 9.97105 24.9948 8.14004C23.2941 6.80111 21.1478 6.00195 18.8151 6.00195C13.2929 6.00195 8.81641 10.479 8.81641 16.002C8.81641 21.5249 13.2929 26.002 18.8151 26.002C21.1478 26.002 23.2941 25.2028 24.9948 23.8639C22.6692 22.0329 21.1757 19.1916 21.1757 16.002Z" fill="#EB001B"/>
<path d="M41.1634 16.002C41.1634 21.5249 36.687 26.002 31.1647 26.002C28.832 26.002 26.6857 25.2028 24.9844 23.8639C27.3107 22.0329 28.8041 19.1916 28.8041 16.002C28.8041 12.8123 27.3107 9.97105 24.9844 8.14004C26.6857 6.80111 28.832 6.00195 31.1647 6.00195C36.687 6.00195 41.1634 10.479 41.1634 16.002Z" fill="#F79E1B"/>
<path d="M16.3408 16.0652C16.3408 15.6284 16.627 15.2696 17.0948 15.2696C17.5417 15.2696 17.8434 15.6129 17.8434 16.0652C17.8434 16.5175 17.5417 16.8608 17.0948 16.8608C16.627 16.8608 16.3408 16.502 16.3408 16.0652ZM18.3528 16.0652V14.8227H17.8125V15.1244C17.6411 14.9006 17.381 14.7602 17.0275 14.7602C16.3307 14.7602 15.7844 15.3065 15.7844 16.0652C15.7844 16.8245 16.3307 17.3702 17.0275 17.3702C17.381 17.3702 17.6411 17.2298 17.8125 17.006V17.3078H18.3528V16.0652ZM36.6126 16.0652C36.6126 15.6284 36.8988 15.2696 37.3666 15.2696C37.8141 15.2696 38.1152 15.6129 38.1152 16.0652C38.1152 16.5175 37.8141 16.8608 37.3666 16.8608C36.8988 16.8608 36.6126 16.502 36.6126 16.0652ZM38.6252 16.0652V13.8247H38.0843V15.1244C37.9129 14.9006 37.6528 14.7602 37.2993 14.7602C36.6025 14.7602 36.0562 15.3065 36.0562 16.0652C36.0562 16.8245 36.6025 17.3702 37.2993 17.3702C37.6528 17.3702 37.9129 17.2298 38.0843 17.006V17.3078H38.6252V16.0652ZM25.0601 15.244C25.4082 15.244 25.632 15.4624 25.6891 15.8468H24.3995C24.4573 15.488 24.6751 15.244 25.0601 15.244ZM25.0708 14.7602C24.3424 14.7602 23.833 15.2904 23.833 16.0652C23.833 16.8555 24.3632 17.3702 25.1071 17.3702C25.4814 17.3702 25.8242 17.2768 26.1259 17.0221L25.8611 16.6216C25.6528 16.7876 25.3874 16.8817 25.138 16.8817C24.7899 16.8817 24.4727 16.7204 24.3948 16.2729H26.2401C26.2455 16.2056 26.2509 16.1378 26.2509 16.0652C26.2455 15.2904 25.767 14.7602 25.0708 14.7602ZM31.5954 16.0652C31.5954 15.6284 31.8816 15.2696 32.3494 15.2696C32.7963 15.2696 33.098 15.6129 33.098 16.0652C33.098 16.5175 32.7963 16.8608 32.3494 16.8608C31.8816 16.8608 31.5954 16.502 31.5954 16.0652ZM33.6074 16.0652V14.8227H33.067V15.1244C32.8951 14.9006 32.6356 14.7602 32.2821 14.7602C31.5853 14.7602 31.039 15.3065 31.039 16.0652C31.039 16.8245 31.5853 17.3702 32.2821 17.3702C32.6356 17.3702 32.8951 17.2298 33.067 17.006V17.3078H33.6074V16.0652ZM28.5437 16.0652C28.5437 16.8192 29.0686 17.3702 29.8696 17.3702C30.2439 17.3702 30.4933 17.2869 30.7634 17.0739L30.504 16.6371C30.301 16.7829 30.088 16.8608 29.8535 16.8608C29.4221 16.8555 29.1049 16.5437 29.1049 16.0652C29.1049 15.5867 29.4221 15.2749 29.8535 15.2696C30.088 15.2696 30.301 15.3475 30.504 15.4933L30.7634 15.0565C30.4933 14.8435 30.2439 14.7602 29.8696 14.7602C29.0686 14.7602 28.5437 15.3112 28.5437 16.0652ZM35.5105 14.7602C35.1987 14.7602 34.9957 14.906 34.8553 15.1244V14.8227H34.3197V17.3078H34.8606V15.9146C34.8606 15.5034 35.0374 15.2749 35.3909 15.2749C35.5004 15.2749 35.6146 15.2904 35.7289 15.3374L35.8955 14.828C35.7759 14.781 35.62 14.7602 35.5105 14.7602ZM21.0254 15.0202C20.7653 14.8488 20.4071 14.7602 20.0119 14.7602C19.3823 14.7602 18.9771 15.0619 18.9771 15.5558C18.9771 15.9611 19.2788 16.211 19.8346 16.289L20.0899 16.3253C20.3862 16.3669 20.5261 16.4449 20.5261 16.5853C20.5261 16.7775 20.3285 16.887 19.9595 16.887C19.5852 16.887 19.3151 16.7674 19.133 16.627L18.8783 17.0477C19.1746 17.2661 19.5489 17.3702 19.9542 17.3702C20.6719 17.3702 21.0878 17.0322 21.0878 16.5591C21.0878 16.1223 20.7605 15.8938 20.2196 15.8159L19.9649 15.779C19.731 15.748 19.5436 15.7016 19.5436 15.535C19.5436 15.3529 19.7203 15.244 20.0167 15.244C20.3339 15.244 20.6409 15.3636 20.7915 15.457L21.0254 15.0202ZM27.9975 14.7602C27.6856 14.7602 27.4827 14.906 27.3428 15.1244V14.8227H26.8073V17.3078H27.3476V15.9146C27.3476 15.5034 27.5244 15.2749 27.8778 15.2749C27.9873 15.2749 28.1016 15.2904 28.2159 15.3374L28.3825 14.828C28.2629 14.781 28.1069 14.7602 27.9975 14.7602ZM23.3861 14.8227H22.5024V14.0687H21.9561V14.8227H21.452V15.3166H21.9561V16.4502C21.9561 17.0269 22.1798 17.3702 22.819 17.3702C23.0534 17.3702 23.3236 17.2976 23.495 17.178L23.3391 16.715C23.1778 16.8085 23.0011 16.8555 22.8606 16.8555C22.5904 16.8555 22.5024 16.6889 22.5024 16.4395V15.3166H23.3861V14.8227ZM15.3065 17.3078V15.748C15.3065 15.1607 14.9322 14.7655 14.3288 14.7602C14.0116 14.7548 13.6843 14.8536 13.4552 15.2023C13.2838 14.9268 13.0136 14.7602 12.634 14.7602C12.3686 14.7602 12.1091 14.8381 11.9062 15.1291V14.8227H11.3652V17.3078H11.9109V15.9301C11.9109 15.4987 12.1502 15.2696 12.5197 15.2696C12.8786 15.2696 13.0601 15.5034 13.0601 15.9248V17.3078H13.6063V15.9301C13.6063 15.4987 13.8557 15.2696 14.2145 15.2696C14.5835 15.2696 14.7602 15.5034 14.7602 15.9248V17.3078H15.3065Z" fill="white"/>
</svg>
