<svg width="50" height="32" viewBox="0 0 50 32" fill="none" xmlns="http://www.w3.org/2000/svg">
<g clip-path="url(#clip0_422_6127)">
<rect width="50" height="32" rx="3" fill="#EDEDF0"/>
<path d="M14.8735 20.9H12.8008C12.659 20.9 12.5384 21.0031 12.5162 21.1431L11.678 26.458C11.6613 26.5629 11.7425 26.6574 11.8489 26.6574H12.8384C12.9802 26.6574 13.1009 26.5544 13.123 26.4141L13.3491 24.9806C13.3709 24.8402 13.4918 24.7372 13.6334 24.7372H14.2895C15.6548 24.7372 16.4428 24.0765 16.6486 22.7672C16.7413 22.1944 16.6525 21.7444 16.3843 21.4292C16.0897 21.0831 15.5672 20.9 14.8735 20.9ZM15.1126 22.8412C14.9993 23.5849 14.431 23.5849 13.8816 23.5849H13.5688L13.7882 22.1959C13.8013 22.112 13.874 22.0502 13.9589 22.0502H14.1022C14.4765 22.0502 14.8296 22.0502 15.012 22.2635C15.1208 22.3908 15.1542 22.5799 15.1126 22.8412Z" fill="#253B80"/>
<path d="M21.0695 22.8166H20.077C19.9924 22.8166 19.9194 22.8784 19.9064 22.9624L19.8624 23.24L19.793 23.1394C19.5781 22.8275 19.099 22.7233 18.6207 22.7233C17.5239 22.7233 16.5871 23.554 16.4047 24.7193C16.3098 25.3006 16.4447 25.8564 16.7744 26.244C17.0769 26.6004 17.5097 26.7489 18.0246 26.7489C18.9083 26.7489 19.3984 26.1807 19.3984 26.1807L19.3542 26.4565C19.3375 26.5619 19.4187 26.6565 19.5245 26.6565H20.4185C20.5607 26.6565 20.6807 26.5535 20.7031 26.4131L21.2396 23.016C21.2565 22.9115 21.1756 22.8166 21.0695 22.8166ZM19.686 24.7484C19.5903 25.3154 19.1402 25.6961 18.5662 25.6961C18.278 25.6961 18.0476 25.6036 17.8997 25.4285C17.753 25.2545 17.6973 25.0069 17.744 24.7311C17.8334 24.1689 18.291 23.7758 18.8562 23.7758C19.1381 23.7758 19.3672 23.8695 19.5181 24.0462C19.6694 24.2247 19.7294 24.4738 19.686 24.7484Z" fill="#253B80"/>
<path d="M26.3549 22.8165H25.3575C25.2623 22.8165 25.1729 22.8638 25.119 22.9429L23.7433 24.9692L23.1602 23.022C23.1236 22.9002 23.0111 22.8165 22.8838 22.8165H21.9037C21.7846 22.8165 21.7019 22.9329 21.7397 23.045L22.8384 26.2691L21.8055 27.7272C21.7243 27.842 21.8061 27.9999 21.9464 27.9999H22.9426C23.0372 27.9999 23.1257 27.9539 23.1793 27.8763L26.4967 23.0878C26.5761 22.9732 26.4946 22.8165 26.3549 22.8165Z" fill="#253B80"/>
<path d="M29.6587 20.899H27.5857C27.4442 20.899 27.3235 21.0021 27.3014 21.1421L26.4631 26.457C26.4464 26.5619 26.5277 26.6565 26.6334 26.6565H27.6972C27.796 26.6565 27.8806 26.5843 27.896 26.4861L28.1339 24.9796C28.1558 24.8393 28.2767 24.7362 28.4182 24.7362H29.0741C30.4397 24.7362 31.2274 24.0755 31.4335 22.7663C31.5265 22.1935 31.4371 21.7434 31.1689 21.4282C30.8746 21.0821 30.3524 20.899 29.6587 20.899ZM29.8978 22.8402C29.7848 23.5839 29.2165 23.5839 28.6667 23.5839H28.3543L28.574 22.195C28.587 22.111 28.6592 22.0492 28.7443 22.0492H28.8877C29.2617 22.0492 29.615 22.0492 29.7975 22.2626C29.9063 22.3898 29.9393 22.579 29.8978 22.8402Z" fill="#0078D2"/>
<path d="M35.8534 22.8166H34.8615C34.7763 22.8166 34.7039 22.8784 34.6911 22.9624L34.6472 23.24L34.5775 23.1394C34.3626 22.8275 33.8838 22.7233 33.4055 22.7233C32.3087 22.7233 31.3722 23.554 31.1898 24.7193C31.0952 25.3006 31.2295 25.8564 31.5592 26.244C31.8623 26.6004 32.2945 26.7489 32.8094 26.7489C33.6931 26.7489 34.1832 26.1807 34.1832 26.1807L34.1389 26.4565C34.1223 26.5619 34.2035 26.6565 34.3099 26.6565H35.2036C35.3452 26.6565 35.4658 26.5535 35.4879 26.4131L36.0246 23.016C36.041 22.9115 35.9598 22.8166 35.8534 22.8166ZM34.4699 24.7484C34.3747 25.3154 33.9241 25.6961 33.35 25.6961C33.0624 25.6961 32.8315 25.6036 32.6836 25.4285C32.5369 25.2545 32.4817 25.0069 32.5278 24.7311C32.6178 24.1689 33.0749 23.7758 33.6401 23.7758C33.9219 23.7758 34.1511 23.8695 34.302 24.0462C34.4538 24.2247 34.5138 24.4738 34.4699 24.7484Z" fill="#0078D2"/>
<path d="M37.0248 21.0451L36.1741 26.4573C36.1574 26.5622 36.2386 26.6568 36.3444 26.6568H37.1996C37.3418 26.6568 37.4624 26.5537 37.4842 26.4134L38.3231 21.0988C38.3398 20.9939 38.2586 20.899 38.1528 20.899H37.1951C37.1105 20.8994 37.0378 20.9612 37.0248 21.0451Z" fill="#0078D2"/>
<path d="M23.0676 17.0178L23.3011 15.5344L22.7809 15.5224H20.2969L22.0231 4.5767C22.0285 4.54366 22.0459 4.51285 22.0714 4.49097C22.0968 4.46909 22.1294 4.45703 22.1633 4.45703H26.3517C27.7422 4.45703 28.7018 4.74638 29.2028 5.31748C29.4377 5.5854 29.5873 5.86537 29.6596 6.17347C29.7355 6.49675 29.7368 6.883 29.6627 7.35408L29.6574 7.38846V7.69031L29.8922 7.82338C30.09 7.92831 30.2472 8.04843 30.3678 8.18596C30.5687 8.41502 30.6987 8.70616 30.7536 9.05132C30.8103 9.40631 30.7915 9.82872 30.6987 10.3069C30.5915 10.8571 30.4182 11.3362 30.1843 11.7282C29.969 12.0895 29.6949 12.3891 29.3694 12.6213C29.0586 12.8419 28.6893 13.0093 28.2718 13.1165C27.8672 13.2219 27.406 13.275 26.9001 13.275H26.5741C26.341 13.275 26.1146 13.3589 25.9369 13.5094C25.7588 13.663 25.6409 13.8729 25.6047 14.1024L25.5802 14.2359L25.1676 16.8503L25.1488 16.9463C25.1439 16.9767 25.1354 16.9919 25.1229 17.0021C25.1117 17.0115 25.0957 17.0178 25.08 17.0178H23.0676Z" fill="#253B80"/>
<path d="M30.1142 7.42383C30.1017 7.50376 30.0874 7.58547 30.0713 7.66942C29.519 10.5053 27.6293 11.485 25.2158 11.485H23.987C23.6918 11.485 23.4431 11.6993 23.3971 11.9904L22.768 15.9806L22.5898 17.1116C22.5599 17.3027 22.7072 17.4751 22.9001 17.4751H25.0796C25.3377 17.4751 25.557 17.2876 25.5976 17.033L25.619 16.9223L26.0294 14.3182L26.0557 14.1753C26.0959 13.9199 26.3156 13.7323 26.5737 13.7323H26.8997C29.0113 13.7323 30.6643 12.875 31.1474 10.3941C31.3493 9.35773 31.2448 8.49236 30.7107 7.88375C30.5491 7.70023 30.3486 7.54796 30.1142 7.42383Z" fill="#0078D2"/>
<path d="M29.5377 7.19313C29.4533 7.16857 29.3662 7.14624 29.2769 7.12615C29.1872 7.1065 29.0952 7.08909 29.0005 7.07391C28.6692 7.02032 28.3062 6.99487 27.9173 6.99487H24.6344C24.5536 6.99487 24.4768 7.01318 24.408 7.04622C24.2567 7.11901 24.1441 7.26234 24.1169 7.43783L23.4185 11.8611L23.3984 11.9901C23.4444 11.699 23.6931 11.4847 23.9883 11.4847H25.2171C27.6306 11.4847 29.5203 10.5046 30.0726 7.66913C30.0892 7.58518 30.103 7.50346 30.1155 7.42354C29.9757 7.34941 29.8244 7.28601 29.6614 7.23198C29.6212 7.21858 29.5797 7.20563 29.5377 7.19313Z" fill="#222D65"/>
<path d="M24.1171 7.43779C24.1443 7.26231 24.2569 7.11897 24.4082 7.04664C24.4774 7.01359 24.5538 6.99529 24.6346 6.99529H27.9175C28.3064 6.99529 28.6694 7.02074 29.0007 7.07432C29.0954 7.0895 29.1874 7.10692 29.2771 7.12656C29.3664 7.14666 29.4535 7.16898 29.5379 7.19354C29.5799 7.20605 29.6214 7.21899 29.662 7.23194C29.825 7.28597 29.9764 7.34983 30.1162 7.4235C30.2805 6.37551 30.1148 5.66196 29.5482 5.01584C28.9235 4.30453 27.796 4 26.3533 4H22.1649C21.8702 4 21.6188 4.21433 21.5732 4.50591L19.8287 15.5641C19.7943 15.7829 19.9631 15.9802 20.1837 15.9802H22.7695L23.4187 11.8611L24.1171 7.43779Z" fill="#253B80"/>
</g>
<defs>
<clipPath id="clip0_422_6127">
<rect width="50" height="32" fill="white"/>
</clipPath>
</defs>
</svg>
