<svg width="100" height="100" viewBox="0 0 100 100" fill="none" xmlns="http://www.w3.org/2000/svg">
<path fill-rule="evenodd" clip-rule="evenodd" d="M12 0C5.37258 0 0 5.37258 0 12V88C0 94.6274 5.37258 100 12 100H88C94.6274 100 100 94.6274 100 88V12C100 5.37258 94.6274 0 88 0H12ZM20.2122 32.2637C28.117 26.5081 39.5701 32.5328 39.4434 42.3225C39.4434 49.1016 33.9648 54.617 27.2307 54.6172C18.2168 54.7302 12.1514 44.6822 16.3683 36.7052C16.6261 36.201 17.2438 36.0013 17.7477 36.2591C18.2518 36.5169 18.4517 37.1344 18.1939 37.6385C14.6811 44.2799 19.7265 52.6614 27.2307 52.5669C32.8343 52.5669 37.3931 47.9713 37.393 42.3228C37.4996 34.1733 27.9795 29.1466 21.3973 33.9368C20.9353 34.264 20.2955 34.1548 19.9682 33.6928C19.641 33.2307 19.7502 32.591 20.2122 32.2637ZM23.7907 47.7367C24.2047 47.7367 24.5946 47.4839 24.7498 47.0737L25.3141 45.581H29.1525L29.7107 47.0709C29.9093 47.6011 30.5 47.8698 31.0304 47.6712C31.5606 47.4726 31.8293 46.8817 31.6307 46.3515L28.3884 37.6973C28.385 37.688 28.3813 37.6788 28.3775 37.6695C28.1886 37.2067 27.7397 36.9094 27.2445 36.9086C26.7452 36.909 26.301 37.2087 26.1131 37.6718L26.111 37.6769L26.1042 37.6947L22.8322 46.3485C22.5959 46.9734 23.1432 47.7367 23.7907 47.7367ZM27.2421 40.4819L28.3843 43.5308H26.0893L27.2421 40.4819ZM52.6968 26.6441C53.4908 27.2643 54.0032 28.2326 54.0032 29.3194C54.0032 31.1873 52.4912 32.7071 50.6327 32.7072C49.9913 32.7072 47.6641 32.7177 47.6641 32.7177C47.1445 32.7177 46.6343 32.203 46.6343 31.6926V22.9151C46.6343 22.3489 47.0933 21.8899 47.6594 21.8899H50.1905C52.5923 21.8544 54.0672 24.6941 52.6968 26.6441ZM50.1871 25.9292C51.4853 25.8896 51.4868 23.9823 50.1907 23.9401H48.6847V25.9315C49.1855 25.9322 49.6863 25.9314 50.1871 25.9292ZM50.6326 27.9817C49.9833 27.981 49.3339 27.9819 48.6846 27.9847V30.6628C49.3956 30.66 50.275 30.6567 50.6326 30.6567C52.3794 30.5944 52.3802 28.0444 50.6326 27.9817ZM72.7873 30.0279C66.0532 30.0279 60.5747 35.5433 60.5747 42.3225C61.1899 58.6109 84.3871 58.6064 85 42.3223C85 35.5433 79.5215 30.0279 72.7873 30.0279ZM72.7873 52.5668C67.1837 52.5668 62.6249 47.9712 62.6249 42.3225C63.1371 28.7502 82.4396 28.7539 82.9497 42.3226C82.9497 47.9711 78.3909 52.5668 72.7873 52.5668ZM74.9308 44.8164C75.293 44.3812 75.9395 44.3222 76.3745 44.6844C76.8097 45.0466 76.8687 45.693 76.5066 46.1282C73.4237 49.7049 67.4706 46.8581 67.5921 42.3226C67.5368 38.0545 72.4939 35.3946 75.9867 37.8357C76.4547 38.1543 76.5759 38.792 76.2575 39.26C75.9388 39.728 75.3014 39.8492 74.8332 39.5307C72.6679 38.0193 69.6078 39.6767 69.6422 42.3225C69.553 44.9781 73.0196 46.8896 74.9308 44.8164ZM67.9629 68.8018C67.3968 68.8018 66.9378 69.2608 66.9378 69.8269C66.9378 71.9161 66.1646 73.9129 64.7654 75.4442L62.8205 77.5431C62.6451 77.7324 62.5476 77.981 62.5473 78.2391L62.5432 83.965C62.5428 84.5312 63.0015 84.9904 63.5676 84.9908H63.5683C64.1342 84.9908 64.593 84.5324 64.5934 83.9664L64.5973 78.6419L66.2741 76.8322C68.0242 74.9167 68.9879 72.4288 68.9879 69.8266C68.9881 69.2608 68.5291 68.8018 67.9629 68.8018ZM63.0743 58.2051V60.7704C63.0329 62.1283 61.0623 62.121 61.0245 60.7704V56.3648C61.0245 54.8703 59.7753 54.4716 59.0374 54.4716C58.1903 54.4716 57.2013 54.9304 57.2013 56.2233V58.9231C57.1593 60.2794 55.1919 60.2761 55.1511 58.9231V54.8076C55.1511 53.9749 54.6492 53.0025 53.2346 53.0025C52.1696 53.0025 51.3279 53.7096 51.3279 54.8076V57.5144C51.2854 58.8695 49.3208 58.8697 49.2776 57.5144C49.2784 57.5145 49.2779 53.1438 49.2774 48.6044C49.2769 43.7001 49.2764 38.5989 49.2774 38.6003C49.2773 38.5998 49.2772 38.5993 49.2772 38.5988C49.2771 38.5978 49.2769 38.5968 49.2769 38.5958V38.5943C49.2739 37.8882 48.9933 37.3688 48.4418 37.0514C47.7865 36.6743 46.874 36.6753 46.2229 37.0533C45.6755 37.3714 45.3992 37.8916 45.4021 38.5996C45.4048 39.3034 45.4143 65.6913 45.4148 67.1625L45.4148 67.189C45.415 67.5924 45.1784 67.9584 44.8105 68.1241C44.4426 68.2896 44.0118 68.224 43.7098 67.9565L35.4141 60.606C34.5004 59.9809 33.5922 60.3789 33.0873 60.9172C32.5718 61.4669 32.2246 62.4197 32.9377 63.3003L45.1681 77.5728C45.3273 77.7585 45.4148 77.9951 45.4148 78.2398V83.9657C45.4148 84.5319 44.9558 84.9908 44.3897 84.9908C43.8235 84.9908 43.3646 84.5319 43.3646 83.9657V78.6189L31.3725 64.6246C31.3691 64.6206 31.3658 64.6166 31.3624 64.6127C31.3607 64.6106 31.359 64.6086 31.3573 64.6065C30.1117 63.0838 30.2081 60.9898 31.5919 59.5147C32.855 58.1683 35.2536 57.7237 36.7304 59.033L43.3637 64.9107C43.3876 62.1652 43.3717 57.7662 43.3556 53.295C43.329 45.9163 43.3016 38.3411 43.4511 37.6766C33.2504 31.108 37.8312 15.0659 50.009 15.009C65.4029 15.5716 66.5727 37.3129 51.3276 39.5244V51.3918C53.2028 50.4225 55.9021 51.0942 56.8111 53.0558C58.8408 51.7213 61.9698 52.5824 62.8224 54.9183C65.5005 53.3651 69.0492 55.2939 68.9819 58.4883L68.9849 63.8728C68.9852 64.439 68.5265 64.8982 67.9604 64.8985H67.9598C67.3938 64.8985 66.935 64.4399 66.9347 63.8739L66.9317 58.4889C66.9866 55.9649 63.1078 55.6293 63.0743 58.2051ZM44.4303 35.8665C44.6535 35.6433 44.9081 35.4461 45.193 35.2806C46.4677 34.5401 48.1843 34.5377 49.4645 35.2744C50.3231 35.7687 50.9145 36.5438 51.1756 37.4795C63.8019 35.5647 62.7789 17.5202 50.0092 17.0593C39.9473 17.1014 36.0844 30.3218 44.4303 35.8665Z" fill="url(#paint0_linear_2001_1719)"/>
<defs>
<linearGradient id="paint0_linear_2001_1719" x1="100" y1="100" x2="-2.16693" y2="97.7348" gradientUnits="userSpaceOnUse">
<stop stop-color="#0D83D0"/>
<stop offset="1" stop-color="#284D95"/>
</linearGradient>
</defs>
</svg>
