<svg width="101" height="100" viewBox="0 0 101 100" fill="none" xmlns="http://www.w3.org/2000/svg">
<path fill-rule="evenodd" clip-rule="evenodd" d="M0.980164 12C0.980164 5.37258 6.35275 0 12.9802 0H88.9802C95.6076 0 100.98 5.37258 100.98 12V88C100.98 94.6274 95.6076 100 88.9802 100H12.9802C6.35275 100 0.980164 94.6274 0.980164 88V12ZM83.5876 23.2733H18.3727C17.0535 23.2733 15.9802 24.3466 15.9802 25.6658V74.3342C15.9802 75.6534 17.0535 76.7267 18.3727 76.7267H35.9053C36.4717 76.7267 36.9307 76.2676 36.9307 75.7013C36.9307 75.1351 36.4717 74.676 35.9053 74.676H18.3727C18.1842 74.676 18.0309 74.5226 18.0309 74.3342V33.9412H83.9294V54.476C83.9294 55.0423 84.3883 55.5014 84.9548 55.5014C85.5212 55.5014 85.9802 55.0423 85.9802 54.476V25.6658C85.9802 24.3466 84.9068 23.2733 83.5876 23.2733ZM18.0309 31.8904V25.6658C18.0309 25.4774 18.1842 25.324 18.3727 25.324H83.5876C83.7761 25.324 83.9294 25.4774 83.9294 25.6658V31.8902L18.0309 31.8904ZM83.9294 59.1958C83.9294 58.6296 84.3884 58.1704 84.9548 58.1704C85.5212 58.1704 85.9802 58.6296 85.9802 59.1958V74.3342C85.9802 75.6534 84.9068 76.7267 83.5876 76.7267H40.6254C40.0589 76.7267 39.6 76.2676 39.6 75.7013C39.6 75.1351 40.0589 74.676 40.6254 74.676H83.5876C83.7761 74.676 83.9294 74.5226 83.9294 74.3342V59.1958ZM22.4806 27.5818H22.4651C21.8987 27.5818 21.4398 28.0409 21.4398 28.6072C21.4398 29.1735 21.8987 29.6326 22.4651 29.6326H22.4806C23.047 29.6326 23.506 29.1735 23.506 28.6072C23.506 28.0409 23.0469 27.5818 22.4806 27.5818ZM25.5609 27.5818H25.5762C26.1426 27.5818 26.6016 28.0409 26.6016 28.6072C26.6016 29.1735 26.1426 29.6326 25.5762 29.6326H25.5609C24.9944 29.6326 24.5355 29.1735 24.5355 28.6072C24.5355 28.0409 24.9944 27.5818 25.5609 27.5818ZM28.672 27.5818H28.6567C28.0903 27.5818 27.6313 28.0409 27.6313 28.6072C27.6313 29.1735 28.0903 29.6326 28.6567 29.6326H28.672C29.2385 29.6326 29.6974 29.1735 29.6974 28.6072C29.6974 28.0409 29.2385 27.5818 28.672 27.5818ZM77.5871 27.5818H79.4952C80.0616 27.5818 80.5206 28.0409 80.5206 28.6072C80.5206 29.1735 80.0616 29.6326 79.4952 29.6326H77.5871C77.0207 29.6326 76.5617 29.1735 76.5617 28.6072C76.5617 28.0409 77.0207 27.5818 77.5871 27.5818ZM34.2421 40.2273C34.2421 38.9081 33.1687 37.8348 31.8495 37.8348H27.8571C26.5379 37.8348 25.4645 38.9081 25.4645 40.2273V44.2198C25.4645 45.539 26.5379 46.6124 27.8571 46.6124H31.8495C33.1687 46.6124 34.2421 45.539 34.2421 44.2198V40.2273ZM32.1913 44.2198C32.1913 44.4082 32.0381 44.5616 31.8495 44.5616H27.8571C27.6685 44.5616 27.5153 44.4082 27.5153 44.2198V40.2273C27.5153 40.0389 27.6685 39.8855 27.8571 39.8855H31.8495C32.0381 39.8855 32.1913 40.0389 32.1913 40.2273V44.2198ZM65.098 44.5616H74.1033C74.2918 44.5616 74.4451 44.4082 74.4451 44.2198V40.2273C74.4451 40.0389 74.2918 39.8855 74.1033 39.8855H38.2477C38.0591 39.8855 37.9059 40.0389 37.9059 40.2273V44.2198C37.9059 44.4082 38.0591 44.5616 38.2477 44.5616H60.3779C60.9444 44.5616 61.4033 45.0207 61.4033 45.587C61.4033 46.1533 60.9444 46.6124 60.3779 46.6124H38.2477C36.9285 46.6124 35.8551 45.539 35.8551 44.2198V40.2273C35.8551 38.9081 36.9285 37.8348 38.2477 37.8348H74.1033C75.4225 37.8348 76.4958 38.9081 76.4958 40.2273V44.2198C76.4958 45.539 75.4225 46.6124 74.1033 46.6124H65.098C64.5316 46.6124 64.0726 46.1533 64.0726 45.587C64.0726 45.0207 64.5316 44.5616 65.098 44.5616ZM34.2421 51.9686C34.2421 50.6494 33.1687 49.576 31.8495 49.576H27.8571C26.5379 49.576 25.4645 50.6494 25.4645 51.9686V55.9611C25.4645 57.2803 26.5379 58.3537 27.8571 58.3537H31.8495C33.1687 58.3537 34.2421 57.2803 34.2421 55.9611V51.9686ZM32.1913 55.9611C32.1913 56.1495 32.0381 56.3029 31.8495 56.3029H27.8571C27.6685 56.3029 27.5153 56.1495 27.5153 55.9611V51.9686C27.5153 51.7802 27.6685 51.6268 27.8571 51.6268H31.8495C32.0381 51.6268 32.1913 51.7802 32.1913 51.9686V55.9611ZM38.2477 58.3537C36.9285 58.3537 35.8551 57.2803 35.8551 55.9611V51.9686C35.8551 50.6494 36.9285 49.576 38.2477 49.576H74.1033C75.4225 49.576 76.4958 50.6494 76.4958 51.9686V55.9611C76.4958 57.2803 75.4225 58.3537 74.1033 58.3537H38.2477ZM38.2477 51.6268C38.0591 51.6268 37.9059 51.7802 37.9059 51.9686V55.9611C37.9059 56.1495 38.0591 56.3029 38.2477 56.3029H74.1033C74.2918 56.3029 74.4451 56.1495 74.4451 55.9611V51.9686C74.4451 51.7802 74.2918 51.6268 74.1033 51.6268H38.2477ZM31.8495 61.3173H27.8571C26.5379 61.3173 25.4645 62.3907 25.4645 63.7099V67.7023C25.4645 69.0215 26.5379 70.0949 27.8571 70.0949H31.8495C33.1687 70.0949 34.2421 69.0215 34.2421 67.7023V63.7099C34.2421 62.3907 33.1689 61.3173 31.8495 61.3173ZM32.1913 67.7023C32.1913 67.8907 32.0381 68.0441 31.8495 68.0441H27.8571C27.6685 68.0441 27.5153 67.8907 27.5153 67.7023V63.7099C27.5153 63.5215 27.6685 63.3681 27.8571 63.3681H31.8495C32.0381 63.3681 32.1913 63.5215 32.1913 63.7099V67.7023ZM38.2477 70.0949C36.9285 70.0949 35.8551 69.0215 35.8551 67.7023V63.7099C35.8551 62.3907 36.9285 61.3173 38.2477 61.3173H74.1033C75.4225 61.3173 76.4958 62.3907 76.4958 63.7099V67.7023C76.4958 69.0215 75.4225 70.0949 74.1033 70.0949H38.2477ZM38.2477 63.3681C38.0591 63.3681 37.9059 63.5215 37.9059 63.7099V67.7023C37.9059 67.8907 38.0591 68.0441 38.2477 68.0441H74.1033C74.2918 68.0441 74.4451 67.8907 74.4451 67.7023V63.7099C74.4451 63.5215 74.2918 63.3681 74.1033 63.3681H38.2477Z" fill="url(#paint0_linear_81_1241)"/>
<defs>
<linearGradient id="paint0_linear_81_1241" x1="100.98" y1="100" x2="-1.18677" y2="97.7348" gradientUnits="userSpaceOnUse">
<stop stop-color="#0D83D0"/>
<stop offset="1" stop-color="#284D95"/>
</linearGradient>
</defs>
</svg>
