<svg width="101" height="100" viewBox="0 0 101 100" fill="none" xmlns="http://www.w3.org/2000/svg">
<path fill-rule="evenodd" clip-rule="evenodd" d="M0.653503 12C0.653503 5.37258 6.02609 0 12.6535 0H88.6535C95.2809 0 100.654 5.37258 100.654 12V88C100.654 94.6274 95.2809 100 88.6535 100H12.6535C6.02609 100 0.653503 94.6274 0.653503 88V12ZM58.8566 36.6699C59.4229 36.6699 59.882 36.2108 59.882 35.6445C59.882 35.0782 59.4229 34.6191 58.8566 34.6191C58.2903 34.6191 57.8312 35.0782 57.8312 35.6445C57.8312 36.2108 58.2903 36.6699 58.8566 36.6699ZM63.9836 35.6445C63.9836 36.2108 63.5245 36.6699 62.9582 36.6699C62.3919 36.6699 61.9328 36.2108 61.9328 35.6445C61.9328 35.0782 62.3919 34.6191 62.9582 34.6191C63.5245 34.6191 63.9836 35.0782 63.9836 35.6445ZM54.7551 36.6699C55.3214 36.6699 55.7805 36.2108 55.7805 35.6445C55.7805 35.0782 55.3214 34.6191 54.7551 34.6191C54.1888 34.6191 53.7297 35.0782 53.7297 35.6445C53.7297 36.2108 54.1888 36.6699 54.7551 36.6699ZM32.06 41.7969C32.06 27.021 44.081 15 58.8568 15C73.6327 15 85.6537 27.021 85.6537 41.7969C85.6537 56.5728 73.6327 68.5938 58.8568 68.5938C52.5749 68.5938 46.7917 66.4199 42.2178 62.7864L39.1812 65.8229L39.9063 66.5479C41.1057 67.7473 41.1057 69.6988 39.9063 70.8983C38.9608 71.8437 37.5484 72.044 36.4052 71.4992L24.4036 83.5007C22.4046 85.4997 19.1519 85.4997 17.153 83.5007C15.154 81.5018 15.154 78.2491 17.153 76.2501L29.1546 64.2486C28.6099 63.1053 28.8102 61.6927 29.7554 60.7475C30.9549 59.548 32.9064 59.548 34.1058 60.7475L34.8308 61.4725L37.8674 58.436C34.2338 53.862 32.06 48.0788 32.06 41.7969ZM18.0028 78.55C17.4583 79.6931 17.6579 81.1053 18.6032 82.0506C19.5483 82.9958 20.9605 83.1956 22.1037 82.6509L18.0028 78.55ZM22.2284 79.8754L23.6786 81.3255L34.8308 70.1733L33.3807 68.7231L22.2284 79.8754ZM37.0059 69.4482C37.4058 69.848 38.0563 69.848 38.4561 69.4482C38.856 69.0483 38.856 68.398 38.4559 67.9979L32.6555 62.1975C32.2556 61.7977 31.6051 61.7977 31.2053 62.1975C30.8056 62.5974 30.8056 63.2479 31.2053 63.6477C31.6058 64.0481 31.6058 64.6974 31.2053 65.0978L19.328 76.9752L20.7782 78.4253L32.6555 66.548C33.056 66.1476 33.7052 66.1476 34.1057 66.548L37.0059 69.4482ZM36.2809 62.9227L37.7311 64.3728L40.6575 61.4464C40.1559 60.9814 39.6722 60.4977 39.2074 59.9962L36.2809 62.9227ZM34.1108 41.7969C34.1108 55.442 45.2118 66.543 58.8568 66.543C72.5019 66.543 83.6029 55.442 83.6029 41.7969C83.6029 28.1518 72.5019 17.0508 58.8568 17.0508C45.2118 17.0508 34.1108 28.1518 34.1108 41.7969ZM67.1965 44.873C67.7628 44.873 68.2219 44.4139 68.2219 43.8477C68.2219 43.2814 67.7628 42.8223 67.1965 42.8223H50.5168C49.9505 42.8223 49.4914 43.2814 49.4914 43.8477C49.4914 44.4139 49.9505 44.873 50.5168 44.873H67.1965ZM68.2219 47.9492C68.2219 48.5155 67.7628 48.9746 67.1965 48.9746H50.5168C49.9505 48.9746 49.4914 48.5155 49.4914 47.9492C49.4914 47.3829 49.9505 46.9238 50.5168 46.9238H67.1965C67.7628 46.9238 68.2219 47.3829 68.2219 47.9492ZM49.4914 39.7461C49.4914 40.3124 49.9505 40.7715 50.5168 40.7715H67.1965C67.7628 40.7715 68.2219 40.3124 68.2219 39.7461C68.2219 39.1798 67.7628 38.7207 67.1965 38.7207H50.5168C49.9505 38.7207 49.4914 39.1798 49.4914 39.7461ZM44.3988 24.3023C48.4525 20.9486 53.5871 19.1016 58.8566 19.1016C71.3709 19.1016 81.5519 29.2826 81.5519 41.7969C81.5519 54.3112 71.3709 64.4922 58.8566 64.4922C46.3424 64.4922 36.1613 54.3112 36.1613 41.7969C36.1613 36.5273 38.0084 31.3927 41.3621 27.339C41.7232 26.9027 42.3694 26.8415 42.8059 27.2026C43.2421 27.5636 43.3032 28.21 42.9423 28.6463C39.892 32.3332 38.2121 37.0035 38.2121 41.7969C38.2121 53.1804 47.4732 62.4414 58.8566 62.4414C70.2401 62.4414 79.5012 53.1804 79.5012 41.7969C79.5012 30.4134 70.2401 21.1523 58.8566 21.1523C54.0633 21.1523 49.393 22.8322 45.7061 25.8825C45.2697 26.2436 44.6234 26.1825 44.2623 25.7461C43.9014 25.3097 43.9625 24.6634 44.3988 24.3023Z" fill="url(#paint0_linear_83_1377)"/>
<defs>
<linearGradient id="paint0_linear_83_1377" x1="100.654" y1="100" x2="-1.51343" y2="97.7348" gradientUnits="userSpaceOnUse">
<stop stop-color="#0D83D0"/>
<stop offset="1" stop-color="#284D95"/>
</linearGradient>
</defs>
</svg>
