<svg width="101" height="100" viewBox="0 0 101 100" fill="none" xmlns="http://www.w3.org/2000/svg">
<path fill-rule="evenodd" clip-rule="evenodd" d="M0.326721 12C0.326721 5.37258 5.6993 0 12.3267 0H88.3267C94.9541 0 100.327 5.37258 100.327 12V88C100.327 94.6274 94.9541 100 88.3267 100H12.3267C5.69931 100 0.326721 94.6274 0.326721 88V12ZM85.104 74.7874H82.531C82.9596 74.0934 83.2076 73.2766 83.2076 72.4026V35.9816C83.2076 33.4713 81.1652 31.429 78.6548 31.429H75.1939L79.3775 29.1019C80.0013 28.7549 80.3889 28.096 80.3889 27.3823C80.3889 26.6686 80.0014 26.0097 79.3775 25.6627L59.5241 14.619C58.801 14.2164 57.9363 14.3141 57.3212 14.8673C56.7056 15.4209 56.5171 16.2706 56.8412 17.0329L61.1547 27.1603C61.2148 27.3014 61.2148 27.4631 61.1547 27.604L59.5256 31.4289H34.0713C34.837 28.5967 37.3033 26.9987 39.3597 26.4476C41.8562 25.7787 44.5385 26.1451 47.1321 26.4995C47.6714 26.5731 49.5972 26.8576 51.5066 27.1396L51.5074 27.1397L51.6956 27.1675C53.7619 27.4729 55.7135 27.7613 56.2823 27.839C56.8756 27.9198 57.4219 27.5049 57.5031 26.9119C57.5842 26.3187 57.169 25.7721 56.5758 25.691C56.0369 25.6174 54.1128 25.3332 52.2045 25.0513L52.2022 25.051L52.2021 25.051L52.1985 25.0505L52.0124 25.023L51.9716 25.017L51.9713 25.0169L51.9681 25.0164L51.9675 25.0163L51.9662 25.0162L51.9628 25.0157C49.9149 24.7131 47.9899 24.4288 47.4255 24.3516L47.4231 24.3513C44.7479 23.986 41.7157 23.572 38.7985 24.3538C35.4228 25.2586 32.8068 27.762 31.9715 30.8872C31.9233 31.068 31.8832 31.2485 31.8471 31.4289H21.9986C19.4882 31.4289 17.4459 33.4713 17.4459 35.9815V40.6063C17.4459 41.205 17.9312 41.6903 18.5298 41.6903C19.1285 41.6903 19.6138 41.205 19.6138 40.6063V35.9815C19.6138 34.6665 20.6837 33.5967 21.9986 33.5967H31.664C31.681 34.3685 31.7764 35.1024 31.91 35.7647H23.492C22.549 35.7647 21.7818 36.5319 21.7818 37.4749V70.909C21.7818 71.8521 22.5491 72.6193 23.492 72.6193H77.1613C78.1043 72.6193 78.8715 71.8521 78.8715 70.909V37.4751C78.8715 36.532 78.1042 35.7648 77.1613 35.7648H67.3992L71.2966 33.5969H78.6548C79.9698 33.5969 81.0396 34.6667 81.0396 35.9816V72.4026C81.0396 73.7176 79.9698 74.7874 78.6548 74.7874H21.9986C20.6837 74.7874 19.6138 73.7176 19.6138 72.4026V45.8861C19.6138 45.2874 19.1285 44.8021 18.5298 44.8021C17.9312 44.8021 17.4459 45.2874 17.4459 45.8861V72.4026C17.4459 73.2765 17.6939 74.0934 18.1224 74.7874H15.5495C14.3238 74.7874 13.3267 75.7845 13.3267 77.01V80.5831C13.3267 83.3643 15.5894 85.6269 18.3706 85.6269H70.8019C71.4005 85.6269 71.8859 85.1416 71.8859 84.543C71.8859 83.9443 71.4005 83.459 70.8019 83.459H18.3706C16.7848 83.459 15.4947 82.1689 15.4947 80.5831V77.01C15.4947 76.9798 15.5193 76.9552 15.5495 76.9552H39.9176L41.7724 79.7447C42.4161 80.713 43.4947 81.291 44.6573 81.291H55.996C57.1587 81.291 58.2372 80.713 58.8809 79.7447L60.7357 76.9552H85.1038C85.134 76.9552 85.1586 76.9798 85.1586 77.01V80.5831C85.1586 82.1689 83.8685 83.459 82.2827 83.459H75.9088C75.3101 83.459 74.8248 83.9443 74.8248 84.543C74.8248 85.1416 75.3101 85.6269 75.9088 85.6269H82.2829C85.0641 85.6269 87.3267 83.3643 87.3267 80.5831V77.01C87.3267 75.7845 86.3296 74.7874 85.104 74.7874ZM59.1334 16.8825L76.0605 26.2983H63.1438L59.1334 16.8825ZM63.1438 28.4661H76.0605L59.1334 37.8818L63.1438 28.4661ZM33.8312 33.5969H58.602L57.6786 35.7648H34.1298C33.9746 35.1212 33.8525 34.3795 33.8312 33.5969ZM63.6878 37.9328H76.7037V70.4516H23.9498V37.9328H32.526C33.1141 39.5566 33.9093 41.0318 34.6237 42.3556C34.894 42.8563 35.5893 43.0664 36.0924 42.7947C36.6192 42.5104 36.8158 41.8528 36.5315 41.326C35.9684 40.2827 35.3523 39.1395 34.8519 37.9328H56.7692C56.5543 38.6396 56.7589 39.3917 57.3209 39.8971C57.9062 40.4235 58.8123 40.5416 59.5237 40.1457L63.5257 37.9195C63.5789 37.9273 63.6327 37.9328 63.6878 37.9328ZM57.0758 78.5445C56.8348 78.9068 56.4313 79.1232 55.9961 79.1232H44.6575C44.2223 79.1232 43.8188 78.9068 43.5778 78.5445L42.5212 76.9552H58.1326L57.0758 78.5445ZM27.5742 55.2803C27.5742 49.5027 32.2748 44.8021 38.0527 44.8021C43.8305 44.8021 48.5312 49.5027 48.5312 55.2803C48.5312 61.0579 43.8306 65.7585 38.0527 65.7585C32.2748 65.7585 27.5742 61.0579 27.5742 55.2803ZM38.0527 58.6146C35.8745 58.6146 33.9106 59.965 33.1076 61.9548C34.4904 62.9819 36.2017 63.5907 38.0527 63.5907C39.9044 63.5907 41.6163 62.9815 42.9993 61.9537C42.1935 59.9394 40.2574 58.6146 38.0527 58.6146ZM35.6679 54.0615C35.6679 55.3764 36.7377 56.4462 38.0527 56.4462C39.3676 56.4462 40.4375 55.3764 40.4375 54.0615C40.4375 52.7465 39.3676 51.6767 38.0527 51.6767C36.7377 51.6767 35.6679 52.7465 35.6679 54.0615ZM41.3454 57.2005C42.7297 57.8729 43.8845 58.9632 44.6349 60.345C45.7172 58.9417 46.3632 57.1855 46.3632 55.2804C46.3632 50.6981 42.6352 46.97 38.0527 46.97C33.4702 46.97 29.7421 50.6981 29.7421 55.2804C29.7421 57.1878 30.3896 58.9459 31.4744 60.35C32.2259 58.9835 33.3879 57.8901 34.7708 57.2121C33.9847 56.3935 33.5 55.2835 33.5 54.0616C33.5 51.5514 35.5423 49.509 38.0527 49.509C40.5631 49.509 42.6054 51.5513 42.6054 54.0616C42.6054 55.2777 42.1251 56.3831 41.3454 57.2005ZM53.3247 46.4812V49.627C53.3247 50.5528 54.0779 51.306 55.0039 51.306H68.2668C69.1927 51.306 69.9458 50.5528 69.9458 49.627V46.4812C69.9458 45.5554 69.1927 44.8022 68.2668 44.8022H55.0039C54.078 44.8021 53.3247 45.5554 53.3247 46.4812ZM55.4927 46.97H67.7779V49.138H55.4927V46.97ZM63.1938 56.5001H54.4087C53.8101 56.5001 53.3247 56.0148 53.3247 55.4162C53.3247 54.8175 53.8101 54.3322 54.4087 54.3322H63.1938C63.7924 54.3322 64.2777 54.8175 64.2777 55.4162C64.2777 56.0148 63.7924 56.5001 63.1938 56.5001ZM68.5374 58.4474H54.4089C53.8102 58.4474 53.3249 58.9328 53.3249 59.5314C53.3249 60.1301 53.8102 60.6154 54.4089 60.6154H68.5374C69.136 60.6154 69.6214 60.1301 69.6214 59.5314C69.6214 58.9328 69.136 58.4474 68.5374 58.4474ZM54.4089 62.5627H68.5374C69.136 62.5627 69.6214 63.048 69.6214 63.6466C69.6214 64.2453 69.136 64.7306 68.5374 64.7306H54.4089C53.8102 64.7306 53.3249 64.2453 53.3249 63.6466C53.3249 63.048 53.8102 62.5627 54.4089 62.5627Z" fill="url(#paint0_linear_81_1240)"/>
<defs>
<linearGradient id="paint0_linear_81_1240" x1="100.327" y1="100" x2="-1.84021" y2="97.7348" gradientUnits="userSpaceOnUse">
<stop stop-color="#0D83D0"/>
<stop offset="1" stop-color="#284D95"/>
</linearGradient>
</defs>
</svg>
