<svg width="100" height="100" viewBox="0 0 100 100" fill="none" xmlns="http://www.w3.org/2000/svg">
<path fill-rule="evenodd" clip-rule="evenodd" d="M11.9999 0C5.37252 0 -6.10352e-05 5.37258 -6.10352e-05 12V88C-6.10352e-05 94.6274 5.37252 100 11.9999 100H87.9999C94.6274 100 99.9999 94.6274 99.9999 88V12C99.9999 5.37258 94.6274 0 87.9999 0H11.9999ZM17.3925 23.2734H82.6074C83.9266 23.2734 84.9999 24.3466 84.9999 25.666V74.3342C84.9999 75.6534 83.9266 76.7267 82.6074 76.7267H28.5843C28.018 76.7267 27.5589 76.2676 27.5589 75.7013C27.5589 75.1351 28.018 74.676 28.5843 74.676H82.6074C82.7959 74.676 82.9492 74.5226 82.9492 74.3342V33.9412H66.3642C65.7978 33.9412 65.3388 33.4821 65.3388 32.9158C65.3388 32.3495 65.7978 31.8904 66.3642 31.8904H82.9492V25.666C82.9492 25.4776 82.7959 25.3242 82.6074 25.3242H17.3925C17.2041 25.3242 17.0507 25.4776 17.0507 25.666V31.8904H61.1828C61.7493 31.8904 62.2082 32.3495 62.2082 32.9158C62.2082 33.4821 61.7493 33.9412 61.1828 33.9412H17.0507V47.2588C17.0507 47.8251 16.5916 48.2842 16.0253 48.2842C15.459 48.2842 14.9999 47.8251 14.9999 47.2588V25.666C14.9999 24.3468 16.0733 23.2734 17.3925 23.2734ZM23.8645 74.6758H17.3925C17.2041 74.6758 17.0507 74.5224 17.0507 74.334V51.9786C17.0507 51.4123 16.5916 50.9532 16.0253 50.9532C15.459 50.9532 14.9999 51.4123 14.9999 51.9786V74.3342C14.9999 75.6534 16.0733 76.7267 17.3925 76.7267H23.8645C24.4308 76.7267 24.8899 76.2676 24.8899 75.7013C24.8899 75.1351 24.4308 74.6758 23.8645 74.6758ZM20.4595 28.6072C20.4595 28.0409 20.9186 27.5818 21.4849 27.5818H21.5004C22.0667 27.5818 22.5258 28.0409 22.5258 28.6072C22.5258 29.1735 22.0667 29.6326 21.5004 29.6326H21.4849C20.9186 29.6326 20.4595 29.1735 20.4595 28.6072ZM24.5806 27.5818C24.0144 27.5818 23.5553 28.0409 23.5553 28.6072C23.5553 29.1735 24.0144 29.6326 24.5806 29.6326H24.5961C25.1624 29.6326 25.6215 29.1735 25.6215 28.6072C25.6215 28.0409 25.1624 27.5818 24.5961 27.5818H24.5806ZM26.651 28.6072C26.651 28.0409 27.1101 27.5818 27.6764 27.5818H27.6918C28.2581 27.5818 28.7172 28.0409 28.7172 28.6072C28.7172 29.1735 28.2581 29.6326 27.6918 29.6326H27.6764C27.1101 29.6326 26.651 29.1735 26.651 28.6072ZM78.515 29.6326C79.0814 29.6326 79.5403 29.1735 79.5403 28.6072C79.5403 28.0409 79.0814 27.5818 78.515 27.5818H76.6069C76.0405 27.5818 75.5815 28.0409 75.5815 28.6072C75.5815 29.1735 76.0405 29.6326 76.6069 29.6326H78.515ZM39.0518 47.8803C39.0518 41.8435 43.9631 36.9321 49.9999 36.9321C56.0368 36.9321 60.9481 41.8435 60.9481 47.8803C60.9481 53.9171 56.0368 58.8285 49.9999 58.8285C43.9631 58.8285 39.0518 53.9171 39.0518 47.8803ZM41.1026 47.8803C41.1026 52.7863 45.0939 56.7777 49.9999 56.7777C54.906 56.7777 58.8973 52.7863 58.8973 47.8803C58.8973 42.9743 54.906 38.9829 49.9999 38.9829C45.0939 38.9829 41.1026 42.9743 41.1026 47.8803ZM53.5382 44.5322L48.5789 49.4915L46.4617 47.3743C46.0612 46.9739 45.4119 46.9739 45.0116 47.3743C44.6112 47.7748 44.6112 48.424 45.0116 48.8244L47.8539 51.6666C48.054 51.8669 48.3165 51.967 48.5789 51.967C48.8412 51.967 49.1037 51.8669 49.3039 51.6666L54.9885 45.9821C55.389 45.5817 55.389 44.9324 54.9885 44.5321C54.5881 44.1318 53.9389 44.1318 53.5382 44.5322ZM54.6459 61.2355C54.6459 61.8018 54.187 62.2609 53.6205 62.2609H46.3792C45.8129 62.2609 45.3538 61.8018 45.3538 61.2355C45.3538 60.6693 45.8129 60.2102 46.3792 60.2102H53.6205C54.187 60.2102 54.6459 60.6693 54.6459 61.2355ZM66.7744 67.1578H41.146C40.5797 67.1578 40.1206 67.6169 40.1206 68.1832C40.1206 68.7495 40.5797 69.2086 41.146 69.2086H66.7744C67.3408 69.2086 67.7998 68.7495 67.7998 68.1832C67.7998 67.6169 67.3408 67.1578 66.7744 67.1578ZM36.9831 69.2086H33.2255C32.6592 69.2086 32.2001 68.7495 32.2001 68.1832C32.2001 67.6169 32.6592 67.1578 33.2255 67.1578H36.9831C37.5494 67.1578 38.0085 67.6169 38.0085 68.1832C38.0085 68.7495 37.5494 69.2086 36.9831 69.2086ZM66.7744 70.28H58.5881C58.0216 70.28 57.5627 70.7391 57.5627 71.3054C57.5627 71.8717 58.0216 72.3308 58.5881 72.3308H66.7744C67.3408 72.3308 67.7998 71.8717 67.7998 71.3054C67.7998 70.7391 67.3408 70.28 66.7744 70.28ZM54.6987 72.3308H33.2255C32.6592 72.3308 32.2001 71.8717 32.2001 71.3054C32.2001 70.7391 32.6592 70.28 33.2255 70.28H54.6987C55.2651 70.28 55.7241 70.7391 55.7241 71.3054C55.7241 71.8717 55.2651 72.3308 54.6987 72.3308Z" fill="url(#paint0_linear_81_1256)"/>
<defs>
<linearGradient id="paint0_linear_81_1256" x1="99.9999" y1="100" x2="-2.16699" y2="97.7348" gradientUnits="userSpaceOnUse">
<stop stop-color="#0D83D0"/>
<stop offset="1" stop-color="#284D95"/>
</linearGradient>
</defs>
</svg>
