<svg width="101" height="100" viewBox="0 0 101 100" fill="none" xmlns="http://www.w3.org/2000/svg">
<path d="M94.3778 55.6719C93.9403 55.6719 93.5028 55.4844 93.2059 55.1094L66.4247 22.2031C66.2059 21.9375 66.0809 21.5938 66.0809 21.25V3.32812H34.0184V21.25C34.0184 21.5938 33.8934 21.9375 33.6747 22.2031L6.90906 55.125C6.37781 55.7812 5.42468 55.875 4.78406 55.3438C4.12781 54.8125 4.03406 53.8594 4.56531 53.2188L30.9872 20.7188V1.8125C30.9872 0.96875 31.6591 0.296875 32.5028 0.296875H67.5966C68.4403 0.296875 69.1122 0.96875 69.1122 1.8125V20.7031L95.5497 53.2031C96.0809 53.8594 95.9872 54.8125 95.3309 55.3281C95.0497 55.5625 94.7059 55.6719 94.3778 55.6719Z" fill="black"/>
<path d="M68.7999 99.7031C68.4093 99.7031 68.0343 99.5625 67.7374 99.2656C67.1437 98.6875 67.1281 97.7187 67.7218 97.125C69.9718 94.8281 69.1437 93.1094 67.3312 90.0156C65.6437 87.125 63.3312 83.1562 67.7843 79.0781C68.3937 78.5156 69.3625 78.5625 69.925 79.1719C70.4875 79.7812 70.4562 80.75 69.8312 81.3125C67.2999 83.625 68.1281 85.3594 69.9562 88.4844C71.6125 91.3125 73.8781 95.1875 69.8937 99.2344C69.5812 99.5469 69.1906 99.7031 68.7999 99.7031Z" fill="black"/>
<path d="M50.1905 99.7031C49.7999 99.7031 49.4249 99.5625 49.128 99.2656C48.5343 98.6875 48.5187 97.7187 49.1124 97.125C51.3624 94.8281 50.5343 93.1094 48.7218 90.0156C47.0343 87.125 44.7218 83.1562 49.1593 79.0781C49.7687 78.5156 50.7374 78.5625 51.2999 79.1719C51.8624 79.7812 51.8312 80.75 51.2062 81.3125C48.6749 83.625 49.503 85.3594 51.3312 88.4844C52.9874 91.3125 55.253 95.1875 51.2687 99.2344C50.9874 99.5469 50.5968 99.7031 50.1905 99.7031Z" fill="black"/>
<path d="M31.5968 99.7031C31.2062 99.7031 30.8312 99.5625 30.5343 99.2656C29.9406 98.6875 29.9249 97.7187 30.5187 97.125C32.7687 94.8281 31.9406 93.1094 30.1281 90.0156C28.4406 87.125 26.1281 83.1562 30.5812 79.0781C31.1906 78.5156 32.1593 78.5625 32.7218 79.1719C33.2843 79.7812 33.2531 80.75 32.6281 81.3125C30.0968 83.625 30.9249 85.3594 32.7531 88.4844C34.4093 91.3125 36.6749 95.1875 32.6906 99.2344C32.3937 99.5469 31.9874 99.7031 31.5968 99.7031Z" fill="black"/>
<path d="M95.3623 74.2187H4.7373C2.15918 74.2187 0.0498047 72.1094 0.0498047 69.5312V57.3438C0.0498047 54.7656 2.15918 52.6562 4.7373 52.6562H95.3623C97.9404 52.6562 100.05 54.7656 100.05 57.3438V69.5312C100.05 72.1094 97.9404 74.2187 95.3623 74.2187ZM4.7373 55.6719C3.81543 55.6719 3.08105 56.4219 3.08105 57.3281V69.5156C3.08105 70.4375 3.83105 71.1719 4.7373 71.1719H95.3623C96.2842 71.1719 97.0186 70.4219 97.0186 69.5156V57.3281C97.0186 56.4062 96.2686 55.6719 95.3623 55.6719H4.7373Z" fill="black"/>
<path d="M13.3154 68.5156C10.5186 68.5156 8.2373 66.2344 8.2373 63.4375C8.2373 60.6406 10.5186 58.3594 13.3154 58.3594C16.1123 58.3594 18.3936 60.6406 18.3936 63.4375C18.3936 66.2344 16.1123 68.5156 13.3154 68.5156ZM13.3154 61.375C12.1904 61.375 11.2686 62.2969 11.2686 63.4219C11.2686 64.5469 12.1904 65.4688 13.3154 65.4688C14.4404 65.4688 15.3623 64.5469 15.3623 63.4219C15.3623 62.2969 14.4404 61.375 13.3154 61.375Z" fill="black"/>
<path d="M26.1592 68.5156C23.3623 68.5156 21.0811 66.2344 21.0811 63.4375C21.0811 60.6406 23.3623 58.3594 26.1592 58.3594C28.9561 58.3594 31.2373 60.6406 31.2373 63.4375C31.2373 66.2344 28.9561 68.5156 26.1592 68.5156ZM26.1592 61.375C25.0186 61.375 24.0967 62.2969 24.0967 63.4219C24.0967 64.5469 25.0186 65.4688 26.1592 65.4688C27.2842 65.4688 28.2061 64.5469 28.2061 63.4219C28.2061 62.2969 27.2842 61.375 26.1592 61.375Z" fill="black"/>
<path d="M39.0029 68.5156C36.2061 68.5156 33.9248 66.2344 33.9248 63.4375C33.9248 60.6406 36.2061 58.3594 39.0029 58.3594C41.7998 58.3594 44.0811 60.6406 44.0811 63.4375C44.0811 66.2344 41.7998 68.5156 39.0029 68.5156ZM39.0029 61.375C37.8623 61.375 36.9404 62.2969 36.9404 63.4219C36.9404 64.5469 37.8623 65.4688 39.0029 65.4688C40.1279 65.4688 41.0498 64.5469 41.0498 63.4219C41.0498 62.2969 40.1279 61.375 39.0029 61.375Z" fill="black"/>
<path d="M88.1279 64.9531H58.6748C57.8311 64.9531 57.1592 64.2812 57.1592 63.4375C57.1592 62.5937 57.8311 61.9219 58.6748 61.9219H88.1279C88.9717 61.9219 89.6436 62.5937 89.6436 63.4375C89.6436 64.2656 88.9561 64.9531 88.1279 64.9531Z" fill="black"/>
<path d="M67.5967 13.0781H32.5029C31.6592 13.0781 30.9873 12.4063 30.9873 11.5625C30.9873 10.7188 31.6592 10.0469 32.5029 10.0469H67.5967C68.4404 10.0469 69.1123 10.7188 69.1123 11.5625C69.1123 12.3906 68.4404 13.0781 67.5967 13.0781Z" fill="black"/>
<path d="M67.5967 22.7656H32.5029C31.6592 22.7656 30.9873 22.0938 30.9873 21.25C30.9873 20.4063 31.6592 19.7344 32.5029 19.7344H67.5967C68.4404 19.7344 69.1123 20.4063 69.1123 21.25C69.1123 22.0781 68.4404 22.7656 67.5967 22.7656Z" fill="black"/>
</svg>
