<svg width="140" height="140" viewBox="0 0 140 140" fill="none" xmlns="http://www.w3.org/2000/svg">
<g clip-path="url(#clip0_54_1273)">
<path d="M133.105 79.7781L111.23 44.7781C111.033 44.4635 110.76 44.2041 110.435 44.0242C110.111 43.8444 109.746 43.75 109.375 43.75H30.625C30.254 43.75 29.8891 43.8444 29.5646 44.0242C29.2401 44.2041 28.9666 44.4635 28.77 44.7781L6.89501 79.7781C6.68805 80.1093 6.5735 80.4897 6.56325 80.8801C6.553 81.2704 6.64743 81.6564 6.83672 81.9979C7.02601 82.3395 7.30327 82.6241 7.63972 82.8223C7.97616 83.0205 8.35953 83.125 8.75001 83.125H13.125V137.812C13.125 138.393 13.3555 138.949 13.7657 139.359C14.1759 139.77 14.7323 140 15.3125 140H124.688C125.268 140 125.824 139.77 126.234 139.359C126.645 138.949 126.875 138.393 126.875 137.812V83.125H131.25C131.64 83.125 132.024 83.0205 132.36 82.8223C132.697 82.6241 132.974 82.3395 133.163 81.9979C133.353 81.6564 133.447 81.2704 133.437 80.8801C133.427 80.4897 133.312 80.1093 133.105 79.7781ZM56.875 135.625V91.875H83.125V135.625H56.875ZM98.4375 78.75C97.8573 78.75 97.3009 78.9805 96.8907 79.3907C96.4805 79.8009 96.25 80.3573 96.25 80.9375C96.25 81.5177 96.4805 82.0741 96.8907 82.4843C97.3009 82.8945 97.8573 83.125 98.4375 83.125H122.5V135.625H87.5V89.6875C87.5 89.1073 87.2695 88.5509 86.8593 88.1407C86.4491 87.7305 85.8927 87.5 85.3125 87.5H54.6875C54.1073 87.5 53.5509 87.7305 53.1407 88.1407C52.7305 88.5509 52.5 89.1073 52.5 89.6875V135.625H17.5V83.125H89.6875C90.2677 83.125 90.8241 82.8945 91.2343 82.4843C91.6445 82.0741 91.875 81.5177 91.875 80.9375C91.875 80.3573 91.6445 79.8009 91.2343 79.3907C90.8241 78.9805 90.2677 78.75 89.6875 78.75H12.6875L31.8281 48.125H108.163L127.313 78.75H98.4375Z" fill="black"/>
<path d="M45.9375 87.5H24.0625C23.4823 87.5 22.9259 87.7305 22.5157 88.1407C22.1055 88.5509 21.875 89.1073 21.875 89.6875V111.562C21.875 112.143 22.1055 112.699 22.5157 113.109C22.9259 113.52 23.4823 113.75 24.0625 113.75H45.9375C46.5177 113.75 47.0741 113.52 47.4843 113.109C47.8945 112.699 48.125 112.143 48.125 111.562V89.6875C48.125 89.1073 47.8945 88.5509 47.4843 88.1407C47.0741 87.7305 46.5177 87.5 45.9375 87.5ZM43.75 109.375H26.25V91.875H43.75V109.375Z" fill="black"/>
<path d="M91.875 89.6875V111.562C91.875 112.143 92.1055 112.699 92.5157 113.109C92.9259 113.52 93.4823 113.75 94.0625 113.75H115.938C116.518 113.75 117.074 113.52 117.484 113.109C117.895 112.699 118.125 112.143 118.125 111.562V89.6875C118.125 89.1073 117.895 88.5509 117.484 88.1407C117.074 87.7305 116.518 87.5 115.938 87.5H94.0625C93.4823 87.5 92.9259 87.7305 92.5157 88.1407C92.1055 88.5509 91.875 89.1073 91.875 89.6875ZM96.25 91.875H113.75V109.375H96.25V91.875Z" fill="black"/>
<path d="M63.4375 32.8125C63.4375 34.1104 63.8224 35.3792 64.5435 36.4584C65.2646 37.5376 66.2895 38.3788 67.4886 38.8755C68.6878 39.3722 70.0073 39.5021 71.2803 39.2489C72.5533 38.9957 73.7226 38.3707 74.6404 37.4529C75.5582 36.5351 76.1832 35.3658 76.4364 34.0928C76.6896 32.8198 76.5597 31.5003 76.063 30.3011C75.5663 29.102 74.7251 28.0771 73.6459 27.356C72.5667 26.6349 71.2979 26.25 70 26.25C68.2595 26.25 66.5903 26.9414 65.3596 28.1721C64.1289 29.4028 63.4375 31.072 63.4375 32.8125ZM72.1875 32.8125C72.1875 33.2451 72.0592 33.6681 71.8188 34.0278C71.5785 34.3875 71.2368 34.6679 70.8371 34.8335C70.4374 34.9991 69.9976 35.0424 69.5732 34.958C69.1489 34.8736 68.7591 34.6652 68.4532 34.3593C68.1473 34.0534 67.9389 33.6636 67.8545 33.2393C67.7701 32.8149 67.8134 32.3751 67.979 31.9754C68.1446 31.5757 68.425 31.234 68.7847 30.9937C69.1444 30.7533 69.5674 30.625 70 30.625C70.5802 30.625 71.1366 30.8555 71.5468 31.2657C71.957 31.6759 72.1875 32.2323 72.1875 32.8125Z" fill="black"/>
<path d="M85.3125 19.5321C85.7425 19.5303 86.1625 19.4019 86.5199 19.1627C86.8773 18.9236 87.1563 18.5845 87.322 18.1877C87.4877 17.7909 87.5328 17.354 87.4516 16.9317C87.3705 16.5094 87.1666 16.1205 86.8656 15.8134C84.6623 13.5781 82.0366 11.8032 79.1413 10.5916C76.2459 9.38012 73.1386 8.75623 70 8.75623C66.8614 8.75623 63.7541 9.38012 60.8587 10.5916C57.9633 11.8032 55.3377 13.5781 53.1344 15.8134C52.9185 16.0142 52.7454 16.2565 52.6256 16.5259C52.5057 16.7953 52.4416 17.0861 52.437 17.3809C52.4324 17.6757 52.4874 17.9684 52.5988 18.2414C52.7102 18.5144 52.8756 18.7621 53.0851 18.9695C53.2946 19.177 53.5439 19.3399 53.818 19.4486C54.0921 19.5573 54.3853 19.6094 54.68 19.6019C54.9748 19.5944 55.2649 19.5273 55.5331 19.4048C55.8013 19.2823 56.042 19.1069 56.2406 18.889C58.0381 17.0654 60.1802 15.6173 62.5423 14.6289C64.9044 13.6405 67.4394 13.1315 70 13.1315C72.5606 13.1315 75.0956 13.6405 77.4577 14.6289C79.8198 15.6173 81.9619 17.0654 83.7594 18.889C83.9625 19.0941 84.2044 19.2566 84.4711 19.3671C84.7378 19.4775 85.0239 19.5336 85.3125 19.5321Z" fill="black"/>
<path d="M49.6409 12.5168C55.1315 7.29024 62.4217 4.37517 70.0022 4.37517C77.5827 4.37517 84.8729 7.29024 90.3634 12.5168C90.7823 12.9183 91.3435 13.1369 91.9236 13.1246C92.5037 13.1123 93.0551 12.8701 93.4566 12.4512C93.858 12.0323 94.0767 11.4711 94.0644 10.8911C94.0521 10.311 93.8098 9.75956 93.3909 9.35809C87.0858 3.35072 78.711 -0.000244141 70.0022 -0.000244141C61.2934 -0.000244141 52.9185 3.35072 46.6134 9.35809C46.1946 9.75956 45.9523 10.311 45.94 10.8911C45.9277 11.4711 46.1463 12.0323 46.5478 12.4512C46.9493 12.8701 47.5007 13.1123 48.0808 13.1246C48.6609 13.1369 49.2221 12.9183 49.6409 12.5168Z" fill="black"/>
<path d="M78.75 25.7206C79.1772 25.7207 79.5952 25.5958 79.9522 25.3612C80.3093 25.1265 80.5898 24.7925 80.7592 24.4002C80.9285 24.008 80.9793 23.5747 80.9053 23.154C80.8312 22.7332 80.6356 22.3433 80.3425 22.0324C79.0253 20.6033 77.4262 19.4627 75.6461 18.6826C73.866 17.9024 71.9436 17.4996 70 17.4996C68.0565 17.4996 66.134 17.9024 64.3539 18.6826C62.5738 19.4627 60.9747 20.6033 59.6575 22.0324C59.2668 22.456 59.059 23.0167 59.0793 23.5926C59.0996 24.1685 59.3463 24.7131 59.7658 25.1082C60.1854 25.5032 60.7438 25.7168 61.3199 25.7024C61.896 25.6881 62.4432 25.447 62.8425 25.0315C63.7507 24.0369 64.8563 23.2425 66.0887 22.699C67.321 22.1555 68.6531 21.8748 70 21.8748C71.3469 21.8748 72.679 22.1555 73.9114 22.699C75.1437 23.2425 76.2493 24.0369 77.1575 25.0315C77.3619 25.2489 77.6086 25.4222 77.8825 25.5407C78.1564 25.6592 78.4516 25.7204 78.75 25.7206Z" fill="black"/>
</g>
<defs>
<clipPath id="clip0_54_1273">
<rect width="140" height="140" fill="white"/>
</clipPath>
</defs>
</svg>
