<svg width="140" height="140" viewBox="0 0 140 140" fill="none" xmlns="http://www.w3.org/2000/svg">
<g clip-path="url(#clip0_54_1317)">
<path d="M100.625 83.25H94.0625C93.4823 83.25 92.9259 83.4804 92.5157 83.8907C92.1055 84.3009 91.875 84.8573 91.875 85.4375C91.875 86.0176 92.1055 86.574 92.5157 86.9843C92.9259 87.3945 93.4823 87.625 94.0625 87.625H100.625C101.205 87.625 101.762 87.8554 102.172 88.2657C102.582 88.6759 102.813 89.2323 102.813 89.8125V98.5625C102.807 102.622 101.192 106.514 98.3218 109.384C95.4513 112.255 91.5595 113.87 87.5 113.875H85.3125V111.687C85.3125 109.947 84.6211 108.278 83.3904 107.047C82.1597 105.816 80.4905 105.125 78.75 105.125H61.25C59.5095 105.125 57.8403 105.816 56.6096 107.047C55.3789 108.278 54.6875 109.947 54.6875 111.687V113.875H37.7038C37.331 113.875 36.9645 113.779 36.639 113.598C36.3135 113.416 36.0399 113.154 35.844 112.837C35.648 112.52 35.5364 112.158 35.5196 111.786C35.5029 111.414 35.5815 111.043 35.7481 110.71L38.2222 105.764C40.9304 100.3 45.1155 95.7046 50.3027 92.4986C55.4899 89.2925 61.4717 87.6042 67.5697 87.625H85.3125C85.8927 87.625 86.4491 87.3945 86.8593 86.9843C87.2695 86.574 87.5 86.0176 87.5 85.4375C87.5 84.8573 87.2695 84.3009 86.8593 83.8907C86.4491 83.4804 85.8927 83.25 85.3125 83.25H67.5697C60.6596 83.2273 53.8814 85.1419 48.0043 88.7765C42.1271 92.411 37.3863 97.62 34.3197 103.812L31.8456 108.758C31.3471 109.758 31.112 110.868 31.1624 111.984C31.2128 113.099 31.5471 114.184 32.1337 115.134C32.7203 116.085 33.5397 116.87 34.5144 117.415C35.4892 117.96 36.5869 118.247 37.7038 118.25H87.5C92.7197 118.244 97.7239 116.168 101.415 112.477C105.106 108.786 107.182 103.782 107.188 98.5625V89.8125C107.188 88.072 106.496 86.4028 105.265 85.1721C104.035 83.9414 102.365 83.25 100.625 83.25ZM72.1875 109.5V113.875H67.8125V109.5H72.1875ZM59.0625 111.687C59.0625 111.107 59.293 110.551 59.7032 110.141C60.1134 109.73 60.6698 109.5 61.25 109.5H63.4375V113.875H59.0625V111.687ZM76.5625 113.875V109.5H78.75C79.3302 109.5 79.8866 109.73 80.2968 110.141C80.707 110.551 80.9375 111.107 80.9375 111.687V113.875H76.5625Z" fill="black"/>
<path d="M137.812 57.0001H127.56C124.973 56.9933 122.411 57.4995 120.022 58.4892C117.632 59.479 115.463 60.9327 113.638 62.7663L105.932 70.4751C104.726 70.2454 103.502 70.1282 102.274 70.1251H70.4375C64.9385 70.1388 59.4618 70.8257 54.1297 72.1704C53.7985 71.3608 53.3062 70.6269 52.6827 70.0134C52.0592 69.3999 51.3175 68.9195 50.5027 68.6014C49.6878 68.2832 48.8168 68.134 47.9426 68.1628C47.0683 68.1916 46.209 68.3978 45.4169 68.7688L30.1044 75.7229C28.9559 76.2432 27.9817 77.0833 27.2981 78.1427C26.6146 79.2022 26.2507 80.4361 26.25 81.6969V86.5313C18.8653 92.8543 12.9319 100.696 8.855 109.522C8.855 109.522 0.168437 128.378 0.1575 128.411C0.0818042 128.665 0.0290915 128.925 0 129.188L0 133.563C0 135.303 0.691404 136.972 1.92211 138.203C3.15282 139.434 4.82202 140.125 6.5625 140.125H107.188C108.928 140.125 110.597 139.434 111.828 138.203C113.059 136.972 113.75 135.303 113.75 133.563V130.894L125.344 127.995C127.032 127.572 128.482 126.496 129.377 125.004C130.272 123.512 130.537 121.725 130.115 120.037L121.365 85.0373C120.717 82.4254 119.54 79.9744 117.906 77.836L121.102 74.6291C123.98 71.7574 127.876 70.1386 131.941 70.1251H137.812C138.393 70.1251 138.949 69.8946 139.359 69.4844C139.77 69.0741 140 68.5177 140 67.9376V59.1876C140 58.6074 139.77 58.051 139.359 57.6408C138.949 57.2305 138.393 57.0001 137.812 57.0001ZM30.625 81.6969C30.6247 81.2776 30.745 80.867 30.9715 80.5141C31.198 80.1612 31.5212 79.8808 31.9025 79.7063L47.215 72.7479C47.6585 72.532 48.1634 72.4776 48.6426 72.5942C49.1218 72.7109 49.5453 72.9911 49.84 73.3866C42.9605 75.5887 36.4746 78.87 30.625 83.1079V81.6969ZM125.88 121.094C125.949 121.373 125.964 121.662 125.921 121.947C125.879 122.231 125.781 122.504 125.633 122.751C125.485 122.997 125.29 123.212 125.059 123.383C124.828 123.554 124.566 123.678 124.287 123.747L111.293 127H28.4375C27.8573 127 27.3009 127.231 26.8907 127.641C26.4805 128.051 26.25 128.607 26.25 129.188C26.25 129.768 26.4805 130.324 26.8907 130.734C27.3009 131.145 27.8573 131.375 28.4375 131.375H109.375V133.563C109.375 134.143 109.145 134.699 108.734 135.109C108.324 135.52 107.768 135.75 107.188 135.75H6.5625C5.98234 135.75 5.42594 135.52 5.0157 135.109C4.60547 134.699 4.375 134.143 4.375 133.563V131.375H19.6875C20.2677 131.375 20.8241 131.145 21.2343 130.734C21.6445 130.324 21.875 129.768 21.875 129.188C21.875 128.607 21.6445 128.051 21.2343 127.641C20.8241 127.231 20.2677 127 19.6875 127H5.60437L12.8231 111.355C17.9207 100.364 26.0506 91.0564 36.2569 84.5275C46.4633 77.9987 58.3216 74.5198 70.4375 74.5001H102.274C104.344 74.5001 106.391 74.9207 108.293 75.7363C110.194 76.552 111.91 77.7456 113.337 79.2448C113.35 79.2579 113.354 79.2754 113.365 79.2863C113.376 79.2973 113.409 79.3104 113.428 79.3301C115.221 81.2308 116.495 83.5597 117.13 86.0938L125.88 121.094ZM135.625 65.7501H131.941C126.712 65.7653 121.701 67.8457 117.998 71.5382L114.863 74.686C113.568 73.6055 112.139 72.6968 110.611 71.9823L116.736 65.8573C118.155 64.4326 119.842 63.3031 121.7 62.5338C123.557 61.7645 125.549 61.3707 127.56 61.3751H135.625V65.7501Z" fill="black"/>
</g>
<defs>
<clipPath id="clip0_54_1317">
<rect width="140" height="140" fill="white"/>
</clipPath>
</defs>
</svg>
