<svg width="141" height="140" viewBox="0 0 141 140" fill="none" xmlns="http://www.w3.org/2000/svg">
<g clip-path="url(#clip0_54_1307)">
<path d="M134.188 44H7.3125C5.57202 44 3.90282 44.6914 2.67211 45.9221C1.4414 47.1528 0.75 48.822 0.75 50.5625L0.75 124.938C0.75 126.678 1.4414 128.347 2.67211 129.578C3.90282 130.809 5.57202 131.5 7.3125 131.5H9.5V133.688C9.5 135.428 10.1914 137.097 11.4221 138.328C12.6528 139.559 14.322 140.25 16.0625 140.25H20.4375C22.178 140.25 23.8472 139.559 25.0779 138.328C26.3086 137.097 27 135.428 27 133.688V131.5H114.5V133.688C114.5 135.428 115.191 137.097 116.422 138.328C117.653 139.559 119.322 140.25 121.062 140.25H125.438C127.178 140.25 128.847 139.559 130.078 138.328C131.309 137.097 132 135.428 132 133.688V131.5H134.188C135.928 131.5 137.597 130.809 138.828 129.578C140.059 128.347 140.75 126.678 140.75 124.938V50.5625C140.75 48.822 140.059 47.1528 138.828 45.9221C137.597 44.6914 135.928 44 134.188 44ZM22.625 133.688C22.625 134.268 22.3945 134.824 21.9843 135.234C21.5741 135.645 21.0177 135.875 20.4375 135.875H16.0625C15.4823 135.875 14.9259 135.645 14.5157 135.234C14.1055 134.824 13.875 134.268 13.875 133.688V131.5H22.625V133.688ZM7.3125 127.125C6.73234 127.125 6.17594 126.895 5.7657 126.484C5.35547 126.074 5.125 125.518 5.125 124.938V50.5625C5.125 49.9823 5.35547 49.4259 5.7657 49.0157C6.17594 48.6055 6.73234 48.375 7.3125 48.375H101.375V127.125H7.3125ZM127.625 133.688C127.625 134.268 127.395 134.824 126.984 135.234C126.574 135.645 126.018 135.875 125.438 135.875H121.062C120.482 135.875 119.926 135.645 119.516 135.234C119.105 134.824 118.875 134.268 118.875 133.688V131.5H127.625V133.688ZM136.375 124.938C136.375 125.518 136.145 126.074 135.734 126.484C135.324 126.895 134.768 127.125 134.188 127.125H105.75V48.375H134.188C134.768 48.375 135.324 48.6055 135.734 49.0157C136.145 49.4259 136.375 49.9823 136.375 50.5625V124.938Z" fill="black"/>
<path d="M92.625 52.75C90.8845 52.75 89.2153 53.4414 87.9846 54.6721C86.7539 55.9028 86.0625 57.572 86.0625 59.3125V116.188C86.0625 117.928 86.7539 119.597 87.9846 120.828C89.2153 122.059 90.8845 122.75 92.625 122.75C94.3655 122.75 96.0347 122.059 97.2654 120.828C98.4961 119.597 99.1875 117.928 99.1875 116.188V59.3125C99.1875 57.572 98.4961 55.9028 97.2654 54.6721C96.0347 53.4414 94.3655 52.75 92.625 52.75ZM94.8125 116.188C94.8125 116.768 94.582 117.324 94.1718 117.734C93.7616 118.145 93.2052 118.375 92.625 118.375C92.0448 118.375 91.4884 118.145 91.0782 117.734C90.668 117.324 90.4375 116.768 90.4375 116.188V59.3125C90.4375 58.7323 90.668 58.1759 91.0782 57.7657C91.4884 57.3555 92.0448 57.125 92.625 57.125C93.2052 57.125 93.7616 57.3555 94.1718 57.7657C94.582 58.1759 94.8125 58.7323 94.8125 59.3125V116.188Z" fill="black"/>
<path d="M132 52.75H110.125C109.545 52.75 108.988 52.9805 108.578 53.3907C108.168 53.8009 107.938 54.3573 107.938 54.9375V63.6875C107.938 64.2677 108.168 64.8241 108.578 65.2343C108.988 65.6445 109.545 65.875 110.125 65.875H132C132.58 65.875 133.137 65.6445 133.547 65.2343C133.957 64.8241 134.188 64.2677 134.188 63.6875V54.9375C134.188 54.3573 133.957 53.8009 133.547 53.3907C133.137 52.9805 132.58 52.75 132 52.75ZM129.812 61.5H112.312V57.125H129.812V61.5Z" fill="black"/>
<path d="M81.6875 52.75H72.9375C72.3573 52.75 71.8009 52.9805 71.3907 53.3907C70.9805 53.8009 70.75 54.3573 70.75 54.9375C70.75 55.5177 70.9805 56.0741 71.3907 56.4843C71.8009 56.8945 72.3573 57.125 72.9375 57.125H79.5V99.9694L69.2034 110.266C68.9945 110.468 68.8279 110.709 68.7132 110.976C68.5986 111.243 68.5382 111.53 68.5357 111.82C68.5332 112.111 68.5885 112.399 68.6985 112.668C68.8085 112.937 68.9709 113.181 69.1763 113.386C69.3817 113.592 69.626 113.754 69.8948 113.864C70.1636 113.974 70.4517 114.029 70.7421 114.027C71.0326 114.024 71.3196 113.964 71.5865 113.849C71.8534 113.735 72.0948 113.568 72.2966 113.359L79.5 106.156V118.375H51.9681L61.3591 108.984C61.7575 108.571 61.978 108.019 61.973 107.445C61.9681 106.872 61.738 106.323 61.3324 105.918C60.9268 105.512 60.3782 105.282 59.8046 105.277C59.2311 105.272 58.6785 105.492 58.2659 105.891L45.7819 118.375H11.6875V86.4681L32.9216 65.2341C33.32 64.8215 33.5405 64.2689 33.5355 63.6954C33.5306 63.1218 33.3005 62.5732 32.8949 62.1676C32.4893 61.762 31.9407 61.5319 31.3671 61.527C30.7936 61.522 30.241 61.7425 29.8284 62.1409L11.6875 80.2819V57.125H50.1569L42.9534 64.3284C42.7445 64.5302 42.5779 64.7716 42.4632 65.0385C42.3486 65.3054 42.2882 65.5924 42.2857 65.8829C42.2832 66.1733 42.3385 66.4614 42.4485 66.7302C42.5585 66.999 42.7209 67.2433 42.9263 67.4487C43.1317 67.6541 43.376 67.8165 43.6448 67.9265C43.9136 68.0365 44.2017 68.0918 44.4921 68.0893C44.7826 68.0868 45.0696 68.0264 45.3365 67.9118C45.6034 67.7971 45.8448 67.6305 46.0466 67.4216L56.3431 57.125H64.1875C64.7677 57.125 65.3241 56.8945 65.7343 56.4843C66.1445 56.0741 66.375 55.5177 66.375 54.9375C66.375 54.3573 66.1445 53.8009 65.7343 53.3907C65.3241 52.9805 64.7677 52.75 64.1875 52.75H9.5C8.91984 52.75 8.36344 52.9805 7.9532 53.3907C7.54297 53.8009 7.3125 54.3573 7.3125 54.9375V120.562C7.3125 121.143 7.54297 121.699 7.9532 122.109C8.36344 122.52 8.91984 122.75 9.5 122.75H81.6875C82.2677 122.75 82.8241 122.52 83.2343 122.109C83.6445 121.699 83.875 121.143 83.875 120.562V54.9375C83.875 54.3573 83.6445 53.8009 83.2343 53.3907C82.8241 52.9805 82.2677 52.75 81.6875 52.75Z" fill="black"/>
<path d="M121.063 96.5C118.467 96.5 115.929 97.2698 113.771 98.712C111.612 100.154 109.93 102.204 108.937 104.602C107.943 107.001 107.683 109.64 108.19 112.186C108.696 114.732 109.946 117.07 111.782 118.906C113.617 120.741 115.956 121.991 118.502 122.498C121.048 123.004 123.687 122.744 126.085 121.751C128.484 120.758 130.533 119.075 131.976 116.917C133.418 114.758 134.188 112.221 134.188 109.625C134.184 106.145 132.8 102.809 130.339 100.348C127.879 97.8874 124.542 96.5035 121.063 96.5ZM118.875 116.188V103.062C118.875 102.482 119.105 101.926 119.516 101.516C119.926 101.105 120.482 100.875 121.063 100.875C121.643 100.875 122.199 101.105 122.609 101.516C123.02 101.926 123.25 102.482 123.25 103.062V116.188C123.25 116.768 123.02 117.324 122.609 117.734C122.199 118.145 121.643 118.375 121.063 118.375C120.482 118.375 119.926 118.145 119.516 117.734C119.105 117.324 118.875 116.768 118.875 116.188ZM114.5 103.898V115.352C113.091 113.777 112.313 111.738 112.313 109.625C112.313 107.512 113.091 105.473 114.5 103.898ZM127.625 115.352V103.898C129.034 105.473 129.812 107.512 129.812 109.625C129.812 111.738 129.034 113.777 127.625 115.352Z" fill="black"/>
<path d="M130.342 71.9059C130.32 71.8862 130.294 71.8709 130.272 71.8512C127.781 69.551 124.498 68.3037 121.108 68.3705C117.719 68.4372 114.486 69.8129 112.089 72.2094C109.691 74.6059 108.313 77.8373 108.244 81.2267C108.176 84.6161 109.421 87.9007 111.72 90.3925C111.744 90.4165 111.759 90.445 111.783 90.469C111.807 90.4931 111.84 90.5106 111.866 90.5369C114.358 92.8353 117.643 94.0803 121.032 94.0111C124.422 93.942 127.653 92.564 130.049 90.1658C132.445 87.7676 133.821 84.5353 133.887 81.1458C133.954 77.7563 132.706 74.4726 130.405 71.9825C130.381 71.9584 130.366 71.93 130.342 71.9059ZM127.249 78.0944L117.969 87.3737C117.558 87.7666 117.011 87.9875 116.442 87.9911C115.873 87.9948 115.324 87.781 114.907 87.3934L114.859 87.3475C114.461 86.936 114.24 86.3848 114.243 85.8122C114.247 85.2396 114.475 84.6913 114.878 84.285L124.158 75.0056C124.562 74.5993 125.111 74.369 125.685 74.3649C126.258 74.3608 126.81 74.5832 127.22 74.9837L127.271 75.0319C127.669 75.4436 127.889 75.995 127.885 76.5676C127.881 77.1402 127.653 77.6883 127.249 78.0944ZM120.468 72.4965L112.374 80.5903C112.518 78.4906 113.418 76.5143 114.907 75.0265C116.395 73.5387 118.372 72.64 120.472 72.4965H120.468ZM121.649 89.8784L129.743 81.7847C129.598 83.8829 128.7 85.8581 127.213 87.3457C125.726 88.8333 123.751 89.7329 121.653 89.8784H121.649Z" fill="black"/>
<path d="M36.391 70.8909L32.016 75.2659C31.807 75.4677 31.6404 75.7091 31.5257 75.976C31.4111 76.2429 31.3508 76.5299 31.3482 76.8204C31.3457 77.1108 31.4011 77.3989 31.511 77.6677C31.621 77.9365 31.7835 78.1808 31.9889 78.3862C32.1942 78.5915 32.4385 78.754 32.7073 78.864C32.9761 78.974 33.2642 79.0293 33.5547 79.0268C33.8451 79.0243 34.1322 78.9639 34.399 78.8493C34.6659 78.7346 34.9073 78.568 35.1091 78.359L39.4841 73.984C39.8826 73.5715 40.103 73.0189 40.0981 72.4453C40.0931 71.8718 39.863 71.3231 39.4574 70.9176C39.0519 70.512 38.5032 70.2819 37.9297 70.2769C37.3561 70.272 36.8035 70.4924 36.391 70.8909Z" fill="black"/>
<path d="M64.8285 102.422C65.2387 102.832 65.795 103.062 66.375 103.062C66.9551 103.062 67.5114 102.832 67.9216 102.422L74.4841 95.859C74.8826 95.4465 75.103 94.8939 75.0981 94.3203C75.0931 93.7468 74.863 93.1981 74.4574 92.7926C74.0519 92.387 73.5032 92.1569 72.9297 92.1519C72.3561 92.147 71.8035 92.3674 71.391 92.7659L64.8285 99.3284C64.4184 99.7386 64.188 100.295 64.188 100.875C64.188 101.455 64.4184 102.011 64.8285 102.422Z" fill="black"/>
</g>
<defs>
<clipPath id="clip0_54_1307">
<rect width="140" height="140" fill="white" transform="translate(0.75)"/>
</clipPath>
</defs>
</svg>
