<svg width="141" height="140" viewBox="0 0 141 140" fill="none" xmlns="http://www.w3.org/2000/svg">
<path d="M107.938 0H33.5625C31.822 0 30.1528 0.691404 28.9221 1.92211C27.6914 3.15282 27 4.82202 27 6.5625V133.438C27 135.178 27.6914 136.847 28.9221 138.078C30.1528 139.309 31.822 140 33.5625 140H107.938C109.678 140 111.347 139.309 112.578 138.078C113.809 136.847 114.5 135.178 114.5 133.438V43.75C114.5 43.1698 114.27 42.6134 113.859 42.2032C113.449 41.793 112.893 41.5625 112.312 41.5625C111.732 41.5625 111.176 41.793 110.766 42.2032C110.355 42.6134 110.125 43.1698 110.125 43.75V118.125H31.375V17.5H100.469L71.3909 46.5784C71.182 46.7802 71.0154 47.0216 70.9007 47.2885C70.7861 47.5554 70.7257 47.8424 70.7232 48.1329C70.7207 48.4233 70.776 48.7114 70.886 48.9802C70.996 49.249 71.1584 49.4933 71.3638 49.6987C71.5692 49.9041 71.8135 50.0665 72.0823 50.1765C72.3511 50.2865 72.6392 50.3418 72.9296 50.3393C73.2201 50.3368 73.5071 50.2764 73.774 50.1618C74.0409 50.0471 74.2823 49.8805 74.4841 49.6716L106.656 17.5H110.125V35C110.125 35.5802 110.355 36.1366 110.766 36.5468C111.176 36.957 111.732 37.1875 112.312 37.1875C112.893 37.1875 113.449 36.957 113.859 36.5468C114.27 36.1366 114.5 35.5802 114.5 35V6.5625C114.5 4.82202 113.809 3.15282 112.578 1.92211C111.347 0.691404 109.678 0 107.938 0ZM110.125 122.5V133.438C110.125 134.018 109.895 134.574 109.484 134.984C109.074 135.395 108.518 135.625 107.938 135.625H33.5625C32.9823 135.625 32.4259 135.395 32.0157 134.984C31.6055 134.574 31.375 134.018 31.375 133.438V122.5H110.125ZM31.375 13.125V6.5625C31.375 5.98234 31.6055 5.42594 32.0157 5.0157C32.4259 4.60547 32.9823 4.375 33.5625 4.375H107.938C108.518 4.375 109.074 4.60547 109.484 5.0157C109.895 5.42594 110.125 5.98234 110.125 6.5625V13.125H31.375Z" fill="black"/>
<path d="M68.5625 131.25H72.9375C73.5177 131.25 74.0741 131.02 74.4843 130.609C74.8945 130.199 75.125 129.643 75.125 129.062C75.125 128.482 74.8945 127.926 74.4843 127.516C74.0741 127.105 73.5177 126.875 72.9375 126.875H68.5625C67.9823 126.875 67.4259 127.105 67.0157 127.516C66.6055 127.926 66.375 128.482 66.375 129.062C66.375 129.643 66.6055 130.199 67.0157 130.609C67.4259 131.02 67.9823 131.25 68.5625 131.25Z" fill="black"/>
<path d="M70.1091 26.891C69.6989 26.4809 69.1426 26.2505 68.5625 26.2505C67.9825 26.2505 67.4262 26.4809 67.016 26.891L40.766 53.141C40.557 53.3427 40.3904 53.5841 40.2757 53.851C40.1611 54.1179 40.1008 54.4049 40.0982 54.6954C40.0957 54.9858 40.1511 55.2739 40.261 55.5427C40.371 55.8116 40.5335 56.0558 40.7389 56.2612C40.9442 56.4666 41.1885 56.629 41.4573 56.739C41.7262 56.849 42.0142 56.9043 42.3047 56.9018C42.5951 56.8993 42.8822 56.8389 43.149 56.7243C43.4159 56.6097 43.6573 56.443 43.8591 56.2341L70.1091 29.9841C70.5192 29.5739 70.7496 29.0176 70.7496 28.4375C70.7496 27.8575 70.5192 27.3012 70.1091 26.891Z" fill="black"/>
<path d="M93.266 70.6409L75.766 88.1409C75.557 88.3427 75.3904 88.5841 75.2757 88.851C75.1611 89.1179 75.1008 89.4049 75.0982 89.6953C75.0957 89.9858 75.1511 90.2739 75.261 90.5427C75.371 90.8115 75.5335 91.0558 75.7388 91.2612C75.9442 91.4665 76.1885 91.629 76.4573 91.739C76.7261 91.8489 77.0142 91.9043 77.3047 91.9018C77.5951 91.8992 77.8821 91.8389 78.149 91.7243C78.4159 91.6096 78.6573 91.443 78.8591 91.234L96.3591 73.734C96.7576 73.3215 96.978 72.7689 96.9731 72.1953C96.9681 71.6218 96.738 71.0731 96.3324 70.6676C95.9269 70.262 95.3782 70.0319 94.8047 70.0269C94.2311 70.022 93.6785 70.2424 93.266 70.6409Z" fill="black"/>
<path d="M59.8125 109.375C60.3926 109.375 60.9489 109.144 61.3591 108.734L70.1091 99.984C70.5076 99.5715 70.728 99.0189 70.7231 98.4453C70.7181 97.8718 70.488 97.3231 70.0824 96.9176C69.6769 96.512 69.1282 96.2819 68.5546 96.2769C67.9811 96.272 67.4285 96.4924 67.016 96.8909L58.266 105.641C57.9601 105.947 57.7519 106.337 57.6675 106.761C57.5831 107.185 57.6264 107.625 57.792 108.025C57.9575 108.424 58.2378 108.766 58.5975 109.006C58.9571 109.247 59.3799 109.375 59.8125 109.375Z" fill="black"/>
<path d="M67.9216 53.141C67.5114 52.7309 66.9551 52.5005 66.375 52.5005C65.795 52.5005 65.2387 52.7309 64.8285 53.141L51.7035 66.266C51.4945 66.4677 51.3279 66.7091 51.2132 66.976C51.0986 67.2429 51.0383 67.5299 51.0357 67.8204C51.0332 68.1108 51.0886 68.3989 51.1985 68.6677C51.3085 68.9366 51.471 69.1808 51.6764 69.3862C51.8817 69.5916 52.126 69.754 52.3948 69.864C52.6637 69.974 52.9517 70.0293 53.2422 70.0268C53.5326 70.0243 53.8197 69.9639 54.0865 69.8493C54.3534 69.7347 54.5948 69.568 54.7966 69.3591L67.9216 56.2341C68.3317 55.8239 68.5621 55.2676 68.5621 54.6875C68.5621 54.1075 68.3317 53.5512 67.9216 53.141Z" fill="black"/>
</svg>
