<svg width="141" height="140" viewBox="0 0 141 140" fill="none" xmlns="http://www.w3.org/2000/svg">
<g clip-path="url(#clip0_176_271)">
<path d="M103.062 0H37.4375C35.697 0 34.0278 0.691404 32.7971 1.92211C31.5664 3.15282 30.875 4.82202 30.875 6.5625V133.438C30.875 135.178 31.5664 136.847 32.7971 138.078C34.0278 139.309 35.697 140 37.4375 140H41.8125C43.553 140 45.2222 139.309 46.4529 138.078C47.6836 136.847 48.375 135.178 48.375 133.438H92.125C92.125 135.178 92.8164 136.847 94.0471 138.078C95.2778 139.309 96.947 140 98.6875 140H103.062C104.803 140 106.472 139.309 107.703 138.078C108.934 136.847 109.625 135.178 109.625 133.438V6.5625C109.625 4.82202 108.934 3.15282 107.703 1.92211C106.472 0.691404 104.803 0 103.062 0ZM41.8125 135.625H37.4375C36.8573 135.625 36.3009 135.395 35.8907 134.984C35.4805 134.574 35.25 134.018 35.25 133.438H44C44 134.018 43.7695 134.574 43.3593 134.984C42.9491 135.395 42.3927 135.625 41.8125 135.625ZM35.25 129.062V48.125H89.9375C90.5177 48.125 91.0741 47.8945 91.4843 47.4843C91.8945 47.0741 92.125 46.5177 92.125 45.9375C92.125 45.3573 91.8945 44.8009 91.4843 44.3907C91.0741 43.9805 90.5177 43.75 89.9375 43.75H35.25V6.5625C35.25 5.98234 35.4805 5.42594 35.8907 5.0157C36.3009 4.60547 36.8573 4.375 37.4375 4.375H103.062C103.643 4.375 104.199 4.60547 104.609 5.0157C105.02 5.42594 105.25 5.98234 105.25 6.5625V43.75H98.6875C98.1073 43.75 97.5509 43.9805 97.1407 44.3907C96.7305 44.8009 96.5 45.3573 96.5 45.9375C96.5 46.5177 96.7305 47.0741 97.1407 47.4843C97.5509 47.8945 98.1073 48.125 98.6875 48.125H105.25V129.062H35.25ZM103.062 135.625H98.6875C98.1073 135.625 97.5509 135.395 97.1407 134.984C96.7305 134.574 96.5 134.018 96.5 133.438H105.25C105.25 134.018 105.02 134.574 104.609 134.984C104.199 135.395 103.643 135.625 103.062 135.625Z" fill="black"/>
<path d="M42.9062 13.125C41.4558 13.125 40.0648 13.7012 39.0393 14.7268C38.0137 15.7523 37.4375 17.1433 37.4375 18.5938V36.0938C37.4375 37.5442 38.0137 38.9352 39.0393 39.9607C40.0648 40.9863 41.4558 41.5625 42.9062 41.5625C44.3567 41.5625 45.7477 40.9863 46.7732 39.9607C47.7988 38.9352 48.375 37.5442 48.375 36.0938V18.5938C48.375 17.1433 47.7988 15.7523 46.7732 14.7268C45.7477 13.7012 44.3567 13.125 42.9062 13.125ZM44 36.0938C44 36.3838 43.8848 36.662 43.6796 36.8671C43.4745 37.0723 43.1963 37.1875 42.9062 37.1875C42.6162 37.1875 42.338 37.0723 42.1329 36.8671C41.9277 36.662 41.8125 36.3838 41.8125 36.0938V18.5938C41.8125 18.3037 41.9277 18.0255 42.1329 17.8204C42.338 17.6152 42.6162 17.5 42.9062 17.5C43.1963 17.5 43.4745 17.6152 43.6796 17.8204C43.8848 18.0255 44 18.3037 44 18.5938V36.0938Z" fill="black"/>
<path d="M42.9062 50.3125C41.4558 50.3125 40.0648 50.8887 39.0393 51.9143C38.0137 52.9398 37.4375 54.3308 37.4375 55.7812V79.8438C37.4375 81.2942 38.0137 82.6852 39.0393 83.7107C40.0648 84.7363 41.4558 85.3125 42.9062 85.3125C44.3567 85.3125 45.7477 84.7363 46.7732 83.7107C47.7988 82.6852 48.375 81.2942 48.375 79.8438V55.7812C48.375 54.3308 47.7988 52.9398 46.7732 51.9143C45.7477 50.8887 44.3567 50.3125 42.9062 50.3125ZM44 79.8438C44 80.1338 43.8848 80.412 43.6796 80.6171C43.4745 80.8223 43.1963 80.9375 42.9062 80.9375C42.6162 80.9375 42.338 80.8223 42.1329 80.6171C41.9277 80.412 41.8125 80.1338 41.8125 79.8438V55.7812C41.8125 55.4912 41.9277 55.213 42.1329 55.0079C42.338 54.8027 42.6162 54.6875 42.9062 54.6875C43.1963 54.6875 43.4745 54.8027 43.6796 55.0079C43.8848 55.213 44 55.4912 44 55.7812V79.8438Z" fill="black"/>
</g>
<defs>
<clipPath id="clip0_176_271">
<rect width="140" height="140" fill="white" transform="translate(0.25)"/>
</clipPath>
</defs>
</svg>
