<svg width="141" height="140" viewBox="0 0 141 140" fill="none" xmlns="http://www.w3.org/2000/svg">
<g clip-path="url(#clip0_54_1237)">
<path d="M133.938 78.75H127.375V24.0625C127.375 22.322 126.684 20.6528 125.453 19.4221C124.222 18.1914 122.553 17.5 120.812 17.5C119.072 17.5 117.403 18.1914 116.172 19.4221C114.941 20.6528 114.25 22.322 114.25 24.0625V78.75H26.75V24.0625C26.75 22.322 26.0586 20.6528 24.8279 19.4221C23.5972 18.1914 21.928 17.5 20.1875 17.5C18.447 17.5 16.7778 18.1914 15.5471 19.4221C14.3164 20.6528 13.625 22.322 13.625 24.0625V78.75H7.0625C5.32202 78.75 3.65282 79.4414 2.42211 80.6721C1.1914 81.9028 0.5 83.572 0.5 85.3125L0.5 107.188C0.5 108.928 1.1914 110.597 2.42211 111.828C3.65282 113.059 5.32202 113.75 7.0625 113.75H9.25V115.938C9.25 117.678 9.9414 119.347 11.1721 120.578C12.4028 121.809 14.072 122.5 15.8125 122.5H20.1875C21.928 122.5 23.5972 121.809 24.8279 120.578C26.0586 119.347 26.75 117.678 26.75 115.938V113.75H109.875V115.938C109.875 117.678 110.566 119.347 111.797 120.578C113.028 121.809 114.697 122.5 116.438 122.5H120.812C122.553 122.5 124.222 121.809 125.453 120.578C126.684 119.347 127.375 117.678 127.375 115.938V113.75H133.938C135.678 113.75 137.347 113.059 138.578 111.828C139.809 110.597 140.5 108.928 140.5 107.188V85.3125C140.5 83.572 139.809 81.9028 138.578 80.6721C137.347 79.4414 135.678 78.75 133.938 78.75ZM118.625 24.0625C118.625 23.4823 118.855 22.9259 119.266 22.5157C119.676 22.1055 120.232 21.875 120.812 21.875C121.393 21.875 121.949 22.1055 122.359 22.5157C122.77 22.9259 123 23.4823 123 24.0625V78.75H118.625V24.0625ZM18 24.0625C18 23.4823 18.2305 22.9259 18.6407 22.5157C19.0509 22.1055 19.6073 21.875 20.1875 21.875C20.7677 21.875 21.3241 22.1055 21.7343 22.5157C22.1445 22.9259 22.375 23.4823 22.375 24.0625V78.75H18V24.0625ZM22.375 115.938C22.375 116.518 22.1445 117.074 21.7343 117.484C21.3241 117.895 20.7677 118.125 20.1875 118.125H15.8125C15.2323 118.125 14.6759 117.895 14.2657 117.484C13.8555 117.074 13.625 116.518 13.625 115.938V113.75H22.375V115.938ZM123 115.938C123 116.518 122.77 117.074 122.359 117.484C121.949 117.895 121.393 118.125 120.812 118.125H116.438C115.857 118.125 115.301 117.895 114.891 117.484C114.48 117.074 114.25 116.518 114.25 115.938V113.75H123V115.938ZM136.125 107.188C136.125 107.768 135.895 108.324 135.484 108.734C135.074 109.145 134.518 109.375 133.938 109.375H7.0625C6.48234 109.375 5.92594 109.145 5.5157 108.734C5.10547 108.324 4.875 107.768 4.875 107.188V85.3125C4.875 84.7323 5.10547 84.1759 5.5157 83.7657C5.92594 83.3555 6.48234 83.125 7.0625 83.125H133.938C134.518 83.125 135.074 83.3555 135.484 83.7657C135.895 84.1759 136.125 84.7323 136.125 85.3125V107.188Z" fill="black"/>
<path d="M112.062 91.875C111.482 91.875 110.926 92.1055 110.516 92.5157C110.105 92.9259 109.875 93.4823 109.875 94.0625V98.4375C109.875 99.0177 110.105 99.5741 110.516 99.9843C110.926 100.395 111.482 100.625 112.062 100.625C112.643 100.625 113.199 100.395 113.609 99.9843C114.02 99.5741 114.25 99.0177 114.25 98.4375V94.0625C114.25 93.4823 114.02 92.9259 113.609 92.5157C113.199 92.1055 112.643 91.875 112.062 91.875Z" fill="black"/>
<path d="M120.812 91.875C120.232 91.875 119.676 92.1055 119.266 92.5157C118.855 92.9259 118.625 93.4823 118.625 94.0625V98.4375C118.625 99.0177 118.855 99.5741 119.266 99.9843C119.676 100.395 120.232 100.625 120.812 100.625C121.393 100.625 121.949 100.395 122.359 99.9843C122.77 99.5741 123 99.0177 123 98.4375V94.0625C123 93.4823 122.77 92.9259 122.359 92.5157C121.949 92.1055 121.393 91.875 120.812 91.875Z" fill="black"/>
<path d="M129.562 91.875C128.982 91.875 128.426 92.1055 128.016 92.5157C127.605 92.9259 127.375 93.4823 127.375 94.0625V98.4375C127.375 99.0177 127.605 99.5741 128.016 99.9843C128.426 100.395 128.982 100.625 129.562 100.625C130.143 100.625 130.699 100.395 131.109 99.9843C131.52 99.5741 131.75 99.0177 131.75 98.4375V94.0625C131.75 93.4823 131.52 92.9259 131.109 92.5157C130.699 92.1055 130.143 91.875 129.562 91.875Z" fill="black"/>
<path d="M15.8125 89.6875C14.5146 89.6875 13.2458 90.0724 12.1666 90.7935C11.0874 91.5146 10.2462 92.5395 9.74954 93.7386C9.25284 94.9378 9.12288 96.2573 9.3761 97.5303C9.62932 98.8033 10.2543 99.9726 11.1721 100.89C12.0899 101.808 13.2592 102.433 14.5322 102.686C15.8052 102.94 17.1247 102.81 18.3239 102.313C19.523 101.816 20.5479 100.975 21.269 99.8959C21.9901 98.8167 22.375 97.5479 22.375 96.25C22.375 94.5095 21.6836 92.8403 20.4529 91.6096C19.2222 90.3789 17.553 89.6875 15.8125 89.6875ZM15.8125 98.4375C15.3799 98.4375 14.9569 98.3092 14.5972 98.0688C14.2375 97.8285 13.9571 97.4868 13.7915 97.0871C13.6259 96.6874 13.5826 96.2476 13.667 95.8232C13.7514 95.3989 13.9598 95.0091 14.2657 94.7032C14.5716 94.3973 14.9614 94.1889 15.3857 94.1045C15.8101 94.0201 16.2499 94.0635 16.6496 94.229C17.0493 94.3946 17.391 94.675 17.6313 95.0347C17.8717 95.3944 18 95.8174 18 96.25C18 96.8302 17.7695 97.3866 17.3593 97.7968C16.9491 98.207 16.3927 98.4375 15.8125 98.4375Z" fill="black"/>
<path d="M31.125 89.6875C29.8271 89.6875 28.5583 90.0724 27.4791 90.7935C26.3999 91.5146 25.5587 92.5395 25.062 93.7386C24.5653 94.9378 24.4354 96.2573 24.6886 97.5303C24.9418 98.8033 25.5668 99.9726 26.4846 100.89C27.4024 101.808 28.5717 102.433 29.8447 102.686C31.1177 102.94 32.4372 102.81 33.6364 102.313C34.8355 101.816 35.8604 100.975 36.5815 99.8959C37.3026 98.8167 37.6875 97.5479 37.6875 96.25C37.6875 94.5095 36.9961 92.8403 35.7654 91.6096C34.5347 90.3789 32.8655 89.6875 31.125 89.6875ZM31.125 98.4375C30.6924 98.4375 30.2694 98.3092 29.9097 98.0688C29.55 97.8285 29.2696 97.4868 29.104 97.0871C28.9385 96.6874 28.8951 96.2476 28.9795 95.8232C29.0639 95.3989 29.2723 95.0091 29.5782 94.7032C29.8841 94.3973 30.2739 94.1889 30.6982 94.1045C31.1226 94.0201 31.5624 94.0635 31.9621 94.229C32.3618 94.3946 32.7035 94.675 32.9438 95.0347C33.1842 95.3944 33.3125 95.8174 33.3125 96.25C33.3125 96.8302 33.082 97.3866 32.6718 97.7968C32.2616 98.207 31.7052 98.4375 31.125 98.4375Z" fill="black"/>
<path d="M46.4375 89.6875C45.1396 89.6875 43.8708 90.0724 42.7916 90.7935C41.7124 91.5146 40.8712 92.5395 40.3745 93.7386C39.8778 94.9378 39.7479 96.2573 40.0011 97.5303C40.2543 98.8033 40.8793 99.9726 41.7971 100.89C42.7149 101.808 43.8842 102.433 45.1572 102.686C46.4302 102.94 47.7497 102.81 48.9489 102.313C50.148 101.816 51.1729 100.975 51.894 99.8959C52.6151 98.8167 53 97.5479 53 96.25C53 94.5095 52.3086 92.8403 51.0779 91.6096C49.8472 90.3789 48.178 89.6875 46.4375 89.6875ZM46.4375 98.4375C46.0049 98.4375 45.5819 98.3092 45.2222 98.0688C44.8625 97.8285 44.5821 97.4868 44.4165 97.0871C44.251 96.6874 44.2076 96.2476 44.292 95.8232C44.3764 95.3989 44.5848 95.0091 44.8907 94.7032C45.1966 94.3973 45.5864 94.1889 46.0107 94.1045C46.4351 94.0201 46.8749 94.0635 47.2746 94.229C47.6743 94.3946 48.016 94.675 48.2563 95.0347C48.4967 95.3944 48.625 95.8174 48.625 96.25C48.625 96.8302 48.3945 97.3866 47.9843 97.7968C47.5741 98.207 47.0177 98.4375 46.4375 98.4375Z" fill="black"/>
<path d="M63.9375 59.0625C63.9375 60.3604 64.3224 61.6292 65.0435 62.7084C65.7646 63.7876 66.7895 64.6288 67.9886 65.1255C69.1878 65.6222 70.5073 65.7521 71.7803 65.4989C73.0533 65.2457 74.2226 64.6207 75.1404 63.7029C76.0582 62.7851 76.6832 61.6158 76.9364 60.3428C77.1896 59.0698 77.0597 57.7503 76.563 56.5511C76.0663 55.352 75.2251 54.3271 74.1459 53.606C73.0667 52.8849 71.7979 52.5 70.5 52.5C68.7595 52.5 67.0903 53.1914 65.8596 54.4221C64.6289 55.6528 63.9375 57.322 63.9375 59.0625ZM72.6875 59.0625C72.6875 59.4951 72.5592 59.9181 72.3188 60.2778C72.0785 60.6375 71.7368 60.9179 71.3371 61.0835C70.9374 61.2491 70.4976 61.2924 70.0732 61.208C69.6489 61.1236 69.2591 60.9152 68.9532 60.6093C68.6473 60.3034 68.4389 59.9136 68.3545 59.4893C68.2701 59.0649 68.3134 58.6251 68.479 58.2254C68.6446 57.8257 68.925 57.484 69.2847 57.2437C69.6444 57.0033 70.0674 56.875 70.5 56.875C71.0802 56.875 71.6366 57.1055 72.0468 57.5157C72.457 57.9259 72.6875 58.4823 72.6875 59.0625Z" fill="black"/>
<path d="M79.9762 53.5937C80.115 53.8515 80.3041 54.0789 80.5323 54.2623C80.7606 54.4457 81.0234 54.5814 81.3051 54.6614C81.5868 54.7414 81.8816 54.764 82.1722 54.7279C82.4628 54.6918 82.7432 54.5977 82.9967 54.4512C83.2503 54.3047 83.4718 54.1088 83.6483 53.8752C83.8247 53.6415 83.9525 53.3747 84.0239 53.0907C84.0953 52.8068 84.109 52.5114 84.0642 52.222C84.0193 51.9326 83.9168 51.6552 83.7628 51.4062C82.4191 49.0776 80.4859 47.1437 78.1578 45.7992C75.8296 44.4547 73.1885 43.7468 70.4999 43.7468C67.8114 43.7468 65.1703 44.4547 62.8421 45.7992C60.514 47.1437 58.5808 49.0776 57.2371 51.4062C57.0831 51.6552 56.9806 51.9326 56.9357 52.222C56.8909 52.5114 56.9046 52.8068 56.976 53.0907C57.0475 53.3747 57.1752 53.6415 57.3516 53.8752C57.5281 54.1088 57.7496 54.3047 58.0032 54.4512C58.2567 54.5977 58.5371 54.6918 58.8277 54.7279C59.1183 54.764 59.4131 54.7414 59.6948 54.6614C59.9765 54.5814 60.2393 54.4457 60.4676 54.2623C60.6958 54.0789 60.8849 53.8515 61.0237 53.5937C61.9831 51.9291 63.3641 50.5465 65.0276 49.5852C66.6912 48.624 68.5786 48.1178 70.4999 48.1178C72.4213 48.1178 74.3087 48.624 75.9722 49.5852C77.6358 50.5465 79.0168 51.9291 79.9762 53.5937Z" fill="black"/>
<path d="M86.25 47.25C86.4224 47.4798 86.6383 47.6734 86.8855 47.8198C87.1327 47.9661 87.4063 48.0624 87.6906 48.103C87.975 48.1436 88.2646 48.1279 88.5429 48.0566C88.8212 47.9853 89.0827 47.8599 89.3125 47.6875C89.5423 47.5151 89.7359 47.2992 89.8823 47.052C90.0287 46.8048 90.1249 46.5312 90.1655 46.2469C90.2061 45.9625 90.1904 45.6729 90.1191 45.3946C90.0478 45.1163 89.9224 44.8548 89.75 44.625C87.5087 41.6365 84.6023 39.2109 81.2611 37.5403C77.9199 35.8697 74.2356 35 70.5 35C66.7644 35 63.0801 35.8697 59.7389 37.5403C56.3977 39.2109 53.4914 41.6365 51.25 44.625C50.9019 45.0891 50.7524 45.6725 50.8345 46.2469C50.9165 46.8212 51.2234 47.3394 51.6875 47.6875C52.1516 48.0356 52.735 48.1851 53.3094 48.103C53.8837 48.021 54.4019 47.7141 54.75 47.25C56.5838 44.8049 58.9618 42.8203 61.6955 41.4535C64.4292 40.0866 67.4436 39.375 70.5 39.375C73.5564 39.375 76.5708 40.0866 79.3045 41.4535C82.0382 42.8203 84.4162 44.8049 86.25 47.25Z" fill="black"/>
<path d="M48.7169 40.7816C51.3861 37.601 54.7194 35.0435 58.4827 33.2888C62.2459 31.5341 66.3478 30.6248 70.5 30.6248C74.6522 30.6248 78.7541 31.5341 82.5173 33.2888C86.2806 35.0435 89.6139 37.601 92.2831 40.7816C92.6562 41.226 93.1905 41.504 93.7685 41.5544C94.3465 41.6049 94.9209 41.4237 95.3653 41.0506C95.8097 40.6776 96.0877 40.1433 96.1382 39.5653C96.1886 38.9872 96.0074 38.4128 95.6344 37.9684C92.5545 34.2985 88.7083 31.3476 84.3661 29.3229C80.0239 27.2983 75.291 26.2491 70.5 26.2491C65.709 26.2491 60.9761 27.2983 56.6339 29.3229C52.2916 31.3476 48.4455 34.2985 45.3656 37.9684C45.1809 38.1885 45.0413 38.4428 44.9549 38.7167C44.8685 38.9907 44.8368 39.279 44.8618 39.5653C44.8868 39.8515 44.9679 40.1299 45.1005 40.3848C45.2331 40.6397 45.4146 40.8659 45.6347 41.0506C45.8547 41.2353 46.109 41.3749 46.383 41.4613C46.657 41.5478 46.9453 41.5794 47.2315 41.5544C47.8095 41.504 48.3438 41.226 48.7169 40.7816Z" fill="black"/>
</g>
<defs>
<clipPath id="clip0_54_1237">
<rect width="140" height="140" fill="white" transform="translate(0.5)"/>
</clipPath>
</defs>
</svg>
