<svg width="88" height="100" viewBox="0 0 88 100" fill="none" xmlns="http://www.w3.org/2000/svg">
<path d="M83.1123 0H4.9873C3.7441 0 2.55182 0.49386 1.67274 1.37294C0.793665 2.25201 0.299805 3.4443 0.299805 4.6875V95.3125C0.299805 96.5557 0.793665 97.748 1.67274 98.6271C2.55182 99.5061 3.7441 100 4.9873 100H83.1123C84.3555 100 85.5478 99.5061 86.4269 98.6271C87.3059 97.748 87.7998 96.5557 87.7998 95.3125V4.6875C87.7998 3.4443 87.3059 2.25201 86.4269 1.37294C85.5478 0.49386 84.3555 0 83.1123 0ZM3.4248 4.6875C3.4248 4.2731 3.58943 3.87567 3.88245 3.58265C4.17548 3.28962 4.5729 3.125 4.9873 3.125H83.1123C83.5267 3.125 83.9241 3.28962 84.2172 3.58265C84.5102 3.87567 84.6748 4.2731 84.6748 4.6875V18.75H3.4248V4.6875ZM83.1123 96.875H4.9873C4.5729 96.875 4.17548 96.7104 3.88245 96.4174C3.58943 96.1243 3.4248 95.7269 3.4248 95.3125V21.875H84.6748V95.3125C84.6748 95.7269 84.5102 96.1243 84.2172 96.4174C83.9241 96.7104 83.5267 96.875 83.1123 96.875Z" fill="black"/>
<path d="M76.8623 25H11.2373C9.9941 25 8.80182 25.4939 7.92274 26.3729C7.04366 27.252 6.5498 28.4443 6.5498 29.6875C6.5498 30.9307 7.04366 32.123 7.92274 33.0021C8.80182 33.8811 9.9941 34.375 11.2373 34.375H76.8623C78.1055 34.375 79.2978 33.8811 80.1769 33.0021C81.0559 32.123 81.5498 30.9307 81.5498 29.6875C81.5498 28.4443 81.0559 27.252 80.1769 26.3729C79.2978 25.4939 78.1055 25 76.8623 25ZM76.8623 31.25H11.2373C10.8229 31.25 10.4255 31.0854 10.1325 30.7924C9.83943 30.4993 9.6748 30.1019 9.6748 29.6875C9.6748 29.2731 9.83943 28.8757 10.1325 28.5826C10.4255 28.2896 10.8229 28.125 11.2373 28.125H76.8623C77.2767 28.125 77.6741 28.2896 77.9672 28.5826C78.2602 28.8757 78.4248 29.2731 78.4248 29.6875C78.4248 30.1019 78.2602 30.4993 77.9672 30.7924C77.6741 31.0854 77.2767 31.25 76.8623 31.25Z" fill="black"/>
<path d="M53.4248 4.6875H34.6748C34.2604 4.6875 33.863 4.85212 33.5699 5.14515C33.2769 5.43817 33.1123 5.8356 33.1123 6.25V15.625C33.1123 16.0394 33.2769 16.4368 33.5699 16.7299C33.863 17.0229 34.2604 17.1875 34.6748 17.1875H53.4248C53.8392 17.1875 54.2366 17.0229 54.5297 16.7299C54.8227 16.4368 54.9873 16.0394 54.9873 15.625V6.25C54.9873 5.8356 54.8227 5.43817 54.5297 5.14515C54.2366 4.85212 53.8392 4.6875 53.4248 4.6875ZM51.8623 14.0625H36.2373V7.8125H51.8623V14.0625Z" fill="black"/>
<path d="M11.2373 4.6875C10.0012 4.6875 8.7928 5.05406 7.76499 5.74082C6.73719 6.42757 5.93611 7.40369 5.46306 8.54573C4.99001 9.68777 4.86624 10.9444 5.1074 12.1568C5.34856 13.3692 5.94381 14.4828 6.81789 15.3569C7.69197 16.231 8.80561 16.8263 10.018 17.0674C11.2304 17.3086 12.487 17.1848 13.6291 16.7117C14.7711 16.2387 15.7472 15.4376 16.434 14.4098C17.1208 13.382 17.4873 12.1736 17.4873 10.9375C17.4873 9.2799 16.8288 7.69018 15.6567 6.51808C14.4846 5.34598 12.8949 4.6875 11.2373 4.6875ZM11.2373 14.0625C10.6192 14.0625 10.0151 13.8792 9.50115 13.5358C8.98725 13.1925 8.58671 12.7044 8.35018 12.1334C8.11366 11.5624 8.05177 10.934 8.17235 10.3278C8.29293 9.72165 8.59056 9.16483 9.0276 8.72779C9.46464 8.29075 10.0215 7.99312 10.6277 7.87255C11.2338 7.75197 11.8622 7.81385 12.4332 8.05038C13.0042 8.2869 13.4923 8.68744 13.8356 9.20134C14.179 9.71525 14.3623 10.3194 14.3623 10.9375C14.3623 11.7663 14.0331 12.5612 13.447 13.1472C12.861 13.7333 12.0661 14.0625 11.2373 14.0625Z" fill="black"/>
<path d="M25.2998 4.6875C24.0637 4.6875 22.8553 5.05406 21.8275 5.74082C20.7997 6.42757 19.9986 7.40369 19.5256 8.54573C19.0525 9.68777 18.9287 10.9444 19.1699 12.1568C19.4111 13.3692 20.0063 14.4828 20.8804 15.3569C21.7545 16.231 22.8681 16.8263 24.0805 17.0674C25.2929 17.3086 26.5495 17.1848 27.6916 16.7117C28.8336 16.2387 29.8097 15.4376 30.4965 14.4098C31.1833 13.382 31.5498 12.1736 31.5498 10.9375C31.5498 9.2799 30.8913 7.69018 29.7192 6.51808C28.5471 5.34598 26.9574 4.6875 25.2998 4.6875ZM25.2998 14.0625C24.6817 14.0625 24.0776 13.8792 23.5637 13.5358C23.0497 13.1925 22.6492 12.7044 22.4127 12.1334C22.1762 11.5624 22.1143 10.934 22.2349 10.3278C22.3554 9.72165 22.6531 9.16483 23.0901 8.72779C23.5271 8.29075 24.084 7.99312 24.6902 7.87255C25.2963 7.75197 25.9247 7.81385 26.4957 8.05038C27.0667 8.2869 27.5548 8.68744 27.8982 9.20134C28.2415 9.71525 28.4248 10.3194 28.4248 10.9375C28.4248 11.7663 28.0956 12.5612 27.5095 13.1472C26.9235 13.7333 26.1286 14.0625 25.2998 14.0625Z" fill="black"/>
<path d="M76.8623 4.6875C75.6262 4.6875 74.4178 5.05406 73.39 5.74082C72.3622 6.42757 71.5611 7.40369 71.0881 8.54573C70.615 9.68777 70.4912 10.9444 70.7324 12.1568C70.9736 13.3692 71.5688 14.4828 72.4429 15.3569C73.317 16.231 74.4306 16.8263 75.643 17.0674C76.8554 17.3086 78.112 17.1848 79.2541 16.7117C80.3961 16.2387 81.3722 15.4376 82.059 14.4098C82.7458 13.382 83.1123 12.1736 83.1123 10.9375C83.1123 9.2799 82.4538 7.69018 81.2817 6.51808C80.1096 5.34598 78.5199 4.6875 76.8623 4.6875ZM76.8623 14.0625C76.2442 14.0625 75.6401 13.8792 75.1262 13.5358C74.6122 13.1925 74.2117 12.7044 73.9752 12.1334C73.7387 11.5624 73.6768 10.934 73.7974 10.3278C73.9179 9.72165 74.2156 9.16483 74.6526 8.72779C75.0896 8.29075 75.6465 7.99312 76.2526 7.87255C76.8588 7.75197 77.4872 7.81385 78.0582 8.05038C78.6292 8.2869 79.1173 8.68744 79.4607 9.20134C79.804 9.71525 79.9873 10.3194 79.9873 10.9375C79.9873 11.7663 79.6581 12.5612 79.072 13.1472C78.486 13.7333 77.6911 14.0625 76.8623 14.0625Z" fill="black"/>
<path d="M62.7998 4.6875C61.5637 4.6875 60.3553 5.05406 59.3275 5.74082C58.2997 6.42757 57.4986 7.40369 57.0256 8.54573C56.5525 9.68777 56.4287 10.9444 56.6699 12.1568C56.9111 13.3692 57.5063 14.4828 58.3804 15.3569C59.2545 16.231 60.3681 16.8263 61.5805 17.0674C62.7929 17.3086 64.0495 17.1848 65.1916 16.7117C66.3336 16.2387 67.3097 15.4376 67.9965 14.4098C68.6833 13.382 69.0498 12.1736 69.0498 10.9375C69.0498 9.2799 68.3913 7.69018 67.2192 6.51808C66.0471 5.34598 64.4574 4.6875 62.7998 4.6875ZM62.7998 14.0625C62.1817 14.0625 61.5776 13.8792 61.0637 13.5358C60.5497 13.1925 60.1492 12.7044 59.9127 12.1334C59.6762 11.5624 59.6143 10.934 59.7349 10.3278C59.8554 9.72165 60.1531 9.16483 60.5901 8.72779C61.0271 8.29075 61.584 7.99312 62.1901 7.87255C62.7963 7.75197 63.4247 7.81385 63.9957 8.05038C64.5667 8.2869 65.0548 8.68744 65.3982 9.20134C65.7415 9.71525 65.9248 10.3194 65.9248 10.9375C65.9248 11.7663 65.5956 12.5612 65.0095 13.1472C64.4235 13.7333 63.6286 14.0625 62.7998 14.0625Z" fill="black"/>
<path d="M76.8623 37.5H70.6123C70.1979 37.5 69.8005 37.6646 69.5075 37.9576C69.2144 38.2507 69.0498 38.6481 69.0498 39.0625C69.0498 39.4769 69.2144 39.8743 69.5075 40.1674C69.8005 40.4604 70.1979 40.625 70.6123 40.625H76.8623C77.2767 40.625 77.6741 40.7896 77.9672 41.0826C78.2602 41.3757 78.4248 41.7731 78.4248 42.1875V82.8125C78.4248 83.2269 78.2602 83.6243 77.9672 83.9174C77.6741 84.2104 77.2767 84.375 76.8623 84.375H11.2373C10.8229 84.375 10.4255 84.2104 10.1325 83.9174C9.83943 83.6243 9.6748 83.2269 9.6748 82.8125V42.1875C9.6748 41.7731 9.83943 41.3757 10.1325 41.0826C10.4255 40.7896 10.8229 40.625 11.2373 40.625H64.3623C64.7767 40.625 65.1741 40.4604 65.4672 40.1674C65.7602 39.8743 65.9248 39.4769 65.9248 39.0625C65.9248 38.6481 65.7602 38.2507 65.4672 37.9576C65.1741 37.6646 64.7767 37.5 64.3623 37.5H11.2373C9.9941 37.5 8.80182 37.9939 7.92274 38.8729C7.04366 39.752 6.5498 40.9443 6.5498 42.1875V82.8125C6.5498 84.0557 7.04366 85.248 7.92274 86.1271C8.80182 87.0061 9.9941 87.5 11.2373 87.5H76.8623C78.1055 87.5 79.2978 87.0061 80.1769 86.1271C81.0559 85.248 81.5498 84.0557 81.5498 82.8125V42.1875C81.5498 40.9443 81.0559 39.752 80.1769 38.8729C79.2978 37.9939 78.1055 37.5 76.8623 37.5Z" fill="black"/>
<path d="M32.0073 62.9578L16.3823 78.5828C16.2331 78.7269 16.114 78.8993 16.0321 79.09C15.9502 79.2806 15.9071 79.4856 15.9053 79.6931C15.9035 79.9006 15.9431 80.1063 16.0216 80.2983C16.1002 80.4904 16.2162 80.6648 16.3629 80.8115C16.5096 80.9582 16.6841 81.0742 16.8761 81.1528C17.0681 81.2314 17.2739 81.2709 17.4814 81.2691C17.6888 81.2673 17.8939 81.2242 18.0845 81.1423C18.2751 81.0604 18.4475 80.9414 18.5917 80.7922L34.2167 65.1672C34.5013 64.8725 34.6588 64.4778 34.6552 64.0681C34.6517 63.6584 34.4873 63.2665 34.1976 62.9768C33.9079 62.6871 33.516 62.5228 33.1064 62.5192C32.6967 62.5157 32.302 62.6732 32.0073 62.9578Z" fill="black"/>
<path d="M46.7167 52.6672C47.0013 52.3725 47.1588 51.9778 47.1552 51.5681C47.1517 51.1584 46.9873 50.7665 46.6976 50.4768C46.4079 50.1871 46.016 50.0228 45.6064 50.0192C45.1967 50.0157 44.802 50.1732 44.5073 50.4578L36.6948 58.2703C36.5456 58.4144 36.4265 58.5868 36.3446 58.7775C36.2627 58.9681 36.2196 59.1731 36.2178 59.3806C36.216 59.5881 36.2556 59.7938 36.3341 59.9858C36.4127 60.1779 36.5287 60.3523 36.6754 60.499C36.8221 60.6457 36.9966 60.7617 37.1886 60.8403C37.3806 60.9189 37.5864 60.9584 37.7939 60.9566C38.0013 60.9548 38.2063 60.9117 38.397 60.8298C38.5876 60.7479 38.76 60.6289 38.9042 60.4797L46.7167 52.6672Z" fill="black"/>
<path d="M58.5698 57.3547C58.8628 57.6476 59.2602 57.8121 59.6745 57.8121C60.0888 57.8121 60.4861 57.6476 60.7792 57.3547L71.7167 46.4172C72.0013 46.1225 72.1588 45.7278 72.1552 45.3181C72.1517 44.9084 71.9873 44.5165 71.6976 44.2268C71.4079 43.9371 71.016 43.7728 70.6063 43.7692C70.1967 43.7657 69.802 43.9232 69.5073 44.2078L58.5698 55.1453C58.2769 55.4383 58.1123 55.8356 58.1123 56.25C58.1123 56.6643 58.2769 57.0616 58.5698 57.3547Z" fill="black"/>
<path d="M39.362 78.125C39.7763 78.1249 40.1737 77.9602 40.4667 77.6672L52.9667 65.1672C53.2513 64.8725 53.4088 64.4778 53.4052 64.0681C53.4017 63.6584 53.2373 63.2665 52.9476 62.9768C52.6579 62.6871 52.266 62.5228 51.8563 62.5192C51.4467 62.5157 51.052 62.6732 50.7573 62.9578L38.2573 75.4578C38.0388 75.6763 37.8901 75.9547 37.8298 76.2577C37.7695 76.5608 37.8005 76.8749 37.9187 77.1604C38.037 77.4458 38.2372 77.6898 38.4941 77.8615C38.751 78.0332 39.053 78.1249 39.362 78.125Z" fill="black"/>
</svg>
