<svg width="141" height="140" viewBox="0 0 141 140" fill="none" xmlns="http://www.w3.org/2000/svg">
<g clip-path="url(#clip0_176_406)">
<path d="M133.688 44H120.562C119.982 44 119.426 44.2305 119.016 44.6407C118.605 45.0509 118.375 45.6073 118.375 46.1875C118.375 46.7677 118.605 47.3241 119.016 47.7343C119.426 48.1445 119.982 48.375 120.562 48.375H133.688C134.268 48.375 134.824 48.6055 135.234 49.0157C135.645 49.4259 135.875 49.9823 135.875 50.5625V124.938C135.875 125.518 135.645 126.074 135.234 126.484C134.824 126.895 134.268 127.125 133.688 127.125H6.8125C6.23234 127.125 5.67594 126.895 5.2657 126.484C4.85547 126.074 4.625 125.518 4.625 124.938V50.5625C4.625 49.9823 4.85547 49.4259 5.2657 49.0157C5.67594 48.6055 6.23234 48.375 6.8125 48.375H111.812C112.393 48.375 112.949 48.1445 113.359 47.7343C113.77 47.3241 114 46.7677 114 46.1875C114 45.6073 113.77 45.0509 113.359 44.6407C112.949 44.2305 112.393 44 111.812 44H6.8125C5.07202 44 3.40282 44.6914 2.17211 45.9221C0.941404 47.1528 0.25 48.822 0.25 50.5625L0.25 124.938C0.25 126.678 0.941404 128.347 2.17211 129.578C3.40282 130.809 5.07202 131.5 6.8125 131.5H14.6569L9.64094 136.516C9.3351 136.822 9.12684 137.212 9.04247 137.636C8.95811 138.06 9.00143 138.5 9.16695 138.9C9.33248 139.299 9.61279 139.641 9.97243 139.881C10.3321 140.122 10.7549 140.25 11.1875 140.25H17.75C18.182 140.249 18.6042 140.122 18.9641 139.882L31.5312 131.5H108.969L121.543 139.882C121.9 140.12 122.32 140.248 122.75 140.25H129.312C129.745 140.25 130.168 140.122 130.528 139.881C130.887 139.641 131.168 139.299 131.333 138.9C131.499 138.5 131.542 138.06 131.458 137.636C131.373 137.212 131.165 136.822 130.859 136.516L125.843 131.5H133.688C135.428 131.5 137.097 130.809 138.328 129.578C139.559 128.347 140.25 126.678 140.25 124.938V50.5625C140.25 48.822 139.559 47.1528 138.328 45.9221C137.097 44.6914 135.428 44 133.688 44ZM17.0938 135.875H16.4681L20.8431 131.5H23.6562L17.0938 135.875ZM124.038 135.875H123.406L116.844 131.5H119.65L124.038 135.875Z" fill="#151516"/>
<path d="M65.2341 75.266C64.8239 74.8559 64.2676 74.6255 63.6875 74.6255C63.1075 74.6255 62.5512 74.8559 62.141 75.266L22.766 114.641C22.557 114.843 22.3904 115.084 22.2757 115.351C22.1611 115.618 22.1008 115.905 22.0982 116.195C22.0957 116.486 22.1511 116.774 22.261 117.043C22.371 117.312 22.5335 117.556 22.7389 117.761C22.9442 117.967 23.1885 118.129 23.4573 118.239C23.7261 118.349 24.0142 118.404 24.3047 118.402C24.5951 118.399 24.8822 118.339 25.149 118.224C25.4159 118.11 25.6573 117.943 25.8591 117.734L65.2341 78.3591C65.6442 77.9489 65.8746 77.3926 65.8746 76.8125C65.8746 76.2325 65.6442 75.6762 65.2341 75.266Z" fill="#151516"/>
<path d="M84.016 91.484C84.4262 91.8941 84.9825 92.1245 85.5625 92.1245C86.1426 92.1245 86.6989 91.8941 87.1091 91.484L117.734 60.859C118.133 60.4465 118.353 59.8939 118.348 59.3203C118.343 58.7468 118.113 58.1981 117.707 57.7926C117.302 57.387 116.753 57.1569 116.18 57.1519C115.606 57.147 115.054 57.3674 114.641 57.7659L84.016 88.3909C83.6059 88.8011 83.3755 89.3574 83.3755 89.9375C83.3755 90.5175 83.6059 91.0738 84.016 91.484Z" fill="#151516"/>
<path d="M64.7813 112.906C65.3614 112.906 65.9177 112.676 66.3278 112.265L78.3591 100.234C78.7576 99.8215 78.978 99.2689 78.9731 98.6953C78.9681 98.1218 78.738 97.5731 78.3324 97.1676C77.9269 96.762 77.3782 96.5319 76.8047 96.5269C76.2311 96.522 75.6785 96.7424 75.266 97.1409L63.2347 109.172C62.9289 109.478 62.7206 109.868 62.6362 110.292C62.5519 110.716 62.5952 111.156 62.7607 111.556C62.9263 111.955 63.2066 112.297 63.5662 112.537C63.9259 112.778 64.3487 112.906 64.7813 112.906Z" fill="#151516"/>
</g>
<defs>
<clipPath id="clip0_176_406">
<rect width="140" height="140" fill="white" transform="translate(0.25)"/>
</clipPath>
</defs>
</svg>
