<svg width="141" height="140" viewBox="0 0 141 140" fill="none" xmlns="http://www.w3.org/2000/svg">
<path d="M116.438 0H24.5625C22.822 0 21.1528 0.691404 19.9221 1.92211C18.6914 3.15282 18 4.82202 18 6.5625V133.438C18 135.178 18.6914 136.847 19.9221 138.078C21.1528 139.309 22.822 140 24.5625 140H116.438C118.178 140 119.847 139.309 121.078 138.078C122.309 136.847 123 135.178 123 133.438V6.5625C123 4.82202 122.309 3.15282 121.078 1.92211C119.847 0.691404 118.178 0 116.438 0ZM22.375 6.5625C22.375 5.98234 22.6055 5.42594 23.0157 5.0157C23.4259 4.60547 23.9823 4.375 24.5625 4.375H116.438C117.018 4.375 117.574 4.60547 117.984 5.0157C118.395 5.42594 118.625 5.98234 118.625 6.5625V26.25H22.375V6.5625ZM118.625 133.438C118.625 134.018 118.395 134.574 117.984 134.984C117.574 135.395 117.018 135.625 116.438 135.625H24.5625C23.9823 135.625 23.4259 135.395 23.0157 134.984C22.6055 134.574 22.375 134.018 22.375 133.438V30.625H118.625V133.438Z" fill="black"/>
<path d="M70.5 126.875C79.3132 126.875 87.921 124.213 95.1958 119.238C102.471 114.263 108.073 107.207 111.27 98.9944C114.467 90.7815 115.109 81.7945 113.112 73.2106C111.114 64.6266 106.571 56.846 100.077 50.8878C99.8655 50.6936 99.6176 50.543 99.3477 50.4446C99.0778 50.3463 98.7911 50.302 98.5041 50.3144C98.2171 50.3268 97.9353 50.3956 97.6749 50.5169C97.4145 50.6381 97.1805 50.8095 96.9863 51.0213C96.7921 51.233 96.6415 51.4809 96.5431 51.7508C96.4447 52.0207 96.4005 52.3073 96.4128 52.5944C96.4252 52.8814 96.494 53.1632 96.6153 53.4236C96.7366 53.684 96.908 53.918 97.1197 54.1122C104.55 60.9379 109.067 70.3629 109.733 80.4308C110.399 90.4987 107.163 100.436 100.696 108.181C94.2286 115.926 85.0276 120.883 75.0024 122.024C64.9772 123.165 54.8977 120.402 46.8559 114.308C38.8141 108.214 33.4276 99.2575 31.8145 89.2974C30.2013 79.3372 32.4853 69.1384 38.1924 60.8177C43.8995 52.4969 52.5915 46.6933 62.4643 44.6113C72.337 42.5294 82.6324 44.3289 91.2135 49.6366C91.7066 49.9423 92.301 50.0396 92.8659 49.9071C93.4308 49.7746 93.9199 49.4231 94.2257 48.93C94.5314 48.4369 94.6287 47.8425 94.4962 47.2776C94.3637 46.7127 94.0122 46.2236 93.5191 45.9178C87.7644 42.3582 81.2625 40.1819 74.5245 39.5601C67.7865 38.9383 60.9962 39.8879 54.6873 42.3342C48.3783 44.7806 42.7228 48.6569 38.1654 53.6586C33.608 58.6603 30.2728 64.651 28.4222 71.1596C26.5716 77.6682 26.2559 84.5174 27.4999 91.1687C28.744 97.8199 31.5139 104.092 35.592 109.492C39.67 114.891 44.9449 119.272 51.002 122.288C57.0592 125.304 63.7334 126.874 70.5 126.875Z" fill="black"/>
<path d="M35.5 83.125C35.5 90.0473 37.5527 96.8142 41.3986 102.57C45.2444 108.326 50.7107 112.812 57.1061 115.461C63.5015 118.11 70.5388 118.803 77.3282 117.452C84.1175 116.102 90.3539 112.769 95.2487 107.874C100.144 102.979 103.477 96.7425 104.827 89.9532C106.178 83.1638 105.485 76.1265 102.836 69.7311C100.187 63.3357 95.7007 57.8694 89.945 54.0236C84.1892 50.1777 77.4223 48.125 70.5 48.125C61.2208 48.136 52.3248 51.827 45.7634 58.3884C39.202 64.9498 35.511 73.8458 35.5 83.125ZM70.5 113.75C65.2827 113.761 60.1496 112.436 55.5893 109.901C51.0291 107.367 47.1937 103.707 44.4484 99.2701C41.703 94.8336 40.1391 89.7681 39.9057 84.556C39.6722 79.344 40.777 74.1589 43.1147 69.4947C45.0235 70.7674 47.3138 71.3403 49.597 71.1162C51.8801 70.8921 54.0154 69.8848 55.6403 68.2653C56.6818 67.2274 58.0922 66.6446 59.5625 66.6446C61.0328 66.6446 62.4432 67.2274 63.4847 68.2653C65.3463 70.124 67.8694 71.1679 70.5 71.1679C73.1306 71.1679 75.6537 70.124 77.5153 68.2653C78.5568 67.2274 79.9672 66.6446 81.4375 66.6446C82.9078 66.6446 84.3182 67.2274 85.3597 68.2653C86.9837 69.8863 89.1192 70.8946 91.4028 71.1187C93.6864 71.3429 95.9771 70.769 97.8853 69.4947C98.6928 71.1018 99.3561 72.7774 99.8672 74.5019C98.3741 74.7935 97.0287 75.5947 96.061 76.7686C95.0934 77.9426 94.5637 79.4162 94.5625 80.9375V85.3125C94.5637 86.8338 95.0934 88.3074 96.061 89.4814C97.0287 90.6553 98.3741 91.4565 99.8672 91.7481C97.9994 98.0919 94.1307 103.662 88.8382 107.627C83.5457 111.592 77.1131 113.74 70.5 113.75ZM101.125 83.125C101.114 84.567 101.001 86.0063 100.786 87.4322C100.276 87.3571 99.8092 87.1023 99.4703 86.7137C99.1314 86.325 98.9424 85.8281 98.9375 85.3125V80.9375C98.9424 80.4219 99.1314 79.925 99.4703 79.5363C99.8092 79.1477 100.276 78.8929 100.786 78.8178C101.001 80.2437 101.114 81.683 101.125 83.125ZM95.6562 65.6994C94.5912 66.4862 93.2797 66.8656 91.9591 66.7689C90.6385 66.6722 89.3962 66.1057 88.4572 65.1722C86.5956 63.3135 84.0725 62.2696 81.4419 62.2696C78.8113 62.2696 76.2882 63.3135 74.4266 65.1722C73.3851 66.2101 71.9747 66.7929 70.5044 66.7929C69.034 66.7929 67.6236 66.2101 66.5822 65.1722C64.7206 63.3135 62.1975 62.2696 59.5669 62.2696C56.9363 62.2696 54.4132 63.3135 52.5516 65.1722C51.6125 66.1057 50.3702 66.6722 49.0497 66.7689C47.7291 66.8656 46.4175 66.4862 45.3525 65.6994C48.1632 61.626 51.921 58.2961 56.3029 55.9958C60.6848 53.6956 65.5598 52.4938 70.5088 52.4938C75.4577 52.4938 80.3327 53.6956 84.7146 55.9958C89.0965 58.2961 92.8543 61.626 95.665 65.6994H95.6562Z" fill="black"/>
<path d="M77.0625 8.75H63.9375C63.3573 8.75 62.8009 8.98047 62.3907 9.3907C61.9805 9.80094 61.75 10.3573 61.75 10.9375V19.6875C61.75 20.2677 61.9805 20.8241 62.3907 21.2343C62.8009 21.6445 63.3573 21.875 63.9375 21.875H77.0625C77.6427 21.875 78.1991 21.6445 78.6093 21.2343C79.0195 20.8241 79.25 20.2677 79.25 19.6875V10.9375C79.25 10.3573 79.0195 9.80094 78.6093 9.3907C78.1991 8.98047 77.6427 8.75 77.0625 8.75ZM74.875 17.5H66.125V13.125H74.875V17.5Z" fill="black"/>
<path d="M33.3125 8.75C32.0146 8.75 30.7458 9.13488 29.6666 9.85598C28.5874 10.5771 27.7462 11.602 27.2495 12.8011C26.7528 14.0003 26.6229 15.3198 26.8761 16.5928C27.1293 17.8658 27.7543 19.0351 28.6721 19.9529C29.5899 20.8707 30.7592 21.4957 32.0322 21.7489C33.3052 22.0021 34.6247 21.8722 35.8239 21.3755C37.023 20.8788 38.0479 20.0376 38.769 18.9584C39.4901 17.8792 39.875 16.6104 39.875 15.3125C39.875 13.572 39.1836 11.9028 37.9529 10.6721C36.7222 9.4414 35.053 8.75 33.3125 8.75ZM33.3125 17.5C32.8799 17.5 32.4569 17.3717 32.0972 17.1313C31.7375 16.891 31.4571 16.5493 31.2915 16.1496C31.126 15.7499 31.0826 15.3101 31.167 14.8857C31.2514 14.4614 31.4598 14.0716 31.7657 13.7657C32.0716 13.4598 32.4614 13.2514 32.8857 13.167C33.3101 13.0826 33.7499 13.1259 34.1496 13.2915C34.5493 13.4571 34.891 13.7375 35.1313 14.0972C35.3717 14.4569 35.5 14.8799 35.5 15.3125C35.5 15.8927 35.2695 16.4491 34.8593 16.8593C34.4491 17.2695 33.8927 17.5 33.3125 17.5Z" fill="black"/>
<path d="M50.8125 8.75C49.5146 8.75 48.2458 9.13488 47.1666 9.85598C46.0874 10.5771 45.2462 11.602 44.7495 12.8011C44.2528 14.0003 44.1229 15.3198 44.3761 16.5928C44.6293 17.8658 45.2543 19.0351 46.1721 19.9529C47.0899 20.8707 48.2592 21.4957 49.5322 21.7489C50.8052 22.0021 52.1247 21.8722 53.3239 21.3755C54.523 20.8788 55.5479 20.0376 56.269 18.9584C56.9901 17.8792 57.375 16.6104 57.375 15.3125C57.375 13.572 56.6836 11.9028 55.4529 10.6721C54.2222 9.4414 52.553 8.75 50.8125 8.75ZM50.8125 17.5C50.3799 17.5 49.9569 17.3717 49.5972 17.1313C49.2375 16.891 48.9571 16.5493 48.7915 16.1496C48.626 15.7499 48.5826 15.3101 48.667 14.8857C48.7514 14.4614 48.9598 14.0716 49.2657 13.7657C49.5716 13.4598 49.9614 13.2514 50.3857 13.167C50.8101 13.0826 51.2499 13.1259 51.6496 13.2915C52.0493 13.4571 52.391 13.7375 52.6313 14.0972C52.8717 14.4569 53 14.8799 53 15.3125C53 15.8927 52.7695 16.4491 52.3593 16.8593C51.9491 17.2695 51.3927 17.5 50.8125 17.5Z" fill="black"/>
<path d="M90.1875 8.75C88.8896 8.75 87.6208 9.13488 86.5416 9.85598C85.4624 10.5771 84.6212 11.602 84.1245 12.8011C83.6278 14.0003 83.4979 15.3198 83.7511 16.5928C84.0043 17.8658 84.6293 19.0351 85.5471 19.9529C86.4649 20.8707 87.6342 21.4957 88.9072 21.7489C90.1802 22.0021 91.4997 21.8722 92.6989 21.3755C93.898 20.8788 94.9229 20.0376 95.644 18.9584C96.3651 17.8792 96.75 16.6104 96.75 15.3125C96.75 13.572 96.0586 11.9028 94.8279 10.6721C93.5972 9.4414 91.928 8.75 90.1875 8.75ZM90.1875 17.5C89.7549 17.5 89.3319 17.3717 88.9722 17.1313C88.6125 16.891 88.3321 16.5493 88.1665 16.1496C88.001 15.7499 87.9576 15.3101 88.042 14.8857C88.1264 14.4614 88.3348 14.0716 88.6407 13.7657C88.9466 13.4598 89.3364 13.2514 89.7607 13.167C90.1851 13.0826 90.6249 13.1259 91.0246 13.2915C91.4243 13.4571 91.766 13.7375 92.0063 14.0972C92.2467 14.4569 92.375 14.8799 92.375 15.3125C92.375 15.8927 92.1445 16.4491 91.7343 16.8593C91.3241 17.2695 90.7677 17.5 90.1875 17.5Z" fill="black"/>
<path d="M107.688 8.75C106.39 8.75 105.121 9.13488 104.042 9.85598C102.962 10.5771 102.121 11.602 101.625 12.8011C101.128 14.0003 100.998 15.3198 101.251 16.5928C101.504 17.8658 102.129 19.0351 103.047 19.9529C103.965 20.8707 105.134 21.4957 106.407 21.7489C107.68 22.0021 109 21.8722 110.199 21.3755C111.398 20.8788 112.423 20.0376 113.144 18.9584C113.865 17.8792 114.25 16.6104 114.25 15.3125C114.25 13.572 113.559 11.9028 112.328 10.6721C111.097 9.4414 109.428 8.75 107.688 8.75ZM107.688 17.5C107.255 17.5 106.832 17.3717 106.472 17.1313C106.112 16.891 105.832 16.5493 105.667 16.1496C105.501 15.7499 105.458 15.3101 105.542 14.8857C105.626 14.4614 105.835 14.0716 106.141 13.7657C106.447 13.4598 106.836 13.2514 107.261 13.167C107.685 13.0826 108.125 13.1259 108.525 13.2915C108.924 13.4571 109.266 13.7375 109.506 14.0972C109.747 14.4569 109.875 14.8799 109.875 15.3125C109.875 15.8927 109.645 16.4491 109.234 16.8593C108.824 17.2695 108.268 17.5 107.688 17.5Z" fill="black"/>
</svg>
