<svg width="50" height="50" viewBox="0 0 50 50" fill="none" xmlns="http://www.w3.org/2000/svg">
<path d="M46.7323 33.5776C46.3274 33.5776 45.9993 33.9057 45.9993 34.3105V42.7452C45.9993 43.5408 45.3521 44.1881 44.5565 44.1881H23.4456V42.0334C23.4456 41.8134 23.4025 41.5323 23.2551 41.2237C24.1628 40.8908 24.9116 40.4841 25.4282 40.0051H26.9057C28.0819 40.0051 29.0387 39.0482 29.0387 37.872C29.0387 36.6958 28.0819 35.739 26.9057 35.739H26.2085V34.3281C26.2085 34.3117 26.2078 34.295 26.2073 34.2784H26.9057C28.0819 34.2784 29.0387 33.3214 29.0387 32.1453C29.0387 30.9691 28.0819 30.0122 26.9057 30.0122H25.091C24.428 30.0122 23.8347 30.3163 23.4432 30.7923C23.4443 30.7666 23.4457 30.7411 23.4457 30.7151V27.7744C23.8372 28.2485 24.4294 28.5513 25.0909 28.5513H26.9056C28.0818 28.5513 29.0386 27.5945 29.0386 26.4183C29.0386 25.2421 28.0818 24.2853 26.9056 24.2853H26.2084V21.4243H26.9056C28.0818 21.4243 29.0386 20.4674 29.0386 19.2913C29.0386 18.1151 28.0818 17.1583 26.9056 17.1583H25.0908C24.5103 17.1583 23.9599 17.3982 23.5628 17.805C21.5494 16.9953 18.6416 16.58 15.753 16.58C14.8357 16.58 13.9166 16.6219 13.0246 16.705V2.90869C13.0246 2.11308 13.6719 1.46582 14.4675 1.46582H20.3984C20.8032 1.46582 21.1313 1.13769 21.1313 0.732909C21.1313 0.328124 20.8032 0 20.3984 0H14.4675C12.8636 0 11.5588 1.30488 11.5588 2.90869V16.8834C8.06035 17.4128 5.29776 18.6299 5.29776 20.49V23.8893C3.0213 24.7692 2.53497 25.8557 2.53497 26.6225V30.7151C2.53497 31.9261 3.70606 32.8646 5.48848 33.5183C5.34112 33.8267 5.29786 34.1076 5.29786 34.3281V38.4206C5.29786 38.7053 5.3628 38.9748 5.48497 39.2292C3.07257 40.1076 2.53497 41.219 2.53497 42.0335V46.1261C2.53497 48.5648 7.13155 49.7236 11.0678 49.9751C11.0837 49.9761 11.0994 49.9767 11.1151 49.9767C11.4985 49.9767 11.8211 49.6784 11.8459 49.2904C11.8717 48.8864 11.5651 48.538 11.1611 48.5122C6.16299 48.193 4.00079 46.7775 4.00079 46.1261V44.1325C5.92471 45.3273 9.47187 45.9433 12.9902 45.9433C16.5086 45.9433 20.0557 45.3273 21.9797 44.1325V46.1261C21.9797 46.8566 19.4528 48.2865 14.4183 48.5351C14.014 48.555 13.7023 48.8989 13.7224 49.3032C13.7417 49.6953 14.0656 50 14.4537 50C14.4659 50 14.4781 49.9997 14.4904 49.9991C18.9478 49.7791 23.4456 48.4962 23.4456 46.1261V45.6541H44.5566C46.1605 45.6541 47.4653 44.3492 47.4653 42.7454V34.3107C47.4653 33.9058 47.137 33.5776 46.7323 33.5776ZM26.2084 38.4206V37.205H26.9056V37.2049C27.2735 37.2049 27.5727 37.5041 27.5727 37.872C27.5727 38.2399 27.2734 38.5392 26.9056 38.5392H26.2046C26.2071 38.5 26.2084 38.4604 26.2084 38.4206ZM25.0909 31.4781H26.9056C27.2735 31.4781 27.5727 31.7773 27.5727 32.1452C27.5727 32.513 27.2734 32.8123 26.9056 32.8123H25.5076C25.2465 32.5528 24.8961 32.2929 24.4325 32.0422C24.4822 31.7233 24.7581 31.4781 25.0909 31.4781ZM24.7425 34.328C24.7425 34.6193 24.2492 35.2735 22.4003 35.8776C20.6354 36.4542 18.2748 36.7718 15.7531 36.7718C9.93652 36.7718 6.76368 35.1574 6.76368 34.328C6.76348 34.201 6.84522 34.0679 6.93858 33.9567C8.72256 34.3993 10.8616 34.6248 12.9901 34.6248C16.618 34.6248 20.2764 33.9699 22.1544 32.7009C24.1954 33.3192 24.7425 34.0305 24.7425 34.328ZM26.9057 25.7513C27.2735 25.7512 27.5727 26.0504 27.5727 26.4184C27.5727 26.7863 27.2734 27.0855 26.9056 27.0855H25.0909C24.8648 27.0855 24.6651 26.9722 24.5444 26.7999C25.0862 26.4915 25.5158 26.1416 25.8029 25.7513H26.9057ZM25.0909 18.6245H26.9056C27.2735 18.6245 27.5727 18.9237 27.5727 19.2916C27.5727 19.6594 27.2734 19.9587 26.9056 19.9587H26.1288C25.9777 19.4601 25.6151 19.015 25.0881 18.6246C25.0891 18.6246 25.0899 18.6245 25.0909 18.6245ZM9.10586 18.9404C10.8707 18.3637 13.2312 18.0462 15.753 18.0462C21.5696 18.0462 24.7425 19.6606 24.7425 20.4901C24.7425 20.7814 24.2491 21.4356 22.4002 22.0397C20.6353 22.6164 18.2747 22.9339 15.753 22.9339C9.93642 22.9339 6.76358 21.3195 6.76358 20.4901C6.76348 20.1987 7.25694 19.5445 9.10586 18.9404ZM6.76338 22.5891C8.6874 23.7838 12.2346 24.3999 15.7529 24.3999C19.2713 24.3999 22.8184 23.7837 24.7424 22.5891V24.5827C24.7424 24.8118 24.4368 25.2653 23.4071 25.7423C23.4044 25.7435 23.4018 25.7448 23.3992 25.7459C23.1212 25.8744 22.7913 26.0044 22.4 26.1323C20.6351 26.7089 18.2746 27.0265 15.7528 27.0265C9.93633 27.0265 6.76338 25.4121 6.76338 24.5826V22.5891ZM5.48751 25.3964C6.47207 27.4325 11.1376 28.4923 15.753 28.4923C16.9501 28.4923 18.1504 28.4208 19.2891 28.2797C17.5669 28.787 15.3319 29.0664 12.9903 29.0664C7.17373 29.0664 4.00089 27.4519 4.00089 26.6224C4.00079 26.3194 4.46573 25.8452 5.48751 25.3964ZM4.00079 30.715V28.7214C5.92471 29.9162 9.47187 30.5322 12.9902 30.5322C16.3082 30.5322 19.9914 29.957 21.9797 28.7237V30.715C21.9797 31.0063 21.4863 31.6605 19.6374 32.2646C17.8725 32.8412 15.512 33.1588 12.9902 33.1588C7.17364 33.1589 4.00079 31.5446 4.00079 30.715ZM19.6374 43.5831C17.8725 44.1598 15.512 44.4774 12.9902 44.4774C7.17364 44.4774 4.00079 42.8629 4.00079 42.0334C4.00079 41.6225 4.81231 40.9459 6.58897 40.4065C8.46699 41.6753 12.1254 42.3303 15.753 42.3303C17.8817 42.3303 20.0208 42.1047 21.8049 41.662C21.8975 41.7725 21.9797 41.9062 21.9797 42.0334C21.9797 42.3247 21.4863 42.9789 19.6374 43.5831ZM22.4001 39.9701C20.6353 40.5468 18.2747 40.8644 15.7529 40.8644C9.93642 40.8644 6.76348 39.2499 6.76348 38.4205V36.427C8.6874 37.6217 12.2346 38.2377 15.7529 38.2377C19.2713 38.2377 22.8184 37.6217 24.7424 36.427V38.4205C24.7424 38.7118 24.2491 39.366 22.4001 39.9701Z" fill="url(#paint0_linear_666_4691)"/>
<path d="M44.5565 0H23.7383C23.3336 0 23.0054 0.328124 23.0054 0.732909C23.0054 1.13769 23.3336 1.46582 23.7383 1.46582H44.5566C45.3522 1.46582 45.9994 2.11308 45.9994 2.90869V30.9704C45.9994 31.3752 46.3275 31.7034 46.7323 31.7034C47.1372 31.7034 47.4652 31.3752 47.4652 30.9704V2.90869C47.4652 1.30488 46.1604 0 44.5565 0Z" fill="url(#paint1_linear_666_4691)"/>
<path d="M43.2455 5.98828C43.2455 5.5835 42.9175 5.25537 42.5126 5.25537H16.5114C16.1066 5.25537 15.7785 5.5835 15.7785 5.98828V13.1925C15.7785 13.5972 16.1066 13.9254 16.5114 13.9254H42.5127C42.9176 13.9254 43.2456 13.5972 43.2456 13.1925L43.2455 5.98828ZM41.7797 12.4596H17.2443V6.72119H41.7797V12.4596Z" fill="url(#paint2_linear_666_4691)"/>
<path d="M33.9332 17.1584H32.1184C30.9422 17.1584 29.9854 18.1153 29.9854 19.2915C29.9854 20.4676 30.9422 21.4245 32.1184 21.4245H33.9332C35.1093 21.4245 36.0662 20.4676 36.0662 19.2915C36.0662 18.1153 35.1092 17.1584 33.9332 17.1584ZM33.9332 19.9585H32.1184C31.7505 19.9585 31.4513 19.6593 31.4513 19.2915C31.4513 18.9236 31.7506 18.6244 32.1184 18.6244H33.9332C34.301 18.6244 34.6002 18.9236 34.6002 19.2915C34.6002 19.6593 34.3009 19.9585 33.9332 19.9585Z" fill="url(#paint3_linear_666_4691)"/>
<path d="M40.9606 17.1584H39.1458C37.9697 17.1584 37.0128 18.1153 37.0128 19.2915C37.0128 20.4676 37.9697 21.4245 39.1458 21.4245H40.9606C42.1367 21.4245 43.0936 20.4676 43.0936 19.2915C43.0936 18.1153 42.1367 17.1584 40.9606 17.1584ZM40.9606 19.9585H39.1458C38.778 19.9585 38.4787 19.6593 38.4787 19.2915C38.4787 18.9236 38.778 18.6244 39.1458 18.6244H40.9606C41.3284 18.6244 41.6277 18.9236 41.6277 19.2915C41.6277 19.6593 41.3284 19.9585 40.9606 19.9585Z" fill="url(#paint4_linear_666_4691)"/>
<path d="M33.9332 24.2854H32.1184C30.9422 24.2854 29.9854 25.2422 29.9854 26.4184C29.9854 27.5946 30.9422 28.5514 32.1184 28.5514H33.9332C35.1093 28.5514 36.0662 27.5946 36.0662 26.4184C36.0662 25.2422 35.1092 24.2854 33.9332 24.2854ZM33.9332 27.0856H32.1184C31.7505 27.0856 31.4513 26.7864 31.4513 26.4185C31.4513 26.0506 31.7506 25.7514 32.1184 25.7514H33.9332C34.301 25.7514 34.6002 26.0506 34.6002 26.4185C34.6002 26.7864 34.3009 27.0856 33.9332 27.0856Z" fill="url(#paint5_linear_666_4691)"/>
<path d="M40.9606 24.2854H39.1458C37.9697 24.2854 37.0128 25.2422 37.0128 26.4184C37.0128 27.5946 37.9697 28.5514 39.1458 28.5514H40.9606C42.1367 28.5514 43.0936 27.5946 43.0936 26.4184C43.0936 25.2422 42.1367 24.2854 40.9606 24.2854ZM40.9606 27.0856H39.1458C38.778 27.0856 38.4787 26.7864 38.4787 26.4185C38.4787 26.0506 38.778 25.7514 39.1458 25.7514H40.9606C41.3284 25.7514 41.6277 26.0506 41.6277 26.4185C41.6277 26.7864 41.3284 27.0856 40.9606 27.0856Z" fill="url(#paint6_linear_666_4691)"/>
<path d="M33.9332 30.0122H32.1184C30.9422 30.0122 29.9854 30.969 29.9854 32.1452C29.9854 33.3214 30.9422 34.2783 32.1184 34.2783H33.9332C35.1093 34.2783 36.0662 33.3214 36.0662 32.1452C36.0662 30.969 35.1092 30.0122 33.9332 30.0122ZM33.9332 32.8124H32.1184C31.7505 32.8124 31.4513 32.5131 31.4513 32.1452C31.4513 31.7773 31.7506 31.4781 32.1184 31.4781H33.9332C34.301 31.4781 34.6002 31.7773 34.6002 32.1452C34.6002 32.5131 34.3009 32.8124 33.9332 32.8124Z" fill="url(#paint7_linear_666_4691)"/>
<path d="M40.9606 30.0122H39.1458C37.9697 30.0122 37.0128 30.969 37.0128 32.1452C37.0128 33.3214 37.9697 34.2783 39.1458 34.2783H40.9606C42.1367 34.2783 43.0936 33.3214 43.0936 32.1452C43.0936 30.969 42.1367 30.0122 40.9606 30.0122ZM40.9606 32.8124H39.1458C38.778 32.8124 38.4787 32.5131 38.4787 32.1452C38.4787 31.7773 38.778 31.4781 39.1458 31.4781H40.9606C41.3284 31.4781 41.6277 31.7773 41.6277 32.1452C41.6277 32.5131 41.3284 32.8124 40.9606 32.8124Z" fill="url(#paint8_linear_666_4691)"/>
<path d="M33.9332 35.739H32.1184C30.9422 35.739 29.9854 36.6958 29.9854 37.872C29.9854 39.0482 30.9422 40.0051 32.1184 40.0051H33.9332C35.1093 40.0051 36.0662 39.0482 36.0662 37.872C36.0661 36.6958 35.1092 35.739 33.9332 35.739ZM33.9332 38.5391H32.1184C31.7505 38.5391 31.4513 38.2398 31.4513 37.8719C31.4513 37.504 31.7506 37.2048 32.1184 37.2048H33.9332C34.301 37.2048 34.6002 37.504 34.6002 37.8719C34.6002 38.2398 34.3009 38.5391 33.9332 38.5391Z" fill="url(#paint9_linear_666_4691)"/>
<path d="M40.9606 35.739H39.1458C37.9697 35.739 37.0128 36.6958 37.0128 37.872C37.0128 39.0482 37.9697 40.0051 39.1458 40.0051H40.9606C42.1367 40.0051 43.0936 39.0482 43.0936 37.872C43.0936 36.6958 42.1367 35.739 40.9606 35.739ZM40.9606 38.5391H39.1458C38.778 38.5391 38.4787 38.2398 38.4787 37.8719C38.4787 37.504 38.778 37.2048 39.1458 37.2048H40.9606C41.3284 37.2048 41.6277 37.504 41.6277 37.8719C41.6277 38.2398 41.3284 38.5391 40.9606 38.5391Z" fill="url(#paint10_linear_666_4691)"/>
<path d="M9.18521 14.4707H6.70709C6.30231 14.4707 5.97418 14.7988 5.97418 15.2036C5.97418 15.6084 6.30231 15.9365 6.70709 15.9365H9.18521C9.59 15.9365 9.91812 15.6084 9.91812 15.2036C9.91812 14.7988 9.59 14.4707 9.18521 14.4707Z" fill="url(#paint11_linear_666_4691)"/>
<path d="M9.18521 12.1995H6.70709C6.30231 12.1995 5.97418 12.5276 5.97418 12.9324C5.97418 13.3372 6.30231 13.6653 6.70709 13.6653H9.18521C9.59 13.6653 9.91812 13.3372 9.91812 12.9324C9.91812 12.5276 9.59 12.1995 9.18521 12.1995Z" fill="url(#paint12_linear_666_4691)"/>
<path d="M9.18036 9.67969C8.77557 9.67969 8.44745 10.0078 8.44745 10.4126C8.44745 10.8174 8.77557 11.1455 9.18036 11.1455H9.19012C9.59491 11.1455 9.91815 10.8174 9.91815 10.4126C9.91815 10.0078 9.58514 9.67969 9.18036 9.67969Z" fill="url(#paint13_linear_666_4691)"/>
<defs>
<linearGradient id="paint0_linear_666_4691" x1="47.4653" y1="50" x2="1.55702" y2="49.0853" gradientUnits="userSpaceOnUse">
<stop stop-color="#0D83D0"/>
<stop offset="1" stop-color="#284D95"/>
</linearGradient>
<linearGradient id="paint1_linear_666_4691" x1="47.4652" y1="31.7034" x2="22.4704" y2="31.2758" gradientUnits="userSpaceOnUse">
<stop stop-color="#0D83D0"/>
<stop offset="1" stop-color="#284D95"/>
</linearGradient>
<linearGradient id="paint2_linear_666_4691" x1="43.2456" y1="13.9254" x2="15.3074" y2="11.963" gradientUnits="userSpaceOnUse">
<stop stop-color="#0D83D0"/>
<stop offset="1" stop-color="#284D95"/>
</linearGradient>
<linearGradient id="paint3_linear_666_4691" x1="36.0662" y1="21.4245" x2="29.8568" y2="21.2282" gradientUnits="userSpaceOnUse">
<stop stop-color="#0D83D0"/>
<stop offset="1" stop-color="#284D95"/>
</linearGradient>
<linearGradient id="paint4_linear_666_4691" x1="43.0936" y1="21.4245" x2="36.8842" y2="21.2282" gradientUnits="userSpaceOnUse">
<stop stop-color="#0D83D0"/>
<stop offset="1" stop-color="#284D95"/>
</linearGradient>
<linearGradient id="paint5_linear_666_4691" x1="36.0662" y1="28.5514" x2="29.8568" y2="28.3552" gradientUnits="userSpaceOnUse">
<stop stop-color="#0D83D0"/>
<stop offset="1" stop-color="#284D95"/>
</linearGradient>
<linearGradient id="paint6_linear_666_4691" x1="43.0936" y1="28.5514" x2="36.8842" y2="28.3552" gradientUnits="userSpaceOnUse">
<stop stop-color="#0D83D0"/>
<stop offset="1" stop-color="#284D95"/>
</linearGradient>
<linearGradient id="paint7_linear_666_4691" x1="36.0662" y1="34.2783" x2="29.8568" y2="34.0821" gradientUnits="userSpaceOnUse">
<stop stop-color="#0D83D0"/>
<stop offset="1" stop-color="#284D95"/>
</linearGradient>
<linearGradient id="paint8_linear_666_4691" x1="43.0936" y1="34.2783" x2="36.8842" y2="34.0821" gradientUnits="userSpaceOnUse">
<stop stop-color="#0D83D0"/>
<stop offset="1" stop-color="#284D95"/>
</linearGradient>
<linearGradient id="paint9_linear_666_4691" x1="36.0662" y1="40.0051" x2="29.8568" y2="39.8089" gradientUnits="userSpaceOnUse">
<stop stop-color="#0D83D0"/>
<stop offset="1" stop-color="#284D95"/>
</linearGradient>
<linearGradient id="paint10_linear_666_4691" x1="43.0936" y1="40.0051" x2="36.8842" y2="39.8089" gradientUnits="userSpaceOnUse">
<stop stop-color="#0D83D0"/>
<stop offset="1" stop-color="#284D95"/>
</linearGradient>
<linearGradient id="paint11_linear_666_4691" x1="9.91812" y1="15.9365" x2="5.90103" y2="15.6969" gradientUnits="userSpaceOnUse">
<stop stop-color="#0D83D0"/>
<stop offset="1" stop-color="#284D95"/>
</linearGradient>
<linearGradient id="paint12_linear_666_4691" x1="9.91812" y1="13.6653" x2="5.90103" y2="13.4256" gradientUnits="userSpaceOnUse">
<stop stop-color="#0D83D0"/>
<stop offset="1" stop-color="#284D95"/>
</linearGradient>
<linearGradient id="paint13_linear_666_4691" x1="9.91815" y1="11.1455" x2="8.41558" y2="11.1121" gradientUnits="userSpaceOnUse">
<stop stop-color="#0D83D0"/>
<stop offset="1" stop-color="#284D95"/>
</linearGradient>
</defs>
</svg>
