<svg width="50" height="50" viewBox="0 0 50 50" fill="none" xmlns="http://www.w3.org/2000/svg">
<g clip-path="url(#clip0_666_4774)">
<path d="M25 28.0024C23.6321 28.0024 22.5193 29.1152 22.5193 30.4831C22.5193 31.851 23.6321 32.9638 25 32.9638C26.3678 32.9638 27.4805 31.851 27.4805 30.4831C27.4805 29.1152 26.3678 28.0024 25 28.0024ZM25 31.4989C24.4398 31.4989 23.9841 31.0433 23.9841 30.4831C23.9841 29.9229 24.4398 29.4673 25 29.4673C25.56 29.4673 26.0157 29.9229 26.0157 30.4831C26.0157 31.0433 25.56 31.4989 25 31.4989Z" fill="url(#paint0_linear_666_4774)"/>
<path d="M9.26016 21.4341C9.26016 21.0296 8.93223 20.7017 8.52773 20.7017H0.732422C0.32793 20.7017 0 21.0296 0 21.4341C0 21.8386 0.32793 22.1665 0.732422 22.1665H8.52773C8.93223 22.1665 9.26016 21.8386 9.26016 21.4341Z" fill="url(#paint1_linear_666_4774)"/>
<path d="M10.6437 9.397C10.7866 9.54006 10.9741 9.61155 11.1615 9.61155C11.3489 9.61155 11.5364 9.54006 11.6794 9.397C11.9654 9.11096 11.9654 8.64719 11.6794 8.36126L6.16738 2.84905C5.88145 2.56301 5.41768 2.56301 5.13164 2.84905C4.84561 3.13508 4.84561 3.59885 5.13164 3.88479L10.6437 9.397Z" fill="url(#paint2_linear_666_4774)"/>
<path d="M49.2676 20.7017H41.4723C41.0677 20.7017 40.7399 21.0296 40.7399 21.4341C40.7399 21.8386 41.0677 22.1665 41.4723 22.1665H49.2676C49.6722 22.1665 50 21.8386 50 21.4341C50 21.0296 49.6722 20.7017 49.2676 20.7017Z" fill="url(#paint3_linear_666_4774)"/>
<path d="M38.8384 9.61145C39.0258 9.61145 39.2133 9.53997 39.3563 9.3969L44.8684 3.88479C45.1545 3.59875 45.1545 3.13499 44.8684 2.84905C44.5823 2.56301 44.1186 2.56301 43.8326 2.84905L38.3205 8.36116C38.0344 8.64719 38.0344 9.11096 38.3205 9.3969C38.4635 9.53997 38.651 9.61145 38.8384 9.61145Z" fill="url(#paint4_linear_666_4774)"/>
<path d="M43.9043 41.4732H41.4715V37.6595C41.4715 37.255 41.1437 36.9271 40.7391 36.9271H39.0972V27.492C39.0972 27.0875 38.7693 26.7596 38.3647 26.7596C37.9602 26.7596 37.6323 27.0875 37.6323 27.492V36.9271H12.3677V18.5737C12.3677 11.6082 18.0346 5.94141 25 5.94141C31.9655 5.94141 37.6323 11.6083 37.6323 18.5737V25.1442C37.6323 25.5487 37.9602 25.8767 38.3647 25.8767C38.7693 25.8767 39.0972 25.5487 39.0972 25.1442V18.5737C39.0972 10.8005 32.7731 4.47656 25 4.47656C17.2269 4.47656 10.9028 10.8006 10.9028 18.5737V36.9271H9.26094C8.85645 36.9271 8.52852 37.255 8.52852 37.6595V41.4732H6.0957C5.69121 41.4732 5.36328 41.8012 5.36328 42.2057V46.6331C5.36328 47.0376 5.69121 47.3655 6.0957 47.3655H9.84014C10.2446 47.3655 10.5726 47.0376 10.5726 46.6331C10.5726 46.2286 10.2446 45.9007 9.84014 45.9007H6.82812V42.9381H43.1719V45.9007H12.4955C12.091 45.9007 11.7631 46.2286 11.7631 46.6331C11.7631 47.0376 12.091 47.3655 12.4955 47.3655H43.9043C44.3089 47.3655 44.6367 47.0376 44.6367 46.6331V42.2057C44.6367 41.8012 44.3089 41.4732 43.9043 41.4732ZM9.99336 41.4732V38.3919H40.0066V41.4732H9.99336Z" fill="url(#paint5_linear_666_4774)"/>
<path d="M28.4268 10.4427C28.1202 10.1009 27.681 9.90479 27.2218 9.90479H22.7783C22.3191 9.90479 21.8799 10.1008 21.5734 10.4426C21.2668 10.7844 21.1196 11.2422 21.1693 11.6986L21.7695 17.2047C21.8133 17.6068 22.1745 17.8978 22.577 17.8534C22.9791 17.8096 23.2696 17.448 23.2257 17.0459L22.6254 11.5398C22.6193 11.4835 22.6429 11.4439 22.6638 11.4207C22.6847 11.3974 22.7215 11.3696 22.7782 11.3696H27.2217C27.2785 11.3696 27.3153 11.3974 27.3362 11.4207C27.357 11.4439 27.3806 11.4835 27.3745 11.5398L25.9688 24.4336C25.9148 24.929 25.4984 25.3025 25 25.3025C24.5017 25.3025 24.0852 24.929 24.0313 24.4336L23.4703 19.2882C23.4265 18.886 23.0651 18.5961 22.6628 18.6395C22.2607 18.6833 21.9703 19.0448 22.0141 19.447L22.575 24.5924C22.7102 25.8323 23.7528 26.7674 25.0001 26.7674C26.2475 26.7674 27.2899 25.8323 27.4251 24.5924L28.8309 11.6986C28.8805 11.2423 28.7333 10.7845 28.4268 10.4427Z" fill="url(#paint6_linear_666_4774)"/>
</g>
<defs>
<linearGradient id="paint0_linear_666_4774" x1="27.4805" y1="32.9638" x2="22.4118" y2="32.8514" gradientUnits="userSpaceOnUse">
<stop stop-color="#0D83D0"/>
<stop offset="1" stop-color="#284D95"/>
</linearGradient>
<linearGradient id="paint1_linear_666_4774" x1="9.26016" y1="22.1665" x2="-0.022948" y2="20.8654" gradientUnits="userSpaceOnUse">
<stop stop-color="#0D83D0"/>
<stop offset="1" stop-color="#284D95"/>
</linearGradient>
<linearGradient id="paint2_linear_666_4774" x1="11.8939" y1="9.61155" x2="4.76593" y2="9.45351" gradientUnits="userSpaceOnUse">
<stop stop-color="#0D83D0"/>
<stop offset="1" stop-color="#284D95"/>
</linearGradient>
<linearGradient id="paint3_linear_666_4774" x1="50" y1="22.1665" x2="40.7169" y2="20.8654" gradientUnits="userSpaceOnUse">
<stop stop-color="#0D83D0"/>
<stop offset="1" stop-color="#284D95"/>
</linearGradient>
<linearGradient id="paint4_linear_666_4774" x1="45.083" y1="9.61145" x2="37.9548" y2="9.45341" gradientUnits="userSpaceOnUse">
<stop stop-color="#0D83D0"/>
<stop offset="1" stop-color="#284D95"/>
</linearGradient>
<linearGradient id="paint5_linear_666_4774" x1="44.6367" y1="47.3655" x2="4.50907" y2="46.5508" gradientUnits="userSpaceOnUse">
<stop stop-color="#0D83D0"/>
<stop offset="1" stop-color="#284D95"/>
</linearGradient>
<linearGradient id="paint6_linear_666_4774" x1="28.8404" y1="26.7674" x2="20.9903" y2="26.6881" gradientUnits="userSpaceOnUse">
<stop stop-color="#0D83D0"/>
<stop offset="1" stop-color="#284D95"/>
</linearGradient>
<clipPath id="clip0_666_4774">
<rect width="50" height="50" fill="white"/>
</clipPath>
</defs>
</svg>
