<svg width="50" height="50" viewBox="0 0 50 50" fill="none" xmlns="http://www.w3.org/2000/svg">
<g clip-path="url(#clip0_666_4657)">
<path d="M39.3764 3.57812C37.5037 3.57812 35.9802 5.10166 35.9802 6.97441C35.9802 7.37891 36.3081 7.70684 36.7126 7.70684C37.1172 7.70684 37.4451 7.37891 37.4451 6.97441C37.4451 5.90937 38.3115 5.04297 39.3764 5.04297C40.4415 5.04297 41.3079 5.90937 41.3079 6.97441C41.3079 8.03945 40.4415 8.90586 39.3764 8.90586H38.9116C38.507 8.90586 38.1792 9.23379 38.1792 9.63828V12.144C38.1792 12.5485 38.507 12.8765 38.9116 12.8765C39.3162 12.8765 39.644 12.5485 39.644 12.144V10.3603C41.392 10.2233 42.7727 8.75703 42.7727 6.97441C42.7727 5.10166 41.2491 3.57812 39.3764 3.57812Z" fill="url(#paint0_linear_666_4657)"/>
<path d="M38.9115 13.9927C38.5069 13.9927 38.1791 14.3206 38.1791 14.7251V14.9396C38.1791 15.3441 38.5069 15.6721 38.9115 15.6721C39.3161 15.6721 39.6439 15.3441 39.6439 14.9396V14.7251C39.6439 14.3206 39.316 13.9927 38.9115 13.9927Z" fill="url(#paint1_linear_666_4657)"/>
<path d="M45.8026 0H32.9492C31.1856 0 29.751 1.43467 29.751 3.19824V8.99375C27.3407 5.53154 23.3327 3.26074 18.8037 3.26074H15.5293C11.7003 3.26074 8.13418 5.27646 6.1499 8.54102C3.45703 9.38535 1.65771 11.8937 1.73955 14.7458L1.92451 21.1369C1.35488 21.6713 0.998047 22.4298 0.998047 23.2706V23.9581C0.998047 25.5714 2.31094 26.8839 3.9248 26.8839H5.88818C6.38799 28.1201 7.11523 29.2735 8.0584 30.3244C7.53926 31.0434 4.87188 34.7372 4.7082 34.9641C4.65518 35.0376 4.61621 35.1205 4.59336 35.2082L1.21514 48.2043C1.10254 48.6374 1.19492 49.089 1.46875 49.443C1.74248 49.797 2.15625 50.0001 2.60371 50.0001H29.8496C30.3381 50.0001 30.809 49.795 31.1417 49.4375C31.4745 49.0799 31.6454 48.5952 31.6104 48.1069L31.333 44.3105C31.2634 43.3496 31.0083 42.4301 30.5747 41.5773C30.3912 41.2168 29.9502 41.0731 29.5898 41.2565C29.2293 41.4398 29.0856 41.8808 29.2689 42.2413C29.6137 42.9192 29.8165 43.651 29.872 44.4168L30.1493 48.2129C30.1575 48.3268 30.1027 48.4039 30.0695 48.4397C30.0363 48.4754 29.9634 48.5354 29.8496 48.5354H26.4714V45.5427C26.4714 45.1382 26.1436 44.8103 25.739 44.8103C25.3344 44.8103 25.0065 45.1382 25.0065 45.5427V48.5352H8.96963L10.8385 41.3461C10.8446 41.3225 10.8659 41.306 10.8903 41.306H14.1264C14.7831 41.306 15.4021 41.1425 15.9462 40.8553C16.4165 40.9406 16.8983 40.9845 17.3828 40.9845C19.4369 40.9845 21.3972 40.1998 22.8322 38.8173L22.835 38.8178C22.9779 38.8475 22.8695 38.8256 25.0393 39.1671C25.8348 39.2914 26.5798 39.5745 27.254 40.0085C27.3767 40.0875 27.514 40.1252 27.6498 40.1252C27.8905 40.1252 28.1264 40.0066 28.2663 39.7892C28.4853 39.4491 28.387 38.9958 28.0469 38.7769C27.1999 38.2315 26.2641 37.876 25.2657 37.7199C23.3864 37.4048 23.214 37.4331 22.9131 37.3175C22.3844 37.1135 22.0229 36.6102 22.0138 36.0226C22.8799 35.6508 23.4912 34.8043 23.4989 33.8217C23.5014 33.5514 23.4593 33.288 23.3772 33.039C25.1098 32.0119 27.5939 30.0683 28.8782 26.8838H30.2568C31.8701 26.8838 33.1826 25.5713 33.1826 23.958V23.2705C33.1826 22.3713 32.7747 21.5657 32.1348 21.0284V19.1439C32.3992 19.2137 32.673 19.25 32.9493 19.25H35.2559C35.5224 19.25 35.7393 19.4668 35.7393 19.7334V21.8135C35.7393 22.3306 36.0554 22.7728 36.5447 22.94C36.675 22.9846 36.8075 23.0062 36.9378 23.0062C37.2968 23.0062 37.6388 22.8423 37.8706 22.5428L40.2939 19.4204C40.3781 19.3121 40.5049 19.25 40.6416 19.25H45.8037C47.5673 19.25 49.002 17.8153 49.002 16.0518V3.19824C49.002 1.43467 47.5668 0 45.8026 0ZM2.46289 23.958V23.2705C2.46289 22.4645 3.11865 21.8086 3.9248 21.8086H5.11328C5.06289 23.0821 5.0959 24.1309 5.41396 25.4189H3.9248C3.11865 25.4189 2.46289 24.7636 2.46289 23.958ZM17.408 39.5189C17.8057 38.9067 18.0377 38.1775 18.0377 37.3947V36.2243H20.5569C20.6125 36.956 20.9377 37.6135 21.4422 38.0915C20.3286 39.001 18.9015 39.5132 17.408 39.5189ZM21.0317 34.7594H17.8719C17.1556 34.7594 16.5729 35.3421 16.5729 36.0584V37.3946C16.5729 38.7436 15.4754 39.8411 14.1264 39.8411H10.8903C10.199 39.8411 9.59473 40.3084 9.4208 40.9775L7.45605 48.5352H2.64277L5.97656 35.7097C6.23486 35.3518 10.9855 28.773 11.5848 27.942C11.7368 27.7313 11.9617 27.5925 12.218 27.5514C12.4772 27.5097 12.7389 27.5727 12.9532 27.7282L12.989 27.7543C13.2217 27.9231 13.3593 28.1843 13.3669 28.4768C13.3735 28.6749 13.3167 28.8655 13.2018 29.0291L11.8365 30.9797C11.5821 31.342 11.551 31.8111 11.7551 32.204C11.9594 32.5971 12.3616 32.8413 12.8049 32.8413H21.075C21.3313 32.8413 21.5724 32.9412 21.7538 33.1226C21.9368 33.3057 22.0364 33.5492 22.0341 33.8093C22.03 34.3332 21.5803 34.7594 21.0317 34.7594ZM31.7178 23.958C31.7178 24.7636 31.0624 25.4189 30.2568 25.4189H29.3526C29.5643 24.5619 29.6728 23.6771 29.6728 22.7764C29.6728 22.4498 29.6658 22.1266 29.6533 21.8086H30.2568C31.0624 21.8086 31.7178 22.4645 31.7178 23.2705V23.958ZM30.2568 20.3438H29.5485C29.4627 19.5211 29.3318 18.7244 29.1567 17.968C28.8146 16.4958 27.5153 15.4079 25.9971 15.3225C23.1594 15.1634 20.2652 14.4276 17.6271 13.1946C16.8884 12.8501 15.9963 13.088 15.5517 13.7481C15.3838 13.9976 15.0311 14.179 14.7165 14.1719C14.2037 14.1659 13.6398 13.8842 12.9424 13.2854C12.4721 12.881 11.9981 12.4074 11.4941 11.8383C11.1317 11.428 10.6104 11.1925 10.0637 11.192H10.0618C9.51836 11.192 9 11.425 8.63926 11.8316C7.93447 12.627 7.32305 13.54 6.82197 14.5453C6.6415 14.9073 6.78867 15.3471 7.15068 15.5276C7.51279 15.7081 7.95244 15.5609 8.13301 15.1989C8.57686 14.3085 9.11602 13.5024 9.73545 12.8035C9.84854 12.6761 9.98828 12.6569 10.0619 12.6569C10.1375 12.6581 10.2801 12.6766 10.397 12.8089C10.946 13.4288 11.4662 13.948 11.9878 14.3966C12.6005 14.9226 13.5482 15.6234 14.6991 15.6367C15.5143 15.645 16.3224 15.2264 16.7667 14.5664C16.8109 14.5007 16.9191 14.4809 17.0073 14.522C19.8126 15.833 22.8929 16.6155 25.9148 16.7851C26.7877 16.8342 27.5341 17.4569 27.7298 18.299C27.9355 19.188 28.0765 20.1401 28.1484 21.1308C28.1879 21.659 28.2079 22.2127 28.2079 22.7765C28.2079 23.8577 28.0309 24.9118 27.6816 25.9097C26.5874 29.0381 24.1385 30.9068 22.5126 31.8483C22.0984 31.5421 21.5994 31.3766 21.075 31.3766H13.3468L14.401 29.8703C14.6996 29.4453 14.8482 28.9465 14.831 28.4335C14.8118 27.6872 14.4539 27.0075 13.85 26.5693L13.8144 26.5434C13.2819 26.1571 12.6326 26.0017 11.986 26.1052C11.3426 26.2084 10.7782 26.5564 10.3967 27.0853C10.1211 27.4675 9.58086 28.2158 8.93838 29.1058C8.10713 28.1257 7.48486 27.0539 7.08476 25.9096C6.5209 24.2988 6.48945 22.8521 6.61807 21.1296C6.6918 20.1181 6.83799 19.1444 7.05254 18.2358C7.14551 17.8422 6.90176 17.4477 6.50801 17.3547C6.11436 17.2617 5.71982 17.5055 5.62686 17.8992C5.44316 18.6771 5.30674 19.4974 5.21807 20.3439H3.9248C3.73457 20.3439 3.54883 20.3628 3.36855 20.3977L3.20381 14.7038C3.13857 12.4335 4.6249 10.447 6.81826 9.87285C7.00879 9.82295 7.17129 9.69844 7.26895 9.52734C8.95898 6.56543 12.1242 4.72559 15.5293 4.72559H18.8037C25.3468 4.72559 30.6699 10.0487 30.6699 16.5918V20.3734C30.5349 20.3543 30.3971 20.3438 30.2568 20.3438ZM47.5371 16.0518C47.5371 17.0076 46.7595 17.7852 45.8037 17.7852H40.6416C40.0496 17.7852 39.5016 18.0533 39.1373 18.5216L37.2041 21.0125V19.7334C37.2041 18.6592 36.3302 17.7852 35.2559 17.7852H32.9492C32.6594 17.7852 32.383 17.7149 32.1347 17.5816V16.5918C32.1347 14.8762 31.8087 13.2354 31.2158 11.7276V3.19824C31.2158 2.24238 31.9935 1.46484 32.9492 1.46484H45.8026C46.759 1.46484 47.5371 2.24238 47.5371 3.19824V16.0518Z" fill="url(#paint2_linear_666_4657)"/>
<path d="M13.6823 23.5019C14.0867 23.5019 14.4147 23.1739 14.4147 22.7694V21.9517C14.4147 21.5472 14.0867 21.2192 13.6823 21.2192C13.2778 21.2192 12.9498 21.5472 12.9498 21.9517V22.7694C12.9498 23.1739 13.2778 23.5019 13.6823 23.5019Z" fill="url(#paint3_linear_666_4657)"/>
<path d="M24.6272 23.5019C25.0318 23.5019 25.3596 23.1739 25.3596 22.7694V21.9517C25.3596 21.5472 25.0318 21.2192 24.6272 21.2192C24.2227 21.2192 23.8948 21.5472 23.8948 21.9517V22.7694C23.8948 23.1739 24.2227 23.5019 24.6272 23.5019Z" fill="url(#paint4_linear_666_4657)"/>
<path d="M17.8915 27.1055C18.8902 26.5229 19.8202 26.5229 20.8188 27.1055C20.9348 27.1731 21.0618 27.2054 21.1872 27.2053C21.4391 27.2053 21.6843 27.0751 21.8205 26.8418C22.0243 26.4924 21.9062 26.0439 21.5568 25.8401C20.1164 24.9999 18.5938 24.9999 17.1535 25.8401C16.804 26.0439 16.686 26.4925 16.8898 26.8418C17.0936 27.1913 17.5422 27.3093 17.8915 27.1055Z" fill="url(#paint5_linear_666_4657)"/>
</g>
<defs>
<linearGradient id="paint0_linear_666_4657" x1="42.7727" y1="12.8765" x2="35.8314" y2="12.764" gradientUnits="userSpaceOnUse">
<stop stop-color="#0D83D0"/>
<stop offset="1" stop-color="#284D95"/>
</linearGradient>
<linearGradient id="paint1_linear_666_4657" x1="39.6439" y1="15.6721" x2="38.1472" y2="15.6431" gradientUnits="userSpaceOnUse">
<stop stop-color="#0D83D0"/>
<stop offset="1" stop-color="#284D95"/>
</linearGradient>
<linearGradient id="paint2_linear_666_4657" x1="49.002" y1="50.0001" x2="-0.0440503" y2="48.9561" gradientUnits="userSpaceOnUse">
<stop stop-color="#0D83D0"/>
<stop offset="1" stop-color="#284D95"/>
</linearGradient>
<linearGradient id="paint3_linear_666_4657" x1="14.4147" y1="23.5019" x2="12.9177" y2="23.4806" gradientUnits="userSpaceOnUse">
<stop stop-color="#0D83D0"/>
<stop offset="1" stop-color="#284D95"/>
</linearGradient>
<linearGradient id="paint4_linear_666_4657" x1="25.3596" y1="23.5019" x2="23.8626" y2="23.4806" gradientUnits="userSpaceOnUse">
<stop stop-color="#0D83D0"/>
<stop offset="1" stop-color="#284D95"/>
</linearGradient>
<linearGradient id="paint5_linear_666_4657" x1="21.9203" y1="27.2054" x2="16.6932" y2="26.9074" gradientUnits="userSpaceOnUse">
<stop stop-color="#0D83D0"/>
<stop offset="1" stop-color="#284D95"/>
</linearGradient>
<clipPath id="clip0_666_4657">
<rect width="50" height="50" fill="white"/>
</clipPath>
</defs>
</svg>
