<svg width="208" height="45" viewBox="0 0 208 45" fill="none" xmlns="http://www.w3.org/2000/svg">
<path d="M64.0887 13.0484H60.9751V5.80081C60.9751 2.60824 58.3869 0.0200195 55.2015 0.0200195H5.50414C2.31913 0.0200195 -0.26947 2.60824 -0.26947 5.80081V34.6042C-0.26947 37.7681 2.32593 40.3778 5.50414 40.3778H11.407L10.4077 42.1463C9.69601 43.3977 10.602 44.9435 12.0397 44.9435H12.9026C13.3988 44.9435 13.866 44.7564 14.2182 44.4113L18.3311 40.3778H42.3746L46.4874 44.4113C46.8397 44.7564 47.3068 44.9435 47.8031 44.9435H48.666C50.1037 44.9435 51.01 43.3977 50.298 42.1463L49.2987 40.3778H51.7576C51.8151 42.9158 53.8859 44.9435 56.4238 44.9435H64.0887C66.6482 44.9435 68.7549 42.8655 68.7549 40.2769V17.7146C68.7549 15.1404 66.6626 13.0484 64.0887 13.0484ZM58.2705 26.5145H56.5361C56.1388 26.5145 55.8172 26.8365 55.8172 27.2334C55.8172 27.6306 56.1388 27.9526 56.5361 27.9526H58.2705C58.6677 27.9526 58.9894 27.6306 58.9894 27.2334C58.9897 26.8365 58.6677 26.5145 58.2705 26.5145ZM24.2555 18.0404L31.8282 10.4678C32.109 10.1869 32.109 9.73227 31.8282 9.45107C31.547 9.17026 31.0923 9.17026 30.8115 9.45107L23.2388 17.0237C22.9576 17.3049 22.9576 17.7596 23.2388 18.0404C23.5196 18.3216 23.9747 18.3216 24.2555 18.0404ZM22.9368 25.4736L38.7893 9.62078C39.0701 9.33996 39.0701 8.88528 38.7893 8.60408C38.5085 8.32326 38.0534 8.32326 37.7726 8.60408L21.9201 24.4569C21.6393 24.7378 21.6393 25.1924 21.9201 25.4736C22.201 25.7544 22.656 25.7544 22.9368 25.4736ZM62.239 23.6432H63.9734C64.3707 23.6432 64.6923 23.3212 64.6923 22.924C64.6923 22.5271 64.3707 22.2051 63.9734 22.2051H62.239C61.8418 22.2051 61.5201 22.5271 61.5201 22.924C61.5201 23.3212 61.8414 23.6432 62.239 23.6432ZM62.239 19.3342H63.9734C64.3707 19.3342 64.6923 19.0121 64.6923 18.6149C64.6923 18.2177 64.3707 17.8961 63.9734 17.8961H62.239C61.8418 17.8961 61.5201 18.2181 61.5201 18.6149C61.5201 19.0121 61.8414 19.3342 62.239 19.3342ZM58.2705 22.2051H56.5361C56.1388 22.2051 55.8172 22.5267 55.8172 22.924C55.8172 23.3212 56.1388 23.6428 56.5361 23.6428H58.2705C58.6677 23.6428 58.9894 23.3212 58.9894 22.924C58.9897 22.5271 58.6677 22.2051 58.2705 22.2051ZM58.2705 17.8961H56.5361C56.1388 17.8961 55.8172 18.2181 55.8172 18.6149C55.8172 19.0121 56.1388 19.3342 56.5361 19.3342H58.2705C58.6677 19.3342 58.9894 19.0121 58.9894 18.6149C58.9897 18.2177 58.6677 17.8961 58.2705 17.8961ZM63.9734 30.8235H62.239C61.8414 30.8235 61.5198 31.1456 61.5198 31.5428C61.5198 31.9396 61.8414 32.2617 62.239 32.2617H63.9734C64.3707 32.2617 64.6923 31.9396 64.6923 31.5424C64.6923 31.1456 64.3707 30.8235 63.9734 30.8235ZM62.239 27.9526H63.9734C64.3707 27.9526 64.6923 27.6306 64.6923 27.2334C64.6923 26.8365 64.3707 26.5145 63.9734 26.5145H62.239C61.8418 26.5145 61.5201 26.8365 61.5201 27.2334C61.5201 27.6306 61.8414 27.9526 62.239 27.9526ZM58.2705 30.8235H56.5361C56.1388 30.8235 55.8172 31.1456 55.8172 31.5428C55.8172 31.9396 56.1388 32.2617 56.5361 32.2617H58.2705C58.6677 32.2617 58.9894 31.9396 58.9894 31.5424C58.9897 31.1456 58.6677 30.8235 58.2705 30.8235ZM51.7504 17.7146V34.9277H1.19018C1.17582 34.82 1.16864 34.7119 1.16864 34.6042V5.80081C1.16864 3.40648 3.11699 1.45813 5.50414 1.45813H55.2015C57.5959 1.45813 59.5374 3.40648 59.5374 5.80081V13.0484H56.4238C53.8859 13.0484 51.7504 15.126 51.7504 17.7146ZM67.3168 35.0283H53.1885V17.7146C53.1885 15.9386 54.655 14.4862 56.4238 14.4862H64.0887C65.8719 14.4862 67.3168 15.9315 67.3168 17.7146V35.0283Z" fill="url(#paint0_linear_778_4791)"/>
<path d="M129.216 7.57756L124.754 1.15161C124.261 0.442571 123.455 0.0200195 122.592 0.0200195H97.9937C97.1305 0.0200195 96.3201 0.442949 95.8311 1.15161L91.3697 7.57756C91.3213 7.64786 91.2903 7.75822 91.2903 7.82852V38.9628C91.2903 40.3279 92.3343 41.4554 93.6688 41.5831V42.0809C93.6688 43.6622 94.9504 44.9435 96.5273 44.9435H124.058C125.635 44.9435 126.917 43.6622 126.917 42.0809V41.5831C128.247 41.4554 129.295 40.3279 129.295 38.9628V7.82852C129.295 7.75822 129.264 7.64786 129.216 7.57756ZM110.294 25.779C108.927 25.779 107.815 26.8909 107.815 28.258C107.815 28.5014 108.012 28.6987 108.256 28.6987C108.499 28.6987 108.696 28.5014 108.696 28.258C108.696 27.377 109.413 26.6596 110.294 26.6596C110.538 26.6596 110.735 26.4631 110.735 26.2193C110.735 25.9759 110.538 25.779 110.294 25.779ZM110.295 18.9014C105.137 18.9014 100.94 23.0986 100.94 28.2603C100.94 33.4178 105.137 37.615 110.295 37.615C114.294 37.615 117.852 35.0649 119.148 31.2729C119.478 30.308 119.645 29.2951 119.645 28.2603C119.645 23.1643 115.514 18.9014 110.295 18.9014ZM110.295 36.734C105.622 36.734 101.821 32.9287 101.821 28.2603C101.821 23.5873 105.622 19.782 110.295 19.782C113.616 19.782 116.589 21.7243 117.972 24.6882C117.465 24.6047 117.263 24.644 116.857 24.6353C116.078 24.6353 115.338 24.8821 114.717 25.3357C113.766 23.8998 112.14 22.9481 110.295 22.9481C107.366 22.9481 104.984 25.3315 104.984 28.2603C104.984 31.1845 107.366 33.5671 110.295 33.5671C112.14 33.5671 113.761 32.6071 114.708 31.1713C115.312 31.6157 116.052 31.8803 116.857 31.8803C117.267 31.8716 117.465 31.9113 117.972 31.8232C116.593 34.7917 113.616 36.734 110.295 36.734ZM114.06 30.5594C113.281 31.8323 111.89 32.6865 110.295 32.6865C107.851 32.6865 105.864 30.7 105.864 28.2603C105.864 25.8157 107.851 23.8295 110.295 23.8295C111.89 23.8295 113.286 24.6795 114.065 25.948C113.528 26.5954 113.233 27.4012 113.233 28.2603C113.232 29.1326 113.545 29.9342 114.06 30.5594ZM101.052 11.74H95.3121C95.0687 11.74 94.8718 11.9365 94.8718 12.1803C94.8718 12.4241 95.0687 12.621 95.3121 12.621H101.052C101.296 12.621 101.493 12.4241 101.493 12.1803C101.493 11.9365 101.296 11.74 101.052 11.74ZM106.573 11.74H103.317C103.074 11.74 102.876 11.9365 102.876 12.1803C102.876 12.4241 103.074 12.621 103.317 12.621H106.573C106.817 12.621 107.014 12.4241 107.014 12.1803C107.014 11.9365 106.817 11.74 106.573 11.74ZM116.065 11.5944C116.065 10.6046 115.262 9.80182 114.272 9.80182C113.282 9.80182 112.48 10.6046 112.48 11.5944C112.48 12.5843 113.282 13.3871 114.272 13.3871C115.262 13.3871 116.065 12.5843 116.065 11.5944ZM120.984 11.5944C120.984 12.5813 120.183 13.3871 119.192 13.3871C118.205 13.3871 117.403 12.5813 117.403 11.5944C117.403 10.608 118.205 9.80182 119.192 9.80182C120.183 9.80182 120.984 10.608 120.984 11.5944ZM125.908 11.5944C125.908 10.6046 125.105 9.80182 124.116 9.80182C123.126 9.80182 122.323 10.6046 122.323 11.5944C122.323 12.5843 123.126 13.3871 124.116 13.3871C125.105 13.3871 125.908 12.5843 125.908 11.5944ZM114.272 2.04169H98.6461C98.0372 2.04169 97.4665 2.33952 97.1195 2.83993L96.5934 3.59772C96.4543 3.79728 96.5042 4.0713 96.7041 4.21C96.9022 4.34833 97.1773 4.30071 97.3168 4.10002L97.8433 3.34222C98.0255 3.07955 98.3259 2.92232 98.6461 2.92232H114.272C114.515 2.92232 114.712 2.72503 114.712 2.482C114.712 2.23822 114.515 2.04169 114.272 2.04169ZM96.5533 1.65391C96.8791 1.1826 97.4215 0.900649 97.9937 0.900649H122.592C123.164 0.900649 123.706 1.1826 124.032 1.65391L128.013 7.38821H92.5716L96.5533 1.65391ZM128.414 38.9628C128.414 39.9273 127.626 40.7153 126.657 40.7153H93.9239C92.9594 40.7153 92.1714 39.9273 92.1714 38.9628V15.8007H128.414V38.9628ZM128.414 14.9197H92.1714V8.26884H128.414V14.9197Z" fill="url(#paint1_linear_778_4791)"/>
<path d="M175.608 24.2207C175.779 24.3451 175.985 24.4124 176.197 24.4124C176.749 24.4124 177.197 23.9645 177.197 23.4123C177.197 23.1069 177.057 22.8178 176.818 22.6281L175.976 21.9878C177.091 20.8872 177.719 19.3837 177.719 17.8156C177.719 16.2459 177.089 14.7417 175.973 13.64L176.818 12.9974C177.068 12.8085 177.215 12.5129 177.215 12.1996C177.215 11.6474 176.768 11.1999 176.216 11.1999C175.996 11.1999 175.783 11.2721 175.609 11.4051L174.38 12.3387C172.7 11.3488 170.781 10.8246 168.831 10.8246C166.879 10.8246 164.96 11.3488 163.279 12.3402L162.049 11.4055C161.878 11.2808 161.672 11.2135 161.46 11.2135C160.908 11.2135 160.46 11.6614 160.46 12.2136C160.46 12.5189 160.6 12.8081 160.839 12.9974L161.687 13.6415C160.571 14.7417 159.942 16.2467 159.942 17.8152C159.942 19.3822 160.569 20.8857 161.684 21.9867L160.839 22.6288C160.598 22.8182 160.457 23.1084 160.457 23.4153C160.457 23.9675 160.904 24.415 161.457 24.415C161.67 24.415 161.878 24.3466 162.049 24.2204L163.275 23.2883C164.957 24.2812 166.877 24.8054 168.83 24.8054C170.783 24.8054 172.703 24.2812 174.384 23.2898L175.608 24.2207ZM207.667 26.8717L203.77 9.41482C203.467 7.99372 202.211 6.97778 200.758 6.97778C200.75 6.97778 200.741 6.97778 200.733 6.97778H158.932C158.924 6.97778 158.915 6.97778 158.907 6.97778C157.456 6.97778 156.202 7.99107 155.898 9.40878L151.987 26.9322C151.94 27.1348 151.904 27.3419 151.88 27.5486C151.767 27.9772 151.89 31.1857 151.845 31.6864C151.848 33.3732 153.197 34.7501 154.882 34.7883V35.9686C154.884 37.0723 155.778 37.9669 156.882 37.968C158.04 37.9098 159.827 38.2995 160.568 37.1252L162.17 34.7955C168.103 34.7951 180.079 34.7959 186.031 34.7955C186.038 34.7955 186.045 34.7955 186.053 34.7955C186.602 34.7955 187.047 34.3503 187.047 33.8015C187.047 33.7947 187.047 33.7879 187.047 33.7814V28.6477L205.821 28.6481V31.6868C205.821 32.2987 205.324 32.7954 204.712 32.7961L190.049 32.7965C189.498 32.798 189.052 33.2451 189.052 33.7958C189.052 34.3465 189.498 34.7936 190.049 34.7955L197.496 34.7959L199.114 37.1479C199.844 38.2968 201.66 37.9079 202.784 37.9684C203.888 37.9669 204.782 37.0723 204.784 35.9686V34.7883C206.469 34.7498 207.817 33.3725 207.82 31.6861C207.836 31.2408 207.848 30.7801 207.848 30.3319C207.848 29.1765 207.784 28.0173 207.667 26.8702L207.667 26.8717ZM200.745 35.9921L199.922 34.7959H202.784V35.969L200.745 35.9921ZM153.844 31.6868V28.6481H169.617C170.169 28.6477 170.617 28.2002 170.617 27.648C170.617 27.0958 170.169 26.6483 169.617 26.6483L154.097 26.6491L157.849 9.83851C157.96 9.33583 158.405 8.97715 158.92 8.97715C158.924 8.97715 158.928 8.97715 158.933 8.97715H200.734C200.738 8.97715 200.742 8.97715 200.745 8.97715C201.263 8.97715 201.71 9.33885 201.817 9.84456L205.569 26.6491H173.615C173.615 26.6483 173.614 26.6483 173.613 26.6483C173.064 26.6483 172.619 27.0939 172.619 27.6431C172.619 27.6495 172.619 27.6563 172.619 27.6624V32.7961L154.953 32.7965C154.341 32.7954 153.845 32.2987 153.845 31.6864L153.844 31.6868ZM158.937 35.969H156.881V34.7959H159.744L158.937 35.969ZM185.048 32.7965H174.618V28.6481H185.048V32.7965ZM198.571 30.7291C198.563 30.152 198.093 29.6886 197.516 29.6886C196.939 29.6886 196.469 30.152 196.461 30.7287C196.469 31.3051 196.939 31.7685 197.516 31.7685C198.093 31.7685 198.563 31.3051 198.571 30.7283L198.571 30.7291ZM192.829 30.7291C192.822 30.1512 192.351 29.6863 191.774 29.6863C191.196 29.6863 190.726 30.1512 190.719 30.7287C190.726 31.3058 191.196 31.7707 191.774 31.7707C192.351 31.7707 192.822 31.3058 192.829 30.7283V30.7291ZM167.892 31.784C168.47 31.7768 168.935 31.3062 168.935 30.7287C168.935 30.1512 168.47 29.6806 167.892 29.6738C167.315 29.6806 166.85 30.1512 166.85 30.7287C166.85 31.3062 167.315 31.7768 167.893 31.7836L167.892 31.784ZM162.15 31.784C162.728 31.7768 163.192 31.3062 163.192 30.7287C163.192 30.1512 162.728 29.6806 162.15 29.6738C161.573 29.6806 161.108 30.1512 161.108 30.7287C161.108 31.3062 161.573 31.7768 162.15 31.7836L162.15 31.784ZM183.689 21.9867L182.845 22.6288C182.603 22.8189 182.462 23.1103 182.462 23.418C182.462 23.9668 182.902 24.4143 183.45 24.4241C183.919 24.4982 184.913 23.5151 185.28 23.2887C186.962 24.2816 188.882 24.8058 190.835 24.8058C192.787 24.8058 194.707 24.2816 196.388 23.2902C196.74 23.503 197.749 24.5016 198.217 24.4245C198.766 24.4143 199.206 23.9668 199.206 23.418C199.206 23.1103 199.065 22.8189 198.823 22.6284L197.98 21.9882C199.096 20.8876 199.725 19.3833 199.725 17.8156C199.725 16.2463 199.095 14.7413 197.978 13.6396L198.823 12.9971C199.073 12.8085 199.22 12.5129 199.22 12.1996C199.22 11.6474 198.773 11.1999 198.22 11.1999C198.001 11.1999 197.788 11.2721 197.613 11.4051L196.385 12.3387C194.705 11.3488 192.786 10.8246 190.836 10.8246C188.883 10.8246 186.965 11.3488 185.283 12.3402L184.053 11.4055C183.879 11.2721 183.666 11.1999 183.447 11.1999C182.894 11.1999 182.447 11.6474 182.447 12.1996C182.447 12.5129 182.594 12.8085 182.844 12.9974L183.692 13.6415C182.575 14.7432 181.947 16.2467 181.947 17.8152C181.947 19.3826 182.575 20.8853 183.69 21.9863L183.689 21.9867ZM183.923 17.8156C183.952 16.6829 184.442 15.6102 185.278 14.8468L186.757 15.9704C186.359 16.5029 186.144 17.1504 186.144 17.8152C186.144 18.4785 186.359 19.1252 186.755 19.6566L185.276 20.781C184.441 20.0179 183.953 18.9464 183.924 17.8156H183.923ZM188.362 17.1897C188.533 17.3174 188.741 17.3866 188.955 17.3866C189.504 17.3866 189.949 16.9418 189.949 16.3933C189.949 16.3041 189.936 16.2153 189.913 16.1295C190.213 16.0517 190.524 16.0116 190.835 16.0116C191.145 16.0116 191.455 16.0513 191.754 16.1288C191.726 16.221 191.712 16.3174 191.712 16.4141C191.712 16.6243 191.78 16.8291 191.905 16.9981C192.094 17.2471 192.389 17.393 192.702 17.393C192.932 17.393 193.156 17.3133 193.335 17.1674C193.459 17.3601 193.525 17.5854 193.525 17.8148C193.525 18.0431 193.46 18.2672 193.337 18.4596C193.158 18.313 192.933 18.2328 192.702 18.2328C192.389 18.2328 192.094 18.3787 191.904 18.627C191.78 18.796 191.712 19.0008 191.712 19.211C191.712 19.3096 191.727 19.4075 191.756 19.502C191.456 19.581 191.146 19.6218 190.835 19.6218C190.524 19.6218 190.213 19.581 189.911 19.5012C189.94 19.4071 189.955 19.3092 189.955 19.211C189.955 19.0008 189.888 18.796 189.763 18.627C189.573 18.3787 189.278 18.2325 188.966 18.2325C188.735 18.2325 188.512 18.3122 188.333 18.4577C188.209 18.2774 188.143 18.0631 188.143 17.8439C188.143 17.6081 188.22 17.3783 188.362 17.1897ZM190.835 22.8284C190.814 22.8284 190.79 22.8284 190.768 22.8284C189.465 22.8284 188.177 22.5389 186.999 21.9829L188.288 21.0032C189.075 21.4088 189.949 21.6212 190.835 21.6212C191.721 21.6212 192.593 21.4088 193.38 21.004L194.669 21.9836C193.491 22.5389 192.205 22.8284 190.902 22.8284C190.881 22.8284 190.857 22.8284 190.836 22.8284H190.835ZM197.748 17.8156C197.719 18.9472 197.23 20.0194 196.394 20.7829L194.915 19.6585C195.312 19.1263 195.527 18.4796 195.527 17.8152C195.527 17.1496 195.311 16.5014 194.912 15.9685L196.391 14.8449C197.228 15.6087 197.719 16.6825 197.748 17.8156ZM190.835 12.8024C190.856 12.8024 190.88 12.8024 190.902 12.8024C192.202 12.8024 193.489 13.0908 194.665 13.6456L193.375 14.6253C192.591 14.2209 191.719 14.01 190.835 14.01C189.951 14.01 189.078 14.2224 188.292 14.6264L187.003 13.6468C188.18 13.0904 189.467 12.802 190.769 12.802C190.79 12.802 190.814 12.802 190.836 12.802L190.835 12.8024ZM175.742 17.8156C175.714 18.9472 175.225 20.0194 174.389 20.7829L172.91 19.6589C173.307 19.1267 173.522 18.4796 173.522 17.8152C173.522 17.1496 173.306 16.5014 172.907 15.9685L174.386 14.8452C175.223 15.6087 175.714 16.6825 175.743 17.8156H175.742ZM171.3 18.4358C171.129 18.3081 170.92 18.2389 170.707 18.2389C170.158 18.2389 169.714 18.6834 169.714 19.2318C169.714 19.3232 169.727 19.4143 169.751 19.502C169.451 19.5799 169.141 19.6195 168.831 19.6195C168.519 19.6195 168.208 19.5791 167.906 19.5009C167.935 19.4071 167.95 19.3092 167.95 19.211C167.95 19.0008 167.882 18.796 167.757 18.627C167.568 18.3784 167.273 18.2325 166.961 18.2325C166.73 18.2325 166.507 18.3122 166.328 18.4573C166.206 18.2653 166.141 18.0424 166.141 17.8148C166.141 17.5862 166.206 17.3617 166.33 17.1693C166.508 17.314 166.731 17.393 166.961 17.393C167.273 17.393 167.568 17.2471 167.757 16.9984C167.882 16.8291 167.95 16.6243 167.95 16.4141C167.95 16.3178 167.936 16.2214 167.908 16.1292C168.209 16.0509 168.519 16.0112 168.83 16.0112C169.14 16.0112 169.45 16.0509 169.75 16.1284C169.724 16.2176 169.711 16.3102 169.711 16.4032C169.711 16.9482 170.151 17.3911 170.697 17.393C170.927 17.3926 171.151 17.3125 171.33 17.167C171.454 17.3598 171.521 17.585 171.521 17.8148C171.521 18.0435 171.455 18.2672 171.332 18.46L171.3 18.4358ZM168.83 12.8024C168.852 12.8024 168.875 12.8024 168.897 12.8024C170.197 12.8024 171.484 13.0908 172.659 13.6452L171.37 14.6249C170.585 14.2216 169.714 14.01 168.83 14.01C167.946 14.01 167.073 14.2224 166.288 14.6264L164.998 13.6468C166.176 13.0908 167.462 12.8024 168.764 12.8024C168.785 12.8024 168.809 12.8024 168.831 12.8024H168.83ZM161.918 17.8156C161.948 16.6829 162.438 15.6102 163.274 14.8471L164.753 15.9712C164.355 16.5029 164.139 17.1504 164.139 17.8152C164.139 18.4785 164.354 19.1248 164.75 19.6562L163.271 20.7806C162.437 20.0183 161.947 18.9464 161.918 17.8156H161.918ZM168.83 22.8284C168.81 22.828 168.785 22.828 168.764 22.828C167.461 22.828 166.172 22.5385 164.995 21.9821L166.284 21.0025C167.071 21.4084 167.944 21.6208 168.83 21.6208C169.715 21.6208 170.589 21.4092 171.375 21.004L172.664 21.9836C171.486 22.5389 170.2 22.8284 168.897 22.8284C168.876 22.8284 168.852 22.8284 168.83 22.8284Z" fill="url(#paint2_linear_778_4791)"/>
<defs>
<linearGradient id="paint0_linear_778_4791" x1="68.7549" y1="44.9435" x2="-1.71806" y2="42.5427" gradientUnits="userSpaceOnUse">
<stop stop-color="#0D83D0"/>
<stop offset="1" stop-color="#284D95"/>
</linearGradient>
<linearGradient id="paint1_linear_778_4791" x1="129.295" y1="44.9435" x2="90.4614" y2="44.2151" gradientUnits="userSpaceOnUse">
<stop stop-color="#0D83D0"/>
<stop offset="1" stop-color="#284D95"/>
</linearGradient>
<linearGradient id="paint2_linear_778_4791" x1="207.848" y1="37.9855" x2="150.681" y2="35.6956" gradientUnits="userSpaceOnUse">
<stop stop-color="#0D83D0"/>
<stop offset="1" stop-color="#284D95"/>
</linearGradient>
</defs>
</svg>
