<svg width="101" height="82" viewBox="0 0 101 82" fill="none" xmlns="http://www.w3.org/2000/svg">
<path d="M95.5625 3.50001H87.6703C87.491 2.61697 87.0119 1.82308 86.3143 1.25284C85.6166 0.682603 84.7432 0.371094 83.8422 0.371094C82.9411 0.371094 82.0678 0.682603 81.3701 1.25284C80.6724 1.82308 80.1934 2.61697 80.0141 3.50001H76.7328C76.5535 2.61697 76.0744 1.82308 75.3768 1.25284C74.6791 0.682603 73.8057 0.371094 72.9047 0.371094C72.0036 0.371094 71.1303 0.682603 70.4326 1.25284C69.7349 1.82308 69.2559 2.61697 69.0766 3.50001H31.4203C31.241 2.61697 30.7619 1.82308 30.0643 1.25284C29.3666 0.682603 28.4932 0.371094 27.5922 0.371094C26.6911 0.371094 25.8178 0.682603 25.1201 1.25284C24.4224 1.82308 23.9434 2.61697 23.7641 3.50001H20.4828C20.3035 2.61697 19.8244 1.82308 19.1268 1.25284C18.4291 0.682603 17.5557 0.371094 16.6547 0.371094C15.7536 0.371094 14.8803 0.682603 14.1826 1.25284C13.4849 1.82308 13.0059 2.61697 12.8266 3.50001H4.9375C3.6943 3.50001 2.50201 3.99387 1.62294 4.87295C0.74386 5.75202 0.25 6.94431 0.25 8.18751L0.25 76.9375C0.25 78.1807 0.74386 79.373 1.62294 80.2521C2.50201 81.1312 3.6943 81.625 4.9375 81.625H95.5625C96.8057 81.625 97.998 81.1312 98.8771 80.2521C99.7561 79.373 100.25 78.1807 100.25 76.9375V8.18751C100.25 6.94431 99.7561 5.75202 98.8771 4.87295C97.998 3.99387 96.8057 3.50001 95.5625 3.50001ZM8.0625 72.25C6.8193 72.25 5.62701 71.7561 4.74794 70.8771C3.86886 69.998 3.375 68.8057 3.375 67.5625V19.125H97.125V51.9375C97.125 55.925 93.0047 58.3844 89.3125 59.3188V26.9375C89.3125 26.5231 89.1479 26.1257 88.8549 25.8327C88.5618 25.5396 88.1644 25.375 87.75 25.375H12.75C12.3356 25.375 11.9382 25.5396 11.6451 25.8327C11.3521 26.1257 11.1875 26.5231 11.1875 26.9375V64.4375C11.1875 64.8519 11.3521 65.2493 11.6451 65.5424C11.9382 65.8354 12.3356 66 12.75 66H83.7094C82.5375 69.2016 80.2422 72.25 76.8125 72.25H8.0625ZM73.6875 62.875H64.3125V53.5H73.6875V62.875ZM61.1875 62.875H51.8125V53.5H61.1875V62.875ZM48.6875 62.875H39.3125V53.5H48.6875V62.875ZM36.1875 62.875H26.8125V53.5H36.1875V62.875ZM23.6875 62.875H14.3125V53.5H23.6875V62.875ZM26.8125 28.5H36.1875V37.875H26.8125V28.5ZM39.3125 28.5H48.6875V37.875H39.3125V28.5ZM51.8125 28.5H61.1875V37.875H51.8125V28.5ZM64.3125 28.5H73.6875V37.875H64.3125V28.5ZM76.8125 28.5H86.1875V37.875H76.8125V28.5ZM14.3125 41H23.6875V50.375H14.3125V41ZM26.8125 41H36.1875V50.375H26.8125V41ZM39.3125 41H48.6875V50.375H39.3125V41ZM51.8125 41H61.1875V50.375H51.8125V41ZM64.3125 41H73.6875V50.375H64.3125V41ZM76.8125 41H86.1875V50.375H76.8125V41ZM23.6875 37.875H14.3125V28.5H23.6875V37.875ZM76.8125 53.5H86.1875V59.75C85.7731 59.75 85.3757 59.9146 85.0826 60.2077C84.7896 60.5007 84.625 60.8981 84.625 61.3125C84.6215 61.8355 84.5818 62.3575 84.5062 62.875H76.8125V53.5ZM87.6688 62.7938C90.9462 62.4434 94.0547 61.1616 96.6266 59.1C95.8794 62.1669 94.3038 64.9694 92.0718 67.2015C89.8397 69.4335 87.0372 71.0091 83.9703 71.7563C86.0344 69.1836 87.3179 66.0733 87.6688 62.7938ZM83.0625 4.28126C83.0625 4.07406 83.1448 3.87534 83.2913 3.72883C83.4378 3.58232 83.6366 3.50001 83.8438 3.50001C84.0509 3.50001 84.2497 3.58232 84.3962 3.72883C84.5427 3.87534 84.625 4.07406 84.625 4.28126V8.96876C84.625 9.17596 84.5427 9.37468 84.3962 9.52119C84.2497 9.6677 84.0509 9.75001 83.8438 9.75001C83.6366 9.75001 83.4378 9.6677 83.2913 9.52119C83.1448 9.37468 83.0625 9.17596 83.0625 8.96876V4.28126ZM72.125 4.28126C72.125 4.07406 72.2073 3.87534 72.3538 3.72883C72.5003 3.58232 72.6991 3.50001 72.9062 3.50001C73.1134 3.50001 73.3122 3.58232 73.4587 3.72883C73.6052 3.87534 73.6875 4.07406 73.6875 4.28126V8.96876C73.6875 9.17596 73.6052 9.37468 73.4587 9.52119C73.3122 9.6677 73.1134 9.75001 72.9062 9.75001C72.6991 9.75001 72.5003 9.6677 72.3538 9.52119C72.2073 9.37468 72.125 9.17596 72.125 8.96876V4.28126ZM26.8125 4.28126C26.8125 4.07406 26.8948 3.87534 27.0413 3.72883C27.1878 3.58232 27.3865 3.50001 27.5938 3.50001C27.801 3.50001 27.9997 3.58232 28.1462 3.72883C28.2927 3.87534 28.375 4.07406 28.375 4.28126V8.96876C28.375 9.17596 28.2927 9.37468 28.1462 9.52119C27.9997 9.6677 27.801 9.75001 27.5938 9.75001C27.3865 9.75001 27.1878 9.6677 27.0413 9.52119C26.8948 9.37468 26.8125 9.17596 26.8125 8.96876V4.28126ZM15.875 4.28126C15.875 4.07406 15.9573 3.87534 16.1038 3.72883C16.2503 3.58232 16.449 3.50001 16.6562 3.50001C16.8635 3.50001 17.0622 3.58232 17.2087 3.72883C17.3552 3.87534 17.4375 4.07406 17.4375 4.28126V8.96876C17.4375 9.17596 17.3552 9.37468 17.2087 9.52119C17.0622 9.6677 16.8635 9.75001 16.6562 9.75001C16.449 9.75001 16.2503 9.6677 16.1038 9.52119C15.9573 9.37468 15.875 9.17596 15.875 8.96876V4.28126ZM3.375 8.18751C3.375 7.77311 3.53962 7.37568 3.83265 7.08266C4.12567 6.78963 4.5231 6.62501 4.9375 6.62501H12.75V8.96876C12.75 10.0048 13.1616 10.9983 13.8941 11.7309C14.6267 12.4635 15.6202 12.875 16.6562 12.875C17.6923 12.875 18.6858 12.4635 19.4184 11.7309C20.1509 10.9983 20.5625 10.0048 20.5625 8.96876V6.62501H23.6875V8.96876C23.6875 10.0048 24.0991 10.9983 24.8316 11.7309C25.5642 12.4635 26.5577 12.875 27.5938 12.875C28.6298 12.875 29.6233 12.4635 30.3559 11.7309C31.0884 10.9983 31.5 10.0048 31.5 8.96876V6.62501H69V8.96876C69 10.0048 69.4115 10.9983 70.1441 11.7309C70.8767 12.4635 71.8702 12.875 72.9062 12.875C73.9423 12.875 74.9358 12.4635 75.6684 11.7309C76.401 10.9983 76.8125 10.0048 76.8125 8.96876V6.62501H79.9375V8.96876C79.9375 10.0048 80.349 10.9983 81.0816 11.7309C81.8142 12.4635 82.8077 12.875 83.8438 12.875C84.8798 12.875 85.8733 12.4635 86.6059 11.7309C87.3385 10.9983 87.75 10.0048 87.75 8.96876V6.62501H95.5625C95.9769 6.62501 96.3743 6.78963 96.6674 7.08266C96.9604 7.37568 97.125 7.77311 97.125 8.18751V16H3.375V8.18751ZM97.125 76.9375C97.125 77.3519 96.9604 77.7493 96.6674 78.0424C96.3743 78.3354 95.9769 78.5 95.5625 78.5H4.9375C4.5231 78.5 4.12567 78.3354 3.83265 78.0424C3.53962 77.7493 3.375 77.3519 3.375 76.9375V73.7719C4.71936 74.806 6.36645 75.3693 8.0625 75.375H79.9375C83.375 75.3714 86.7553 74.4949 89.7615 72.8278C92.7677 71.1608 95.3014 68.7577 97.125 65.8438V76.9375Z" fill="#151516"/>
</svg>
