<svg width="95" height="94" viewBox="0 0 95 94" fill="none" xmlns="http://www.w3.org/2000/svg">
<path d="M80.9797 20.1563C81.0508 20.2051 81.1255 20.2485 81.2032 20.286C83.2739 21.3521 85.5565 21.9425 87.8844 22.0141C89.9725 22.0218 92.01 21.3718 93.7078 20.1563C93.914 20.0122 94.0822 19.8205 94.1984 19.5974C94.3145 19.3743 94.3751 19.1265 94.375 18.875V3.25004C94.3752 2.96423 94.2969 2.68386 94.1487 2.43944C94.0006 2.19502 93.7882 1.99592 93.5348 1.8638C93.2814 1.73168 92.9965 1.67161 92.7113 1.69012C92.4261 1.70863 92.1515 1.80502 91.9172 1.96879C89.4266 3.71097 86.4797 3.68754 82.6578 1.89222C79.1969 -0.46715 75.1407 -0.484338 70.2657 1.84379C69.9998 1.97043 69.7751 2.16963 69.6175 2.41844C69.4599 2.66725 69.3759 2.95553 69.375 3.25004V44.6282C64.8458 47.2006 59.7275 48.5561 54.5188 48.5625H53.5532C52.1415 48.562 50.7563 48.9449 49.5453 49.6703C49.321 48.7416 48.7958 47.9132 48.0516 47.3141L43.4 43.5938C43.2168 43.4475 43.0689 43.2618 42.9672 43.0506C42.8655 42.8394 42.8126 42.6079 42.8125 42.3735V39.1016L51.0063 41.5594C51.387 41.6734 51.7823 41.7313 52.1797 41.7313C53.1473 41.7287 54.0817 41.3784 54.8125 40.7442C55.5432 40.11 56.0216 39.2342 56.1603 38.2766C56.299 37.319 56.0888 36.3434 55.568 35.5279C55.0472 34.7124 54.2506 34.1114 53.3235 33.8344L45.686 31.5438C46.7934 30.7799 47.6848 29.743 48.2739 28.5335C48.8629 27.3239 49.1296 25.9828 49.0482 24.6399C48.9668 23.297 48.5399 21.998 47.8091 20.8685C47.0782 19.739 46.068 18.8174 44.8764 18.1929C43.6847 17.5685 42.352 17.2623 41.0074 17.3041C39.6627 17.3459 38.3516 17.7342 37.201 18.4314C36.0505 19.1287 35.0995 20.1112 34.4401 21.2839C33.7808 22.4566 33.4354 23.7797 33.4375 25.125C33.4375 25.1454 33.4375 25.1657 33.4375 25.186C32.9079 25.0495 32.3653 24.9699 31.8188 24.9485C30.7436 24.9109 29.6722 25.094 28.6706 25.4867C27.669 25.8793 26.7585 26.473 25.9953 27.2313L15.4094 37.8141C14.6823 38.5383 14.1061 39.3995 13.714 40.3479C13.3219 41.2962 13.1217 42.3129 13.125 43.3391V50.75C13.1255 51.2177 13.056 51.6827 12.9188 52.1297L8.70003 65.8391C8.4896 66.5012 8.45309 67.2063 8.59402 67.8866C8.73495 68.5669 9.04857 69.1995 9.50472 69.7235L3.21565 72.8641C2.43525 73.251 1.77888 73.8488 1.32098 74.5898C0.863088 75.3308 0.621987 76.1852 0.625028 77.0563V92.3125C0.625028 92.7269 0.789648 93.1244 1.08267 93.4174C1.3757 93.7104 1.77313 93.875 2.18753 93.875H92.8125C93.2269 93.875 93.6244 93.7104 93.9174 93.4174C94.2104 93.1244 94.375 92.7269 94.375 92.3125V36.8938C94.3748 36.0645 94.1546 35.25 93.7368 34.5336C93.319 33.8172 92.7186 33.2244 91.9969 32.8159C91.2752 32.4073 90.458 32.1975 89.6288 32.2079C88.7995 32.2183 87.9878 32.4485 87.2766 32.875L78.6828 38.0313C77.0827 38.9902 75.5668 40.0831 74.1516 41.2985C73.6219 41.7532 73.0672 42.1688 72.511 42.5829V19.9032C75.9375 18.4625 78.6625 18.536 80.9797 20.1563ZM35.3125 51.3453L29.3969 45.4375L33.9578 40.8766L34.6407 44.9688C34.9479 46.8141 35.907 48.4879 37.3438 49.686L42.5641 54.0313C43.1278 54.4909 43.7977 54.8019 44.5125 54.936C42.5426 57.1195 40.0444 58.76 37.2578 59.7L30.9375 61.8125L35.0797 58.1875C35.5627 57.7648 35.9536 57.2474 36.2284 56.6674C36.5032 56.0873 36.656 55.4571 36.6772 54.8156C36.6984 54.1741 36.5877 53.5351 36.3519 52.9382C36.1161 52.3413 35.7602 51.7991 35.3063 51.3453H35.3125ZM52.9766 37.2829C53.0334 37.3903 53.0677 37.5082 53.0774 37.6294C53.087 37.7506 53.0719 37.8724 53.0328 37.9875C52.9593 38.2122 52.8006 38.399 52.5909 38.508C52.3811 38.6169 52.137 38.6393 51.911 38.5704L42.7313 35.8157C42.6385 35.1056 42.4487 34.4116 42.1672 33.7532L52.4328 36.8329C52.5475 36.8673 52.654 36.9245 52.7461 37.001C52.8382 37.0775 52.9139 37.1718 52.9688 37.2782L52.9766 37.2829ZM37.0938 27.2954C36.7419 26.6262 36.5595 25.881 36.5625 25.125C36.5624 24.0787 36.9123 23.0623 37.5566 22.2379C38.201 21.4134 39.1026 20.8283 40.118 20.5756C41.1334 20.3229 42.2041 20.4172 43.1597 20.8435C44.1153 21.2698 44.9008 22.0035 45.3911 22.9279C45.8814 23.8523 46.0483 24.9141 45.8652 25.9443C45.6822 26.9746 45.1597 27.9139 44.381 28.6128C43.6023 29.3117 42.6121 29.73 41.5682 29.801C40.5242 29.872 39.4865 29.5917 38.6203 29.0047C38.6078 29.0047 38.5938 28.9954 38.5828 28.9875C38.5719 28.9797 37.1016 27.3125 37.0938 27.2954ZM28.2078 29.4407C28.6404 29.0035 29.1556 28.6569 29.7236 28.4211C30.2915 28.1853 30.9007 28.065 31.5157 28.0672C31.5782 28.0672 31.6407 28.0672 31.7032 28.0672C32.3488 28.0888 32.9828 28.2451 33.5645 28.526C34.1463 28.8069 34.6629 29.2063 35.0813 29.6985L38.5594 33.761C39.2874 34.6105 39.6875 35.6923 39.6875 36.811V42.3735C39.6862 43.0768 39.8438 43.7713 40.1484 44.4052C40.453 45.0391 40.8969 45.5961 41.4469 46.0344L46.0938 49.7547C46.2789 49.9022 46.4168 50.1006 46.4905 50.3256C46.5641 50.5505 46.5704 50.7921 46.5084 51.0205C46.4465 51.2489 46.319 51.4542 46.1418 51.611C45.9645 51.7679 45.7452 51.8694 45.511 51.9032C45.3426 51.9286 45.1708 51.9178 45.0069 51.8715C44.8431 51.8251 44.691 51.7443 44.561 51.6344L39.3407 47.2844C38.4782 46.566 37.9021 45.5619 37.7172 44.4547L36.536 37.3688C36.4887 37.0857 36.3645 36.8211 36.1768 36.604C35.9891 36.387 35.7452 36.2257 35.472 36.1381C35.1987 36.0504 34.9066 36.0398 34.6276 36.1072C34.3487 36.1746 34.0937 36.3176 33.8907 36.5204L26.0782 44.3329C25.7852 44.6259 25.6207 45.0232 25.6207 45.4375C25.6207 45.8519 25.7852 46.2492 26.0782 46.5422L33.0953 53.5625C33.2468 53.7138 33.3655 53.8945 33.4442 54.0935C33.5229 54.2925 33.5599 54.5056 33.5528 54.7194C33.5458 54.9333 33.4949 55.1435 33.4033 55.3369C33.3117 55.5303 33.1814 55.7028 33.0203 55.8438L25.3828 62.525C25.2654 62.6311 25.1278 62.7123 24.9782 62.7639C24.8287 62.8155 24.6703 62.8364 24.5124 62.8254C24.3546 62.8144 24.2006 62.7716 24.0597 62.6997C23.9188 62.6278 23.7938 62.5282 23.6923 62.4069C23.5907 62.2856 23.5147 62.145 23.4687 61.9937C23.4227 61.8423 23.4077 61.6832 23.4246 61.5259C23.4416 61.3686 23.49 61.2163 23.5671 61.0782C23.6443 60.94 23.7484 60.8189 23.8735 60.7219L29.7266 56.0344C29.8981 55.8971 30.0388 55.7251 30.1394 55.5297C30.24 55.3344 30.2982 55.12 30.3103 54.9006C30.3224 54.6811 30.2881 54.4616 30.2096 54.2564C30.1311 54.0511 30.0101 53.8648 29.8547 53.7094L18.0032 41.8563C17.7102 41.5633 17.5457 41.1659 17.5457 40.7516C17.5457 40.3373 17.7102 39.9399 18.0032 39.6469L28.2078 29.4407ZM11.686 66.7547L15.9047 53.0438C16.1337 52.3007 16.2501 51.5276 16.25 50.75V44.5219L26.4063 54.6782L21.9172 58.2719C21.0718 58.9405 20.5102 59.9039 20.345 60.9691C20.1799 62.0342 20.4233 63.1224 21.0266 64.0157C21.2416 64.3291 21.4981 64.6119 21.7891 64.8563L17.2578 66.3672L21.2672 55.3438C21.3374 55.1509 21.3689 54.9461 21.3599 54.741C21.3509 54.536 21.3017 54.3347 21.2149 54.1487C21.1281 53.9627 21.0056 53.7956 20.8542 53.657C20.7029 53.5183 20.5257 53.4108 20.3328 53.3407C20.14 53.2705 19.9352 53.239 19.7301 53.248C19.525 53.2569 19.3238 53.3062 19.1378 53.393C18.9518 53.4798 18.7847 53.6023 18.646 53.7537C18.5074 53.905 18.3999 54.0822 18.3297 54.275L13.5641 67.3813C13.4772 67.6195 13.3021 67.8153 13.075 67.9282C12.9015 68.0147 12.7064 68.0486 12.5139 68.0255C12.3213 68.0023 12.1398 67.9233 11.9916 67.7981C11.8435 67.673 11.7353 67.5071 11.6805 67.3211C11.6256 67.1351 11.6264 66.9371 11.6828 66.7516L11.686 66.7547ZM76.175 43.675C77.4588 42.5743 78.8335 41.5843 80.2844 40.7157L88.8782 35.5594C89.115 35.416 89.3857 35.3381 89.6625 35.3336C89.9393 35.3292 90.2124 35.3984 90.4537 35.5342C90.695 35.6699 90.8958 35.8673 91.0358 36.1062C91.1757 36.3451 91.2496 36.6169 91.25 36.8938V69.8328L88.9703 69.0719L86.1047 66.2078C85.81 65.9232 85.4153 65.7657 85.0057 65.7693C84.596 65.7729 84.2041 65.9372 83.9144 66.2269C83.6247 66.5166 83.4604 66.9085 83.4568 67.3182C83.4532 67.7278 83.6107 68.1225 83.8953 68.4172L86.1141 70.636L84.1641 73.5625H77.1875C76.7731 73.5625 76.3757 73.7272 76.0827 74.0202C75.7896 74.3132 75.625 74.7106 75.625 75.125C75.625 75.5394 75.7896 75.9369 76.0827 76.2299C76.3757 76.5229 76.7731 76.6875 77.1875 76.6875H82.8313L81.9547 79.3188C81.8238 79.7125 81.8546 80.142 82.0404 80.513C82.2261 80.884 82.5517 81.166 82.9453 81.2969C83.339 81.4279 83.7686 81.3971 84.1396 81.2113C84.5105 81.0255 84.7925 80.7 84.9235 80.3063L86.4203 75.8172L88.7641 72.2969L91.25 73.1266V90.75H62.7828L61.7297 86.5422L65.7922 82.4797C66.0768 82.185 66.2343 81.7903 66.2308 81.3807C66.2272 80.971 66.0629 80.5791 65.7732 80.2894C65.4835 79.9997 65.0916 79.8354 64.6819 79.8318C64.2722 79.8282 63.8775 79.9857 63.5828 80.2703L59.8016 84.0516L56.1797 81.6375C55.9227 81.4668 55.6211 81.3755 55.3125 81.375H52.1875C51.7731 81.375 51.3757 81.5397 51.0827 81.8327C50.7896 82.1257 50.625 82.5231 50.625 82.9375C50.625 83.3519 50.7896 83.7494 51.0827 84.0424C51.3757 84.3354 51.7731 84.5 52.1875 84.5H54.8438L58.636 87.0266L59.561 90.75H25.625V88.461L29.6172 85.8047C29.7879 85.6908 29.9346 85.5444 30.0487 85.3739C30.1628 85.2034 30.2423 85.012 30.2825 84.8108C30.3227 84.6095 30.3228 84.4023 30.2829 84.201C30.243 83.9997 30.1639 83.8083 30.05 83.6375C29.9361 83.4668 29.7898 83.3202 29.6192 83.2061C29.4487 83.0919 29.2573 83.0125 29.0561 82.9723C28.8548 82.9321 28.6476 82.9319 28.4463 82.9718C28.245 83.0117 28.0536 83.0909 27.8828 83.2047L24.0625 85.75L20.2422 83.2032C19.8974 82.9732 19.4754 82.8896 19.069 82.9707C18.6626 83.0519 18.305 83.2912 18.075 83.636C17.845 83.9808 17.7614 84.4028 17.8426 84.8092C17.9238 85.2156 18.1631 85.5732 18.5078 85.8032L22.5 88.461V90.75H3.75003V77.0563C3.75018 76.7662 3.8311 76.4819 3.9837 76.2352C4.13631 75.9884 4.35459 75.7891 4.61409 75.6594L14.1953 70.8688C14.9224 70.5038 15.6743 70.1906 16.4453 69.9313L28.4672 65.9235L33.4375 69.6563V75.125C33.4375 75.5394 33.6021 75.9369 33.8952 76.2299C34.1882 76.5229 34.5856 76.6875 35 76.6875C35.4144 76.6875 35.8119 76.5229 36.1049 76.2299C36.3979 75.9369 36.5625 75.5394 36.5625 75.125V70.875L40.8703 71.9532C41.1322 72.0187 41.4065 72.0153 41.6667 71.9433C41.9268 71.8713 42.1639 71.7331 42.3547 71.5422L45.4797 68.4172C45.7643 68.1225 45.9218 67.7278 45.9183 67.3182C45.9147 66.9085 45.7504 66.5166 45.4607 66.2269C45.171 65.9372 44.7791 65.7729 44.3694 65.7693C43.9597 65.7657 43.565 65.9232 43.2703 66.2078L40.7703 68.7079L35.686 67.436L32.0735 64.7266L38.2469 62.6688C41.8302 61.475 45.0096 59.3057 47.4282 56.4047L49.9516 53.3735C50.3912 52.8451 50.9418 52.4202 51.5643 52.1288C52.1868 51.8374 52.8658 51.6867 53.5532 51.6875H54.5188C59.7965 51.6771 64.9959 50.4109 69.6875 47.9938L72.0813 52.7813L67.1266 56.4969L61.1891 57.9828C60.8184 58.0741 60.4939 58.298 60.2769 58.6122C60.06 58.9264 59.9656 59.3091 60.0115 59.6881C60.0575 60.0672 60.2406 60.4162 60.5264 60.6695C60.8121 60.9227 61.1807 61.0625 61.5625 61.0625C61.691 61.0623 61.819 61.0465 61.9438 61.0157L66.9766 59.7563L69.5406 64.886C69.7259 65.2569 70.0509 65.539 70.4441 65.6702C70.8374 65.8015 71.2666 65.7712 71.6375 65.586C72.0084 65.4007 72.2905 65.0758 72.4218 64.6825C72.5531 64.2893 72.5228 63.86 72.3375 63.4891L69.7938 58.4063L74.3453 54.9922L78.2516 56.2954C78.4465 56.3602 78.6523 56.386 78.8572 56.3713C79.0621 56.3566 79.2621 56.3017 79.4458 56.2097C79.6295 56.1177 79.7933 55.9905 79.9278 55.8352C80.0623 55.6799 80.1649 55.4997 80.2297 55.3047C80.2946 55.1098 80.3204 54.904 80.3057 54.6991C80.291 54.4942 80.2361 54.2942 80.1441 54.1105C80.0521 53.9268 79.9248 53.763 79.7696 53.6285C79.6143 53.494 79.434 53.3914 79.2391 53.3266L75.1672 51.9688L72.3969 46.4297C73.719 45.6007 74.9814 44.6803 76.175 43.675ZM72.5 4.26097C75.95 2.81879 78.661 2.91098 80.9797 4.53129C81.0508 4.58015 81.1255 4.6235 81.2032 4.66097C85.0203 6.4766 88.3313 6.86254 91.25 5.81566V18.0032C88.9063 19.3094 86.1453 19.1469 82.6563 17.5094C81.1747 16.5228 79.4722 15.9177 77.7002 15.7482C75.9282 15.5786 74.1418 15.8498 72.5 16.5375V4.26097Z" fill="#151516"/>
</svg>
