<svg width="95" height="94" viewBox="0 0 95 94" fill="none" xmlns="http://www.w3.org/2000/svg">
<path d="M94.625 11.0625V1.6875C94.625 1.2731 94.4604 0.875671 94.1674 0.582646C93.8743 0.28962 93.4769 0.125 93.0625 0.125H74.3125C74.0751 0.125125 73.8408 0.179366 73.6274 0.283602C73.4141 0.387839 73.2273 0.539328 73.0813 0.726562L63.7891 12.625C62.8129 12.2282 61.734 12.1604 60.7159 12.4321C59.6978 12.7038 58.7961 13.3001 58.1475 14.1305C57.4989 14.9609 57.1388 15.9802 57.1217 17.0338C57.1047 18.0874 57.4317 19.1178 58.0531 19.9688L55.3859 23.3844C54.8314 24.0844 54.1933 24.7141 53.4859 25.2594C53.3953 25.2391 53.3078 25.2094 53.2141 25.1938C52.0671 25.0004 50.8892 25.2397 49.9086 25.8653C48.928 26.4908 48.2144 27.4581 47.9062 28.5797C47.3098 28.3604 46.6753 28.2636 46.0406 28.2953C45.9352 28.2157 45.8196 28.1505 45.6969 28.1016L43.7766 27.4766C43.0873 27.2528 42.3574 27.1829 41.6383 27.2718C40.9191 27.3606 40.2282 27.606 39.6141 27.9906L34.0203 25.4687C32.8886 24.9552 31.852 24.2536 30.9547 23.3938C31.6986 22.5366 32.118 21.4455 32.1396 20.3108C32.1612 19.176 31.7836 18.0697 31.0728 17.185C30.3619 16.3002 29.363 15.6931 28.2502 15.4697C27.1375 15.2463 25.9816 15.4207 24.9844 15.9625L13.0422 0.723437C12.896 0.536984 12.7093 0.386217 12.4963 0.28254C12.2833 0.178863 12.0494 0.124991 11.8125 0.125H2.4375C2.0231 0.125 1.62568 0.28962 1.33265 0.582646C1.03962 0.875671 0.875004 1.2731 0.875004 1.6875V25.125C0.874215 25.4708 0.989175 25.8068 1.20157 26.0797L6.11875 32.4453C5.68005 33.2656 5.48781 34.1952 5.56518 35.1222C5.64255 36.0492 5.98624 36.934 6.55485 37.6702C7.12347 38.4064 7.89277 38.9626 8.77013 39.2717C9.64749 39.5808 10.5955 39.6297 11.5 39.4125L12.125 40.2156C12.9097 41.2318 13.51 42.3778 13.8984 43.6016L15.5984 48.975C16.0537 50.4166 16.7397 51.7749 17.6297 52.9969L18.6516 54.4031L17.0609 54.8953C16.5498 53.8977 15.7033 53.1124 14.6702 52.6775C13.6371 52.2426 12.4837 52.186 11.413 52.5177C10.3423 52.8494 9.42296 53.5481 8.81668 54.4909C8.21039 55.4337 7.95606 56.5601 8.09844 57.6719L1.96875 59.5703C1.6513 59.6701 1.37402 59.8687 1.17729 60.1371C0.980553 60.4055 0.874651 60.7297 0.875004 61.0625V86.0625C0.874909 86.3153 0.936147 86.5643 1.05346 86.7882C1.17078 87.0121 1.34067 87.2043 1.54856 87.3481C1.75645 87.4919 1.99612 87.5831 2.24702 87.6139C2.49792 87.6448 2.75255 87.6142 2.98907 87.525L16.7047 82.3688C17.1515 82.8427 17.6899 83.2209 18.2872 83.4806C18.8845 83.7403 19.5284 83.8761 20.1797 83.8797C20.5664 83.8794 20.9515 83.8317 21.3266 83.7375C22.3328 83.4933 23.2304 82.9239 23.8802 82.1177C24.5299 81.3114 24.8955 80.3133 24.9203 79.2781L33.1234 76.1922C34.3857 75.7371 35.7161 75.4999 37.0578 75.4906L39.2844 75.5078C38.853 76.0937 38.5652 76.7728 38.4443 77.4902C38.3234 78.2077 38.3727 78.9436 38.5883 79.6385C38.8039 80.3334 39.1797 80.968 39.6854 81.4911C40.1912 82.0142 40.8127 82.4111 41.5 82.65V92.3125C41.5 92.7269 41.6646 93.1243 41.9576 93.4174C42.2507 93.7104 42.6481 93.875 43.0625 93.875H64.9375C65.3519 93.875 65.7493 93.7104 66.0424 93.4174C66.3354 93.1243 66.5 92.7269 66.5 92.3125V82.65C67.4134 82.3318 68.205 81.7373 68.7653 80.9488C69.3255 80.1604 69.6265 79.2172 69.6265 78.25C69.6265 77.2828 69.3255 76.3396 68.7653 75.5512C68.205 74.7627 67.4134 74.1682 66.5 73.85V67.7812C66.5053 66.6903 66.6744 65.6064 67.0016 64.5656L79 68.0172C79.0034 69.0593 79.354 70.0705 79.9963 70.8911C80.6386 71.7117 81.5361 72.2949 82.5469 72.5484C82.922 72.6421 83.3072 72.6893 83.6938 72.6891C84.4815 72.6969 85.2576 72.4993 85.9456 72.1157C86.6336 71.7321 87.2098 71.1758 87.6172 70.5016L92.6281 71.9437C92.8613 72.0112 93.107 72.0235 93.3457 71.9795C93.5845 71.9355 93.8097 71.8364 94.0034 71.6903C94.1972 71.5441 94.3543 71.3548 94.4622 71.1373C94.5701 70.9198 94.6258 70.6802 94.625 70.4375V48.5625C94.6249 48.234 94.5212 47.914 94.3288 47.6478C94.1364 47.3816 93.865 47.1828 93.5531 47.0797L88.2578 45.325C88.0914 44.5497 87.7306 43.8295 87.2093 43.232C86.6879 42.6345 86.0233 42.1794 85.2777 41.9094C84.5321 41.6394 83.7301 41.5634 82.9471 41.6886C82.1641 41.8138 81.4258 42.136 80.8016 42.625C80.7359 42.6781 80.6875 42.7453 80.6234 42.8L76.0438 41.2828L76.2328 39.5469C76.3637 38.3677 76.6873 37.2181 77.1906 36.1437C78.2002 36.5129 79.3039 36.5357 80.3279 36.2086C81.3519 35.8815 82.2379 35.223 82.8466 34.3369C83.4552 33.4509 83.7517 32.3875 83.6896 31.3144C83.6274 30.2412 83.21 29.2192 82.5031 28.4094L94.3313 11.9797C94.5239 11.7128 94.6267 11.3916 94.625 11.0625ZM47.75 32.9375V51.6875C47.75 52.1019 47.9146 52.4993 48.2076 52.7924C48.5007 53.0854 48.8981 53.25 49.3125 53.25C49.7269 53.25 50.1243 53.0854 50.4174 52.7924C50.7104 52.4993 50.875 52.1019 50.875 51.6875V29.8125C50.8749 29.5841 50.9249 29.3585 51.0214 29.1515C51.1179 28.9445 51.2587 28.7611 51.4337 28.6144C51.6087 28.4677 51.8138 28.3611 52.0345 28.3022C52.2552 28.2433 52.4861 28.2335 52.7109 28.2734C53.0894 28.366 53.4243 28.5863 53.6591 28.8971C53.894 29.208 54.0144 29.5904 54 29.9797V51.6875C54 52.1019 54.1646 52.4993 54.4576 52.7924C54.7507 53.0854 55.1481 53.25 55.5625 53.25C55.9769 53.25 56.3743 53.0854 56.6674 52.7924C56.9604 52.4993 57.125 52.1019 57.125 51.6875V32.9375C57.1249 32.7107 57.1742 32.4865 57.2694 32.2806C57.3647 32.0748 57.5036 31.8921 57.6766 31.7453C57.8514 31.5957 58.0574 31.4869 58.2796 31.4269C58.5018 31.3669 58.7345 31.3572 58.9609 31.3984C59.3394 31.491 59.6743 31.7113 59.9091 32.0221C60.144 32.333 60.2644 32.7154 60.25 33.1047V51.6875C60.25 52.1019 60.4146 52.4993 60.7076 52.7924C61.0007 53.0854 61.3981 53.25 61.8125 53.25C62.2269 53.25 62.6243 53.0854 62.9174 52.7924C63.2104 52.4993 63.375 52.1019 63.375 51.6875V36.0625C63.3749 35.8357 63.4242 35.6115 63.5194 35.4056C63.6147 35.1998 63.7536 35.0171 63.9266 34.8703C64.1015 34.7208 64.3075 34.6121 64.5296 34.5521C64.7518 34.4921 64.9845 34.4823 65.2109 34.5234C65.5894 34.616 65.9243 34.8363 66.1591 35.1471C66.394 35.458 66.5144 35.8404 66.5 36.2297V54.3438C66.5 55.5194 66.3111 56.6874 65.9406 57.8031L64.0984 63.3281C63.6177 64.7635 63.3733 66.2675 63.375 67.7812V73.5625H44.625V68.875C44.6259 68.601 44.5548 68.3316 44.4188 68.0938L33.2703 48.5906C33.0531 48.2084 32.9672 47.7656 33.0256 47.3299C33.084 46.8942 33.2836 46.4896 33.5938 46.1781C33.7907 45.9814 34.0265 45.8278 34.2861 45.7272C34.5457 45.6266 34.8234 45.5812 35.1015 45.5939C35.3796 45.6065 35.652 45.6769 35.9014 45.8007C36.1508 45.9244 36.3717 46.0987 36.55 46.3125L41.8625 52.6875C42.0681 52.934 42.3446 53.1113 42.6545 53.1951C42.9643 53.2789 43.2925 53.2653 43.5943 53.156C43.8962 53.0467 44.157 52.8472 44.3414 52.5844C44.5259 52.3217 44.6249 52.0085 44.625 51.6875V33.1047C44.6106 32.7154 44.731 32.333 44.9659 32.0221C45.2007 31.7113 45.5356 31.491 45.9141 31.3984C46.1389 31.3585 46.3698 31.3683 46.5905 31.4272C46.8112 31.4861 47.0163 31.5927 47.1913 31.7394C47.3663 31.8861 47.5071 32.0695 47.6036 32.2765C47.7001 32.4835 47.7501 32.7091 47.75 32.9375ZM68.9047 58.7922C69.3825 57.3578 69.6258 55.8557 69.625 54.3438V42.2188C70.3259 42.5969 71.0577 42.9147 71.8125 43.1688L79.0875 45.5781C79.0395 45.8213 79.0113 46.0679 79.0031 46.3156V64.7656L67.975 61.5906L68.9047 58.7922ZM41.5 36.5938V39.875L36.7906 38.3438C36.5733 38.2733 36.3741 38.1561 36.207 38.0003C36.0399 37.8446 35.9089 37.6541 35.8234 37.4422C35.7379 37.2304 35.6999 37.0024 35.712 36.7742C35.7242 36.5461 35.7862 36.3234 35.8938 36.1219C36.099 35.7907 36.4123 35.5405 36.7807 35.4136C37.149 35.2866 37.5499 35.2906 37.9156 35.425L41.5 36.5938ZM35.8141 41.3172L41.5 43.1656V47.3703L38.9516 44.3109C38.1329 43.3242 36.9725 42.6821 35.7017 42.5124C34.4308 42.3427 33.1427 42.658 32.0938 43.3953L31.8859 43.3266C31.6687 43.2563 31.4695 43.1392 31.3024 42.9836C31.1353 42.828 31.0043 42.6377 30.9186 42.4261C30.833 42.2144 30.7947 41.9865 30.8066 41.7585C30.8185 41.5305 30.8803 41.3078 30.9875 41.1063C31.1937 40.7736 31.5085 40.5222 31.8785 40.3947C32.2486 40.2672 32.6513 40.2712 33.0188 40.4062L35.8141 41.3172ZM42.3328 30.3797C41.795 31.1872 41.5055 32.1345 41.5 33.1047V33.2609C41.1563 33.1035 40.8823 32.8256 40.7297 32.4797C40.6423 32.2668 40.603 32.0372 40.6146 31.8073C40.6262 31.5775 40.6884 31.353 40.7969 31.15C40.9528 30.8884 41.1802 30.6766 41.4522 30.5396C41.7243 30.4027 42.0298 30.3461 42.3328 30.3766V30.3797ZM4 3.25H11.0516L22.5297 17.8984L8.27032 30.125L4 24.5922V3.25ZM9.19063 35.9188C9.02066 35.749 8.88763 35.5459 8.79992 35.3222C8.71221 35.0986 8.6717 34.8592 8.68095 34.6191C8.69019 34.379 8.74899 34.1435 8.85364 33.9272C8.95829 33.711 9.10654 33.5187 9.28907 33.3625L26.1297 18.9281C26.3024 18.7715 26.5047 18.6512 26.7247 18.5741C26.9447 18.4971 27.1779 18.4649 27.4105 18.4796C27.6431 18.4942 27.8705 18.5553 28.0791 18.6593C28.2877 18.7633 28.4733 18.9081 28.625 19.0851C28.7767 19.262 28.8914 19.4676 28.9622 19.6897C29.0331 19.9117 29.0587 20.1457 29.0376 20.3779C29.0165 20.61 28.949 20.8356 28.8393 21.0412C28.7295 21.2468 28.5796 21.4283 28.3984 21.575L11.5578 36.0109C11.2231 36.2941 10.7944 36.4417 10.3563 36.4246C9.9182 36.4076 9.50234 36.2271 9.19063 35.9188ZM16.8719 42.6578C16.3748 41.0844 15.6036 39.6112 14.5938 38.3063L14.2297 37.8375L28.6375 25.4937C29.8257 26.6737 31.2139 27.6333 32.7375 28.3281L37.7188 30.5734C37.5486 31.1061 37.4746 31.6648 37.5 32.2234C36.84 32.1843 36.1792 32.2866 35.5619 32.5235C34.9446 32.7603 34.385 33.1263 33.9206 33.5968C33.4561 34.0673 33.0975 34.6316 32.8686 35.252C32.6398 35.8723 32.5461 36.5343 32.5938 37.1938C31.7057 37.1582 30.8254 37.3718 30.0523 37.8102C29.2792 38.2487 28.6441 38.8946 28.2188 39.675C27.6456 40.7676 27.5294 42.0429 27.8955 43.2211C28.2617 44.3994 29.0804 45.3841 30.1719 45.9594C29.9379 46.6444 29.8518 47.3712 29.9191 48.0919C29.9864 48.8126 30.2057 49.5108 30.5625 50.1406L39.2766 65.3891C38.9738 65.3995 38.6728 65.3391 38.3974 65.2126C38.1221 65.0862 37.8801 64.8973 37.6906 64.6609L26.775 49.6375C26.6576 49.4637 26.5065 49.3154 26.3305 49.2013C26.1546 49.0872 25.9575 49.0097 25.751 48.9733C25.5445 48.937 25.3327 48.9426 25.1284 48.9898C24.9241 49.0371 24.7314 49.1249 24.5618 49.2482C24.3921 49.3715 24.2491 49.5276 24.141 49.7073C24.033 49.8871 23.9623 50.0867 23.9331 50.2943C23.9038 50.502 23.9167 50.7134 23.9708 50.916C24.025 51.1185 24.1194 51.3081 24.2484 51.4734L33.4328 64.1172C33.5611 64.2946 33.6507 64.497 33.6958 64.7112C33.7408 64.9255 33.7403 65.1468 33.6944 65.3608C33.6484 65.5749 33.558 65.7769 33.4289 65.9538C33.2999 66.1306 33.1351 66.2784 32.9453 66.3875C32.5734 66.5425 32.1606 66.5695 31.7717 66.4643C31.3828 66.3591 31.0399 66.1276 30.7969 65.8063L20.1563 51.1594C19.4653 50.2093 18.9319 49.1541 18.5766 48.0344L16.8719 42.6578ZM4 62.2141L9 60.6672L15.2969 79.5562L4 83.8063V62.2141ZM21.6141 79.8937C21.5056 80.0936 21.3566 80.2685 21.1766 80.4073C20.9966 80.5462 20.7896 80.6459 20.5688 80.7C20.1659 80.7975 19.7412 80.7409 19.3778 80.5415C19.0145 80.342 18.7388 80.0141 18.6047 79.6219L11.2656 57.6078C11.184 57.3601 11.1622 57.0966 11.2019 56.8388C11.2416 56.5811 11.3418 56.3364 11.4942 56.1247C11.6465 55.9131 11.8468 55.7405 12.0787 55.621C12.3105 55.5016 12.5673 55.4387 12.8281 55.4375C13.1737 55.4393 13.51 55.5489 13.7901 55.7512C14.0703 55.9535 14.2802 56.2382 14.3906 56.5656L21.7344 78.5797C21.8067 78.7951 21.8333 79.0231 21.8126 79.2494C21.7919 79.4756 21.7243 79.6951 21.6141 79.8937ZM32.0219 73.2609L24.2313 76.1922L18.1141 57.8391L20.5859 57.0734L28.2641 67.6438C28.73 68.2725 29.3364 68.7836 30.035 69.1363C30.7336 69.4889 31.5049 69.6734 32.2875 69.675C33.0693 69.6809 33.8384 69.4781 34.5156 69.0875C35.18 68.7003 35.7395 68.1563 36.1453 67.5031C36.8088 68.013 37.5919 68.3444 38.4198 68.4659C39.2478 68.5873 40.093 68.4947 40.875 68.1969L41.5 69.2906V72.3937L37.0813 72.3594C35.3531 72.3388 33.6366 72.6447 32.0219 73.2609ZM44.625 90.75V82.9375H63.375V90.75H44.625ZM64.9375 79.8125H43.0625C42.6481 79.8125 42.2507 79.6479 41.9576 79.3549C41.6646 79.0618 41.5 78.6644 41.5 78.25C41.5 77.8356 41.6646 77.4382 41.9576 77.1451C42.2507 76.8521 42.6481 76.6875 43.0625 76.6875H64.9375C65.3519 76.6875 65.7493 76.8521 66.0424 77.1451C66.3354 77.4382 66.5 77.8356 66.5 78.25C66.5 78.6644 66.3354 79.0618 66.0424 79.3549C65.7493 79.6479 65.3519 79.8125 64.9375 79.8125ZM91.5 68.3625L88.375 67.4688V48.6547L91.5 49.6906V68.3625ZM82.125 46.3156C82.125 45.9012 82.2896 45.5038 82.5826 45.2108C82.8757 44.9177 83.2731 44.7531 83.6875 44.7531C84.1019 44.7531 84.4993 44.9177 84.7924 45.2108C85.0854 45.5038 85.25 45.9012 85.25 46.3156V67.9969C85.25 68.4113 85.0854 68.8087 84.7924 69.1017C84.4993 69.3948 84.1019 69.5594 83.6875 69.5594C83.2731 69.5594 82.8757 69.3948 82.5826 69.1017C82.2896 68.8087 82.125 68.4113 82.125 67.9969V46.3156ZM72.7922 40.2016C71.6962 39.8389 70.6646 39.3047 69.7359 38.6187C69.7016 38.5938 69.6609 38.5891 69.625 38.5656V36.2219C69.6392 35.0918 69.2558 33.9927 68.5417 33.1167C67.8277 32.2408 66.8285 31.6436 65.7188 31.4297C64.8636 31.2903 63.9866 31.3876 63.1828 31.7109C63.0163 31.0703 62.7146 30.4728 62.298 29.9584C61.8815 29.4441 61.3596 29.0248 60.7676 28.7288C60.1756 28.4328 59.5271 28.2669 58.8657 28.2423C58.2043 28.2176 57.5452 28.3348 56.9328 28.5859C56.7709 28.0395 56.5167 27.5248 56.1813 27.0641C56.7884 26.5259 57.3478 25.9362 57.8531 25.3016L60.3422 22.1141L74.5953 34.3438C73.8135 35.8599 73.3157 37.5063 73.1266 39.2016L73.0094 40.2719L72.7922 40.2016ZM80.0594 32.7938C79.7475 33.1018 79.3317 33.282 78.8937 33.2991C78.4557 33.3161 78.0271 33.1688 77.6922 32.8859L60.8516 18.45C60.5152 18.145 60.3111 17.7208 60.2826 17.2677C60.2541 16.8146 60.4035 16.3682 60.699 16.0234C60.9944 15.6787 61.4127 15.4628 61.8649 15.4217C62.3171 15.3805 62.7675 15.5174 63.1203 15.8031L79.9609 30.2406C80.1434 30.3967 80.2916 30.5888 80.3963 30.8049C80.5009 31.0211 80.5597 31.2565 80.569 31.4964C80.5782 31.7364 80.5377 31.9756 80.45 32.1992C80.3623 32.4227 80.2293 32.6241 80.0594 32.7938ZM91.5 10.5594L80.1672 26.3016L66.3344 14.4422L75.075 3.25H91.5V10.5594Z" fill="#151516"/>
</svg>
