<svg width="75" height="75" viewBox="0 0 75 75" fill="none" xmlns="http://www.w3.org/2000/svg">
<path fill-rule="evenodd" clip-rule="evenodd" d="M12 0C5.37258 0 0 5.37259 0 12V63C0 69.6274 5.37259 75 12 75H63C69.6274 75 75 69.6274 75 63V12C75 5.37258 69.6274 0 63 0H12ZM18.9007 33.1174C19.514 33.1459 20.0342 32.6717 20.0625 32.0586C20.0909 31.4455 19.6169 30.9253 19.0037 30.8968C18.3905 30.8683 17.8704 31.3423 17.842 31.9556C17.8135 32.5688 18.2876 33.0889 18.9007 33.1174ZM61.0859 51.8449L64.4213 50.5518C65.743 50.0393 66.4016 48.547 65.8892 47.2251L59.1725 29.8992C58.66 28.5773 57.167 27.9189 55.8457 28.4313L52.5105 29.7243C51.1886 30.2368 50.5301 31.7292 51.0426 33.0509L51.5536 34.3694L49.6967 35.3634C48.8312 35.8136 47.9017 35.5759 46.5632 35.0636C48.9557 32.3362 50.2588 28.856 50.2588 25.1177V15.1548C50.2588 14.7798 50.0352 14.4407 49.6906 14.2931L37.3693 9.01262C37.1335 8.9116 36.8664 8.9116 36.6306 9.01262L24.3094 14.2931C23.9646 14.4409 23.7412 14.7798 23.7412 15.1548V25.1177C23.7412 28.7592 24.9761 32.1521 27.2492 34.8457C26.5486 34.9023 25.9049 34.8225 25.2767 34.4689C25.2549 34.4566 25.2325 34.4452 25.2098 34.4347L23.0801 33.4522L23.6436 32.1774C23.9203 31.5509 23.9362 30.8525 23.6879 30.2108C23.4396 29.5692 22.9578 29.0633 22.3313 28.7864L19.0595 27.3403C18.4333 27.0634 17.7348 27.0475 17.0929 27.2959C16.4513 27.5442 15.9453 28.0259 15.6684 28.6524L8.15676 45.6488C7.58371 46.9454 8.17246 48.4666 9.46902 49.0399L12.7409 50.486C13.0721 50.6323 13.4233 50.7057 13.7757 50.7057C14.0898 50.7057 14.4051 50.6473 14.7075 50.5303C15.3491 50.282 15.855 49.8001 16.132 49.1736L16.4925 48.3577C17.8914 48.9813 18.273 49.1401 18.4339 49.2024C18.8426 49.3611 18.9764 49.9338 19.1484 50.8583C19.2432 51.3679 19.3421 51.8893 19.5427 52.3664L18.645 54.0447C18.1956 54.8851 18.1011 55.8528 18.3789 56.7697C18.6568 57.6866 19.2726 58.439 20.1129 58.8884C20.6663 59.1845 21.2732 59.3218 21.8771 59.308C21.6539 60.7661 22.3536 62.2738 23.7265 63.0082C24.8245 63.5954 26.0962 63.5477 27.1197 62.9935C27.4397 63.6809 27.9756 64.2656 28.6723 64.6382C29.6561 65.1643 30.7952 65.1833 31.7663 64.7703C32.067 65.5536 32.6409 66.2247 33.4185 66.6406C33.9426 66.9209 34.5162 67.0632 35.0961 67.0632C35.4461 67.0632 35.7985 67.0114 36.1435 66.9069C36.9128 66.6738 37.5654 66.202 38.0214 65.5602L38.9409 66.0882C39.4614 66.3873 40.0402 66.5396 40.6292 66.5396C40.9437 66.5396 41.2613 66.4963 41.5745 66.4084C42.4813 66.1542 43.2607 65.5373 43.7125 64.7159C44.0225 64.1523 44.1595 63.5379 44.1414 62.9343C44.6979 63.0553 45.2808 63.0366 45.8467 62.8738C46.752 62.6132 47.4994 62.0175 47.9511 61.1962C48.2805 60.5974 48.4134 59.9403 48.3718 59.3C49.7625 59.4845 51.1894 58.8174 51.9048 57.5164C52.3896 56.635 52.4491 55.6275 52.1521 54.7327C52.1897 54.7232 52.2273 54.7132 52.2647 54.7024C53.1739 54.4422 53.9241 53.8453 54.377 53.0217C54.7588 52.3273 54.8847 51.528 54.7538 50.759L57.4683 49.6264L57.7593 50.3769C58.1537 51.3943 59.1285 52.0188 60.1595 52.0188C60.468 52.0188 60.7814 51.9629 61.0859 51.8449ZM29.4122 34.4326C26.961 31.9679 25.6163 28.6798 25.6163 25.1176V15.7729L37 10.8943L48.3839 15.7729V25.1177C48.3839 28.6331 47.0725 31.8852 44.6802 34.3391C44.1858 34.1654 43.6649 34.0067 43.1166 33.8892C45.5703 31.668 46.9777 28.54 46.9777 25.1176V17.3184C46.9777 16.9434 46.7541 16.6045 46.4095 16.4567L37.3694 12.5825C37.1336 12.4815 36.8665 12.4815 36.6307 12.5825L27.5908 16.4567C27.246 16.6044 27.0225 16.9434 27.0225 17.3184V25.1176C27.0225 28.7038 28.5489 31.8909 31.1143 34.0944C30.5158 34.1809 29.9481 34.3077 29.4122 34.4326ZM45.1025 25.1176C45.1025 28.7878 43.282 31.9353 40.1035 33.777C39.098 33.9304 38.0204 34.2949 36.8657 34.9709C32.0854 33.7783 28.8975 29.8596 28.8975 25.1176V17.9366L37 14.4642L45.1025 17.9367V25.1176ZM21.9394 30.8873C22.0069 31.0619 22.0032 31.2508 21.9286 31.4193L14.4166 48.4154C14.3421 48.5838 14.2049 48.7138 14.0304 48.7814C13.8559 48.849 13.667 48.8452 13.4985 48.7707L10.2266 47.3247C9.87555 47.1696 9.71617 46.7577 9.87133 46.4066L17.3834 29.4104C17.5386 29.0592 17.9511 28.9004 18.3016 29.0551L21.5734 30.5012C21.7418 30.5756 21.8718 30.7127 21.9394 30.8873ZM24.9904 53.3664L22.8476 57.0751C22.3183 57.4854 21.5909 57.5526 20.9969 57.2348C20.5982 57.0216 20.3056 56.6632 20.1729 56.2257C20.0404 55.7882 20.0848 55.3276 20.2981 54.9289L21.9265 51.8839C22.3694 51.0561 23.4039 50.7429 24.2334 51.1855C25.015 51.6027 25.3428 52.5556 24.9904 53.3664ZM29.2891 56.0616L26.922 60.6458C26.4748 61.4792 25.4382 61.7972 24.6107 61.3548C23.7822 60.9116 23.4687 59.8772 23.9117 59.0488L26.5634 54.392C27.0932 53.9744 27.8257 53.9041 28.4252 54.2241C29.0795 54.5734 29.4319 55.3348 29.2891 56.0616ZM33.8126 58.4797L31.7133 62.5146C31.2096 63.1745 30.2923 63.3784 29.5564 62.9847C28.9646 62.6682 28.6171 62.0288 28.6619 61.363L30.9487 56.9343C31.4731 56.4208 32.2967 56.2954 32.9486 56.6435C33.6025 56.9925 33.9549 57.7532 33.8126 58.4797ZM38.1702 61.3684L36.6086 64.2884C36.3954 64.6872 36.0369 64.9797 35.5995 65.1123C35.1618 65.2448 34.7012 65.2004 34.3027 64.9872C33.6898 64.6596 33.3434 63.9973 33.4127 63.3107L35.4708 59.3548C35.9953 58.8402 36.8196 58.7142 37.4714 59.0625C37.6959 59.1825 37.8852 59.3461 38.0343 59.5489C38.4243 60.0793 38.4776 60.7936 38.1702 61.3684ZM40.2255 60.8967C40.2255 60.8967 41.3743 61.5648 41.4248 61.5931C42.2109 62.0339 42.5001 63.0293 42.0695 63.8123C41.8587 64.1955 41.4938 64.4837 41.0684 64.603C40.6572 64.7182 40.2331 64.6684 39.8745 64.4623L38.9316 63.9208L39.8237 62.2525C40.0514 61.8267 40.1833 61.3647 40.2255 60.8967ZM52.08 49.9009C52.3786 50.0711 52.6152 50.3233 52.7642 50.6304C52.999 51.1139 52.9881 51.6561 52.7336 52.1182C52.5232 52.5005 52.1734 52.7782 51.7484 52.8998C51.3324 53.0189 50.8997 52.9702 50.5299 52.7632L50.5228 52.7592C48.6439 51.7067 46.5151 50.5144 44.4321 49.322C43.9824 49.0645 43.4098 49.2205 43.1527 49.6698C42.8956 50.1191 43.0513 50.6919 43.5006 50.9491C45.5928 52.1468 47.7275 53.3424 49.6111 54.3975L49.6119 54.3979C50.3984 54.8405 50.6898 55.8341 50.2615 56.6127C49.8293 57.3985 48.8378 57.6863 48.0519 57.2545L40.0244 52.7374C39.5731 52.4836 39.0016 52.6435 38.7476 53.0947C38.4937 53.546 38.6536 54.1176 39.1049 54.3716C39.1049 54.3716 45.6068 58.049 45.6582 58.0779C46.4446 58.5205 46.7359 59.5139 46.3077 60.2925C46.0982 60.6734 45.7502 60.9501 45.3277 61.0718C44.9103 61.1919 44.4749 61.1437 44.1014 60.9362L39.4319 58.293C39.1352 57.9297 38.774 57.6327 38.3552 57.4087C37.4781 56.94 36.4802 56.8679 35.5836 57.1532C35.3233 56.248 34.7087 55.4575 33.8312 54.9893C32.954 54.5212 31.9565 54.4491 31.0602 54.7343C30.8 53.8289 30.1854 53.0383 29.3079 52.57C28.5777 52.1802 27.754 52.0658 26.9741 52.2091C26.8237 51.1054 26.163 50.0899 25.1161 49.5312C23.703 48.7769 22.0053 49.0694 20.9188 50.1365C20.7169 49.1333 20.3618 47.9395 19.112 47.4543C18.9609 47.3957 18.5057 47.2021 17.25 46.6426L22.3219 35.1672L24.3918 36.1221C26.1861 37.1142 27.9436 36.7024 29.6436 36.3041L29.6437 36.3041C31.3637 35.9012 33.0041 35.5181 34.922 36.3595C34.4968 36.7179 34.0621 37.1186 33.6179 37.5676C31.9525 39.2505 29.8397 40.8443 27.3381 42.3042C27.0278 42.4854 26.8109 42.7912 26.743 43.1432C26.6752 43.4952 26.7628 43.8596 26.9829 44.1422C28.6784 46.3236 30.5141 47.0307 32.3269 47.0306C34.1822 47.0304 36.0133 46.2894 37.6422 45.63L37.6425 45.6298C39.8211 44.7478 41.7029 43.986 43.2092 44.8447L52.08 49.9009ZM52.2364 36.1306L56.7903 47.8776L53.9596 49.0588C53.6932 48.7456 53.3726 48.4796 53.0085 48.2721L44.1375 43.2159C41.8415 41.9073 39.3488 42.9163 36.9385 43.8922L36.9378 43.8925C33.9554 45.0998 31.3557 46.1523 28.9278 43.5398C31.2926 42.1013 33.3164 40.5382 34.9506 38.8866C39.5106 34.2785 42.447 35.447 45.2864 36.5772L45.2872 36.5775C46.9971 37.258 48.7652 37.9615 50.5716 37.0217L52.2364 36.1306ZM57.4243 30.5769L64.141 47.9028C64.2796 48.2607 64.1015 48.6648 63.7436 48.8036L60.4082 50.0967C60.0504 50.2354 59.6461 50.0571 59.5074 49.6992L52.7907 32.3731C52.652 32.0152 52.8303 31.6112 53.1882 31.4724L56.5233 30.1795C56.6058 30.1475 56.6908 30.1324 56.7743 30.1324C57.0535 30.1324 57.3175 30.3014 57.4243 30.5769ZM54.6251 33.0984C54.6251 32.4861 55.1244 31.9869 55.7366 31.9869C56.3488 31.9869 56.8482 32.4861 56.8482 33.0984C56.8482 33.7106 56.3488 34.2099 55.7366 34.2099C55.1244 34.2099 54.6251 33.7106 54.6251 33.0984ZM35.6711 30.0605C36.3235 30.0605 36.9367 29.8066 37.398 29.3454C38.6553 28.0879 39.9235 26.8018 41.1504 25.5574L41.1723 25.5352L41.1745 25.533C41.9149 24.782 42.6553 24.031 43.3975 23.282C44.3432 22.3275 44.338 20.7808 43.3861 19.8342C42.9255 19.3761 42.3148 19.1243 41.6655 19.1243H41.656C41.0042 19.1267 40.3927 19.3829 39.9344 19.8458L35.6644 24.1582L34.0641 22.5577C33.603 22.0965 32.9896 21.8425 32.3372 21.8425C31.6848 21.8425 31.0716 22.0965 30.6104 22.5577C29.6582 23.5099 29.6583 25.0592 30.6104 26.0114L33.9443 29.3454C34.4055 29.8066 35.0188 30.0605 35.6711 30.0605ZM39.8371 24.2188C38.6057 25.4677 37.3323 26.7593 36.0721 28.0195C35.9651 28.1266 35.8227 28.1855 35.671 28.1857C35.5195 28.1857 35.377 28.1267 35.27 28.0196L31.9361 24.6857C31.7148 24.4647 31.715 24.1048 31.9361 23.8837C32.0431 23.7766 32.1856 23.7177 32.3371 23.7177C32.4886 23.7177 32.6311 23.7766 32.7381 23.8837L35.0048 26.1504C35.1807 26.3261 35.419 26.4249 35.6677 26.4249H35.67C35.9195 26.4243 36.1585 26.3243 36.3339 26.1471L41.2667 21.1652C41.3721 21.0588 41.5129 20.9998 41.6631 20.9993C41.8141 21.0031 41.9567 21.057 42.064 21.1637C42.2842 21.3827 42.2849 21.7408 42.0657 21.9622C41.3434 22.691 40.623 23.4216 39.9026 24.1523L39.8371 24.2188Z" fill="white"/>
</svg>
