<svg width="75" height="75" viewBox="0 0 75 75" fill="none" xmlns="http://www.w3.org/2000/svg">
<path d="M63 0C69.6274 2.06162e-06 75 5.37258 75 12V63C75 69.6274 69.6274 75 63 75H12C5.37258 75 0 69.6274 0 63V12C1.03081e-06 5.37258 5.37258 0 12 0H63ZM29.1641 45.7812C27.0205 45.0851 25.025 45.8175 23.0732 46.9463L16.7021 50.6338L16.1699 49.6934L16.1689 49.6914C15.5625 48.6264 14.1959 48.2481 13.1309 48.8496L13.1299 48.8506L10.6709 50.2422C9.60525 50.8441 9.22376 52.2118 9.83105 53.2832L17.0537 66.0459C17.6551 67.1104 19.0206 67.492 20.0908 66.8906C20.0917 66.8902 20.0929 66.8892 20.0938 66.8887L22.5508 65.4971C23.615 64.896 23.9963 63.5294 23.3945 62.459L23.3936 62.457L22.7295 61.2832L24.0137 60.541L35.165 63.5303H35.166C37.0826 64.0416 38.9331 63.7964 40.6221 62.7539L56.5137 52.9697C57.4478 52.3944 58.0172 51.2576 58.0488 50.0664C58.0801 48.8881 57.5937 47.6884 56.5459 46.9854C55.3383 46.1753 53.2038 45.9622 50.0039 47.8262L41.2451 52.9268C40.9386 53.1055 40.6274 53.2446 40.3105 53.3467C40.4001 53.1511 40.4747 52.9421 40.5342 52.7207C41.0189 50.9184 39.941 49.1235 38.166 48.5488C38.126 48.5358 38.0854 48.5251 38.0439 48.5176C34.6022 47.8957 31.23 46.4512 29.1641 45.7812ZM14.0566 50.4883C14.2237 50.3942 14.4378 50.4552 14.5332 50.6221L21.7539 63.3818C21.8479 63.5495 21.7899 63.7642 21.623 63.8584L21.6221 63.8594L19.168 65.25C19.0004 65.3436 18.7866 65.2857 18.6924 65.1191L18.6914 65.1182L11.4688 52.3555L11.4678 52.3545C11.3853 52.2086 11.4191 52.0267 11.54 51.9209L11.5977 51.8809L14.0566 50.4883ZM24.0156 48.5752C25.4871 47.7242 26.9657 47.0467 28.582 47.5713L28.583 47.5723C30.6912 48.2559 34.128 49.7119 37.6396 50.3574C38.425 50.6384 38.9342 51.4217 38.7168 52.2314V52.2324C38.5014 53.0347 37.8129 53.4169 36.877 53.3145C34.9506 52.9162 33.1611 52.3321 31.1768 51.7988C30.6752 51.6643 30.1583 51.9614 30.0234 52.4629C29.8886 52.9645 30.1869 53.4813 30.6885 53.6162C32.7239 54.1633 34.5583 54.761 36.5361 55.167H36.5381C36.5504 55.1695 36.5628 55.1718 36.5752 55.1738H36.5771L37.6621 55.3506C37.6632 55.3507 37.6648 55.3514 37.666 55.3516C39.2868 55.6096 40.7742 55.3807 42.1934 54.5537L50.9512 49.4521C52.9574 48.2835 54.3382 48.0356 55.2383 48.4102C55.9176 48.6927 56.185 49.3741 56.168 50.0166C56.1534 50.5588 55.9515 51.1053 55.5264 51.3672L39.6338 61.1523H39.6328C38.4006 61.9128 37.0496 62.0848 35.6514 61.7119L24.124 58.6221C23.8829 58.5576 23.6262 58.5919 23.4102 58.7168L21.8018 59.6445L17.6299 52.2725L24.0156 48.5752ZM14.8311 52.7891C14.7481 52.2317 14.2302 51.8468 13.6729 51.9297C13.1153 52.0093 12.7299 52.5274 12.8096 53.085C12.8927 53.6421 13.4104 54.0301 13.9678 53.9473C14.5253 53.8676 14.9107 53.3466 14.8311 52.7891ZM57.6484 8.8623C57.3179 8.76496 56.9603 8.85588 56.7168 9.09961L51.1133 14.7061C48.7311 13.4684 46.0276 12.7676 43.166 12.7676C33.6341 12.7678 25.8555 20.5434 25.8555 30.0791C25.8555 39.611 33.6341 47.3904 43.166 47.3906C52.702 47.3906 60.4775 39.6112 60.4775 30.0791C60.4775 27.2377 59.7868 24.5524 58.5654 22.1826L64.1836 16.5654C64.4272 16.3217 64.5182 15.9642 64.4209 15.6338C64.3235 15.3032 64.0528 15.0521 63.7158 14.9795L60.3574 14.2559L60.8164 13.7979C61.1836 13.4307 61.1834 12.8341 60.8164 12.4668C60.4491 12.0995 59.8528 12.0995 59.4854 12.4668L59.0264 12.9248L58.3027 9.56641C58.2301 9.22958 57.979 8.9596 57.6484 8.8623ZM43.166 14.6504C45.5913 14.6504 47.8895 15.2145 49.9346 16.2188C49.9293 16.3037 49.9356 16.3903 49.9541 16.4756L50.9336 21.0176L50.5918 21.3594C48.5893 19.6511 45.9943 18.6182 43.166 18.6182C36.8572 18.6184 31.7051 23.7663 31.7051 30.0791C31.7051 36.388 36.8572 41.5398 43.166 41.54C49.4791 41.54 54.6269 36.3881 54.627 30.0791C54.627 27.2698 53.6079 24.6912 51.9199 22.6943L52.2646 22.3486L56.8105 23.3281C56.8884 23.3448 56.9673 23.3517 57.0449 23.3486C58.0376 25.3843 58.5947 27.6687 58.5947 30.0791C58.5947 38.5747 51.6651 45.5078 43.166 45.5078C34.6706 45.5076 27.7373 38.5746 27.7373 30.0791C27.7373 21.5802 34.6706 14.6506 43.166 14.6504ZM43.166 20.5C45.4757 20.5 47.5996 21.3247 49.2568 22.6943L46.4346 25.5176C45.5143 24.8572 44.3852 24.4678 43.166 24.4678C40.0671 24.468 37.5596 26.9802 37.5596 30.0791C37.5596 33.1783 40.0669 35.6863 43.166 35.6865C46.2651 35.6865 48.7773 33.1783 48.7773 30.0791C48.7773 28.8791 48.4004 27.7667 47.7588 26.8545L50.584 24.0293C51.9338 25.6806 52.7451 27.7882 52.7451 30.0791C52.7451 35.3519 48.4421 39.6582 43.166 39.6582C37.8934 39.658 33.5879 35.3518 33.5879 30.0791C33.5879 24.8031 37.8934 20.5002 43.166 20.5ZM43.166 26.3506C43.8638 26.3506 44.5177 26.5424 45.0762 26.876L42.5195 29.4316C42.1523 29.7989 42.1524 30.3953 42.5195 30.7627C42.8868 31.13 43.4833 31.13 43.8506 30.7627L46.3975 28.2168C46.7139 28.7647 46.8945 29.4008 46.8945 30.0791C46.8945 32.1383 45.2251 33.8037 43.166 33.8037C41.1074 33.8035 39.4414 32.1379 39.4414 30.0791C39.4414 28.0202 41.1072 26.3508 43.166 26.3506ZM17.8047 10.8105C13.2563 10.8106 9.54102 14.5258 9.54102 19.0742C9.54113 23.6281 13.2564 27.3378 17.8047 27.3379C22.3585 27.3379 26.0682 23.6281 26.0684 19.0742C26.0684 14.5257 22.3586 10.8105 17.8047 10.8105ZM17.8047 12.6924C21.3213 12.6924 24.1865 15.5619 24.1865 19.0742C24.1864 22.5907 21.3212 25.4551 17.8047 25.4551C14.2924 25.455 11.423 22.5907 11.4229 19.0742C11.4229 15.5619 14.2923 12.6925 17.8047 12.6924ZM21.9463 16.2324C21.5974 15.8478 21.0019 15.8181 20.6172 16.167L16.4043 19.9893L15.0303 18.6152C14.6629 18.248 14.0665 18.248 13.6992 18.6152C13.3321 18.9825 13.332 19.579 13.6992 19.9463L15.707 21.9541C16.0621 22.309 16.6331 22.3226 17.0049 21.9854L21.8818 17.5615C22.2666 17.2126 22.2953 16.6171 21.9463 16.2324ZM61.6309 16.4561L56.7061 21.3799L53.8486 20.7646L58.7734 15.8398L61.6309 16.4561ZM57.4424 14.5088L52.5176 19.4336C52.2672 18.2725 51.907 16.6015 51.9023 16.5801L56.8271 11.6523L57.4424 14.5088Z" fill="white"/>
</svg>
