<svg width="75" height="75" viewBox="0 0 75 75" fill="none" xmlns="http://www.w3.org/2000/svg">
<path d="M63.0003 0C69.6276 0.000154103 75.0003 5.37268 75.0003 12V63C75.0003 69.6273 69.6276 74.9998 63.0003 75H12.0003C5.37286 75 0.000274658 69.6274 0.000274658 63V12C0.000278782 5.37259 5.37286 0 12.0003 0H63.0003ZM11.5345 29.4404C10.4613 29.2279 9.4275 29.6611 8.72488 30.4033C8.01524 31.1533 7.67243 32.2025 7.8909 33.1309V33.1328L11.4202 47.9863C11.4204 47.9877 11.4208 47.9898 11.4212 47.9912C11.8174 49.6253 12.7722 50.8652 14.2083 51.707C14.2101 51.7082 14.2122 51.7098 14.2141 51.7109L22.3382 56.3926L22.5901 57.3389L21.6858 57.5889C20.6404 57.8765 20.0043 58.9723 20.2923 60.0459C20.2932 60.0494 20.2943 60.0531 20.2952 60.0566L20.9202 62.2783C21.2114 63.3294 22.3164 63.9582 23.3684 63.6689H23.3704L34.9446 60.459C35.9904 60.1715 36.6273 59.0758 36.3391 58.002C36.3387 58.0001 36.3377 57.9979 36.3372 57.9961L35.7259 55.7734C35.724 55.7665 35.7221 55.7589 35.72 55.752C35.4068 54.7088 34.3062 54.0921 33.263 54.3789L33.261 54.3799L32.5755 54.5693L31.0735 48.917C30.5855 47.0785 29.811 45.4738 28.135 44.6113C28.1338 44.6106 28.1325 44.61 28.1311 44.6094C26.5457 43.803 23.768 42.688 21.4173 41.0615C21.3821 41.0373 21.3449 41.0154 21.3069 40.9961C19.8746 40.2701 18.1089 40.7087 17.302 42.1006C17.3014 42.1017 17.3007 42.1033 17.3001 42.1045C17.269 42.1587 17.239 42.213 17.2112 42.2676C17.1613 42.1382 17.1185 42.0031 17.0823 41.8633C17.082 41.8623 17.0816 41.8613 17.0813 41.8604L14.969 33.8428V33.8408C14.1664 30.8124 12.7396 29.6791 11.5345 29.4404ZM65.2718 30.4023C64.5678 29.6608 63.5323 29.228 62.4593 29.4404C61.2529 29.6793 59.8279 30.8129 59.0315 33.8418L56.9055 41.8584C56.9051 41.86 56.904 41.8616 56.9036 41.8633C56.8685 41.9986 56.8278 42.1295 56.7805 42.2549C56.7569 42.2082 56.698 42.101 56.6927 42.0918C55.869 40.7057 54.1303 40.2709 52.6839 40.9941C52.6434 41.0144 52.6039 41.0376 52.5667 41.0635C50.2298 42.6897 47.4383 43.804 45.8665 44.6104C44.1744 45.4735 43.4154 47.0778 42.927 48.917L41.4241 54.5732C40.996 54.4545 40.7392 54.3836 40.7259 54.3799L40.7229 54.3789C39.6699 54.0895 38.5633 54.7204 38.2737 55.7734L37.6643 57.9902C37.3534 59.0689 37.9905 60.1704 39.0432 60.46C39.0907 60.473 50.5329 63.646 50.6155 63.6689H50.6175C51.6666 63.9575 52.7928 63.3244 53.0813 62.2754L53.6927 60.0518C53.6932 60.0499 53.6932 60.0477 53.6936 60.0459C53.9818 58.9718 53.3692 57.8779 52.2962 57.5879C52.2962 57.5878 51.9569 57.4946 51.3958 57.3389L51.6487 56.3926L59.7718 51.7109L59.7737 51.71C61.2294 50.8663 62.1844 49.6223 62.5657 47.9854C62.6124 47.7897 66.0874 33.2228 66.1087 33.1338L66.1096 33.1309C66.3282 32.2023 65.9836 31.1526 65.2718 30.4023ZM40.2229 56.1934H40.2239L51.7971 59.4033C51.7996 59.404 51.8024 59.4046 51.805 59.4053C51.8672 59.4221 51.8919 59.4909 51.8772 59.5537C51.8698 59.5813 51.2659 61.7764 51.2659 61.7764C51.2487 61.838 51.1803 61.8706 51.1184 61.8545C51.0445 61.834 39.578 58.6549 39.5442 58.6455L39.5423 58.6445C39.4862 58.629 39.4571 58.5683 39.4739 58.5107C39.4753 58.5058 39.4764 58.5001 39.4778 58.4951L40.0891 56.2725C40.1051 56.2146 40.165 56.1784 40.2229 56.1934ZM33.762 56.1934C33.828 56.1754 33.8926 56.2223 33.9153 56.2871C33.9253 56.3237 34.5208 58.4912 34.5208 58.4912C34.5378 58.5566 34.5073 58.627 34.4436 58.6445L34.4417 58.6455L22.8694 61.8545C22.8111 61.8705 22.7498 61.8345 22.7337 61.7764C22.7332 61.7746 22.7332 61.7723 22.7327 61.7705L22.1096 59.5557C22.0937 59.4908 22.1239 59.4207 22.1868 59.4033H22.1888L33.762 56.1934ZM33.3596 57.3564C33.1234 57.037 32.6783 56.9679 32.3587 57.2041C32.0396 57.4403 31.9703 57.8983 32.22 58.2178C32.4562 58.5373 32.9013 58.5937 33.221 58.3574C33.5404 58.1212 33.5958 57.676 33.3596 57.3564ZM41.6409 57.2041C41.3213 56.9679 40.8625 57.0369 40.6263 57.3564C40.39 57.6761 40.4601 58.1212 40.7796 58.3574C41.0992 58.5935 41.5434 58.5373 41.7796 58.2178C42.0157 57.8981 41.9465 57.4403 41.6409 57.2041ZM10.0921 31.6973C10.918 30.8249 12.3086 31.1534 13.1487 34.3232L15.261 42.3389C15.6102 43.683 16.3653 44.7019 17.4934 45.5156C17.4952 45.5169 18.1817 46.018 18.2132 46.041L18.2141 46.042C18.2268 46.0513 18.2401 46.0597 18.2532 46.0684L18.2542 46.0693C19.6458 46.9829 21.0509 47.7011 22.555 48.5586C23.0061 48.8158 23.5818 48.6582 23.8391 48.207C24.0961 47.7558 23.9388 47.181 23.4876 46.9238C22.0317 46.0939 20.6698 45.3996 19.3225 44.5186C18.8024 44.0957 18.6361 43.5617 18.9309 43.0439C19.2278 42.5342 19.8749 42.4088 20.4065 42.6514C22.8217 44.309 25.6506 45.4598 27.2757 46.2861C28.4609 46.8971 28.9087 48.0991 29.2542 49.4004L30.762 55.0723L24.4036 56.8359L24.0559 55.5303C23.9915 55.2885 23.8332 55.0821 23.6165 54.957L15.1575 50.082C14.1779 49.507 13.5219 48.6639 13.2513 47.5488C13.2513 47.5488 9.76652 32.8831 9.72293 32.6992C9.6414 32.3517 9.82642 31.978 10.0921 31.6973ZM60.8509 34.3213C61.6836 31.1526 63.0786 30.8261 63.9065 31.6982C64.1723 31.9782 64.358 32.3506 64.2776 32.6973C64.2665 32.7438 60.7346 47.5508 60.7346 47.5508C60.7343 47.5524 60.734 47.554 60.7337 47.5557C60.4752 48.668 59.8188 49.5079 58.8304 50.0811L50.3694 54.957C50.1526 55.0821 49.9944 55.2885 49.93 55.5303L49.5823 56.8359C47.6635 56.3038 45.1097 55.5952 43.2376 55.0762L44.7464 49.4004C45.0918 48.0996 45.5259 46.8974 46.7229 46.2871L46.7259 46.2861C48.3356 45.4603 51.1769 44.309 53.5784 42.6523C54.1185 42.4101 54.7591 42.5368 55.0677 43.042C55.3509 43.5615 55.1941 44.0964 54.6653 44.5186C53.3313 45.4001 51.9682 46.0936 50.512 46.9238C50.0611 47.1811 49.9044 47.7559 50.1614 48.207C50.4187 48.6582 50.9934 48.8158 51.4446 48.5586C52.9503 47.7001 54.3566 46.981 55.7356 46.0664H55.7366C55.746 46.0602 55.7557 46.0534 55.7649 46.0469C55.7653 46.0466 56.4911 45.5258 56.5013 45.5186L56.5032 45.5176C57.6334 44.7031 58.3752 43.6845 58.7249 42.3389L60.8509 34.3232V34.3213ZM47.2268 12.5938C44.9015 11.8323 42.2464 12.372 40.3929 14.2256C38.5911 16.0272 38.0283 18.6131 38.721 20.9033L35.3421 24.2822L31.1526 20.0918L30.4007 18.0488C30.3285 17.8528 30.1931 17.6859 30.0159 17.5752L26.2473 15.2207C25.8758 14.9887 25.3932 15.0439 25.0833 15.3535L23.0305 17.4062C22.7208 17.716 22.6657 18.1987 22.8977 18.5703L25.2522 22.3389C25.3627 22.5159 25.5289 22.6515 25.7249 22.7236L27.7688 23.4756L31.9593 27.666L30.803 28.8223C28.5089 28.1329 25.9273 28.6902 24.1194 30.498C22.2725 32.3449 21.7269 35.0075 22.4886 37.333C22.5905 37.6437 22.8463 37.8791 23.1643 37.9551C23.4824 38.031 23.8169 37.9362 24.0481 37.7051L27.762 33.9922L29.6204 34.4883L30.1165 36.3467L26.4026 40.0605C26.1713 40.2919 26.0764 40.6271 26.1526 40.9453C26.229 41.2636 26.4654 41.5197 26.7766 41.6211C29.0951 42.3759 31.7581 41.8301 33.6048 39.9834C35.4122 38.1761 35.9689 35.5952 35.2854 33.3066C35.2854 33.3066 35.7452 32.8468 36.4427 32.1494L36.8782 32.585C36.4494 33.2845 36.5304 34.2203 37.1429 34.833L45.6028 43.293C45.9703 43.6604 46.5662 43.6604 46.9339 43.293L50.97 39.2568C51.3371 38.8893 51.3374 38.2932 50.97 37.9258L42.51 29.4668C41.8973 28.8541 40.9616 28.7734 40.262 29.2021L39.8264 28.7656C41.5906 27.0016 43.1975 25.3946 43.2054 25.3867C45.49 26.0738 48.0757 25.5114 49.8772 23.71C51.7306 21.8566 52.2697 19.2012 51.5149 16.8828C51.4135 16.5715 51.1575 16.3351 50.8391 16.2588C50.5209 16.1826 50.1858 16.2773 49.9544 16.5088L46.2425 20.2207L44.387 19.7207L43.888 17.8662L47.5999 14.1533C47.831 13.922 47.9258 13.5875 47.8499 13.2695C47.7739 12.9514 47.5377 12.6955 47.2268 12.5938ZM48.9729 38.5918L46.2688 41.2959C46.2688 41.2959 39.112 34.14 38.5139 33.542L41.218 30.8369L48.9729 38.5918ZM42.1712 16.9199C41.9333 17.158 41.8405 17.5052 41.928 17.8301L42.7102 20.7334C42.7975 21.0571 43.0507 21.3102 43.3743 21.3975L46.2776 22.1797C46.6028 22.2673 46.9507 22.1746 47.1888 21.9365L49.9583 19.167C49.9093 20.3324 49.4399 21.4852 48.5462 22.3789C47.1355 23.7896 45.0561 24.1433 43.3157 23.4307C42.9648 23.287 42.5615 23.3685 42.2932 23.6367L33.5364 32.3936C33.2694 32.6608 33.1884 33.0619 33.3304 33.4121C34.0386 35.1586 33.6903 37.2358 32.2737 38.6523C31.3831 39.5428 30.2284 40.0126 29.0618 40.0625L31.8313 37.2939C32.0687 37.0564 32.1611 36.7103 32.0745 36.3857L31.2981 33.4766C31.2112 33.1511 30.9574 32.8964 30.6321 32.8096L27.7229 32.0332C27.3983 31.9466 27.0514 32.0398 26.8138 32.2773L24.0413 35.0498C24.0877 33.8791 24.5579 32.7217 25.4505 31.8291C26.8669 30.4126 28.9435 30.0643 30.6946 30.7773C31.0453 30.92 31.4474 30.8391 31.7151 30.5713L40.472 21.8154C40.7403 21.5471 40.8212 21.1431 40.677 20.792C39.9596 19.0468 40.3132 16.9664 41.7239 15.5557C42.6198 14.6601 43.7759 14.1908 44.9456 14.1455L42.1712 16.9199ZM54.1497 30.584C53.6303 30.584 53.2084 31.006 53.2083 31.5254V34.3369C53.2083 34.8563 53.6303 35.2783 54.1497 35.2783C54.669 35.2782 55.0911 34.8563 55.0911 34.3369V31.5254C55.091 31.0061 54.669 30.5841 54.1497 30.584ZM38.8958 30.4971L38.1741 31.2188L37.7737 30.8184C38.0076 30.5845 38.2497 30.3425 38.4954 30.0967L38.8958 30.4971ZM17.4593 25.4746C16.9398 25.4746 16.5179 25.8966 16.5179 26.416V29.2275C16.5179 29.7469 16.9399 30.1689 17.4593 30.1689C17.9787 30.1688 18.4006 29.7468 18.4007 29.2275V26.416C18.4007 25.8967 17.9787 25.4747 17.4593 25.4746ZM49.0403 28.2861C48.5209 28.2861 48.0989 28.7081 48.0989 29.2275C48.099 29.7469 48.5209 30.1689 49.0403 30.1689H51.8518C52.371 30.1687 52.7922 29.7468 52.7923 29.2275C52.7923 28.7083 52.3711 28.2864 51.8518 28.2861H49.0403ZM56.4475 28.2861C55.9281 28.2862 55.5061 28.7082 55.5061 29.2275C55.5062 29.7469 55.9281 30.1689 56.4475 30.1689H59.2591C59.7785 30.1689 60.2004 29.7469 60.2005 29.2275C60.2005 28.7081 59.7786 28.2861 59.2591 28.2861H56.4475ZM54.1497 23.1768C53.6303 23.1768 53.2083 23.5988 53.2083 24.1182V26.9297C53.2085 27.4489 53.6304 27.8701 54.1497 27.8701C54.6689 27.87 55.0909 27.4489 55.0911 26.9297V24.1182C55.0911 23.5988 54.669 23.1768 54.1497 23.1768ZM28.7454 19.001L29.4573 20.9365C29.5044 21.0645 29.5786 21.181 29.6751 21.2773L34.012 25.6133L33.2903 26.335L28.9534 21.998C28.8572 21.9019 28.7412 21.8273 28.6136 21.7803L26.678 21.0684L24.8909 18.208L25.885 17.2139L28.7454 19.001ZM12.3499 23.1768C11.8305 23.1768 11.4085 23.5988 11.4085 24.1182C11.4087 24.6375 11.8306 25.0586 12.3499 25.0586H15.1614C15.6805 25.0584 16.1016 24.6374 16.1018 24.1182C16.1018 23.5989 15.6807 23.177 15.1614 23.1768H12.3499ZM19.7571 23.1768C19.2377 23.1768 18.8157 23.5988 18.8157 24.1182C18.8159 24.6375 19.2379 25.0586 19.7571 25.0586H22.5686C23.0879 25.0586 23.5098 24.6375 23.51 24.1182C23.51 23.5988 23.088 23.1768 22.5686 23.1768H19.7571ZM17.4593 18.0674C16.94 18.0674 16.5181 18.4886 16.5179 19.0078V21.8193C16.5179 22.3387 16.9398 22.7607 17.4593 22.7607C17.9787 22.7606 18.4007 22.3387 18.4007 21.8193V19.0078C18.4004 18.4887 17.9786 18.0675 17.4593 18.0674Z" fill="white"/>
</svg>
