<svg width="162" height="307" viewBox="0 0 162 307" fill="none" xmlns="http://www.w3.org/2000/svg">
<g clip-path="url(#clip0_255_2750)">
<path d="M121.424 5.65323C123.235 7.42491 116.113 9.39727 115.099 9.92476C113.901 10.5497 112.721 11.3582 111.695 12.2411C111.609 14.1562 121.034 11.4327 122.547 13.1356L122.57 14.8098C120.679 15.3889 118.594 15.1595 116.697 15.5494C116.067 15.6756 114.721 15.8476 115.127 16.8166C115.465 17.625 118.462 19.9872 119.367 21.1741C123.303 26.3458 123.71 30.8295 122.816 37.1766C136.905 41.4366 130.883 59.0904 124.764 67.7539C121.011 73.0632 117.196 73.3728 113.729 76.7786C112.967 77.5297 105.152 89.5588 104.929 90.3328C104.121 93.148 105.221 108.078 106.092 111.289C107.358 115.956 117.688 121.741 121.986 124.052C138.704 133.042 151.32 132.624 159.341 152.605C163.988 164.176 161.181 176.675 160.934 188.807C160.533 208.462 161.696 229.097 160.98 248.483C160.602 258.769 158.488 269.124 158.07 279.398C157.846 284.885 157.972 290.527 158.614 295.951C153.904 299.701 147.648 300.687 141.775 300.343C140.245 300.251 138.601 299.3 137.266 299.38C135.593 299.477 130.763 301.874 128.431 302.482C97.2572 310.543 62.7545 306.163 31.2827 301.983C28.7044 301.639 25.5876 300.452 23.1469 300.343C17.0164 300.079 10.9374 301.375 4.53764 298.927C-0.727721 296.914 1.52395 290.808 1.1057 286.307C-1.55849 257.576 1.24321 229.052 2.85318 200.32C3.63811 186.325 0.0400234 174.072 4.95589 159.996C8.69148 149.303 20.3452 137.606 30.5149 132.825C38.9544 128.857 51.1123 126.89 57.8673 120.062C59.1622 118.754 58.6236 117.831 59.1278 117.023C59.3741 116.627 60.5544 116.323 61.3852 114.976C63.104 112.166 66.45 103.721 64.1353 101.095C63.3332 100.177 54.5614 97.1673 52.2696 95.7683C37.9632 87.0073 36.0553 64.0729 37.1783 48.9075C37.5736 43.5925 40.0201 38.7132 40.5758 33.96C42.1228 20.7498 37.2929 14.2708 51.3529 5.75643C65.413 -2.75797 83.518 -1.15256 97.7442 6.69101C100.741 8.34229 102.901 10.8307 105.92 12.2813C110.739 9.49474 115.477 5.15441 121.424 5.64176V5.65323ZM96.0197 87.4431C101.314 82.2427 102.964 73.82 107.398 68.1495L108.802 69.0325L107.118 74.1698C107.312 76.36 113.993 73.046 115.076 72.3981C118.989 70.0645 121.9 66.2803 123.813 62.2209C125.904 57.7889 130.562 45.3126 124.277 42.6464C116.926 39.5273 113.46 57.6226 107.817 47.6461C107.106 46.3962 103.88 36.8842 103.777 35.5884C103.371 30.5199 110.097 23.307 104.196 18.5882C92.5362 9.27113 74.2822 7.26437 61.0586 13.7605C41.4181 23.4045 39.6133 49.5497 41.7905 68.9981C42.8676 78.6018 47.5428 89.3696 56.475 93.8647C71.1653 101.255 84.4576 98.8071 96.0139 87.4431H96.0197ZM101.944 85.9237C101.119 85.012 98.0651 89.5989 97.3833 90.2411C92.6794 94.6387 83.4836 101.37 77.0208 101.972C74.0988 102.241 71.4976 101.525 68.6788 101.645L68.3923 108.325C79.0548 110.687 91.1496 109.288 101.291 105.338C100.3 98.8415 101.205 92.3969 101.95 85.9294L101.944 85.9237ZM101.932 110.016L87.626 112.298L92.794 127.773C93.6591 128.008 93.7451 127.544 94.2263 127.211C95.4926 126.334 102.935 118.577 103.393 117.43C103.961 116.008 101.789 111.84 101.938 110.016H101.932ZM84.1884 112.872L67.3782 111.822L63.5223 118.284L81.5242 130.565C83.9191 130.13 82.8649 123.765 83.0425 121.764C83.306 118.829 83.8217 115.801 84.1826 112.872H84.1884ZM154.082 294.598C153.669 293.795 153.509 292.987 153.48 292.075C152.999 277.472 156.322 263.023 156.975 248.488C157.835 229.315 157.073 208.789 157.502 189.387C157.709 180.155 159.702 170.448 157.485 161.361C156.225 156.195 152.174 147.755 148.931 143.546C144.456 137.732 123.389 130.434 115.58 126.466C112.343 124.82 109.323 122.745 106.149 120.979C104.471 120.818 94.6618 134.057 90.4908 131.512L89.2131 129.918L87.0588 122.051L85.8785 132.337C83.6613 131.678 81.6445 133.541 79.8913 133.553C76.5281 133.57 66.4042 124.918 63.5394 122.315C63.1384 122.011 62.7316 122.068 62.2675 122.131C61.156 122.286 53.3582 127.246 51.1581 128.278C35.1157 135.789 27.7362 135.594 15.4465 150.45C3.38029 165.036 6.57159 183.154 6.28512 200.338C6.02729 215.853 5.73509 231.815 5.13923 247.353C4.8814 254.159 3.39748 261.756 3.36883 268.516C3.33445 277.254 6.08459 286.204 5.19079 295.126C8.30188 296.152 19.2279 298.199 21.5025 296.404C23.3818 294.919 21.7603 290.682 21.7088 288.629C21.1301 264.543 26.0288 241.018 25.1923 217.487C24.9631 210.968 24.2527 192.185 22.4135 187.013C21.7317 185.104 14.5241 175.758 20.2478 177.054L21.1702 179.381C22.2703 180.224 21.9036 174.714 22.0812 174.17C22.4479 173.04 23.313 171.807 24.6193 172.771C25.4673 173.395 25.559 181.268 25.8168 183.039C25.96 184.02 26.5158 188.423 27.2663 188.584L68.9767 192.024C76.5625 191.279 85.7181 192.93 93.0976 192.035C93.7336 191.961 94.3467 192.012 94.7764 191.422L107.416 172.535L109.679 170.798C110.487 171.389 110.595 171.767 110.532 172.753C110.395 174.76 101.984 186.015 100.34 188.962C99.9271 189.696 98.6724 191.204 99.3542 191.99C105.267 190.946 111.644 191.462 117.694 190.843C125.406 190.057 132.866 187.661 140.578 186.795C141.918 185.849 141.792 178.521 142.119 176.297C142.365 174.657 143.339 167.341 145.195 167.329C148.49 167.312 144.749 176.337 145.493 178.235L149.664 171.532C150.856 170.42 152.048 171.171 152.271 172.69C150.862 177.564 145.745 181.296 144.983 186.044C143.643 194.352 143.557 203.858 142.623 212.35C140.274 233.719 136.894 254.973 138.068 276.595L136.321 296.353C142.531 297.339 148.318 297.367 154.082 294.615V294.598ZM138.618 205.75C130.064 206.031 121.659 208.422 113.111 209.185C104.562 209.947 96.3462 209.494 88.0214 210.452C85.9416 211.054 81.931 218.519 80.745 220.652C86.7781 221.099 92.7825 219.798 98.7698 219.488C102.735 219.281 106.865 219.78 110.819 219.505C119.906 218.869 128.907 216.638 138.005 216.042L138.612 205.75H138.618ZM82.4638 210.343L64.9661 210.939L28.607 208.044C28.4237 209.747 28.8591 219.832 30.1311 220.113C44.9818 221.581 59.8669 219.826 74.7577 220.113L76.7687 219.259L82.4638 210.343ZM136.326 228.111C114.743 230.353 93.1206 232.624 71.4117 233.26C68.7762 236.006 57.8157 251.997 54.6531 251.481L53.5129 249.314C57.1626 245.547 60.7377 241.493 63.7973 237.233C64.2327 236.626 66.8339 233.059 66.4214 232.698C60.4398 232.457 54.3609 233.019 48.3793 232.692C45.1709 232.515 30.8129 229.671 29.2545 232.199L25.7137 273.091C26.1949 279.8 25.1579 287.162 25.7137 293.778C26.0918 298.268 26.6705 299.087 31.2368 299.718C59.609 303.611 96.9937 305.727 124.971 299.609C128.849 298.761 131.433 299.133 132.15 294.753C134.149 282.535 132.648 267.432 133.45 254.773C134.012 245.874 135.69 237.004 136.309 228.106L136.326 228.111Z" fill="black"/>
<path d="M154.081 294.598C148.318 297.35 142.531 297.328 136.32 296.336L138.068 276.578C136.893 254.956 140.268 233.702 142.623 212.333C143.556 203.841 143.642 194.335 144.983 186.027C145.751 181.274 150.862 177.547 152.271 172.673C152.048 171.154 150.862 170.403 149.664 171.515L145.493 178.218C144.748 176.326 148.495 167.295 145.195 167.312C143.333 167.324 142.359 174.64 142.118 176.28C141.786 178.504 141.912 185.832 140.577 186.778C132.871 187.644 125.411 190.04 117.694 190.826C111.643 191.445 105.272 190.929 99.3538 191.973C98.672 191.187 99.9268 189.679 100.339 188.945C101.984 185.998 110.394 174.743 110.532 172.736C110.601 171.75 110.492 171.372 109.678 170.781L107.415 172.518L94.776 191.405C94.3406 191.995 93.7275 191.938 93.0973 192.018C85.7178 192.913 76.5621 191.262 68.9763 192.007L27.266 188.567C26.5154 188.406 25.9539 184.003 25.8164 183.022C25.5586 181.245 25.4669 173.373 24.619 172.754C23.3127 171.79 22.4475 173.023 22.0808 174.153C21.9032 174.703 22.2699 180.207 21.1699 179.364L20.2474 177.037C14.5237 175.741 21.7371 185.087 22.4132 186.996C24.2523 192.162 24.9628 210.945 25.1919 217.47C26.0284 241.001 21.1298 264.526 21.7084 288.612C21.76 290.665 23.3814 294.902 21.5022 296.387C19.2276 298.182 8.30153 296.135 5.19045 295.109C6.08424 286.181 3.33411 277.231 3.36848 268.499C3.39713 261.739 4.88106 254.142 5.13888 247.336C5.73474 231.798 6.02695 215.836 6.28477 200.321C6.57124 183.137 3.37994 165.019 15.4461 150.433C27.7358 135.577 35.1153 135.772 51.1578 128.261C53.3579 127.229 61.1556 122.269 62.2672 122.114C62.7312 122.051 63.1323 122 63.5391 122.298C66.4038 124.907 76.5277 133.553 79.8909 133.536C81.6441 133.524 83.6609 131.661 85.8782 132.32L87.0585 122.034L89.2127 129.901L90.4904 131.495C94.6614 134.04 104.47 120.801 106.149 120.962C109.317 122.728 112.342 124.809 115.58 126.449C123.389 130.417 144.456 137.715 148.931 143.529C152.174 147.744 156.224 156.178 157.485 161.344C159.702 170.431 157.708 180.138 157.502 189.37C157.072 208.772 157.84 229.298 156.975 248.471C156.322 263.006 152.999 277.455 153.48 292.058C153.509 292.97 153.675 293.778 154.081 294.581V294.598Z" fill="white"/>
<path d="M136.327 228.111C135.708 237.01 134.029 245.874 133.468 254.778C132.666 267.438 134.161 282.535 132.167 294.759C131.451 299.139 128.867 298.767 124.988 299.615C97.017 305.733 59.6323 303.617 31.2544 299.724C26.6881 299.099 26.1094 298.279 25.7312 293.784C25.1698 287.167 26.2068 279.805 25.7312 273.097L29.272 232.205C30.8247 229.677 45.1827 232.52 48.3969 232.698C54.3727 233.031 60.4574 232.463 66.4389 232.704C66.8514 233.065 64.2503 236.631 63.8148 237.239C60.7553 241.494 57.1801 245.547 53.5305 249.32L54.6707 251.487C57.8276 252.003 68.788 236.012 71.4293 233.266C93.1381 232.629 114.761 230.359 136.344 228.117L136.327 228.111ZM72.1569 250.467L74.7409 250.524L88.7666 235.857C88.0217 234.837 87.5863 234.854 86.4461 235.232C84.4236 235.903 73.6638 246.39 72.684 248.42C72.3517 249.108 71.9507 249.635 72.1569 250.467Z" fill="white"/>
<path d="M96.0199 87.4431C84.4579 98.8071 71.1656 101.261 56.481 93.8648C47.5488 89.3696 42.8736 78.6019 41.7964 68.9981C39.6192 49.5498 41.4183 23.4045 61.0646 13.7606C74.2881 7.27017 92.5421 9.27693 104.202 18.5883C110.109 23.3071 103.382 30.5142 103.783 35.5884C103.886 36.89 107.112 46.3963 107.823 47.6462C113.466 57.6227 116.927 39.5274 124.283 42.6465C130.568 45.3126 125.91 57.7947 123.819 62.221C121.906 66.2747 118.995 70.0588 115.082 72.3982C113.999 73.0461 107.318 76.3601 107.124 74.1698L108.808 69.0325L107.404 68.1496C102.97 73.8201 101.32 82.2427 96.0256 87.4431H96.0199ZM49.239 31.4488C52.5907 31.5405 55.2148 28.5476 58.6983 28.582C61.5917 28.6106 67.7737 32.5554 69.0113 32.4407C70.8562 32.2744 70.3806 30.0727 69.2405 28.9145C67.7451 27.4066 61.3739 24.5799 59.2712 24.5627C56.1315 24.5398 48.5285 27.3492 49.239 31.4488ZM99.6523 30.8754C100.369 27.9054 98.0653 26.7988 95.6417 26.0076C90.5884 24.3678 84.5667 25.847 80.7853 29.5108C80.6363 30.3479 81.9312 31.4258 82.7448 31.4373C84.2058 31.4602 88.6289 29.1725 91.3561 29.1095C94.4844 29.0407 96.6902 30.7607 99.6581 30.8697L99.6523 30.8754ZM78.0581 61.0915C81.0718 63.8551 89.8894 63.4767 93.3156 61.51C93.9859 61.1259 96.5928 58.5286 97.097 57.8405C99.5607 54.4692 103.331 42.8242 102.402 38.7419C101.841 36.2879 96.484 33.1402 94.0833 32.7388C88.0502 31.7297 81.1405 31.724 78.4534 38.0367C77.4508 40.3932 77.5997 45.8917 74.2136 45.1578C71.4177 44.5558 77.2674 38.5986 73.5948 37.1996L70.4494 41.2016C71.0109 36.718 69.8306 38.1112 67.6305 36.8498C62.7605 34.0576 61.5401 32.7044 55.2664 33.1861C46.8956 33.8282 43.9049 37.0218 44.0481 45.5076C44.1455 51.2928 45.5951 59.939 51.9605 61.705C55.6674 62.737 59.9817 61.1832 62.5943 61.963C64.5194 62.5421 66.6679 67.4443 70.0712 66.3607C73.2912 65.3286 67.4529 61.3266 66.8685 59.9792C65.9403 57.8348 67.3383 54.0162 68.3066 51.9693C70.4322 47.4742 71.1197 47.8354 76.1788 48.0877C75.8981 51.568 75.2506 58.5286 78.0695 61.103L78.0581 61.0915ZM116.841 56.6824L117.689 61.2864C118.932 63.276 120.456 59.7785 120.284 58.1674C120.112 56.5562 118.628 55.5242 118.13 54.0965C118.216 52.9326 122.931 50.083 123.739 48.9592C124.312 48.168 124.719 48.0533 123.739 47.2047C121.648 45.8344 117.706 49.1484 116.245 50.6334C114.875 52.0267 108.241 61.8713 109.398 62.9836C111.707 65.2082 115.116 55.4668 116.835 56.6824H116.841ZM74.3282 67.7425C71.177 67.8514 60.5833 68.1094 58.6754 69.8524C55.7877 72.4842 56.2003 78.0802 58.4118 81.0444C66.3127 91.6516 83.8964 87.6323 86.8929 74.5655C88.9154 65.7357 80.2181 67.5418 74.3339 67.7425H74.3282Z" fill="white"/>
<path d="M138.618 205.75L138.011 216.042C128.913 216.638 119.912 218.874 110.825 219.505C106.872 219.78 102.741 219.282 98.7758 219.488C92.7885 219.798 86.7841 221.099 80.751 220.652C81.937 218.525 85.9476 211.054 88.0274 210.452C96.3465 209.494 104.786 209.93 113.117 209.185C121.447 208.439 130.07 206.025 138.624 205.75H138.618Z" fill="white"/>
<path d="M82.4635 210.343L76.7685 219.259L74.7574 220.113C59.8666 219.826 44.9815 221.575 30.1308 220.113C28.8531 219.832 28.4234 209.747 28.6068 208.044L64.9658 210.939L82.4635 210.343Z" fill="white"/>
<path d="M101.944 85.9238C101.199 92.3913 100.294 98.8359 101.285 105.332C91.1441 109.283 79.0492 110.682 68.3867 108.319L68.6732 101.64C71.4863 101.519 74.0932 102.236 77.0153 101.966C83.4781 101.37 92.6738 94.6389 97.3777 90.2355C98.0595 89.5991 101.113 85.0065 101.938 85.9181L101.944 85.9238Z" fill="white"/>
<path d="M84.1887 112.872C83.822 115.802 83.3064 118.823 83.0485 121.765C82.8709 123.766 83.9251 130.13 81.5302 130.566L63.5283 118.284L67.3842 111.823L84.1944 112.872H84.1887Z" fill="white"/>
<path d="M101.932 110.016C101.783 111.84 103.955 116.008 103.388 117.43C102.929 118.577 95.4866 126.334 94.2204 127.211C93.7334 127.55 93.6532 128.008 92.7881 127.773L87.6201 112.298L101.927 110.016H101.932Z" fill="white"/>
<path d="M72.157 250.467C71.9508 249.635 72.3518 249.108 72.6841 248.42C73.6639 246.39 84.4238 235.903 86.4462 235.232C87.5864 234.854 88.0218 234.837 88.7667 235.857L74.741 250.524L72.157 250.467Z" fill="black"/>
<path d="M78.0576 61.0916C75.2444 58.5115 75.8861 51.5566 76.1668 48.0763C71.1135 47.824 70.4259 47.4628 68.2946 51.9579C67.3263 54.0048 65.9226 57.8234 66.8565 59.9678C67.4409 61.3152 73.2792 65.323 70.0593 66.3493C66.6617 67.4387 64.5132 62.5307 62.5823 61.9516C59.9697 61.1718 55.6554 62.7256 51.9485 61.6936C45.5831 59.9277 44.1335 51.2814 44.0361 45.4962C43.8929 37.0104 46.8894 33.8111 55.2544 33.1747C61.5224 32.693 62.7485 34.0462 67.6185 36.8384C69.8186 38.0998 70.9989 36.7008 70.4374 41.1902L73.5829 37.1882C77.2554 38.5872 71.4057 44.5444 74.2016 45.1464C77.5877 45.8746 77.4388 40.3761 78.4414 38.0253C81.1285 31.7126 88.044 31.7183 94.0714 32.7274C96.472 33.1288 101.829 36.2765 102.391 38.7305C103.319 42.8186 99.5544 54.4635 97.085 57.8292C96.5808 58.5172 93.9739 61.1145 93.3036 61.4987C89.8774 63.4653 81.0655 63.8437 78.0461 61.0801L78.0576 61.0916ZM90.3873 35.6C88.2101 35.6 84.1136 35.9727 82.7729 37.773C80.6816 40.5767 78.7107 54.7043 80.4983 57.7948C82.8302 61.8255 92.4728 59.4575 94.9938 55.163C96.5407 52.5256 100.07 41.5285 98.8039 38.9025C97.9445 37.1251 92.3812 35.6057 90.393 35.6057L90.3873 35.6ZM56.0049 36.1905C54.3205 36.288 50.0692 37.1022 48.9634 38.3464C46.3565 41.2762 47.7316 53.6838 50.1208 56.6538C52.51 59.6238 60.1301 59.813 62.336 56.3155C63.2068 54.9337 67.2232 41.11 67.0226 39.7798C66.6159 37.0907 58.3139 36.0587 56.0049 36.1905Z" fill="black"/>
<path d="M74.3277 67.7424C80.2176 67.5418 88.9092 65.7357 86.8867 74.5654C83.8902 87.6323 66.3065 91.6516 58.4056 81.0444C56.194 78.0801 55.7873 72.4784 58.6692 69.8524C60.5771 68.1094 71.1708 67.8514 74.322 67.7424H74.3277ZM66.593 76.9162C66.0258 77.3692 63.8428 80.2818 64.7137 81.0272C65.7737 81.9274 70.0708 83.3952 71.4573 83.5041C77.9144 84.0144 87.1216 73.413 82.4406 70.7526C77.7597 68.0922 77.8857 73.046 74.6486 74.9381C71.9385 76.5206 68.1686 75.672 66.593 76.9162ZM74.448 71.0163L65.8596 71.8706C68.7644 74.6056 72.3683 74.6629 74.448 71.0163Z" fill="black"/>
<path d="M116.84 56.6825C115.116 55.467 111.712 65.2084 109.403 62.9837C108.246 61.8714 114.881 52.0268 116.25 50.6336C117.711 49.1486 121.653 45.8345 123.744 47.2049C124.724 48.0534 124.317 48.1681 123.744 48.9593C122.931 50.0831 118.221 52.927 118.135 54.0967C118.634 55.5186 120.123 56.585 120.289 58.1675C120.455 59.75 118.931 63.2819 117.694 61.2866L116.846 56.6825H116.84Z" fill="black"/>
<path d="M49.239 31.4487C48.5285 27.3492 56.1258 24.5397 59.2713 24.5626C61.374 24.5798 67.7508 27.4065 69.2405 28.9144C70.3806 30.0669 70.8562 32.2743 69.0113 32.4406C67.7795 32.5495 61.5917 28.6048 58.6983 28.5819C55.2148 28.5532 52.5907 31.5462 49.239 31.4487Z" fill="black"/>
<path d="M99.6523 30.8754C96.6845 30.7665 94.4786 29.0464 91.3504 29.1152C88.6232 29.1725 84.2 31.466 82.739 31.443C81.9254 31.4316 80.6363 30.3537 80.7795 29.5165C84.561 25.8585 90.5884 24.3735 95.636 26.0133C98.0653 26.8046 100.363 27.9054 99.6466 30.8811L99.6523 30.8754Z" fill="black"/>
<path d="M90.3874 35.6C92.3755 35.6 97.9388 37.1194 98.7982 38.8968C100.064 41.5228 96.5408 52.5198 94.9881 55.1573C92.4672 59.4518 82.8188 61.8197 80.4926 57.789C78.705 54.6986 80.676 40.571 82.7672 37.7673C84.1079 35.9669 88.2045 35.5942 90.3817 35.5942L90.3874 35.6ZM94.8965 39.5791C93.2177 39.9403 84.7725 45.0604 85.3283 47.2048C86.7377 49.2058 87.7919 46.7518 89.1498 45.8803C90.5077 45.0088 97.3028 41.4138 97.3487 40.3359C97.3773 39.539 95.6928 39.4071 94.8965 39.5791ZM92.0489 49.0739C92.8167 48.2827 93.0745 47.027 91.9286 46.3734C90.0723 47.5201 88.256 47.6463 88.7774 50.3697C89.0066 50.6277 91.7166 49.4179 92.0489 49.0739Z" fill="white"/>
<path d="M56.0055 36.1905C58.3145 36.0529 66.6165 37.085 67.0232 39.7797C67.2238 41.1099 63.2074 54.9394 62.3366 56.3155C60.1307 59.813 52.5793 59.7155 50.1214 56.6537C47.6635 53.592 46.3629 41.2762 48.964 38.3463C50.0698 37.1022 54.3211 36.288 56.0055 36.1905ZM50.3907 50.9431C52.7856 48.8847 59.2369 45.1063 60.7266 42.658C61.2021 41.8725 61.798 40.9781 60.6979 40.3302C60.062 39.9575 51.5079 46.3562 50.9178 47.1761C50.0756 48.3285 50.4021 49.6587 50.3907 50.9431ZM60.6922 45.7886C59.3744 44.5214 53.92 49.4179 54.9685 51.5164C55.7764 52.3879 61.8954 46.9467 60.6922 45.7886Z" fill="white"/>
<path d="M66.5931 76.9163C68.1687 75.6664 71.9386 76.5207 74.6486 74.9382C77.8858 73.0461 77.9946 68.2242 82.4407 70.7527C87.1217 73.4131 77.9144 84.0145 71.4574 83.5042C70.0708 83.3953 65.768 81.9218 64.7138 81.0273C63.8429 80.2877 66.0201 77.3693 66.5931 76.9163Z" fill="white"/>
<path d="M74.4488 71.0164C72.3633 74.6572 68.7652 74.6056 65.8604 71.8707L74.4488 71.0164Z" fill="white"/>
<path d="M94.8971 39.5791C95.6935 39.4071 97.3837 39.539 97.3493 40.3359C97.3092 41.4138 90.4626 45.0317 89.1505 45.8803C87.8385 46.7289 86.7384 49.2058 85.329 47.2048C84.7732 45.0604 93.2127 39.9403 94.8971 39.5791Z" fill="black"/>
<path d="M92.0497 49.0738C91.7117 49.4178 89.0016 50.6276 88.7782 50.3696C88.2568 47.6462 90.0731 47.52 91.9294 46.3733C93.0753 47.0269 92.8175 48.2826 92.0497 49.0738Z" fill="black"/>
<path d="M50.3908 50.943C50.4023 49.6587 50.0757 48.3285 50.9179 47.176C51.5138 46.3618 60.0621 39.9574 60.6981 40.3301C61.7981 40.978 61.2023 41.8667 60.7267 42.6579C59.2428 45.1119 52.7857 48.8846 50.3908 50.943Z" fill="black"/>
<path d="M60.6919 45.7884C61.8951 46.9466 55.7761 52.3878 54.9682 51.5163C53.914 49.4178 59.3742 44.5213 60.6919 45.7884Z" fill="black"/>
</g>
<defs>
<clipPath id="clip0_255_2750">
<rect width="162" height="307" fill="white"/>
</clipPath>
</defs>
</svg>
