<svg width="100" height="100" viewBox="0 0 100 100" fill="none" xmlns="http://www.w3.org/2000/svg">
<path d="M57.1723 98.2812C53.9847 98.2818 50.816 97.7928 47.777 96.8312L28.227 91.2062C26.9769 90.8465 25.6825 90.664 24.3816 90.664H18.7832C18.3688 90.664 17.9714 90.4994 17.6783 90.2064C17.3853 89.9133 17.2207 89.5159 17.2207 89.1015C17.2207 88.6871 17.3853 88.2897 17.6783 87.9967C17.9714 87.7036 18.3688 87.539 18.7832 87.539H24.3754C25.9685 87.5397 27.5536 87.7632 29.0848 88.2031L48.6738 93.8375C55.2107 95.916 62.2826 95.5269 68.552 92.7437L93.8129 81.5078C94.4032 81.2435 94.8695 80.7626 95.1155 80.1644C95.3615 79.5662 95.3684 78.8964 95.1348 78.2933C94.9012 77.6902 94.4449 77.1997 93.8602 76.9233C93.2755 76.6469 92.6069 76.6055 91.9926 76.8078L65.0988 84.4531C64.9014 84.5092 64.6949 84.5259 64.4911 84.5022C64.2872 84.4785 64.0901 84.4149 63.9108 84.315C63.7315 84.2151 63.5737 84.0809 63.4463 83.92C63.3189 83.7591 63.2245 83.5747 63.1684 83.3773C63.1122 83.1799 63.0956 82.9734 63.1192 82.7695C63.1429 82.5657 63.2065 82.3685 63.3064 82.1893C63.4063 82.01 63.5406 81.8522 63.7014 81.7248C63.8623 81.5974 64.0467 81.5029 64.2441 81.4468L91.0723 73.8234C92.449 73.3813 93.9429 73.4842 95.246 74.1108C96.5491 74.7375 97.5622 75.8401 98.0764 77.1916C98.5907 78.543 98.5669 80.0402 98.01 81.3747C97.4531 82.7091 96.4056 83.779 95.0832 84.364L69.8285 95.5874C65.8464 97.3661 61.5336 98.284 57.1723 98.2812Z" fill="#151516"/>
<path d="M63.1574 84.5782H45.3339C44.9195 84.5782 44.5221 84.4136 44.2291 84.1205C43.936 83.8275 43.7714 83.4301 43.7714 83.0157C43.7714 82.6013 43.936 82.2038 44.2291 81.9108C44.5221 81.6178 44.9195 81.4532 45.3339 81.4532H63.1574C63.644 81.4632 64.1277 81.3761 64.5802 81.1968C65.0327 81.0175 65.4449 80.7498 65.7926 80.4092C66.1403 80.0686 66.4165 79.6621 66.6051 79.2134C66.7936 78.7647 66.8908 78.2829 66.8908 77.7961C66.8908 77.3094 66.7936 76.8276 66.6051 76.3789C66.4165 75.9302 66.1403 75.5237 65.7926 75.1831C65.4449 74.8425 65.0327 74.5747 64.5802 74.3955C64.1277 74.2162 63.644 74.129 63.1574 74.1391H47.5652C46.808 74.1369 46.0589 73.9826 45.3624 73.6855C44.6659 73.3884 44.0361 72.9545 43.5105 72.4094C37.3167 65.9672 27.0745 68.6594 26.973 68.6954C26.8456 68.73 26.7144 68.7484 26.5824 68.75L18.8027 68.85C18.3897 68.8506 17.9929 68.6895 17.6971 68.4013C17.4014 68.1132 17.2301 67.7207 17.2199 67.3079C17.2172 67.1025 17.255 66.8987 17.3311 66.708C17.4073 66.5173 17.5203 66.3435 17.6637 66.1965C17.807 66.0495 17.978 65.9322 18.1667 65.8513C18.3554 65.7704 18.5583 65.7275 18.7636 65.725L26.3558 65.625C28.0214 65.2172 38.7449 62.9438 45.7636 70.2422C45.997 70.4848 46.2767 70.6779 46.5862 70.8102C46.8957 70.9426 47.2286 71.0114 47.5652 71.0125H63.1574C64.0567 70.9989 64.9497 71.1642 65.7845 71.4989C66.6193 71.8336 67.3792 72.331 68.0199 72.9621C68.6607 73.5933 69.1696 74.3455 69.5169 75.1751C69.8642 76.0048 70.0431 76.8952 70.0431 77.7946C70.0431 78.694 69.8642 79.5844 69.5169 80.414C69.1696 81.2436 68.6607 81.9959 68.0199 82.627C67.3792 83.2581 66.6193 83.7555 65.7845 84.0902C64.9497 84.4249 64.0567 84.5918 63.1574 84.5782Z" fill="#151516"/>
<path d="M18.7828 98.4375H3.125C2.7106 98.4375 2.31317 98.2728 2.02015 97.9798C1.72712 97.6868 1.5625 97.2894 1.5625 96.875V59.6453C1.5625 59.2309 1.72712 58.8334 2.02015 58.5404C2.31317 58.2474 2.7106 58.0828 3.125 58.0828H18.7828C19.1972 58.0828 19.5946 58.2474 19.8877 58.5404C20.1807 58.8334 20.3453 59.2309 20.3453 59.6453V96.875C20.3453 97.2894 20.1807 97.6868 19.8877 97.9798C19.5946 98.2728 19.1972 98.4375 18.7828 98.4375ZM4.6875 95.3125H17.2203V61.2078H4.6875V95.3125Z" fill="#151516"/>
<path d="M78.4378 45.0672H78.3675L68.9066 44.9469C68.7014 44.9443 68.4987 44.9012 68.3102 44.8202C68.1216 44.7392 67.9508 44.6219 67.8076 44.4749C67.6644 44.328 67.5516 44.1542 67.4755 43.9636C67.3995 43.773 67.3617 43.5693 67.3644 43.3641C67.363 43.1577 67.4033 42.9532 67.4829 42.7628C67.5625 42.5724 67.6797 42.4001 67.8275 42.256C67.9753 42.112 68.1507 41.9993 68.3431 41.9247C68.5355 41.8501 68.741 41.8152 68.9472 41.8219L78.4066 41.9422C78.9955 41.9377 79.561 41.7105 79.9894 41.3063C80.3037 40.998 80.5199 40.6036 80.6107 40.1728C80.7015 39.7419 80.6629 39.2938 80.4998 38.8849C80.3366 38.4759 80.0562 38.1243 79.6938 37.8743C79.3313 37.6243 78.9031 37.487 78.4628 37.4797L72.7972 37.4078C72.592 37.4054 72.3893 37.3626 72.2007 37.2818C72.012 37.201 71.8412 37.0838 71.6978 36.937C71.5545 36.7901 71.4414 36.6165 71.3652 36.426C71.2889 36.2355 71.251 36.0318 71.2535 35.8266C71.2534 35.6205 71.2946 35.4166 71.3746 35.2267C71.4546 35.0368 71.5718 34.8648 71.7193 34.721C71.8668 34.5771 72.0417 34.4642 72.2335 34.389C72.4253 34.3137 72.6303 34.2776 72.8363 34.2828L78.5019 34.3547C79.9225 34.3634 81.2814 34.9361 82.2797 35.9467C83.2781 36.9574 83.834 38.3232 83.8253 39.7438C83.8166 41.1643 83.244 42.5233 82.2333 43.5216C81.2227 44.5199 79.8584 45.0759 78.4378 45.0672Z" fill="#151516"/>
<path d="M72.6251 53.0703H72.6048C72.1907 53.065 71.7956 52.8954 71.5064 52.5989C71.2172 52.3024 71.0576 51.9032 71.0626 51.4891L71.2595 35.8266C71.2644 35.4154 71.4312 35.0228 71.7237 34.7338C72.0162 34.4448 72.4108 34.2828 72.822 34.2828H72.8423C73.0475 34.2855 73.2502 34.3285 73.4387 34.4095C73.6273 34.4905 73.798 34.6078 73.9412 34.7548C74.0845 34.9018 74.1973 35.0755 74.2734 35.2661C74.3494 35.4567 74.3872 35.6605 74.3845 35.8657L74.1876 51.5282C74.1823 51.939 74.0153 52.3313 73.7228 52.6199C73.4304 52.9085 73.036 53.0704 72.6251 53.0703Z" fill="#151516"/>
<path d="M79.7269 49.0859H79.7066L68.8629 48.9484C68.6577 48.9457 68.455 48.9027 68.2664 48.8217C68.0779 48.7407 67.9071 48.6234 67.7639 48.4764C67.6207 48.3294 67.5079 48.1557 67.4318 47.9651C67.3558 47.7745 67.318 47.5708 67.3207 47.3656C67.3161 47.1583 67.3543 46.9524 67.4328 46.7605C67.5113 46.5687 67.6284 46.3951 67.7768 46.2504C67.9253 46.1058 68.1019 45.9932 68.2958 45.9197C68.4896 45.8463 68.6964 45.8135 68.9035 45.8234L79.7457 45.9609C80.1601 45.9634 80.5565 46.1304 80.8478 46.4252C81.139 46.7199 81.3013 47.1184 81.2988 47.5328C81.2963 47.9472 81.1293 48.3436 80.8345 48.6349C80.5397 48.9261 80.1413 49.0884 79.7269 49.0859Z" fill="#151516"/>
<path d="M75.6328 67.3578C71.1224 67.3578 66.7133 66.0203 62.9631 63.5144C59.2128 61.0085 56.2899 57.4468 54.5639 53.2797C52.8379 49.1126 52.3864 44.5273 53.2664 40.1036C54.1465 35.6798 56.3186 31.6164 59.508 28.4272C62.6975 25.238 66.761 23.0662 71.1848 22.1864C75.6086 21.3067 80.1939 21.7585 84.3609 23.4848C88.5279 25.211 92.0894 28.1342 94.595 31.8846C97.1006 35.6351 98.4378 40.0443 98.4375 44.5547C98.4305 50.6005 96.0255 56.3968 91.7503 60.6717C87.4751 64.9466 81.6787 67.3512 75.6328 67.3578ZM75.6328 24.875C71.7405 24.875 67.9357 26.0292 64.6994 28.1916C61.4631 30.354 58.9407 33.4276 57.4512 37.0236C55.9617 40.6196 55.5719 44.5765 56.3313 48.394C57.0906 52.2115 58.9649 55.7181 61.7172 58.4703C64.4694 61.2226 67.976 63.0969 71.7935 63.8562C75.611 64.6156 79.5679 64.2258 83.1639 62.7363C86.7599 61.2468 89.8335 58.7244 91.9959 55.4881C94.1583 52.2518 95.3125 48.4469 95.3125 44.5547C95.3071 39.3369 93.232 34.3345 89.5425 30.645C85.853 26.9555 80.8505 24.8804 75.6328 24.875Z" fill="#151516"/>
<path d="M75.6502 62.7171C75.2358 62.7171 74.8384 62.5525 74.5453 62.2595C74.2523 61.9665 74.0877 61.569 74.0877 61.1546C74.0877 60.7402 74.2523 60.3428 74.5453 60.0498C74.8384 59.7568 75.2358 59.5921 75.6502 59.5921C78.288 59.5906 80.8789 58.8949 83.1627 57.5749C83.5204 57.3824 83.9391 57.3368 84.3299 57.4478C84.7207 57.5587 85.0529 57.8175 85.2561 58.1693C85.4593 58.521 85.5175 58.9381 85.4184 59.3321C85.3193 59.726 85.0707 60.0659 84.7252 60.2796C81.9658 61.874 78.8371 62.7146 75.6502 62.7171ZM67.3439 60.5062C67.0697 60.5062 66.8002 60.434 66.5627 60.2968C63.8039 58.7048 61.5101 56.418 59.9096 53.664C59.7228 53.3069 59.6812 52.8915 59.7935 52.5044C59.9057 52.1174 60.1632 51.7887 60.5121 51.587C60.861 51.3853 61.2744 51.3262 61.6658 51.4221C62.0572 51.518 62.3965 51.7614 62.6127 52.1015C63.9397 54.3809 65.8401 56.2733 68.1252 57.5906C68.4231 57.7626 68.6558 58.028 68.7875 58.3458C68.9191 58.6636 68.9422 59.0159 68.8531 59.3481C68.7641 59.6803 68.568 59.9739 68.2951 60.1833C68.0222 60.3927 67.6879 60.5062 67.3439 60.5062ZM90.0002 54.4125C89.7256 54.413 89.4559 54.3402 89.2189 54.2015C88.8603 53.994 88.5988 53.6527 88.4919 53.2524C88.3849 52.8522 88.4413 52.4258 88.6486 52.0671C89.966 49.7821 90.659 47.1907 90.658 44.5531C90.6567 44.1349 90.8198 43.733 91.1121 43.434C91.4044 43.135 91.8024 42.9628 92.2205 42.9546C92.4239 42.9507 92.626 42.9873 92.8151 43.0622C93.0042 43.1372 93.1765 43.2491 93.3219 43.3913C93.4674 43.5335 93.583 43.7033 93.6622 43.8907C93.7414 44.0781 93.7824 44.2793 93.783 44.4828V44.6031C93.7784 47.7732 92.9411 50.8865 91.3549 53.6312C91.2189 53.8674 91.0234 54.0639 90.788 54.2013C90.5525 54.3386 90.2853 54.4119 90.0127 54.414L90.0002 54.4125ZM59.0205 46.1312C58.8162 46.1331 58.6136 46.0945 58.4244 46.0177C58.2351 45.9409 58.0628 45.8274 57.9176 45.6838C57.7724 45.5401 57.657 45.3692 57.5781 45.1808C57.4992 44.9923 57.4584 44.7902 57.458 44.5859V44.5515C57.4569 41.3772 58.2876 38.258 59.8674 35.5046C59.97 35.3267 60.1066 35.1708 60.2695 35.0457C60.4323 34.9206 60.6183 34.8288 60.8166 34.7756C61.0149 34.7223 61.2218 34.7086 61.4254 34.7353C61.6291 34.7621 61.8254 34.8286 62.0033 34.9312C62.1812 35.0338 62.3372 35.1704 62.4623 35.3333C62.5874 35.4962 62.6792 35.6821 62.7324 35.8804C62.7857 36.0787 62.7993 36.2856 62.7726 36.4893C62.7459 36.6929 62.6794 36.8892 62.5768 37.0671C61.269 39.3463 60.5816 41.9285 60.583 44.5562C60.5831 44.9699 60.4207 45.3671 60.1308 45.6623C59.8409 45.9574 59.4467 46.1269 59.033 46.1343L59.0205 46.1312ZM89.9689 37.7562C89.6949 37.7559 89.4258 37.6836 89.1886 37.5465C88.9514 37.4093 88.7544 37.2122 88.6174 36.9749C87.2865 34.6964 85.3822 32.8061 83.0939 31.4921C82.7345 31.2849 82.472 30.9434 82.3643 30.5427C82.2566 30.142 82.3125 29.7149 82.5197 29.3554C82.7269 28.9959 83.0685 28.7335 83.4692 28.6258C83.8699 28.5181 84.297 28.574 84.6564 28.7812C87.418 30.3683 89.7164 32.65 91.3236 35.4C91.4606 35.6371 91.5328 35.9061 91.533 36.18C91.5332 36.4539 91.4614 36.723 91.3248 36.9604C91.1882 37.1978 90.9917 37.3951 90.7548 37.5326C90.5179 37.6701 90.2491 37.7429 89.9752 37.7437L89.9689 37.7562ZM67.2815 31.7578C66.938 31.7572 66.6043 31.6434 66.332 31.4341C66.0597 31.2248 65.8639 30.9316 65.775 30.5999C65.6861 30.2681 65.7089 29.9163 65.84 29.5989C65.9711 29.2814 66.2031 29.016 66.5002 28.8437C69.2557 27.2432 72.3839 26.3961 75.5705 26.3875C75.9849 26.3875 76.3823 26.5521 76.6754 26.8451C76.9684 27.1381 77.133 27.5356 77.133 27.95C77.133 28.3644 76.9684 28.7618 76.6754 29.0548C76.3823 29.3478 75.9849 29.5125 75.5705 29.5125C72.9356 29.5199 70.349 30.2204 68.0705 31.5437C67.8351 31.6828 67.5673 31.7577 67.294 31.7609L67.2815 31.7578Z" fill="#151516"/>
<path d="M75.6328 24.875C75.2203 24.875 74.8246 24.7119 74.5318 24.4212C74.2391 24.1306 74.0732 23.7359 74.0703 23.3234L73.9219 3.21406C73.919 2.80046 74.0802 2.40258 74.3702 2.10764C74.6601 1.81269 75.0552 1.64475 75.4688 1.64062C75.8792 1.65024 76.2705 1.81588 76.5631 2.10384C76.8557 2.39179 77.0276 2.78042 77.0438 3.19063L77.1922 23.3016C77.1951 23.7157 77.0335 24.114 76.7429 24.4091C76.4522 24.7041 76.0564 24.8717 75.6422 24.875H75.6328Z" fill="#151516"/>
<path d="M70.8107 17.0782C67.9941 17.1451 65.2126 16.4428 62.7654 15.0469C57.1982 11.661 54.9529 3.95315 54.8623 3.62815C54.7945 3.38772 54.7854 3.13454 54.8357 2.88986C54.886 2.64518 54.9942 2.41613 55.1513 2.2219C55.3105 2.02877 55.5131 1.87601 55.7425 1.77608C55.972 1.67615 56.2218 1.63189 56.4716 1.6469C60.7729 1.94358 65.048 2.54193 69.2654 3.43753C76.0857 5.08284 77.0044 14.4188 77.0404 14.8157C77.0735 15.1812 76.9768 15.5467 76.7674 15.8481C76.558 16.1495 76.2492 16.3676 75.8951 16.4641C74.2316 16.8752 72.5242 17.0814 70.8107 17.0782ZM58.6873 4.97034C59.8227 7.94389 61.805 10.5194 64.3888 12.3782C67.254 13.8607 70.5349 14.3357 73.7029 13.7266C73.2341 11.5063 71.9326 7.30159 68.5326 6.48128C65.2859 5.7709 61.9976 5.26625 58.6873 4.97034Z" fill="#151516"/>
<path d="M75.4832 16.5251C75.1816 16.5244 74.8865 16.4371 74.6332 16.2735C72.5503 14.9204 63.5128 9.48131 63.4222 9.42662C63.0671 9.21299 62.8113 8.86704 62.7113 8.46486C62.6112 8.06269 62.675 7.63723 62.8886 7.28209C63.1023 6.92695 63.4482 6.67121 63.8504 6.57114C64.2526 6.47107 64.678 6.53487 65.0332 6.74849C65.4066 6.97349 74.2066 12.2704 76.3347 13.6516C76.6176 13.8351 76.8335 14.1051 76.9503 14.4214C77.0671 14.7377 77.0784 15.0833 76.9826 15.4065C76.8868 15.7298 76.689 16.0134 76.4188 16.215C76.1485 16.4166 75.8203 16.5253 75.4832 16.5251Z" fill="#151516"/>
<path d="M80.6953 17.7063C78.8367 17.7096 76.9858 17.4674 75.1906 16.986C74.8341 16.8805 74.5269 16.6514 74.3242 16.3398C74.1214 16.0283 74.0364 15.6546 74.0844 15.286C74.1328 14.911 75.3531 6.08439 81.9859 4.13126C86.1847 2.9677 90.4689 2.13752 94.7984 1.64845C95.0508 1.62193 95.3057 1.65726 95.5414 1.75138C95.777 1.8455 95.9861 1.99558 96.1507 2.18866C96.3154 2.38173 96.4305 2.61198 96.4861 2.85952C96.5418 3.10706 96.5364 3.36443 96.4703 3.60939C96.3734 3.97189 94.0094 12.561 88.3453 15.8438C86.0023 17.1237 83.3644 17.7659 80.6953 17.7063ZM77.4734 14.2922C80.6172 14.956 83.8925 14.5507 86.7797 13.1406C89.7484 11.4219 91.6765 7.56564 92.664 5.07814C89.3569 5.54314 86.0845 6.22852 82.8687 7.1297C79.4844 8.12501 78.025 12.1313 77.4734 14.2922Z" fill="#151516"/>
<path d="M75.6341 17.0499C75.2943 17.05 74.9637 16.9393 74.6925 16.7346C74.4213 16.5299 74.2242 16.2423 74.1311 15.9155C74.038 15.5887 74.054 15.2404 74.1766 14.9235C74.2992 14.6066 74.5219 14.3383 74.8107 14.1593C76.9669 12.8249 85.8763 7.71557 86.2544 7.49682C86.6141 7.29024 87.0412 7.23501 87.4416 7.34329C87.842 7.45156 88.183 7.71446 88.3896 8.07416C88.5962 8.43386 88.6514 8.8609 88.5431 9.26131C88.4349 9.66173 88.172 10.0027 87.8123 10.2093C87.7201 10.2609 78.5701 15.5078 76.4591 16.8156C76.2116 16.9697 75.9257 17.051 75.6341 17.0499Z" fill="#151516"/>
</svg>
