<svg width="159" height="304" viewBox="0 0 159 304" fill="none" xmlns="http://www.w3.org/2000/svg">
<g clip-path="url(#clip0_255_2517)">
<path d="M58.3542 13.1499C56.6937 13.4195 54.3454 15.4036 52.1743 14.762C50.7288 13.344 55.8447 11.2305 56.7098 10.961C59.7729 10.0013 63.0079 9.77483 66.1516 10.1792C64.6631 6.35661 61.8311 3.26189 57.5481 2.90066C57.4675 0.927367 59.5096 1.12146 60.9121 1.40721C65.8131 2.41542 69.967 11.98 70.7032 12.0393C82.5471 2.90605 100.001 -0.92731 114.801 0.188731C136.989 1.85471 136.624 24.925 136.565 42.016C136.554 45.844 136.72 50.0709 136.565 53.8773C136.312 59.9859 134.807 63.1992 135.543 69.9494C136.231 76.2413 137.091 79.6056 140.616 84.8084C141.514 86.1293 145.609 89.8171 144.582 91.3106C142.803 93.9039 135.721 83.9565 134.926 84.8623C134.952 86.7439 135.291 88.8898 135.834 90.6851C136.317 92.281 141.293 99.6782 137.569 98.6592L133.313 94.0333C132.733 96.1359 134.861 100.336 133.319 101.862C131.201 103.959 119.282 105.846 115.924 105.975L115.037 107.232C117.391 108.553 118.369 111.162 120.142 112.898C128.38 120.98 142.809 122.684 150.757 129.628C157.216 135.267 157.598 148.897 158.027 156.839C160.139 195.884 155.625 235.803 157.458 274.945C157.673 279.506 158.543 284.283 158.984 288.839C158.812 290.785 150.864 295.206 148.779 295.837C144.636 297.094 140.622 296.813 136.409 296.064C133.141 295.481 129.476 293.422 126.612 293.503C121.83 293.643 118.428 293.805 114.333 295.783C106.88 299.385 78.5328 300.663 69.6285 299.983C65.8883 299.698 58.897 296.996 55.9629 298.689C54.0068 299.816 53.2921 302.178 50.2398 302.652C48.4503 302.927 44.6618 302.846 42.8078 302.631C40.9592 302.41 37.1008 300.517 36.2948 300.555C35.5693 300.587 34.9621 301.455 34.1184 301.585C26.3747 302.771 10.0384 305.903 3.2459 302.426C-1.74636 299.87 1.42955 294.123 1.666 289.508C2.39684 275.581 -0.10198 262.173 0.000122034 249.028C0.0216172 246.478 1.05339 243.049 1.13937 240.423C2.23025 207.255 -4.82018 165.115 15.7239 136.443C27.7343 119.681 49.8582 123.412 62.9112 108.299C63.153 107.065 62.3738 107.631 61.6484 107.431C57.6556 106.347 52.7547 105.684 49.122 103.808C47.5583 102.999 46.0966 102.309 46.2739 100.26C48.7082 95.2895 51.7767 90.8145 53.6521 85.5362C54.3991 83.4282 56.9946 74.9473 56.9409 73.2436C56.8925 71.7017 52.4215 66.4395 52.1582 61.9215C51.954 58.3738 54.2809 55.1929 54.2809 53.3166C54.2809 51.9202 51.9003 47.3267 51.637 44.6848C50.3741 31.9986 55.4362 20.0942 66.9577 14.2336L66.4095 13.1499C63.9161 13.4303 60.7294 12.7671 58.3488 13.1499H58.3542ZM70.9128 67.6742C74.2016 77.0446 81.9398 89.4559 92.7251 90.27C112.764 91.7796 132.249 81.649 131.164 59.2527C130.723 50.1141 128.547 30.241 125.129 22.1753C123.302 17.8675 122.399 16.8754 117.461 16.3902C107.997 15.4575 97.5991 18.1532 86.8998 16.8593C85.6907 16.7137 81.0693 15.2202 80.6394 15.5437C79.5592 17.2151 80.3438 19.5335 80.1074 21.496C79.4034 27.432 76.3726 32.7103 74.9915 38.4684C73.5406 44.5285 73.202 51.2301 71.7618 57.3279C70.1067 60.6167 65.9904 53.5107 64.5556 52.2114C60.81 48.8201 56.0327 54.4542 55.4309 58.1959C53.9155 67.5825 60.7026 72.4726 69.3705 71.9119V67.5933L70.9074 67.6688L70.9128 67.6742ZM83.8905 91.8713C82.3859 96.3193 83.1274 101.43 78.5328 104.024C77.2754 104.735 70.6656 106.768 71.0042 108.272C71.0901 108.666 75.8728 113.308 76.6413 113.949C82.2838 118.694 95.2937 125.8 102.328 121.422C103.854 120.473 112.318 112.089 112.683 110.747C112.157 107.512 109.905 105.334 109.674 101.824C109.54 99.7914 111.324 93.327 111.044 92.9334C110.249 91.7958 102.194 93.8823 100.259 94.0117C94.4769 94.4053 89.3503 93.6882 83.8905 91.8713ZM73.6642 115.583C74.2607 115.044 68.7848 109.167 68.0217 108.585L64.5395 112.629C64.3514 113.815 64.7275 113.254 65.3133 113.432C68.0324 114.273 70.8859 114.952 73.6642 115.578V115.583ZM86.5667 124.21L76.5069 117.864C71.3212 119.325 61.385 111.167 60.8154 119.562C68.4623 123.886 77.8772 124.431 86.5721 124.21H86.5667ZM113.43 116.128C112.737 115.297 109.185 119.756 108.809 120.387C108.492 120.921 107.627 121.255 108.589 121.794C112.313 123.87 114.435 119.201 113.43 116.128ZM112.898 124.754C107.637 123.164 103.87 125.406 99.0339 126.21C89.8232 127.741 80.1342 128.124 70.9612 126.118C67.1458 125.282 63.7656 123.449 59.9986 122.565C59.4236 124.134 57.7255 128.803 59.1495 129.887C76.5768 134.054 94.3157 131.941 111.845 129.908L112.898 124.759V124.754ZM111.824 133.38C111.281 132.836 98.561 134.842 96.5028 134.993C91.1075 135.375 84.0786 135.828 78.7532 135.559C71.9661 135.214 64.792 133.424 58.0909 132.297L57.2418 139.888C57.6556 140.454 66.474 141.408 68.0056 141.489C74.4649 141.834 83.7401 142.314 90.0811 142.028C96.7285 141.732 103.268 139.651 109.937 139.845C110.991 142.95 103.618 143.721 101.253 144.072C92.725 145.344 80.9457 145.323 72.3315 144.697C67.3446 144.331 62.3738 142.794 57.3493 143.161L56.5594 143.986L55.8984 150.304C56.0542 150.865 65.5927 152.159 66.9523 152.245C77.2378 152.908 89.9199 151.464 100.2 150.029C102.011 149.776 109.481 148.709 110.26 147.722L111.818 133.38H111.824ZM110.211 151.706C92.279 153.879 73.6803 158.327 55.9468 152.784L55.4739 161.61L56.7421 162.495C74.6207 163.972 92.8648 161.497 109.878 156.079L110.211 151.706ZM29.3411 154.407C27.9869 154.725 27.5946 161.281 27.1916 163.039C24.8754 173.083 20.8827 182.373 21.5222 192.978C22.1617 203.583 27.471 212.808 30.2869 222.464C34.5752 237.188 35.435 254.754 35.0051 270.077C34.9621 271.554 32.9093 280.569 36.3216 279.485C37.031 279.258 37.0901 278.261 37.16 277.63C38.8097 263.008 36.988 238.208 33.1027 223.958C28.6801 207.745 21.4362 198.267 25.0367 180.281C26.2726 174.108 28.9165 167.773 30.0021 161.54C30.1901 160.467 31.6034 153.884 29.3464 154.407H29.3411ZM109.421 159.885C96.6855 163.541 83.337 164.684 70.1605 165.756L55.7479 164.166C54.1358 164.694 55.0386 169.795 54.9365 171.315L55.3664 171.962C67.2264 172.582 79.2744 172.194 91.0592 170.501C97.3519 169.595 103.457 167.487 109.696 167.104C110.555 166.468 110.604 160.09 109.421 159.885ZM132.292 270.81C133.523 271.263 134.119 271.721 134.399 270.06C134.764 267.888 134.42 263.855 134.415 261.407C134.41 255.956 134.109 250.306 134.399 244.72C135.775 218.135 142.057 191.673 139.767 164.921C136.72 161.168 137.602 165.088 137.645 167.05C138.37 199.567 130.186 232.099 131.68 263.607C131.793 266.011 132.529 268.351 132.287 270.805L132.292 270.81ZM54.8612 174.895V183.252C56.194 184.389 58.6928 184.503 60.4769 184.627C67.3016 185.096 76.163 184.336 82.9931 183.446C92.2038 182.249 100.813 180.017 109.362 176.475L110.12 175.623C110.442 174.679 110.271 170.151 109.341 170.01C91.6879 175.175 73.1537 175.159 54.8612 174.9V174.895ZM54.8612 186.756V196.461C68.2098 200.246 80.7683 198.736 93.832 194.854C97.3465 193.808 106.374 190.956 109.121 189.139C110.631 188.142 110.518 182.508 109.83 180.95C109.588 180.405 109.706 180.119 108.873 180.249C91.7685 186.988 73.0731 188.417 54.8559 186.756H54.8612ZM54.8612 198.618V207.514C56.4895 208.533 59.9395 208.764 62.089 208.888C74.5885 209.589 85.3898 207.735 97.0563 203.481C100.109 202.365 106.181 200.106 108.755 198.504C110.604 197.356 110.34 194.935 110.125 193.043L108.895 192.148C96.7876 197.744 81.526 202.424 68.0378 201.308C63.5614 200.936 59.3376 199 54.8612 198.623V198.618ZM54.8612 210.479V221.262C68.0163 223.909 80.3331 221.607 92.8916 217.634C95.6968 216.744 99.3671 215.579 101.979 214.35C103.494 213.633 108.341 210.851 109.174 209.708C110.007 208.565 109.803 201.836 109.4 201.842C92.3435 209.627 73.6319 214.711 54.8612 210.474V210.479ZM109.674 214.253C104.069 217.17 98.3138 219.51 92.2199 221.273C85.8627 223.111 75.5772 225.678 69.0965 225.618C64.5663 225.575 59.5365 223.429 54.8666 223.958V232.045C67.3123 235.204 79.656 233.463 91.8169 230.029C97.7442 228.357 104.628 225.953 109.679 222.61V214.253H109.674ZM109.137 227.726C108.406 227.015 99.797 230.983 98.1311 231.511C84.2721 235.905 69.0212 238.919 54.872 234.196L54.3292 241.744C58.6444 242.003 62.7392 243.966 67.0222 244.375C80.7898 245.696 97.325 241.07 109.443 234.735L109.137 227.726ZM110.125 249.212C110.394 248.155 110.324 238.299 109.416 238.52C104.456 240.65 99.2972 242.731 94.09 244.171C85.8896 246.44 74.841 248.414 66.474 247.082C62.4061 246.435 58.7358 244.462 54.6785 243.869C53.5447 244.133 53.5178 253.018 53.7811 254.425C53.9316 255.234 54.0229 255.277 54.6839 255.676C56.1026 256.544 62.4491 257.687 64.3353 257.854C74.8948 258.787 86.5828 255.978 96.7823 253.347C101.296 252.182 105.928 251.266 110.12 249.212H110.125ZM53.7865 258.463V267.09C64.792 269.931 75.0614 269.295 86.1421 267.473C90.9194 266.685 106.004 263.72 109.352 261.105C110.937 259.865 110.185 255.029 109.937 253.066C95.2669 256.819 78.5705 262.879 63.2659 260.55C60.047 260.059 57.0269 258.814 53.7865 258.469V258.463ZM109.674 264.933C105.182 265.99 100.856 267.505 96.3416 268.54C86.3678 270.826 74.4917 272.794 64.2761 271.937C60.9874 271.662 57.4675 269.942 54.5926 269.78C53.7005 269.732 53.7166 269.683 53.7811 270.594C53.8402 271.457 54.6463 276.552 54.9365 276.724C68.3334 277.49 82.5471 278.94 95.9063 277.269C100.426 276.703 105.794 275.765 109.679 273.295V264.939L109.674 264.933ZM153.196 274.638L151.568 274.875C150.386 275.738 151.568 278.336 151.617 279.733C151.697 282.337 151.509 284.968 151.595 287.572C152.885 287.728 153.503 287.561 153.745 286.224C153.997 284.806 153.825 275.037 153.202 274.633L153.196 274.638ZM110.211 277.328C107.31 277.84 104.768 279.167 101.726 279.868C87.7113 283.086 75.9534 280.725 62.1159 280.035C59.8857 279.922 57.6288 280.099 55.404 280.029C55.4094 281.237 55.1944 283.636 56.3122 284.38C57.1827 284.963 64.6362 287.049 66.1247 287.34C76.8132 289.411 87.8618 288.084 98.5073 286.343C102.312 285.723 105.928 283.518 109.679 284.893C110.969 286.86 104.714 288.667 103.349 289.049C93.0152 291.923 78.7209 292.57 68.1883 290.661C63.857 289.874 60.1222 288.138 55.9414 287.583L56.4465 294.786C64.2708 296.608 72.3422 297.428 80.4137 297.309L110.373 293.939L111.313 292.71L110.217 277.334L110.211 277.328ZM137.618 277.334C136.994 277.118 135.468 277.571 135.468 278.142V291.891H137.618V277.334ZM143.803 277.339C143.104 277.56 143.035 278.563 142.959 279.199C142.787 280.698 143.62 289.157 144.093 290.516C144.319 291.157 144.453 292.112 145.399 291.891C147.463 291.405 145.786 286.731 145.684 285.146C145.582 283.561 146.651 276.433 143.803 277.339ZM118.745 280.089L113.968 279.49C113.952 283.097 113.79 286.704 114.532 290.246L118.272 290.279L118.745 280.089ZM120.959 280.569V290.004C120.959 290.457 122.173 291.012 122.829 290.802C124.619 290.23 122.507 283.216 123.023 281.458L122.598 280.806L120.954 280.569H120.959ZM127.945 280.569C126.886 280.8 125.22 279.825 125.237 281.383C125.263 283.733 126.155 286.769 126.338 289.195C126.687 289.513 127.945 288.704 127.945 288.386V280.569ZM9.99539 282.186C8.3725 282.526 8.71105 294.01 8.64119 295.924C8.60895 296.845 8.08769 297.773 8.08232 298.652C8.0662 300.868 10.2157 301.196 10.7101 299.617C10.1996 294.581 12.1933 288.365 11.3335 283.534C11.2045 282.817 10.8283 282.013 10.0008 282.186H9.99539ZM20.4689 282.72H18.3248L17.1963 297.013C17.0727 299.212 18.2173 300.404 19.6575 298.35L20.4689 282.72ZM26.3747 284.343L24.7465 284.58C23.5642 285.448 24.7518 288.041 24.7948 289.438C24.8432 291.007 24.2198 298.069 25.5848 298.355C29.0186 299.072 26.5789 286.273 26.3747 284.343ZM36.0529 287.038C33.9733 286.294 33.8712 289.281 33.8604 291.077C33.8497 292.872 34.2366 295.681 34.7149 297.298C34.9997 298.258 34.817 298.56 36.0529 298.361V287.038ZM50.0248 288.925C49.6702 290.004 50.0248 295.309 50.0248 297.013C50.0248 297.094 50.6536 298.409 50.8255 298.355L53.7865 295.384L52.9965 288.095C52.4807 287.2 50.1645 288.499 50.0248 288.925ZM43.0389 298.361L42.4263 289.54C42.0447 288.386 40.3466 288.516 39.3471 288.731C38.5088 292.559 36.9772 299.606 43.0389 298.361ZM45.1884 289.195V298.091C49.3155 300.603 47.4293 297.525 47.3433 295.39C47.2573 293.255 47.3917 291.249 47.3379 289.19H45.1884V289.195Z" fill="black"/>
<path d="M70.9128 67.6742L69.3759 67.5987V71.9173C60.7079 72.4781 53.9208 67.588 55.4362 58.2014C56.0381 54.4596 60.8208 48.8255 64.561 52.2168C65.9958 53.5161 70.1067 60.6275 71.7672 57.3333C73.2074 51.2355 73.5459 44.5285 74.9969 38.4738C76.3779 32.7157 79.4088 27.432 80.1127 21.5014C80.3438 19.5389 79.5646 17.2151 80.6447 15.5492C81.08 15.2257 85.6961 16.7191 86.9052 16.8647C97.6044 18.1586 108.003 15.4629 117.466 16.3956C122.405 16.8809 123.313 17.8675 125.134 22.1807C128.552 30.2464 130.723 50.1195 131.169 59.2581C132.255 81.6598 112.769 91.785 92.7304 90.2754C81.9452 89.4667 74.2069 77.0501 70.9182 67.6796L70.9128 67.6742ZM119.879 27.7016C119.879 18.0077 108.47 21.6901 105.466 28.0628C104.918 29.222 104.381 31.5673 106.176 30.3974C108.981 28.5696 112.726 23.7173 116.531 25.3671C117.681 25.8631 117.751 28.3001 119.879 27.7016ZM91.8599 32.0957C89.3073 31.0336 87.1524 31.0713 84.9868 32.8613C83.9765 33.697 77.0927 41.9567 77.9686 42.7978C83.998 42.3611 84.89 32.5647 91.9405 34.1714L91.8599 32.0957ZM122.034 31.4811C118.847 33.0122 116.66 31.2223 113.409 32.7966C110.566 34.1768 108.954 37.5088 106.692 39.5521C105.45 39.8217 105.241 36.6461 103.231 37.4171C101.914 44.9922 116.316 47.634 112.377 54.9503C111.721 56.1688 106.283 60.8809 108.922 61.6465C111.861 62.4984 117.24 56.282 117.149 52.8314C116.993 46.9008 111.152 45.4828 108.083 41.4931C108.212 40.9324 114.097 35.8913 114.774 35.7835C115.897 35.6002 115.44 35.9937 115.644 36.5491C116.23 38.1396 116.037 42.0538 118.541 42.0754C120.717 42.0969 120.277 39.4605 120.835 38.0964C121.942 35.4061 122.91 35.1688 122.034 31.4811ZM97.2551 41.8058C97.0563 41.547 95.9439 41.5632 95.7344 40.8569C95.5624 40.2746 96.9166 37.5303 95.4334 37.4225C94.6811 37.3686 93.9395 39.11 93.069 39.3311C88.4367 40.5226 87.9155 38.3444 84.1807 43.3747C83.5143 44.2751 79.8225 50.8312 83.3478 49.0088C85.997 47.6394 87.3835 41.5901 91.9351 42.8032C90.9463 44.9544 92.1877 50.6047 95.3098 49.7313C98.0344 48.9657 96.7178 46.491 96.7178 44.6902C96.7178 43.8653 97.4379 42.0484 97.2551 41.8112V41.8058ZM59.1603 56.8265C58.2199 58.1367 63.5453 59.5816 64.2654 61.1451C65.0661 62.8974 62.5458 67.588 65.625 66.8278C72.5034 65.1348 64.5771 53.5485 59.1603 56.8211V56.8265ZM115.58 64.9084C109.174 66.1323 106.176 70.6072 98.9425 67.8521C96.8091 67.038 95.9439 65.1672 95.3474 64.9569C92.4133 63.9325 90.8227 69.7014 91.4031 71.912C93.6225 72.7854 93.789 69.2809 94.407 69.1785C97.4217 69.9441 100.334 71.8257 103.521 71.9281C107.025 72.036 115.617 69.2162 115.58 64.9084Z" fill="white"/>
<path d="M83.8901 91.8712C89.3499 93.6935 94.4765 94.4052 100.259 94.0116C102.193 93.8822 110.243 91.7903 111.044 92.9333C111.323 93.3323 109.539 99.7967 109.674 101.824C109.91 105.334 112.156 107.512 112.683 110.747C112.318 112.089 103.854 120.473 102.328 121.422C95.2933 125.795 82.2834 118.694 76.6409 113.949C75.8724 113.302 71.0897 108.66 71.0038 108.272C70.6652 106.768 77.275 104.735 78.5325 104.024C83.1271 101.43 82.3855 96.3192 83.8901 91.8712Z" fill="white"/>
<path d="M111.823 133.38L110.265 147.722C109.485 148.708 102.016 149.776 100.205 150.029C89.9249 151.464 77.2427 152.908 66.9572 152.245C65.5977 152.159 56.0592 150.865 55.9033 150.304L56.5643 143.986L57.3542 143.161C62.3788 142.794 67.3495 144.336 72.3364 144.697C80.956 145.328 92.73 145.344 101.258 144.072C103.623 143.721 110.996 142.95 109.942 139.845C103.273 139.645 96.7335 141.732 90.0861 142.028C83.745 142.314 74.4698 141.834 68.0105 141.489C66.4843 141.408 57.6606 140.454 57.2468 139.888L58.0958 132.297C64.7916 133.424 71.971 135.214 78.7581 135.559C84.0835 135.828 91.1125 135.375 96.5078 134.993C98.5659 134.847 111.286 132.836 111.828 133.38H111.823Z" fill="white"/>
<path d="M110.212 277.328L111.308 292.705L110.367 293.934L80.4084 297.304C72.337 297.422 64.2655 296.603 56.4413 294.78L55.9362 287.577C60.117 288.133 63.8518 289.874 68.183 290.656C78.7157 292.565 93.0046 291.918 103.344 289.044C104.709 288.666 110.964 286.855 109.674 284.887C105.923 283.512 102.307 285.717 98.502 286.337C87.8565 288.079 76.808 289.411 66.1195 287.335C64.631 287.049 57.1775 284.957 56.3069 284.375C55.1946 283.631 55.4095 281.232 55.3988 280.024C57.6235 280.094 59.8805 279.921 62.1107 280.029C75.9482 280.719 87.7061 283.081 101.721 279.862C104.768 279.161 107.31 277.835 110.206 277.323L110.212 277.328Z" fill="white"/>
<path d="M110.125 249.212C105.934 251.271 101.296 252.182 96.7875 253.347C86.588 255.978 74.9 258.787 64.3405 257.854C62.4489 257.687 56.1078 256.549 54.6891 255.676C54.0335 255.272 53.9368 255.234 53.7863 254.425C53.523 253.018 53.5499 244.133 54.6838 243.869C58.741 244.462 62.4113 246.435 66.4793 247.082C74.8463 248.414 85.9002 246.44 94.0952 244.171C99.3024 242.731 104.461 240.645 109.421 238.52C110.329 238.299 110.399 248.155 110.131 249.212H110.125Z" fill="white"/>
<path d="M54.8613 186.756C73.0785 188.412 91.7686 186.988 108.879 180.249C109.706 180.119 109.593 180.405 109.835 180.95C110.523 182.508 110.631 188.142 109.126 189.139C106.38 190.956 97.352 193.808 93.8375 194.854C80.7738 198.742 68.2152 200.251 54.8667 196.461V186.756H54.8613Z" fill="white"/>
<path d="M54.8613 210.479C73.6266 214.717 92.3436 209.633 109.4 201.847C109.803 201.842 110.002 208.576 109.174 209.713C108.347 210.851 103.494 213.638 101.979 214.355C99.3671 215.585 95.6915 216.749 92.8917 217.639C80.3331 221.612 68.0164 223.915 54.8613 221.267V210.484V210.479Z" fill="white"/>
<path d="M54.8613 174.895C73.1484 175.154 91.688 175.17 109.341 170.005C110.271 170.145 110.443 174.674 110.12 175.617L109.362 176.469C100.813 180.012 92.2039 182.244 82.9932 183.441C76.1577 184.33 67.3017 185.09 60.477 184.621C58.6875 184.497 56.1887 184.384 54.8613 183.246V174.89V174.895Z" fill="white"/>
<path d="M109.674 214.253V222.61C104.628 225.952 97.7389 228.357 91.8116 230.028C79.6453 233.463 67.3017 235.199 54.8613 232.045V223.958C59.5312 223.429 64.5664 225.575 69.0912 225.618C75.572 225.678 85.8574 223.111 92.2146 221.273C98.3085 219.51 104.064 217.17 109.669 214.253H109.674Z" fill="white"/>
<path d="M53.7861 258.463C57.0212 258.814 60.0412 260.059 63.2655 260.544C78.5701 262.874 95.2665 256.814 109.937 253.061C110.184 255.024 110.936 259.86 109.351 261.1C106.003 263.715 90.9191 266.685 86.1418 267.467C75.061 269.289 64.7917 269.926 53.7861 267.084V258.458V258.463Z" fill="white"/>
<path d="M109.136 227.727L109.443 234.735C97.3249 241.07 80.7897 245.691 67.022 244.375C62.7391 243.966 58.6496 241.998 54.3291 241.744L54.8719 234.196C69.0211 238.925 84.2773 235.905 98.131 231.511C99.7968 230.983 108.406 227.015 109.136 227.727Z" fill="white"/>
<path d="M54.8613 198.618C59.3377 198.995 63.5615 200.936 68.0379 201.303C81.5261 202.419 96.7877 197.739 108.895 192.142L110.125 193.037C110.335 194.93 110.604 197.351 108.755 198.499C106.181 200.1 100.109 202.359 97.0564 203.475C85.3953 207.729 74.5886 209.584 62.0891 208.883C59.9396 208.764 56.4896 208.527 54.8613 207.508V198.612V198.618Z" fill="white"/>
<path d="M109.674 264.933V273.29C105.788 275.759 100.425 276.697 95.9006 277.264C82.5414 278.94 68.333 277.485 54.9308 276.719C54.6406 276.541 53.8345 271.451 53.7754 270.589C53.7109 269.678 53.6948 269.726 54.5869 269.775C57.4618 269.936 60.9817 271.651 64.2704 271.931C74.486 272.794 86.3621 270.821 96.3359 268.535C100.85 267.499 105.176 265.984 109.668 264.928L109.674 264.933Z" fill="white"/>
<path d="M109.421 159.885C110.598 160.085 110.555 166.468 109.695 167.104C103.456 167.487 97.3518 169.601 91.0591 170.501C79.2744 172.194 67.2263 172.582 55.3663 171.962L54.9364 171.315C55.0332 169.795 54.1357 164.694 55.7479 164.166L70.1604 165.756C83.337 164.684 96.6855 163.546 109.421 159.885Z" fill="white"/>
<path d="M110.211 151.706L109.878 156.079C92.8645 161.492 74.6205 163.972 56.7418 162.495L55.4736 161.61L55.9465 152.784C73.6801 158.327 92.2842 153.879 110.211 151.706Z" fill="white"/>
<path d="M29.3409 154.407C31.5979 153.879 30.1792 160.462 29.9965 161.54C28.911 167.773 26.2671 174.108 25.0311 180.281C21.4306 198.273 28.6745 207.745 33.0972 223.958C36.9824 238.207 38.8041 263.008 37.1544 277.63C37.0845 278.261 37.0308 279.258 36.3161 279.485C32.9037 280.569 34.9565 271.554 34.9995 270.077C35.4294 254.759 34.575 237.188 30.2813 222.464C27.4654 212.808 22.14 203.244 21.5166 192.978C20.8933 182.713 24.8699 173.083 27.186 163.039C27.589 161.281 27.9813 154.725 29.3355 154.407H29.3409Z" fill="white"/>
<path d="M112.899 124.754L111.845 129.903C94.316 131.936 76.5771 134.049 59.1498 129.881C57.7258 128.798 59.4239 124.129 59.9989 122.56C63.7713 123.449 67.146 125.282 70.9614 126.113C80.1345 128.113 89.8235 127.73 99.0342 126.204C103.871 125.401 107.638 123.164 112.899 124.749V124.754Z" fill="white"/>
<path d="M132.292 270.81C132.534 268.351 131.798 266.017 131.685 263.612C130.191 232.099 138.37 199.572 137.65 167.056C137.607 165.093 136.725 161.174 139.772 164.926C142.061 191.679 135.78 218.14 134.404 244.726C134.114 250.311 134.415 255.962 134.42 261.413C134.42 263.86 134.769 267.893 134.404 270.066C134.124 271.726 133.528 271.268 132.297 270.815L132.292 270.81Z" fill="white"/>
<path d="M86.5662 124.21C77.8768 124.436 68.4565 123.886 60.8096 119.562C61.3792 111.167 71.3153 119.325 76.5011 117.864L86.5608 124.21H86.5662Z" fill="white"/>
<path d="M118.744 280.089L118.272 290.279L114.531 290.246C113.79 286.704 113.951 283.097 113.967 279.49L118.744 280.089Z" fill="white"/>
<path d="M9.99564 282.186C10.8232 282.013 11.1994 282.817 11.3283 283.534C12.1881 288.365 10.1945 294.581 10.705 299.617C10.216 301.196 8.06644 300.868 8.07719 298.652C8.08256 297.773 8.60382 296.846 8.63606 295.924C8.70592 294.01 8.37275 282.52 9.99026 282.186H9.99564Z" fill="white"/>
<path d="M20.4683 282.72L19.6569 298.35C18.2167 300.404 17.0721 299.212 17.1957 297.013L18.3242 282.72H20.4683Z" fill="white"/>
<path d="M43.0386 298.36C36.9769 299.606 38.5085 292.554 39.3468 288.731C40.3517 288.516 42.0444 288.386 42.426 289.54L43.0386 298.36Z" fill="white"/>
<path d="M143.803 277.339C146.651 276.433 145.582 283.555 145.684 285.146C145.786 286.736 147.463 291.405 145.399 291.891C144.454 292.112 144.319 291.157 144.094 290.516C143.615 289.157 142.788 280.703 142.96 279.199C143.03 278.557 143.099 277.56 143.803 277.339Z" fill="white"/>
<path d="M26.3744 284.343C26.5786 286.273 29.0183 299.072 25.5844 298.355C24.2195 298.069 24.8428 291.012 24.7945 289.438C24.7515 288.041 23.5639 285.442 24.7461 284.58L26.3744 284.343Z" fill="white"/>
<path d="M50.0248 288.925C50.1645 288.5 52.486 287.2 52.9965 288.095L53.7865 295.384L50.8255 298.355C50.6536 298.409 50.0248 297.094 50.0248 297.013C50.0248 295.309 49.6701 290.004 50.0248 288.925Z" fill="white"/>
<path d="M137.617 277.334V291.891H135.468V278.142C135.468 277.571 136.994 277.118 137.617 277.334Z" fill="white"/>
<path d="M73.6638 115.583C70.8909 114.958 68.032 114.278 65.3129 113.437C64.7271 113.254 64.351 113.815 64.539 112.634L68.0213 108.59C68.7843 109.173 74.2549 115.049 73.6638 115.589V115.583Z" fill="white"/>
<path d="M153.196 274.638C153.82 275.037 153.997 284.812 153.739 286.23C153.502 287.561 152.879 287.729 151.589 287.578C151.498 284.979 151.691 282.342 151.611 279.738C151.568 278.342 150.38 275.743 151.563 274.881L153.191 274.643L153.196 274.638Z" fill="white"/>
<path d="M120.959 280.569L122.603 280.806L123.028 281.458C122.507 283.216 124.624 290.23 122.834 290.802C122.179 291.012 120.964 290.457 120.964 290.004V280.569H120.959Z" fill="white"/>
<path d="M45.1885 289.195H47.338C47.3971 291.249 47.2628 293.33 47.3434 295.39C47.424 297.449 49.3156 300.603 45.1885 298.091V289.195Z" fill="white"/>
<path d="M36.0531 287.038V298.361C34.8225 298.56 34.9998 298.258 34.715 297.298C34.2367 295.681 33.8498 292.78 33.8606 291.077C33.8713 289.281 33.9734 286.294 36.0531 287.038Z" fill="white"/>
<path d="M127.945 280.569V288.386C127.945 288.704 126.687 289.508 126.338 289.195C126.155 286.774 125.263 283.739 125.236 281.383C125.22 279.825 126.881 280.8 127.945 280.569Z" fill="white"/>
<path d="M113.43 116.128C114.435 119.201 112.312 123.87 108.588 121.794C107.626 121.255 108.492 120.921 108.809 120.387C109.185 119.756 112.737 115.303 113.43 116.128Z" fill="white"/>
<path d="M122.034 31.481C122.904 35.1634 121.942 35.406 120.835 38.0963C120.277 39.455 120.717 42.0968 118.541 42.0753C116.037 42.0483 116.23 38.1395 115.644 36.549C115.44 35.9936 115.897 35.6001 114.774 35.7834C114.097 35.8912 108.212 40.9323 108.083 41.493C111.152 45.4773 116.993 46.9007 117.149 52.8313C117.24 56.2819 111.861 62.4983 108.922 61.6464C106.278 60.8808 111.722 56.1687 112.377 54.9502C116.316 47.6285 101.914 44.9867 103.231 37.417C105.235 36.6514 105.45 39.827 106.692 39.552C108.954 37.5141 110.566 34.1767 113.409 32.7965C116.66 31.2168 118.847 33.0121 122.034 31.481Z" fill="black"/>
<path d="M97.2553 41.8057C97.438 42.0429 96.7179 43.8598 96.7179 44.6847C96.7179 46.4855 98.0398 48.9602 95.3099 49.7258C92.1878 50.6046 90.9464 44.9543 91.9352 42.7977C87.3836 41.59 85.9972 47.6393 83.3479 49.0033C79.8227 50.8203 83.5145 44.2642 84.1808 43.3692C87.9156 38.3389 88.4369 40.5171 93.0691 39.3256C93.9396 39.1045 94.6812 37.3631 95.4335 37.417C96.9113 37.5248 95.5571 40.2691 95.7345 40.8514C95.9441 41.5577 97.0564 41.5415 97.2553 41.8003V41.8057Z" fill="black"/>
<path d="M115.579 64.9083C115.617 69.2161 107.024 72.0359 103.521 71.928C100.328 71.8256 97.4213 69.944 94.4065 69.1784C93.7939 69.2808 93.622 72.7853 91.4026 71.9119C90.8222 69.7067 92.4129 63.9378 95.347 64.9568C95.9435 65.1617 96.8033 67.0379 98.942 67.852C106.175 70.6071 109.174 66.1322 115.579 64.9083Z" fill="black"/>
<path d="M119.879 27.7015C117.756 28.3 117.681 25.863 116.531 25.367C112.721 23.7172 108.976 28.5696 106.176 30.3973C104.381 31.5672 104.918 29.2219 105.467 28.0628C108.476 21.6846 119.879 18.0022 119.879 27.7015Z" fill="black"/>
<path d="M91.8597 32.0956L91.9403 34.1713C84.8899 32.5646 83.9978 42.361 77.9684 42.7977C77.0925 41.9566 83.9763 33.6969 84.9866 32.8612C87.1469 31.0766 89.3071 31.0389 91.8597 32.0956Z" fill="black"/>
<path d="M59.1597 56.8265C64.5765 53.5538 72.5028 65.1402 65.6244 66.8331C62.5452 67.5879 65.0655 62.9027 64.2648 61.1504C63.5501 59.5869 58.2193 58.1366 59.1597 56.8319V56.8265Z" fill="black"/>
</g>
<defs>
<clipPath id="clip0_255_2517">
<rect width="159" height="304" fill="white"/>
</clipPath>
</defs>
</svg>
