<svg width="101" height="100" viewBox="0 0 101 100" fill="none" xmlns="http://www.w3.org/2000/svg">
<g clip-path="url(#clip0_59_1592)">
<path d="M95.5625 12.5H87.6703C87.491 11.617 87.0119 10.8231 86.3143 10.2528C85.6166 9.6826 84.7432 9.37109 83.8422 9.37109C82.9411 9.37109 82.0678 9.6826 81.3701 10.2528C80.6724 10.8231 80.1934 11.617 80.0141 12.5H76.7328C76.5535 11.617 76.0744 10.8231 75.3768 10.2528C74.6791 9.6826 73.8057 9.37109 72.9047 9.37109C72.0036 9.37109 71.1303 9.6826 70.4326 10.2528C69.7349 10.8231 69.2559 11.617 69.0766 12.5H31.4203C31.241 11.617 30.7619 10.8231 30.0643 10.2528C29.3666 9.6826 28.4932 9.37109 27.5922 9.37109C26.6911 9.37109 25.8178 9.6826 25.1201 10.2528C24.4224 10.8231 23.9434 11.617 23.7641 12.5H20.4828C20.3035 11.617 19.8244 10.8231 19.1268 10.2528C18.4291 9.6826 17.5557 9.37109 16.6547 9.37109C15.7536 9.37109 14.8803 9.6826 14.1826 10.2528C13.4849 10.8231 13.0059 11.617 12.8266 12.5H4.9375C3.6943 12.5 2.50201 12.9939 1.62294 13.8729C0.74386 14.752 0.25 15.9443 0.25 17.1875L0.25 85.9375C0.25 87.1807 0.74386 88.373 1.62294 89.2521C2.50201 90.1312 3.6943 90.625 4.9375 90.625H95.5625C96.8057 90.625 97.998 90.1312 98.8771 89.2521C99.7561 88.373 100.25 87.1807 100.25 85.9375V17.1875C100.25 15.9443 99.7561 14.752 98.8771 13.8729C97.998 12.9939 96.8057 12.5 95.5625 12.5ZM8.0625 81.25C6.8193 81.25 5.62701 80.7561 4.74794 79.8771C3.86886 78.998 3.375 77.8057 3.375 76.5625V28.125H97.125V60.9375C97.125 64.925 93.0047 67.3844 89.3125 68.3188V35.9375C89.3125 35.5231 89.1479 35.1257 88.8549 34.8327C88.5618 34.5396 88.1644 34.375 87.75 34.375H12.75C12.3356 34.375 11.9382 34.5396 11.6451 34.8327C11.3521 35.1257 11.1875 35.5231 11.1875 35.9375V73.4375C11.1875 73.8519 11.3521 74.2493 11.6451 74.5424C11.9382 74.8354 12.3356 75 12.75 75H83.7094C82.5375 78.2016 80.2422 81.25 76.8125 81.25H8.0625ZM73.6875 71.875H64.3125V62.5H73.6875V71.875ZM61.1875 71.875H51.8125V62.5H61.1875V71.875ZM48.6875 71.875H39.3125V62.5H48.6875V71.875ZM36.1875 71.875H26.8125V62.5H36.1875V71.875ZM23.6875 71.875H14.3125V62.5H23.6875V71.875ZM26.8125 37.5H36.1875V46.875H26.8125V37.5ZM39.3125 37.5H48.6875V46.875H39.3125V37.5ZM51.8125 37.5H61.1875V46.875H51.8125V37.5ZM64.3125 37.5H73.6875V46.875H64.3125V37.5ZM76.8125 37.5H86.1875V46.875H76.8125V37.5ZM14.3125 50H23.6875V59.375H14.3125V50ZM26.8125 50H36.1875V59.375H26.8125V50ZM39.3125 50H48.6875V59.375H39.3125V50ZM51.8125 50H61.1875V59.375H51.8125V50ZM64.3125 50H73.6875V59.375H64.3125V50ZM76.8125 50H86.1875V59.375H76.8125V50ZM23.6875 46.875H14.3125V37.5H23.6875V46.875ZM76.8125 62.5H86.1875V68.75C85.7731 68.75 85.3757 68.9146 85.0826 69.2077C84.7896 69.5007 84.625 69.8981 84.625 70.3125C84.6215 70.8355 84.5818 71.3575 84.5062 71.875H76.8125V62.5ZM87.6688 71.7938C90.9462 71.4434 94.0547 70.1616 96.6266 68.1C95.8794 71.1669 94.3038 73.9694 92.0718 76.2015C89.8397 78.4335 87.0372 80.0091 83.9703 80.7563C86.0344 78.1836 87.3179 75.0733 87.6688 71.7938ZM83.0625 13.2813C83.0625 13.0741 83.1448 12.8753 83.2913 12.7288C83.4378 12.5823 83.6366 12.5 83.8438 12.5C84.0509 12.5 84.2497 12.5823 84.3962 12.7288C84.5427 12.8753 84.625 13.0741 84.625 13.2813V17.9688C84.625 18.176 84.5427 18.3747 84.3962 18.5212C84.2497 18.6677 84.0509 18.75 83.8438 18.75C83.6366 18.75 83.4378 18.6677 83.2913 18.5212C83.1448 18.3747 83.0625 18.176 83.0625 17.9688V13.2813ZM72.125 13.2813C72.125 13.0741 72.2073 12.8753 72.3538 12.7288C72.5003 12.5823 72.6991 12.5 72.9062 12.5C73.1134 12.5 73.3122 12.5823 73.4587 12.7288C73.6052 12.8753 73.6875 13.0741 73.6875 13.2813V17.9688C73.6875 18.176 73.6052 18.3747 73.4587 18.5212C73.3122 18.6677 73.1134 18.75 72.9062 18.75C72.6991 18.75 72.5003 18.6677 72.3538 18.5212C72.2073 18.3747 72.125 18.176 72.125 17.9688V13.2813ZM26.8125 13.2813C26.8125 13.0741 26.8948 12.8753 27.0413 12.7288C27.1878 12.5823 27.3865 12.5 27.5938 12.5C27.801 12.5 27.9997 12.5823 28.1462 12.7288C28.2927 12.8753 28.375 13.0741 28.375 13.2813V17.9688C28.375 18.176 28.2927 18.3747 28.1462 18.5212C27.9997 18.6677 27.801 18.75 27.5938 18.75C27.3865 18.75 27.1878 18.6677 27.0413 18.5212C26.8948 18.3747 26.8125 18.176 26.8125 17.9688V13.2813ZM15.875 13.2813C15.875 13.0741 15.9573 12.8753 16.1038 12.7288C16.2503 12.5823 16.449 12.5 16.6562 12.5C16.8635 12.5 17.0622 12.5823 17.2087 12.7288C17.3552 12.8753 17.4375 13.0741 17.4375 13.2813V17.9688C17.4375 18.176 17.3552 18.3747 17.2087 18.5212C17.0622 18.6677 16.8635 18.75 16.6562 18.75C16.449 18.75 16.2503 18.6677 16.1038 18.5212C15.9573 18.3747 15.875 18.176 15.875 17.9688V13.2813ZM3.375 17.1875C3.375 16.7731 3.53962 16.3757 3.83265 16.0827C4.12567 15.7896 4.5231 15.625 4.9375 15.625H12.75V17.9688C12.75 19.0048 13.1616 19.9983 13.8941 20.7309C14.6267 21.4635 15.6202 21.875 16.6562 21.875C17.6923 21.875 18.6858 21.4635 19.4184 20.7309C20.1509 19.9983 20.5625 19.0048 20.5625 17.9688V15.625H23.6875V17.9688C23.6875 19.0048 24.0991 19.9983 24.8316 20.7309C25.5642 21.4635 26.5577 21.875 27.5938 21.875C28.6298 21.875 29.6233 21.4635 30.3559 20.7309C31.0884 19.9983 31.5 19.0048 31.5 17.9688V15.625H69V17.9688C69 19.0048 69.4115 19.9983 70.1441 20.7309C70.8767 21.4635 71.8702 21.875 72.9062 21.875C73.9423 21.875 74.9358 21.4635 75.6684 20.7309C76.401 19.9983 76.8125 19.0048 76.8125 17.9688V15.625H79.9375V17.9688C79.9375 19.0048 80.349 19.9983 81.0816 20.7309C81.8142 21.4635 82.8077 21.875 83.8438 21.875C84.8798 21.875 85.8733 21.4635 86.6059 20.7309C87.3385 19.9983 87.75 19.0048 87.75 17.9688V15.625H95.5625C95.9769 15.625 96.3743 15.7896 96.6674 16.0827C96.9604 16.3757 97.125 16.7731 97.125 17.1875V25H3.375V17.1875ZM97.125 85.9375C97.125 86.3519 96.9604 86.7493 96.6674 87.0424C96.3743 87.3354 95.9769 87.5 95.5625 87.5H4.9375C4.5231 87.5 4.12567 87.3354 3.83265 87.0424C3.53962 86.7493 3.375 86.3519 3.375 85.9375V82.7719C4.71936 83.806 6.36645 84.3693 8.0625 84.375H79.9375C83.375 84.3714 86.7553 83.4949 89.7615 81.8278C92.7677 80.1608 95.3014 77.7577 97.125 74.8438V85.9375Z" fill="#151516"/>
</g>
<defs>
<clipPath id="clip0_59_1592">
<rect width="100" height="100" fill="white" transform="translate(0.25)"/>
</clipPath>
</defs>
</svg>
