<svg width="101" height="100" viewBox="0 0 101 100" fill="none" xmlns="http://www.w3.org/2000/svg">
<path d="M97.625 14.0625V4.6875C97.625 4.2731 97.4604 3.87567 97.1674 3.58265C96.8743 3.28962 96.4769 3.125 96.0625 3.125H77.3125C77.0751 3.12513 76.8408 3.17937 76.6274 3.2836C76.4141 3.38784 76.2273 3.53933 76.0813 3.72656L66.7891 15.625C65.8129 15.2282 64.734 15.1604 63.7159 15.4321C62.6978 15.7038 61.7961 16.3001 61.1475 17.1305C60.4989 17.9609 60.1388 18.9802 60.1217 20.0338C60.1047 21.0874 60.4317 22.1178 61.0531 22.9688L58.3859 26.3844C57.8314 27.0844 57.1933 27.7141 56.4859 28.2594C56.3953 28.2391 56.3078 28.2094 56.2141 28.1938C55.0671 28.0004 53.8892 28.2397 52.9086 28.8653C51.928 29.4908 51.2144 30.4581 50.9062 31.5797C50.3098 31.3604 49.6753 31.2636 49.0406 31.2953C48.9352 31.2157 48.8196 31.1505 48.6969 31.1016L46.7766 30.4766C46.0873 30.2528 45.3574 30.1829 44.6383 30.2718C43.9191 30.3606 43.2282 30.606 42.6141 30.9906L37.0203 28.4687C35.8886 27.9552 34.852 27.2536 33.9547 26.3938C34.6986 25.5366 35.118 24.4455 35.1396 23.3108C35.1612 22.176 34.7836 21.0697 34.0728 20.185C33.3619 19.3002 32.363 18.6931 31.2502 18.4697C30.1375 18.2463 28.9816 18.4207 27.9844 18.9625L16.0422 3.72344C15.896 3.53698 15.7093 3.38622 15.4963 3.28254C15.2833 3.17886 15.0494 3.12499 14.8125 3.125H5.4375C5.0231 3.125 4.62568 3.28962 4.33265 3.58265C4.03962 3.87567 3.875 4.2731 3.875 4.6875V28.125C3.87421 28.4708 3.98918 28.8068 4.20157 29.0797L9.11875 35.4453C8.68005 36.2656 8.48781 37.1952 8.56518 38.1222C8.64255 39.0492 8.98624 39.934 9.55485 40.6702C10.1235 41.4064 10.8928 41.9626 11.7701 42.2717C12.6475 42.5808 13.5955 42.6297 14.5 42.4125L15.125 43.2156C15.9097 44.2318 16.51 45.3778 16.8984 46.6016L18.5984 51.975C19.0537 53.4166 19.7397 54.7749 20.6297 55.9969L21.6516 57.4031L20.0609 57.8953C19.5498 56.8977 18.7033 56.1124 17.6702 55.6775C16.6371 55.2426 15.4837 55.186 14.413 55.5177C13.3423 55.8494 12.423 56.5481 11.8167 57.4909C11.2104 58.4337 10.9561 59.5601 11.0984 60.6719L4.96875 62.5703C4.6513 62.6701 4.37402 62.8687 4.17729 63.1371C3.98055 63.4055 3.87465 63.7297 3.875 64.0625V89.0625C3.87491 89.3153 3.93615 89.5643 4.05346 89.7882C4.17078 90.0121 4.34067 90.2043 4.54856 90.3481C4.75645 90.4919 4.99612 90.5831 5.24702 90.6139C5.49792 90.6448 5.75255 90.6142 5.98907 90.525L19.7047 85.3688C20.1515 85.8427 20.6899 86.2209 21.2872 86.4806C21.8845 86.7403 22.5284 86.8761 23.1797 86.8797C23.5664 86.8794 23.9515 86.8317 24.3266 86.7375C25.3328 86.4933 26.2304 85.9239 26.8802 85.1177C27.5299 84.3114 27.8955 83.3133 27.9203 82.2781L36.1234 79.1922C37.3857 78.7371 38.7161 78.4999 40.0578 78.4906L42.2844 78.5078C41.853 79.0937 41.5652 79.7728 41.4443 80.4902C41.3234 81.2077 41.3727 81.9436 41.5883 82.6385C41.8039 83.3334 42.1797 83.968 42.6854 84.4911C43.1912 85.0142 43.8127 85.4111 44.5 85.65V95.3125C44.5 95.7269 44.6646 96.1243 44.9576 96.4174C45.2507 96.7104 45.6481 96.875 46.0625 96.875H67.9375C68.3519 96.875 68.7493 96.7104 69.0424 96.4174C69.3354 96.1243 69.5 95.7269 69.5 95.3125V85.65C70.4134 85.3318 71.205 84.7373 71.7653 83.9488C72.3255 83.1604 72.6265 82.2172 72.6265 81.25C72.6265 80.2828 72.3255 79.3396 71.7653 78.5512C71.205 77.7627 70.4134 77.1682 69.5 76.85V70.7812C69.5053 69.6903 69.6744 68.6064 70.0016 67.5656L82 71.0172C82.0034 72.0593 82.354 73.0705 82.9963 73.8911C83.6386 74.7117 84.5361 75.2949 85.5469 75.5484C85.922 75.6421 86.3072 75.6893 86.6938 75.6891C87.4815 75.6969 88.2576 75.4993 88.9456 75.1157C89.6336 74.7321 90.2098 74.1758 90.6172 73.5016L95.6281 74.9437C95.8613 75.0112 96.107 75.0235 96.3457 74.9795C96.5845 74.9355 96.8097 74.8364 97.0034 74.6903C97.1972 74.5441 97.3543 74.3548 97.4622 74.1373C97.5701 73.9198 97.6258 73.6802 97.625 73.4375V51.5625C97.6249 51.234 97.5212 50.914 97.3288 50.6478C97.1364 50.3816 96.865 50.1828 96.5531 50.0797L91.2578 48.325C91.0914 47.5497 90.7306 46.8295 90.2093 46.232C89.6879 45.6345 89.0233 45.1794 88.2777 44.9094C87.5321 44.6394 86.7301 44.5634 85.9471 44.6886C85.1641 44.8138 84.4258 45.136 83.8016 45.625C83.7359 45.6781 83.6875 45.7453 83.6234 45.8L79.0438 44.2828L79.2328 42.5469C79.3637 41.3677 79.6873 40.2181 80.1906 39.1437C81.2002 39.5129 82.3039 39.5357 83.3279 39.2086C84.3519 38.8815 85.2379 38.223 85.8466 37.3369C86.4552 36.4509 86.7517 35.3875 86.6896 34.3144C86.6274 33.2412 86.21 32.2192 85.5031 31.4094L97.3313 14.9797C97.5239 14.7128 97.6267 14.3916 97.625 14.0625ZM50.75 35.9375V54.6875C50.75 55.1019 50.9146 55.4993 51.2076 55.7924C51.5007 56.0854 51.8981 56.25 52.3125 56.25C52.7269 56.25 53.1243 56.0854 53.4174 55.7924C53.7104 55.4993 53.875 55.1019 53.875 54.6875V32.8125C53.8749 32.5841 53.9249 32.3585 54.0214 32.1515C54.1179 31.9445 54.2587 31.7611 54.4337 31.6144C54.6087 31.4677 54.8138 31.3611 55.0345 31.3022C55.2552 31.2433 55.4861 31.2335 55.7109 31.2734C56.0894 31.366 56.4243 31.5863 56.6591 31.8971C56.894 32.208 57.0144 32.5904 57 32.9797V54.6875C57 55.1019 57.1646 55.4993 57.4576 55.7924C57.7507 56.0854 58.1481 56.25 58.5625 56.25C58.9769 56.25 59.3743 56.0854 59.6674 55.7924C59.9604 55.4993 60.125 55.1019 60.125 54.6875V35.9375C60.1249 35.7107 60.1742 35.4865 60.2694 35.2806C60.3647 35.0748 60.5036 34.8921 60.6766 34.7453C60.8514 34.5957 61.0574 34.4869 61.2796 34.4269C61.5018 34.3669 61.7345 34.3572 61.9609 34.3984C62.3394 34.491 62.6743 34.7113 62.9091 35.0221C63.144 35.333 63.2644 35.7154 63.25 36.1047V54.6875C63.25 55.1019 63.4146 55.4993 63.7076 55.7924C64.0007 56.0854 64.3981 56.25 64.8125 56.25C65.2269 56.25 65.6243 56.0854 65.9174 55.7924C66.2104 55.4993 66.375 55.1019 66.375 54.6875V39.0625C66.3749 38.8357 66.4242 38.6115 66.5194 38.4056C66.6147 38.1998 66.7536 38.0171 66.9266 37.8703C67.1015 37.7208 67.3075 37.6121 67.5296 37.5521C67.7518 37.4921 67.9845 37.4823 68.2109 37.5234C68.5894 37.616 68.9243 37.8363 69.1591 38.1471C69.394 38.458 69.5144 38.8404 69.5 39.2297V57.3438C69.5 58.5194 69.3111 59.6874 68.9406 60.8031L67.0984 66.3281C66.6177 67.7635 66.3733 69.2675 66.375 70.7812V76.5625H47.625V71.875C47.6259 71.601 47.5548 71.3316 47.4188 71.0938L36.2703 51.5906C36.0531 51.2084 35.9672 50.7656 36.0256 50.3299C36.084 49.8942 36.2836 49.4896 36.5938 49.1781C36.7907 48.9814 37.0265 48.8278 37.2861 48.7272C37.5457 48.6266 37.8234 48.5812 38.1015 48.5939C38.3796 48.6065 38.652 48.6769 38.9014 48.8007C39.1508 48.9244 39.3717 49.0987 39.55 49.3125L44.8625 55.6875C45.0681 55.934 45.3446 56.1113 45.6545 56.1951C45.9643 56.2789 46.2925 56.2653 46.5943 56.156C46.8962 56.0467 47.157 55.8472 47.3414 55.5844C47.5259 55.3217 47.6249 55.0085 47.625 54.6875V36.1047C47.6106 35.7154 47.731 35.333 47.9659 35.0221C48.2007 34.7113 48.5356 34.491 48.9141 34.3984C49.1389 34.3585 49.3698 34.3683 49.5905 34.4272C49.8112 34.4861 50.0163 34.5927 50.1913 34.7394C50.3663 34.8861 50.5071 35.0695 50.6036 35.2765C50.7001 35.4835 50.7501 35.7091 50.75 35.9375ZM71.9047 61.7922C72.3825 60.3578 72.6258 58.8557 72.625 57.3438V45.2188C73.3259 45.5969 74.0577 45.9147 74.8125 46.1688L82.0875 48.5781C82.0395 48.8213 82.0113 49.0679 82.0031 49.3156V67.7656L70.975 64.5906L71.9047 61.7922ZM44.5 39.5938V42.875L39.7906 41.3438C39.5733 41.2733 39.3741 41.1561 39.207 41.0003C39.0399 40.8446 38.9089 40.6541 38.8234 40.4422C38.7379 40.2304 38.6999 40.0024 38.712 39.7742C38.7242 39.5461 38.7862 39.3234 38.8938 39.1219C39.099 38.7907 39.4123 38.5405 39.7807 38.4136C40.149 38.2866 40.5499 38.2906 40.9156 38.425L44.5 39.5938ZM38.8141 44.3172L44.5 46.1656V50.3703L41.9516 47.3109C41.1329 46.3242 39.9725 45.6821 38.7017 45.5124C37.4308 45.3427 36.1427 45.658 35.0938 46.3953L34.8859 46.3266C34.6687 46.2563 34.4695 46.1392 34.3024 45.9836C34.1353 45.828 34.0043 45.6377 33.9186 45.4261C33.833 45.2144 33.7947 44.9865 33.8066 44.7585C33.8185 44.5305 33.8803 44.3078 33.9875 44.1063C34.1937 43.7736 34.5085 43.5222 34.8785 43.3947C35.2486 43.2672 35.6513 43.2712 36.0188 43.4062L38.8141 44.3172ZM45.3328 33.3797C44.795 34.1872 44.5055 35.1345 44.5 36.1047V36.2609C44.1563 36.1035 43.8823 35.8256 43.7297 35.4797C43.6423 35.2668 43.603 35.0372 43.6146 34.8073C43.6262 34.5775 43.6884 34.353 43.7969 34.15C43.9528 33.8884 44.1802 33.6766 44.4522 33.5396C44.7243 33.4027 45.0298 33.3461 45.3328 33.3766V33.3797ZM7 6.25H14.0516L25.5297 20.8984L11.2703 33.125L7 27.5922V6.25ZM12.1906 38.9188C12.0207 38.749 11.8876 38.5459 11.7999 38.3222C11.7122 38.0986 11.6717 37.8592 11.6809 37.6191C11.6902 37.379 11.749 37.1435 11.8536 36.9272C11.9583 36.711 12.1065 36.5187 12.2891 36.3625L29.1297 21.9281C29.3024 21.7715 29.5047 21.6512 29.7247 21.5741C29.9447 21.4971 30.1779 21.4649 30.4105 21.4796C30.6431 21.4942 30.8705 21.5553 31.0791 21.6593C31.2877 21.7633 31.4733 21.9081 31.625 22.0851C31.7767 22.262 31.8914 22.4676 31.9622 22.6897C32.0331 22.9117 32.0587 23.1457 32.0376 23.3779C32.0165 23.61 31.949 23.8356 31.8393 24.0412C31.7295 24.2468 31.5796 24.4283 31.3984 24.575L14.5578 39.0109C14.2231 39.2941 13.7944 39.4417 13.3563 39.4246C12.9182 39.4076 12.5023 39.2271 12.1906 38.9188ZM19.8719 45.6578C19.3748 44.0844 18.6036 42.6112 17.5938 41.3063L17.2297 40.8375L31.6375 28.4937C32.8257 29.6737 34.2139 30.6333 35.7375 31.3281L40.7188 33.5734C40.5486 34.1061 40.4746 34.6648 40.5 35.2234C39.84 35.1843 39.1792 35.2866 38.5619 35.5235C37.9446 35.7603 37.385 36.1263 36.9206 36.5968C36.4561 37.0673 36.0975 37.6316 35.8686 38.252C35.6398 38.8723 35.5461 39.5343 35.5938 40.1938C34.7057 40.1582 33.8254 40.3718 33.0523 40.8102C32.2792 41.2487 31.6441 41.8946 31.2188 42.675C30.6456 43.7676 30.5294 45.0429 30.8955 46.2211C31.2617 47.3994 32.0804 48.3841 33.1719 48.9594C32.9379 49.6444 32.8518 50.3712 32.9191 51.0919C32.9864 51.8126 33.2057 52.5108 33.5625 53.1406L42.2766 68.3891C41.9738 68.3995 41.6728 68.3391 41.3974 68.2126C41.1221 68.0862 40.8801 67.8973 40.6906 67.6609L29.775 52.6375C29.6576 52.4637 29.5065 52.3154 29.3305 52.2013C29.1546 52.0872 28.9575 52.0097 28.751 51.9733C28.5445 51.937 28.3327 51.9426 28.1284 51.9898C27.9241 52.0371 27.7314 52.1249 27.5618 52.2482C27.3921 52.3715 27.2491 52.5276 27.141 52.7073C27.033 52.8871 26.9623 53.0867 26.9331 53.2943C26.9038 53.502 26.9167 53.7134 26.9708 53.916C27.025 54.1185 27.1194 54.3081 27.2484 54.4734L36.4328 67.1172C36.5611 67.2946 36.6507 67.497 36.6958 67.7112C36.7408 67.9255 36.7403 68.1468 36.6944 68.3608C36.6484 68.5749 36.558 68.7769 36.4289 68.9538C36.2999 69.1306 36.1351 69.2784 35.9453 69.3875C35.5734 69.5425 35.1606 69.5695 34.7717 69.4643C34.3828 69.3591 34.0399 69.1276 33.7969 68.8063L23.1563 54.1594C22.4653 53.2093 21.9319 52.1541 21.5766 51.0344L19.8719 45.6578ZM7 65.2141L12 63.6672L18.2969 82.5562L7 86.8063V65.2141ZM24.6141 82.8937C24.5056 83.0936 24.3566 83.2685 24.1766 83.4073C23.9966 83.5462 23.7896 83.6459 23.5688 83.7C23.1659 83.7975 22.7412 83.7409 22.3778 83.5415C22.0145 83.342 21.7388 83.0141 21.6047 82.6219L14.2656 60.6078C14.184 60.3601 14.1622 60.0966 14.2019 59.8388C14.2416 59.5811 14.3418 59.3364 14.4942 59.1247C14.6465 58.9131 14.8468 58.7405 15.0787 58.621C15.3105 58.5016 15.5673 58.4387 15.8281 58.4375C16.1737 58.4393 16.51 58.5489 16.7901 58.7512C17.0703 58.9535 17.2802 59.2382 17.3906 59.5656L24.7344 81.5797C24.8067 81.7951 24.8333 82.0231 24.8126 82.2494C24.7919 82.4756 24.7243 82.6951 24.6141 82.8937ZM35.0219 76.2609L27.2313 79.1922L21.1141 60.8391L23.5859 60.0734L31.2641 70.6438C31.73 71.2725 32.3364 71.7836 33.035 72.1363C33.7336 72.4889 34.5049 72.6734 35.2875 72.675C36.0693 72.6809 36.8384 72.4781 37.5156 72.0875C38.18 71.7003 38.7395 71.1563 39.1453 70.5031C39.8088 71.013 40.5919 71.3444 41.4198 71.4659C42.2478 71.5873 43.093 71.4947 43.875 71.1969L44.5 72.2906V75.3937L40.0813 75.3594C38.3531 75.3388 36.6366 75.6447 35.0219 76.2609ZM47.625 93.75V85.9375H66.375V93.75H47.625ZM67.9375 82.8125H46.0625C45.6481 82.8125 45.2507 82.6479 44.9576 82.3549C44.6646 82.0618 44.5 81.6644 44.5 81.25C44.5 80.8356 44.6646 80.4382 44.9576 80.1451C45.2507 79.8521 45.6481 79.6875 46.0625 79.6875H67.9375C68.3519 79.6875 68.7493 79.8521 69.0424 80.1451C69.3354 80.4382 69.5 80.8356 69.5 81.25C69.5 81.6644 69.3354 82.0618 69.0424 82.3549C68.7493 82.6479 68.3519 82.8125 67.9375 82.8125ZM94.5 71.3625L91.375 70.4688V51.6547L94.5 52.6906V71.3625ZM85.125 49.3156C85.125 48.9012 85.2896 48.5038 85.5826 48.2108C85.8757 47.9177 86.2731 47.7531 86.6875 47.7531C87.1019 47.7531 87.4993 47.9177 87.7924 48.2108C88.0854 48.5038 88.25 48.9012 88.25 49.3156V70.9969C88.25 71.4113 88.0854 71.8087 87.7924 72.1017C87.4993 72.3948 87.1019 72.5594 86.6875 72.5594C86.2731 72.5594 85.8757 72.3948 85.5826 72.1017C85.2896 71.8087 85.125 71.4113 85.125 70.9969V49.3156ZM75.7922 43.2016C74.6962 42.8389 73.6646 42.3047 72.7359 41.6187C72.7016 41.5938 72.6609 41.5891 72.625 41.5656V39.2219C72.6392 38.0918 72.2558 36.9927 71.5417 36.1167C70.8277 35.2408 69.8285 34.6436 68.7188 34.4297C67.8636 34.2903 66.9866 34.3876 66.1828 34.7109C66.0163 34.0703 65.7146 33.4728 65.298 32.9584C64.8815 32.4441 64.3596 32.0248 63.7676 31.7288C63.1756 31.4328 62.5271 31.2669 61.8657 31.2423C61.2043 31.2176 60.5452 31.3348 59.9328 31.5859C59.7709 31.0395 59.5167 30.5248 59.1813 30.0641C59.7884 29.5259 60.3478 28.9362 60.8531 28.3016L63.3422 25.1141L77.5953 37.3438C76.8135 38.8599 76.3157 40.5063 76.1266 42.2016L76.0094 43.2719L75.7922 43.2016ZM83.0594 35.7938C82.7475 36.1018 82.3317 36.282 81.8937 36.2991C81.4557 36.3161 81.0271 36.1688 80.6922 35.8859L63.8516 21.45C63.5152 21.145 63.3111 20.7208 63.2826 20.2677C63.2541 19.8146 63.4035 19.3682 63.699 19.0234C63.9944 18.6787 64.4127 18.4628 64.8649 18.4217C65.3171 18.3805 65.7675 18.5174 66.1203 18.8031L82.9609 33.2406C83.1434 33.3967 83.2916 33.5888 83.3963 33.8049C83.5009 34.0211 83.5597 34.2565 83.569 34.4964C83.5782 34.7364 83.5377 34.9756 83.45 35.1992C83.3623 35.4227 83.2293 35.6241 83.0594 35.7938ZM94.5 13.5594L83.1672 29.3016L69.3344 17.4422L78.075 6.25H94.5V13.5594Z" fill="#151516"/>
</svg>
