<svg width="101" height="100" viewBox="0 0 101 100" fill="none" xmlns="http://www.w3.org/2000/svg">
<path d="M83.9797 23.1563C84.0508 23.2051 84.1255 23.2485 84.2032 23.286C86.2739 24.3521 88.5565 24.9425 90.8844 25.0141C92.9725 25.0218 95.01 24.3718 96.7078 23.1563C96.914 23.0122 97.0822 22.8205 97.1984 22.5974C97.3145 22.3743 97.3751 22.1265 97.375 21.875V6.25004C97.3752 5.96423 97.2969 5.68386 97.1487 5.43944C97.0006 5.19502 96.7882 4.99592 96.5348 4.8638C96.2814 4.73168 95.9965 4.67161 95.7113 4.69012C95.4261 4.70863 95.1515 4.80502 94.9172 4.96879C92.4266 6.71097 89.4797 6.68754 85.6578 4.89222C82.1969 2.53285 78.1407 2.51566 73.2657 4.84379C72.9998 4.97043 72.7751 5.16963 72.6175 5.41844C72.4599 5.66725 72.3759 5.95553 72.375 6.25004V47.6282C67.8458 50.2006 62.7275 51.5561 57.5188 51.5625H56.5532C55.1415 51.562 53.7563 51.9449 52.5453 52.6703C52.321 51.7416 51.7958 50.9132 51.0516 50.3141L46.4 46.5938C46.2168 46.4475 46.0689 46.2618 45.9672 46.0506C45.8655 45.8394 45.8126 45.6079 45.8125 45.3735V42.1016L54.0063 44.5594C54.387 44.6734 54.7823 44.7313 55.1797 44.7313C56.1473 44.7287 57.0817 44.3784 57.8125 43.7442C58.5432 43.11 59.0216 42.2342 59.1603 41.2766C59.299 40.319 59.0888 39.3434 58.568 38.5279C58.0472 37.7124 57.2506 37.1114 56.3235 36.8344L48.686 34.5438C49.7934 33.7799 50.6848 32.743 51.2739 31.5335C51.8629 30.3239 52.1296 28.9828 52.0482 27.6399C51.9668 26.297 51.5399 24.998 50.8091 23.8685C50.0782 22.739 49.068 21.8174 47.8764 21.1929C46.6847 20.5685 45.352 20.2623 44.0074 20.3041C42.6627 20.3459 41.3516 20.7342 40.201 21.4314C39.0505 22.1287 38.0995 23.1112 37.4401 24.2839C36.7808 25.4566 36.4354 26.7797 36.4375 28.125C36.4375 28.1454 36.4375 28.1657 36.4375 28.186C35.9079 28.0495 35.3653 27.9699 34.8188 27.9485C33.7436 27.9109 32.6722 28.094 31.6706 28.4867C30.669 28.8793 29.7585 29.473 28.9953 30.2313L18.4094 40.8141C17.6823 41.5383 17.1061 42.3995 16.714 43.3479C16.3219 44.2962 16.1217 45.3129 16.125 46.3391V53.75C16.1255 54.2177 16.056 54.6827 15.9188 55.1297L11.7 68.8391C11.4896 69.5012 11.4531 70.2063 11.594 70.8866C11.7349 71.5669 12.0486 72.1995 12.5047 72.7235L6.21565 75.8641C5.43525 76.251 4.77888 76.8488 4.32098 77.5898C3.86309 78.3308 3.62199 79.1852 3.62503 80.0563V95.3125C3.62503 95.7269 3.78965 96.1244 4.08267 96.4174C4.3757 96.7104 4.77313 96.875 5.18753 96.875H95.8125C96.2269 96.875 96.6244 96.7104 96.9174 96.4174C97.2104 96.1244 97.375 95.7269 97.375 95.3125V39.8938C97.3748 39.0645 97.1546 38.25 96.7368 37.5336C96.319 36.8172 95.7186 36.2244 94.9969 35.8159C94.2752 35.4073 93.458 35.1975 92.6288 35.2079C91.7995 35.2183 90.9878 35.4485 90.2766 35.875L81.6828 41.0313C80.0827 41.9902 78.5668 43.0831 77.1516 44.2985C76.6219 44.7532 76.0672 45.1688 75.511 45.5829V22.9032C78.9375 21.4625 81.6625 21.536 83.9797 23.1563ZM38.3125 54.3453L32.3969 48.4375L36.9578 43.8766L37.6407 47.9688C37.9479 49.8141 38.907 51.4879 40.3438 52.686L45.5641 57.0313C46.1278 57.4909 46.7977 57.8019 47.5125 57.936C45.5426 60.1195 43.0444 61.76 40.2578 62.7L33.9375 64.8125L38.0797 61.1875C38.5627 60.7648 38.9536 60.2474 39.2284 59.6674C39.5032 59.0873 39.656 58.4571 39.6772 57.8156C39.6984 57.1741 39.5877 56.5351 39.3519 55.9382C39.1161 55.3413 38.7602 54.7991 38.3063 54.3453H38.3125ZM55.9766 40.2829C56.0334 40.3903 56.0677 40.5082 56.0774 40.6294C56.087 40.7506 56.0719 40.8724 56.0328 40.9875C55.9593 41.2122 55.8006 41.399 55.5909 41.508C55.3811 41.6169 55.137 41.6393 54.911 41.5704L45.7313 38.8157C45.6385 38.1056 45.4487 37.4116 45.1672 36.7532L55.4328 39.8329C55.5475 39.8673 55.654 39.9245 55.7461 40.001C55.8382 40.0775 55.9139 40.1718 55.9688 40.2782L55.9766 40.2829ZM40.0938 30.2954C39.7419 29.6262 39.5595 28.881 39.5625 28.125C39.5624 27.0787 39.9123 26.0623 40.5566 25.2379C41.201 24.4134 42.1026 23.8283 43.118 23.5756C44.1334 23.3229 45.2041 23.4172 46.1597 23.8435C47.1153 24.2698 47.9008 25.0035 48.3911 25.9279C48.8814 26.8523 49.0483 27.9141 48.8652 28.9443C48.6822 29.9746 48.1597 30.9139 47.381 31.6128C46.6023 32.3117 45.6121 32.73 44.5682 32.801C43.5242 32.872 42.4865 32.5917 41.6203 32.0047C41.6078 32.0047 41.5938 31.9954 41.5828 31.9875C41.5719 31.9797 40.1016 30.3125 40.0938 30.2954ZM31.2078 32.4407C31.6404 32.0035 32.1556 31.6569 32.7236 31.4211C33.2915 31.1853 33.9007 31.065 34.5157 31.0672C34.5782 31.0672 34.6407 31.0672 34.7032 31.0672C35.3488 31.0888 35.9828 31.2451 36.5645 31.526C37.1463 31.8069 37.6629 32.2063 38.0813 32.6985L41.5594 36.761C42.2874 37.6105 42.6875 38.6923 42.6875 39.811V45.3735C42.6862 46.0768 42.8438 46.7713 43.1484 47.4052C43.453 48.0391 43.8969 48.5961 44.4469 49.0344L49.0938 52.7547C49.2789 52.9022 49.4168 53.1006 49.4905 53.3256C49.5641 53.5505 49.5704 53.7921 49.5084 54.0205C49.4465 54.2489 49.319 54.4542 49.1418 54.611C48.9645 54.7679 48.7452 54.8694 48.511 54.9032C48.3426 54.9286 48.1708 54.9178 48.0069 54.8715C47.8431 54.8251 47.691 54.7443 47.561 54.6344L42.3407 50.2844C41.4782 49.566 40.9021 48.5619 40.7172 47.4547L39.536 40.3688C39.4887 40.0857 39.3645 39.8211 39.1768 39.604C38.9891 39.387 38.7452 39.2257 38.472 39.1381C38.1987 39.0504 37.9066 39.0398 37.6276 39.1072C37.3487 39.1746 37.0937 39.3176 36.8907 39.5204L29.0782 47.3329C28.7852 47.6259 28.6207 48.0232 28.6207 48.4375C28.6207 48.8519 28.7852 49.2492 29.0782 49.5422L36.0953 56.5625C36.2468 56.7138 36.3655 56.8945 36.4442 57.0935C36.5229 57.2925 36.5599 57.5056 36.5528 57.7194C36.5458 57.9333 36.4949 58.1435 36.4033 58.3369C36.3117 58.5303 36.1814 58.7028 36.0203 58.8438L28.3828 65.525C28.2654 65.6311 28.1278 65.7123 27.9782 65.7639C27.8287 65.8155 27.6703 65.8364 27.5124 65.8254C27.3546 65.8144 27.2006 65.7716 27.0597 65.6997C26.9188 65.6278 26.7938 65.5282 26.6923 65.4069C26.5907 65.2856 26.5147 65.145 26.4687 64.9937C26.4227 64.8423 26.4077 64.6832 26.4246 64.5259C26.4416 64.3686 26.49 64.2163 26.5671 64.0782C26.6443 63.94 26.7484 63.8189 26.8735 63.7219L32.7266 59.0344C32.8981 58.8971 33.0388 58.7251 33.1394 58.5297C33.24 58.3344 33.2982 58.12 33.3103 57.9006C33.3224 57.6811 33.2881 57.4616 33.2096 57.2564C33.1311 57.0511 33.0101 56.8648 32.8547 56.7094L21.0032 44.8563C20.7102 44.5633 20.5457 44.1659 20.5457 43.7516C20.5457 43.3373 20.7102 42.9399 21.0032 42.6469L31.2078 32.4407ZM14.686 69.7547L18.9047 56.0438C19.1337 55.3007 19.2501 54.5276 19.25 53.75V47.5219L29.4063 57.6782L24.9172 61.2719C24.0718 61.9405 23.5102 62.9039 23.345 63.9691C23.1799 65.0342 23.4233 66.1224 24.0266 67.0157C24.2416 67.3291 24.4981 67.6119 24.7891 67.8563L20.2578 69.3672L24.2672 58.3438C24.3374 58.1509 24.3689 57.9461 24.3599 57.741C24.3509 57.536 24.3017 57.3347 24.2149 57.1487C24.1281 56.9627 24.0056 56.7956 23.8542 56.657C23.7029 56.5183 23.5257 56.4108 23.3328 56.3407C23.14 56.2705 22.9352 56.239 22.7301 56.248C22.525 56.2569 22.3238 56.3062 22.1378 56.393C21.9518 56.4798 21.7847 56.6023 21.646 56.7537C21.5074 56.905 21.3999 57.0822 21.3297 57.275L16.5641 70.3813C16.4772 70.6195 16.3021 70.8153 16.075 70.9282C15.9015 71.0147 15.7064 71.0486 15.5139 71.0255C15.3213 71.0023 15.1398 70.9233 14.9916 70.7981C14.8435 70.673 14.7353 70.5071 14.6805 70.3211C14.6256 70.1351 14.6264 69.9371 14.6828 69.7516L14.686 69.7547ZM79.175 46.675C80.4588 45.5743 81.8335 44.5843 83.2844 43.7157L91.8782 38.5594C92.115 38.416 92.3857 38.3381 92.6625 38.3336C92.9393 38.3292 93.2124 38.3984 93.4537 38.5342C93.695 38.6699 93.8958 38.8673 94.0358 39.1062C94.1757 39.3451 94.2496 39.6169 94.25 39.8938V72.8328L91.9703 72.0719L89.1047 69.2078C88.81 68.9232 88.4153 68.7657 88.0057 68.7693C87.596 68.7729 87.2041 68.9372 86.9144 69.2269C86.6247 69.5166 86.4604 69.9085 86.4568 70.3182C86.4532 70.7278 86.6107 71.1225 86.8953 71.4172L89.1141 73.636L87.1641 76.5625H80.1875C79.7731 76.5625 79.3757 76.7272 79.0827 77.0202C78.7896 77.3132 78.625 77.7106 78.625 78.125C78.625 78.5394 78.7896 78.9369 79.0827 79.2299C79.3757 79.5229 79.7731 79.6875 80.1875 79.6875H85.8313L84.9547 82.3188C84.8238 82.7125 84.8546 83.142 85.0404 83.513C85.2261 83.884 85.5517 84.166 85.9453 84.2969C86.339 84.4279 86.7686 84.3971 87.1396 84.2113C87.5105 84.0255 87.7925 83.7 87.9235 83.3063L89.4203 78.8172L91.7641 75.2969L94.25 76.1266V93.75H65.7828L64.7297 89.5422L68.7922 85.4797C69.0768 85.185 69.2343 84.7903 69.2308 84.3807C69.2272 83.971 69.0629 83.5791 68.7732 83.2894C68.4835 82.9997 68.0916 82.8354 67.6819 82.8318C67.2722 82.8282 66.8775 82.9857 66.5828 83.2703L62.8016 87.0516L59.1797 84.6375C58.9227 84.4668 58.6211 84.3755 58.3125 84.375H55.1875C54.7731 84.375 54.3757 84.5397 54.0827 84.8327C53.7896 85.1257 53.625 85.5231 53.625 85.9375C53.625 86.3519 53.7896 86.7494 54.0827 87.0424C54.3757 87.3354 54.7731 87.5 55.1875 87.5H57.8438L61.636 90.0266L62.561 93.75H28.625V91.461L32.6172 88.8047C32.7879 88.6908 32.9346 88.5444 33.0487 88.3739C33.1628 88.2034 33.2423 88.012 33.2825 87.8108C33.3227 87.6095 33.3228 87.4023 33.2829 87.201C33.243 86.9997 33.1639 86.8083 33.05 86.6375C32.9361 86.4668 32.7898 86.3202 32.6192 86.2061C32.4487 86.0919 32.2573 86.0125 32.0561 85.9723C31.8548 85.9321 31.6476 85.9319 31.4463 85.9718C31.245 86.0117 31.0536 86.0909 30.8828 86.2047L27.0625 88.75L23.2422 86.2032C22.8974 85.9732 22.4754 85.8896 22.069 85.9707C21.6626 86.0519 21.305 86.2912 21.075 86.636C20.845 86.9808 20.7614 87.4028 20.8426 87.8092C20.9238 88.2156 21.1631 88.5732 21.5078 88.8032L25.5 91.461V93.75H6.75003V80.0563C6.75018 79.7662 6.8311 79.4819 6.9837 79.2352C7.13631 78.9884 7.35459 78.7891 7.61409 78.6594L17.1953 73.8688C17.9224 73.5038 18.6743 73.1906 19.4453 72.9313L31.4672 68.9235L36.4375 72.6563V78.125C36.4375 78.5394 36.6021 78.9369 36.8952 79.2299C37.1882 79.5229 37.5856 79.6875 38 79.6875C38.4144 79.6875 38.8119 79.5229 39.1049 79.2299C39.3979 78.9369 39.5625 78.5394 39.5625 78.125V73.875L43.8703 74.9532C44.1322 75.0187 44.4065 75.0153 44.6667 74.9433C44.9268 74.8713 45.1639 74.7331 45.3547 74.5422L48.4797 71.4172C48.7643 71.1225 48.9218 70.7278 48.9183 70.3182C48.9147 69.9085 48.7504 69.5166 48.4607 69.2269C48.171 68.9372 47.7791 68.7729 47.3694 68.7693C46.9597 68.7657 46.565 68.9232 46.2703 69.2078L43.7703 71.7079L38.686 70.436L35.0735 67.7266L41.2469 65.6688C44.8302 64.475 48.0096 62.3057 50.4282 59.4047L52.9516 56.3735C53.3912 55.8451 53.9418 55.4202 54.5643 55.1288C55.1868 54.8374 55.8658 54.6867 56.5532 54.6875H57.5188C62.7965 54.6771 67.9959 53.4109 72.6875 50.9938L75.0813 55.7813L70.1266 59.4969L64.1891 60.9828C63.8184 61.0741 63.4939 61.298 63.2769 61.6122C63.06 61.9264 62.9656 62.3091 63.0115 62.6881C63.0575 63.0672 63.2406 63.4162 63.5264 63.6695C63.8121 63.9227 64.1807 64.0625 64.5625 64.0625C64.691 64.0623 64.819 64.0465 64.9438 64.0157L69.9766 62.7563L72.5406 67.886C72.7259 68.2569 73.0509 68.539 73.4441 68.6702C73.8374 68.8015 74.2666 68.7712 74.6375 68.586C75.0084 68.4007 75.2905 68.0758 75.4218 67.6825C75.5531 67.2893 75.5228 66.86 75.3375 66.4891L72.7938 61.4063L77.3453 57.9922L81.2516 59.2954C81.4465 59.3602 81.6523 59.386 81.8572 59.3713C82.0621 59.3566 82.2621 59.3017 82.4458 59.2097C82.6295 59.1177 82.7933 58.9905 82.9278 58.8352C83.0623 58.6799 83.1649 58.4997 83.2297 58.3047C83.2946 58.1098 83.3204 57.904 83.3057 57.6991C83.291 57.4942 83.2361 57.2942 83.1441 57.1105C83.0521 56.9268 82.9248 56.763 82.7696 56.6285C82.6143 56.494 82.434 56.3914 82.2391 56.3266L78.1672 54.9688L75.3969 49.4297C76.719 48.6007 77.9814 47.6803 79.175 46.675ZM75.5 7.26097C78.95 5.81879 81.661 5.91098 83.9797 7.53129C84.0508 7.58015 84.1255 7.6235 84.2032 7.66097C88.0203 9.4766 91.3313 9.86254 94.25 8.81566V21.0032C91.9063 22.3094 89.1453 22.1469 85.6563 20.5094C84.1747 19.5228 82.4722 18.9177 80.7002 18.7482C78.9282 18.5786 77.1418 18.8498 75.5 19.5375V7.26097Z" fill="#151516"/>
</svg>
