<svg width="168" height="300" viewBox="0 0 168 300" fill="none" xmlns="http://www.w3.org/2000/svg">
<g clip-path="url(#clip0_255_2606)">
<path d="M114.893 0L115.252 1.64771L109.334 5.54077C110.438 5.52959 118.794 4.99339 117.18 7.2164C115.532 7.74143 113.212 7.95926 111.732 8.76357C111.077 9.12104 110.785 8.7524 111.021 10.0091C124.011 10.7017 129.89 19.6664 128.971 32.094C128.719 35.4844 126.685 40.9916 126.786 43.829C126.842 45.3315 129.123 48.4091 129.689 50.3249C133.415 62.948 122.151 79.5535 107.899 76.6603C107.411 76.7329 107.126 77.3194 106.952 77.7215C106.285 79.2799 105.506 87.3955 105.388 89.5794C105.237 92.3331 104.974 101.164 105.663 103.314C106.526 105.978 109.765 104.219 112.439 104.386C120.329 104.878 118.771 111.491 120.688 116.272C121.624 118.601 127.357 120.428 129.677 121.835C134.194 124.567 138.482 127.678 143.139 130.202C148.838 133.291 162.76 138.156 165.494 143.669C169.546 151.829 167.602 160.057 167.058 168.373C165.478 192.681 165.612 216.62 162.502 240.912C161.896 245.626 158.584 259.12 159.475 262.505C159.828 263.857 161.151 265.063 161.414 266.711C162.216 271.71 157.004 283.288 153.008 286.193C148.194 289.695 143.957 288.773 139.014 290.119C137.271 290.594 134.278 292.979 132.132 293.873C126.063 296.403 121.871 295.722 115.846 296.632C109.905 297.531 103.051 299.447 97.2733 299.905C87.4322 300.681 78.8408 297.017 69.2518 296.012C50.3653 294.035 29.7864 297.33 11.522 290.432C8.0417 289.114 3.33409 287.779 2.8353 283.456C4.82483 272.447 1.59675 260.751 2.90816 249.993C3.4854 245.285 5.33482 241.571 5.10504 236.499C4.77999 229.35 2.85772 221.027 2.29169 213.615C1.83214 207.667 2.0507 201.182 1.72005 195.195C1.44544 190.09 0.0275513 183.856 -0.000470182 178.975C-0.0397003 172.015 2.20762 155.136 4.25319 148.534C6.41645 141.541 9.06168 138.424 15.7476 135.414C26.5359 130.56 39.0839 127.672 49.889 122.522C51.8505 120.958 50.2869 117.16 52.4221 114.993C54.109 113.284 61.2825 111.374 63.8381 111.016C64.2528 110.285 64.4153 109.43 64.4938 108.598C65.1046 102.013 62.7228 103.683 58.6261 100.482C52.282 95.5279 48.5327 88.3059 46.9972 80.5142C40.5242 79.2966 35.7269 75.2863 32.0057 70.0415C27.5895 63.8193 26.0427 52.0787 33.1489 47.1915C34.7574 46.0855 39.4706 45.1416 39.734 43.7341C38.2825 36.8863 34.4828 28.6701 36.7581 21.7497C42.0374 5.71391 70.5632 5.66365 84.3666 5.52401C90.4641 5.46257 97.1948 6.07138 102.906 8.21061C103.797 8.08214 104.503 4.88727 105.153 3.89864C107.081 0.977454 111.581 0.0167563 114.893 0ZM58.6093 30.6809C61.2825 30.3234 65.2672 30.6809 68.1366 30.6809C69.3975 30.6809 68.6073 32.7419 67.4697 33.3731C66.1134 34.1271 64.236 33.859 62.7901 34.2947C57.7014 35.8195 52.8032 37.9475 47.6697 39.3327C45.966 42.6002 45.9267 46.376 46.0052 49.9507C46.3134 64.1265 50.2869 89.976 63.0759 98.2816C77.5686 107.699 92.6217 97.589 99.3357 84.1224C101.863 79.0509 101.953 73.1191 105.119 68.6731C106.459 69.5779 105.926 72.0467 106.666 72.9851C109.457 76.5262 119.007 71.6781 121.45 69.0194C126.679 63.339 128.4 50.4869 121.781 45.1974C118.161 42.3042 112.736 47.6662 110.443 50.5092C108.902 52.4139 107.877 57.8094 104.805 54.447C102.407 51.8162 104.934 47.9231 104.251 44.3876C103.982 42.9968 102.698 42.3768 102.558 40.4498C102.368 37.8526 104.531 34.5572 103.438 32.3565C103.102 31.6807 97.9346 28.4634 96.6961 27.3464C94.4431 25.3244 92.7899 23.1238 91.1086 20.6382C90.2119 20.6103 88.2616 26.6147 84.9551 26.7934C84.1256 26.8381 83.9295 26.8493 84.092 25.9277C84.4283 24.0621 88.1103 22.6155 86.6252 20.0741C85.3081 21.0683 79.7207 30.692 77.9889 27.8323C77.591 22.8333 81.6429 18.0857 78.1234 13.3436C75.792 13.5168 69.4312 12.6175 70.1877 16.3095C70.3671 17.1864 73.7297 23.431 68.938 19.8228C67.7275 18.9123 67.7162 17.1138 66.1695 17.2758C64.7179 19.3759 66.8027 26.8325 65.6371 27.648C62.7172 29.6922 58.3234 23.1014 56.6982 24.0454L51.0323 33.468C51.5086 33.926 57.1858 30.8652 58.5981 30.6809H58.6093ZM42.6314 56.9325C42.2559 52.4697 44.0101 46.5491 37.5763 48.2639C25.9082 51.3694 33.7094 76.381 45.4392 75.9174C44.0717 71.9964 44.5257 66.7014 43.0798 62.9145C42.0093 60.0994 38.9046 58.7645 37.5988 56.0835C36.9879 53.9052 42.155 56.5359 42.6314 56.9325ZM102.603 86.5409C101.314 86.2226 101.684 86.7811 101.325 87.2447C92.5377 98.5441 89.2031 106.101 72.6312 105.526C71.303 105.481 68.5625 104.018 67.9404 105.889C67.5033 107.207 68.0245 109.654 67.7891 111.324C67.5705 112.899 66.0966 117.071 66.2815 117.959C66.4777 118.892 69.207 121.914 69.9916 123.232C71.247 125.349 72.2109 127.65 73.5727 129.716C77.3781 135.509 82.0969 140.77 85.5211 146.858C86.6195 147.121 90.806 139.631 91.5009 138.301C93.3671 134.732 103.259 114.217 103.186 111.977C103.113 109.933 102.138 107.453 102.031 105.269C101.723 99.0635 102.015 92.6905 102.609 86.5409H102.603ZM115.678 112.078C115.117 110.737 115.84 107.676 112.876 107.291C112.102 107.19 111.525 108.335 110.735 108.335C109.58 108.335 109.003 106.386 106.537 108.335C106.397 110.346 108.577 110.056 109.9 110C110.466 113.105 106.873 112.608 107.568 116.066L105.641 116.669C106.05 119.802 105.618 119.674 103.264 121.5L103.505 123.991C99.2348 125.304 102.306 125.756 101.432 128.393L99.246 128.443L99.7784 131.448L97.0155 133.213L98.1196 135.425C95.1157 136.905 94.516 135.955 95.6593 139.619L93.0981 140.748L93.6193 143.742L91.4504 144.685L91.4729 148.215L88.6091 149.4C88.0206 150.438 90.408 149.947 89.7187 151.617C89.0294 153.287 86.8437 151.382 86.3673 152.745C86.1656 154.533 88.2 154.086 87.4826 156.37H84.6805C84.2265 157.538 85.8798 158.655 85.7509 159.37C85.65 159.911 84.4787 160.414 84.2265 161.23C83.9911 162 83.9183 164.726 84.1032 165.48C84.2657 166.134 85.6052 166.139 85.7901 166.714C86.3449 168.452 84.2826 168.334 84.1032 169.055C83.8118 170.233 84.333 172.104 84.0696 173.434L85.7957 175.64C82.8703 177.031 83.526 178.874 83.5204 181.728C83.7109 182.387 86.5747 181.946 85.7957 184.297L83.0384 185.197L83.5428 190.162C87.3089 189.961 86.3001 193.1 82.9936 192.681V198.261C83.851 198.116 86.1096 198.323 85.7957 199.652C84.9102 200.903 84.3946 200.964 82.9992 200.495C84.2545 204.494 80.6398 207.561 83.5876 211.404C83.7894 212.537 82.0352 212.482 81.8615 213.169C81.5308 214.459 82.1305 216.598 81.8391 218.056L83.4867 218.413L83.582 220.257L81.3515 221.206L81.3179 226.747C82.6965 225.943 83.7389 226.322 83.5484 228.132L80.7574 228.417L81.6261 231.813C79.4572 233.539 80.5221 235.198 79.8103 237.672L81.8671 239.862C78.852 241.409 79.5581 243.822 79.0705 246.854C80.3035 246.19 81.0769 246.408 81.7214 247.676L81.3067 249.089L79.0705 248.53C78.0898 249.407 79.6142 251.021 79.6198 251.602C79.6254 252.328 78.6614 252.993 78.5269 253.864C78.1066 256.64 78.8576 258.316 79.631 260.824C81.3627 261.298 80.6285 259.433 81.458 258.735C81.9287 258.338 83.3746 258.439 83.851 257.472C84.1985 256.763 82.0969 255.825 83.5372 254.948C86.5075 255.272 86.7092 254.786 88.6035 252.714C89.0294 252.25 88.9677 251.261 89.3096 250.926C89.6963 250.546 90.8228 250.63 91.4617 249.966C92.207 249.189 90.6715 247.441 91.9492 246.575C92.717 245.765 93.5072 247.285 93.9219 247.29C95.1269 247.301 97.0828 243.397 97.7273 242.559C98.0691 242.112 99.2292 241.95 99.515 241.319C99.7616 240.766 98.977 239.672 99.4646 239.018C99.9522 238.365 102.48 238.616 103.163 237.086L100.927 235.421L103.404 234.55L104.004 235.689C105.977 234.567 106.543 232.327 107.636 230.93C108.14 230.282 109.351 230.037 109.653 229.551C110.074 228.864 108.639 226.523 110.186 226.2C112.024 225.814 112.388 229.467 112.192 230.64C115.067 230.098 113.974 233.36 111.856 232.924L111.301 231.785C110.757 231.997 106.246 237.639 105.758 238.476C105.523 238.884 106.066 239.811 105.489 240.47C104.777 241.291 103.304 241.174 102.62 242.118C105.809 246.223 101.673 244.347 100.389 244.883C98.9322 245.497 98.1924 247.854 97.3966 248.932C97.0715 249.374 95.9115 249.53 95.5696 250.211C95.2277 250.893 96.0404 251.904 95.6481 252.462C94.8859 253.568 92.1678 252.06 91.9548 254.674L93.5689 254.73C94.2974 258.182 91.8259 257.439 90.2848 255.238C90.2848 256.847 88.3513 257.506 87.7684 258.617C87.4097 259.304 87.5835 260.651 87.4434 260.79C87.2528 260.98 85.5659 260.667 84.658 261.097C84.333 261.248 79.7543 265.806 79.5805 266.113C79.1154 266.951 79.6534 267.509 79.4741 268.202C78.8072 270.755 77.1931 273.156 79.659 275.614L78.5157 278.139L81.8727 277.574L80.9816 275.938C80.4884 274.731 83.1841 274.491 83.5428 274.804C83.8342 275.061 82.9039 276.837 84.389 276.463C85.5211 273.653 89.3432 275.201 91.966 273.665L91.4056 270.883H93.6417L93.9219 273.112C95.5023 272.799 95.1437 271.257 95.6649 270.85C96.7801 269.978 97.5143 271.38 98.3045 271.33C98.6296 271.308 104.206 269.286 104.486 269.113C105.618 268.426 105.315 267.163 106.268 266.404C108.846 268.47 109.087 266.66 111.306 266.37C111.99 266.281 115.812 266.459 116.059 267.253L115.213 269.202C113.234 268.135 111.592 268.481 109.866 270.045C109.16 270.682 110.499 272.659 109.054 273.106C107.204 273.676 107.322 271.62 107.086 271.442C105.915 270.542 105.966 272.749 105.058 273.05C104.083 273.369 101.555 272.615 99.7896 273.955C98.8425 274.676 100.395 276.614 98.9658 277.016C97.0772 277.547 97.2453 275.536 96.9987 275.351C95.805 274.435 95.8386 276.748 94.9868 276.982C94.3759 277.15 93.468 276.513 92.8795 276.636C91.5177 276.921 90.1334 278.111 88.6035 278.15C91.5345 281.3 87.8301 282.428 86.911 279.267H85.8125C85.2689 282.4 83.6605 280.641 81.7382 281.026C78.6783 281.635 79.5749 284.701 78.5213 287.081C79.9897 286.606 80.9312 286.293 81.7326 287.908L81.3179 289.321L78.5213 288.762C78.1122 290.008 79.6422 290.957 79.6478 291.834C79.6478 292.8 78.2523 293.242 78.5213 294.342C80.4324 294.968 82.4612 294.683 84.3834 294.923C85.1792 295.023 85.7397 295.844 86.1992 295.923C86.9222 296.04 88.4241 294.286 89.7243 294.912L89.7355 296.582C91.6858 296.409 91.0694 294.024 93.6137 294.962L93.6585 296.582C96.3486 297.459 94.3479 293.532 97.4414 295.09C97.6152 295.174 97.6488 295.984 97.8562 296.04C99.5094 296.47 99.1507 294.956 99.6159 294.884C100.574 294.733 101.639 295.448 102.76 295.331C106.296 294.956 110.23 293.594 113.834 293.23L113.274 291.002L114.691 290.572L116.087 292.672L117.247 292.32L118.586 290.549C120.469 290.304 119.595 293.331 120.834 292.672L122.515 290.455L124.751 292.113C126.634 289.365 127.071 291.315 128.45 291.303C129.403 291.298 135.383 289.712 135.64 288.969C136.117 287.595 135.394 285.321 133.83 284.891L133.46 283.462L136.812 281.775L136.75 280.998C135.276 281.021 135.68 279.932 135.696 278.714C142.074 279.68 137.591 277.144 137.428 276.122C137.322 275.463 139.109 273.855 138.493 272.57C136.223 273.72 134.48 272.162 136.582 270.386L138.499 270.889C137.316 268.934 137.428 267.459 137.927 265.326C132.95 264.51 137.266 262.633 137.394 262.125C137.72 260.829 137.125 258.701 137.417 257.238L135.775 256.875L135.685 254.97L137.417 254.384V249.926L135.702 247.156L137.989 245.994L137.938 240.727L136.251 241.046L135.702 238.499L138.499 239.052C139.093 237.767 137.366 236.209 137.467 235.516C137.652 234.276 141.519 229.83 137.663 228.456L137.389 227.607C140.398 226.054 139.703 223.653 140.185 220.614C136.823 221.843 136.24 217.162 140.185 218.938C140.471 217.615 139.384 216.023 139.608 214.839C139.681 214.442 140.645 214.52 140.74 214.09C141.065 212.688 140.37 210.739 141.329 209.209C137.4 206.997 140.987 206.701 141.514 205.377C141.99 204.182 141.105 201.914 142.427 200.512L140.174 200.825L139.631 198.278L141.508 198.267L142.422 199.389C143.296 197.099 142.136 197.004 141.306 195.211C144.624 193.776 142.898 191.687 144.103 189.051C140.398 189.224 140.903 185.303 144.103 186.548C142.971 183.164 145.179 181.298 144.697 177.857C144.518 176.578 143.369 175.45 143.503 174.584C143.576 174.115 144.803 174.221 145.134 173.344C145.532 172.294 145.241 170.233 145.823 168.988C142.321 168.262 142.887 165.056 146.345 166.441L145.75 162.28L148.581 160.85C145.117 156.538 152.997 158.001 149.147 160.582C149.73 161.822 151.618 161.749 152.016 162.347C152.364 162.866 151.943 163.911 152.095 164.106C152.661 164.827 154.656 164.966 154.14 167.312C153.787 168.91 152.392 168.602 152.033 169.624C151.809 170.272 152.543 171.691 151.893 172.546L149.774 172.641C148.71 173.886 150.324 174.942 150.217 175.59C150.122 176.143 148.861 176.617 148.597 177.908C148.278 179.494 148.082 182.32 149.982 182.633L150.284 183.493C150.284 184.7 148.962 184.448 148.485 185.666C147.914 187.113 148.015 188.939 148.037 190.475C151.702 189.492 150.817 193.296 147.465 192.709C147.32 193.877 148.261 195.128 148.048 196.239C147.975 196.613 147.084 196.546 146.95 197.032C146.726 197.82 146.26 200.629 146.288 201.367C146.345 202.757 148.53 202.26 148.031 204.148L145.84 205.036L145.235 210.851C145.79 211.476 146.266 209.84 147.185 210.013C148.059 210.175 148.172 212.035 148.037 212.806L145.79 211.7L144.68 212.549L146.361 215.878C143.923 216.883 144.282 219.637 144.075 221.966L146.356 223.692C143.083 225.418 144.052 227.462 143.559 230.685C147.746 229.573 146.787 234.997 142.999 231.802C142.999 233.304 142.455 234.46 144.125 234.868L144.097 235.98C141.715 236.94 142.063 240.035 141.945 242.347C143.279 242.537 144.417 242.677 144.114 244.363L141.547 245.726L141.317 251.345C144.893 248.508 145.425 254.356 141.317 252.462V259.165C143.1 258.204 144.355 258.545 144.114 260.84L141.317 260.288V267.549C144.809 264.387 145.403 270.671 141.317 268.666V274.804H143.828C144.927 276.67 142.999 277.262 141.306 277.044C142.399 280.149 141.497 280.328 140.454 282.635C139.877 283.914 140.634 284.914 138.521 285.696C140.527 287.679 143.946 285.651 146.361 285.411C144.641 282.389 147.068 281.11 148.048 284.294L153.081 282.054C153.653 280.39 151.125 280.998 151.405 279.557C151.562 278.747 153.826 278.412 154.191 278.725C154.488 278.982 153.552 281.01 155.323 280.39L155.889 277.044C154.224 277.061 153.333 276.586 153.647 274.804H156.449C155.222 271.732 157.374 270.073 156.981 267.303C156.892 266.672 155.295 262.354 154.936 261.522C154.628 260.813 153.821 260.824 153.77 260.734C152.913 259.053 154.88 258.992 155.317 258.182C155.597 257.662 157.62 249.887 157.581 249.441C157.531 248.876 155.328 248.927 155.889 247.162L158.17 246.006C157.183 243.045 159.162 241.453 158.713 238.186C158.556 237.052 157.536 235.946 157.615 235.499C157.704 235.002 158.803 234.483 159.117 233.617C159.526 232.5 159.296 230.578 159.84 229.311C154.824 227.668 159.492 226.825 159.8 225.797C160.131 224.708 161.123 217.961 160.91 217.095C160.804 216.665 159.929 216.749 159.806 216.341C159.145 214.096 161.078 214.498 161.398 213.576C161.622 212.934 161.667 209.963 161.493 209.281C161.314 208.572 159.257 208.667 159.806 206.941L161.997 206.053L162.042 200.512C158.848 201.506 158.921 198.283 162.003 198.239C162.081 196.407 160.972 195.022 162.591 193.53C159.296 192.424 158.287 189.229 162.597 190.458C161.622 187.693 161.924 186.811 162.603 184.041C162.048 183.409 161.566 185.063 160.652 184.878C158.909 184.521 159.885 180.734 162.597 182.644C163.146 181.432 161.712 180.103 161.678 179.555C161.633 178.84 162.821 178.014 163.029 177.198C163.701 174.59 163.32 172.948 161.493 171.183C164.441 169.87 163.813 166.988 164.278 164.207C163.04 164.871 162.278 164.648 161.622 163.386C162.07 160.526 163.561 163.386 164.85 161.682C162.799 159.135 164.559 158.895 164.872 156.7C165.366 153.287 163.185 151.701 164.284 148.573L162.098 148.523C161.117 146.948 162.737 146.294 162.603 144.663C159.599 145.317 160.327 143.177 159.419 142.384C157.828 140.999 154.067 141.195 152.795 139.083C148.883 143.233 150.587 138.413 149.477 137.391C146.899 135.017 144.097 137.022 143.598 136.207C143.341 135.788 143.783 134.671 143.458 134.151C142.881 133.235 138.711 132.52 137.955 132.079C137.748 131.956 135.64 128.51 135.943 130.755C136.29 133.325 133.051 132.744 133.746 130.716C133.892 130.292 134.839 129.89 134.576 129.029C132.62 129.454 131.437 127.052 130.367 126.79C129.952 126.689 129.98 129.002 128.136 128.46C126.673 127.493 127.654 126.432 127.845 125.148C126.051 124.723 124.398 123.025 122.756 124.785L121.338 128.432C119.931 127.762 117.438 128.56 116.507 128.348C115.924 128.214 115.392 127.343 114.68 127.343C113.969 127.343 113.408 128.253 112.853 128.342C111.889 128.499 111.491 127.851 110.18 128.393C107.249 129.61 107.961 131.956 107.608 132.308C107.389 132.526 104.862 132.23 104.318 133.777L105.999 134.9L104.598 136.838L103.186 134.62C101.236 134.838 101.852 137.1 99.274 136.291V134.062L101.454 134.012L101.807 132.945L100.95 130.996C101.135 129.867 104.649 130.577 105.433 128.745L103.197 127.628L104.043 125.678L106.274 127.259L109.889 125.047C108.078 121.511 112.556 119.998 111.603 123.991C113.856 124.371 112.943 123.595 113.442 122.768C114.736 120.612 116.115 121.969 116.137 123.958C118.631 124.287 117.269 123.74 117.555 122.852C117.841 121.964 118.53 121.16 118.329 120.087H115.532C114.904 118.16 116.81 118.216 117.09 117.741C117.594 116.887 116.911 113.837 116.603 112.698C116.49 112.284 115.767 112.245 115.711 112.111L115.678 112.078ZM61.1312 114.468H59.4499L59.4219 116.088C58.9063 116.557 54.6414 115.004 53.8624 118.674C53.0666 122.422 55.342 121.897 55.5269 122.573C55.639 122.975 52.8144 125.511 53.9577 129.158C54.2155 129.973 55.3812 130.482 55.4765 131.018C55.5885 131.649 53.8008 133.302 54.4116 134.57L57.2082 134.017V136.246H54.9665L55.5325 140.156C57.3371 140.625 56.3171 138.726 57.1746 138.173C57.7406 137.81 59.1417 137.938 60.313 137.38C61.5795 136.771 63.3225 134.179 63.7428 134.051C64.8524 133.721 65.7716 134.961 66.4497 134.922C67.0157 134.894 68.3103 133.453 69.5432 134.012L69.2686 136.838C71.3198 137.603 73.0684 141.479 74.6095 142.122C75.5062 142.496 76.6607 141.334 77.3949 142.68C77.8152 144.322 74.1724 145.456 79.362 146.288C80.8415 148.534 75.8537 150.31 73.4719 148.249C72.8218 147.69 72.082 143.82 69.8291 142.948L68.7026 144.624L66.7579 143.228L68.9884 141.552C67.9516 139.955 67.195 140.457 65.6034 140.485L65.0486 138.486H63.4121C63.5298 141.619 61.714 139.949 60.3746 140.748C59.59 141.217 57.3035 144.356 56.3003 144.54C55.4821 144.697 54.7255 143.641 54.0474 143.58C52.9826 143.485 52.1475 145.836 50.5111 143.216L52.7752 141.491C52.2596 139.569 51.2172 137.246 50.7857 135.386C50.427 133.844 51.9402 132.895 48.8186 131.476C48.6224 130.688 50.1916 129.973 50.4942 128.678C51.1499 125.874 49.0315 128.147 48.3982 128.281C46.9243 128.588 44.8955 128.035 43.1918 129.258L43.2199 132.319H40.9837L40.1487 130.091C38.501 133.42 37.8397 131.627 35.783 131.872C34.6453 132.007 32.9024 133.509 31.4621 133.448L33.0873 134.045L33.1377 136.229H30.9016L30.0666 134.001L29.1699 136.179C26.491 135.682 24.9387 135.777 22.4952 137.072L21.9404 137.625C23.0164 138.541 23.6777 139.664 22.2038 140.697L20.5337 137.91C18.7627 138.424 19.2839 139.91 18.5946 140.468C18.32 140.692 15.8877 139.955 14.0943 141.552C13.0183 142.513 12.895 144.043 12.4187 144.384C11.8862 144.758 9.93595 143.451 9.04486 145.451L11.281 147.674C10.3114 149.143 9.2242 148.154 7.92401 147.959C6.64062 150.55 9.41475 149.282 9.03366 151.583L6.23711 153.281L7.36918 155.488C4.53341 156.689 5.65427 159.52 4.55582 161.917C5.41328 161.777 7.67181 161.972 7.35797 163.307C6.47249 164.558 5.9569 164.62 4.56143 164.151C5.88404 167.295 3.3565 169.993 3.45738 172.875C3.50782 174.305 5.41328 173.59 5.1723 175.601C5.01538 176.891 3.82166 176.483 3.52463 177.344C2.88574 179.187 3.04827 182.214 5.11065 182.907L4.0066 187.057C7.81752 183.672 8.3051 191.352 4.28121 187.615C4.20836 189.928 5.53658 191.564 4.56143 194.312L7.36358 195.161C7.58214 196.954 4.61187 196.267 4.55582 196.837L5.19471 202.098C9.86309 202.891 5.23955 204.539 5.08263 205.746C4.5278 210.007 7.10578 210.365 7.23468 211.337C7.33555 212.074 4.82483 212.856 5.79998 216.822C6.05777 217.877 7.20105 218.715 7.27951 219.262C7.38039 219.955 5.65426 221.508 6.24832 222.798C9.62211 221.256 10.2946 224.669 6.75831 225.351C7.25709 227.523 6.7415 230.009 9.0897 230.942L7.92961 235.086C12.4018 233.321 12.4074 237.957 7.92961 236.209C10.5973 239.538 6.64062 242.95 7.33555 245.866C7.50368 246.558 9.58848 246.464 9.04486 248.206L6.23711 249.899C9.26904 253.049 1.77609 256.115 9.03926 254.635V256.864L6.24272 256.311C6.41085 258.673 7.62698 259.835 6.83677 262.41L9.03366 263.292C9.70057 265.409 6.83117 264.963 6.7471 265.577L6.83677 269.906C7.33555 271.341 9.70057 270.029 9.03366 272.224L6.7471 273.385L6.78633 278.647H9.03926V280.881L6.78633 281.171C7.31874 282.356 7.30753 284.567 8.3051 285.389C8.53487 285.578 13.5059 287.589 13.8029 287.584C15.019 287.567 15.4394 285.506 16.9133 287.304C17.2832 287.757 16.9301 288.622 17.4233 288.969C20.0573 290.823 26.8946 290.605 30.0778 290.639C31.406 290.65 32.7679 292.186 34.819 290.097L33.6926 288.393L32.2018 289.181L30.8904 288.416C31.647 286.159 33.4404 281.987 30.896 280.529L30.8792 278.999L32.0057 277.826L28.6487 276.133C30.1226 274.056 30.7951 272.682 30.3692 269.978C30.1394 268.52 28.2172 269.107 28.6487 267.213L30.9016 266.068C30.117 264.756 30.6046 262.952 30.2123 261.74C29.9377 260.896 28.7888 260.416 28.6991 259.874C28.5983 259.288 29.4501 258.768 29.5342 258.277C29.9601 255.713 24.9162 256.892 25.8746 258.528C25.9306 258.623 27.6063 258.813 27.5166 259.952C27.427 261.092 25.0115 260.785 24.2269 260.288L23.05 262.187L24.7089 262.756L25.0115 264.7C23.9859 266.404 22.6017 263.577 22.2038 263.589C20.0125 265.471 19.3512 269.436 16.3192 269.744L16.8741 273.073C15.0415 273.86 14.7781 271.403 14.3465 271.391C13.136 271.363 12.4635 273.637 10.7149 273.073C10.3395 272.67 12.2898 267.459 12.6708 266.917C13.4162 265.867 14.5763 266.929 15.2376 266.638C15.6355 266.465 19.962 261.472 20.4832 260.723C20.8531 260.187 20.6346 259.187 20.9484 258.701C21.5705 257.735 23.5992 258.193 22.7025 255.177L28.9401 254.093C28.1723 251.312 30.5429 247.949 30.3412 245.475C30.2964 244.911 28.0827 244.961 28.6487 243.196L30.924 242.006L31.4508 236.767L28.6487 235.918C28.3685 234.567 30.5822 234.393 31.4508 234.527L31.2211 229.484C28.2676 228.719 27.214 226.429 30.8904 226.144C30.089 224.664 30.4309 222.837 29.8592 221.323C29.3604 219.994 27.511 220.72 29.764 217.509C28.6207 216.151 26.9842 217.408 26.407 215.258L29.1867 214.152C28.2228 211.694 28.8561 209.594 26.6368 207.762L27.5166 205.215L24.7201 204.081C24.098 201.942 27.0122 202.294 26.945 201.864C26.0147 198.892 24.6416 196.116 24.7761 193.005L22.4728 191.793C22.2206 190.855 24.0308 190.386 24.1036 189.051C24.126 188.671 22.8202 182.035 22.6465 181.611C22.2822 180.695 21.0605 180.74 20.8363 179.991C20.5617 179.092 21.5032 177.947 20.8587 177.243L18.589 176.394L18.6058 172.898L16.308 171.68C15.9325 170.278 19.1662 169.373 19.3904 171.417L20.7018 171.311C21.9179 170.205 22.2766 165.81 23.8682 165.815C27.001 165.826 23.3638 169.831 24.154 170.848L26.1156 169.859C27.5446 170.63 27.3765 171.16 26.9506 172.523L24.154 172.238L25.3422 178.07C29.8816 178.12 24.608 181.745 25.8297 183.136C26.8329 183.437 26.973 182.572 27.511 182.292C29.1531 181.454 29.9097 183.934 28.3349 184.817L26.3902 183.7C26.222 183.94 27.2981 189.196 27.4606 189.442C27.8305 190.011 28.9962 190.123 29.1755 190.726C29.5005 191.838 27.6792 192.726 28.5927 193.977L31.434 195.156L29.1755 196.842C29.3156 199.16 30.6831 201.216 31.2827 203.126C31.4901 203.791 31.0137 204.662 31.2435 205.338C31.5517 206.232 32.9136 206.276 33.1041 206.919C33.4123 207.985 31.2323 209.426 32.9192 210.449C36.3322 209.639 36.3434 212.269 33.0761 213.057C33.3395 214.392 33.4067 216.09 33.8215 217.341C34.1129 218.212 35.2225 218.743 35.3122 219.234C35.4635 220.039 31.8936 223.468 37.0383 222.234C37.3466 224.529 36.7413 224.725 34.7854 225.323C35.6429 226.669 35.0656 228.45 35.3514 229.657C35.5028 230.299 36.8086 230.031 37.072 231.45C37.3858 233.148 36.0408 232.695 35.9287 233.215C35.8446 233.6 35.4747 237.415 35.514 237.639C35.6373 238.37 37.4474 237.923 37.072 239.817C36.7917 241.224 35.5644 240.939 35.357 241.621C34.9423 243.006 35.3402 245.408 34.2362 247.078C34.791 247.715 35.2674 246.067 36.1921 246.24C37.0663 246.408 37.1784 248.262 37.0439 249.033L34.253 247.921C32.9192 249.843 35.57 251.34 35.3682 252.105C35.2113 252.708 33.7542 252.462 33.6253 253.78C33.3899 256.193 34.6621 257.651 35.2057 259.539C35.4131 260.265 34.8695 261.494 35.3066 262.114C35.6933 262.656 38.4338 262.013 36.7525 264.683C36.5115 265.063 35.5028 265.052 35.357 265.627C35.2113 266.202 35.2113 269.297 35.357 269.878C35.514 270.503 36.8198 270.258 37.0832 271.665C37.4306 273.559 35.5084 272.57 35.9399 274.452L37.0832 275.067L39.2913 274.737C39.975 276.631 37.8005 276.619 37.6044 277.362C37.2793 278.58 37.7725 280.781 37.0215 282.244L39.2913 283.395L38.7364 285.081L37.0551 284.785C36.8142 285.092 37.7277 289.522 37.9967 290.248C38.1984 290.801 38.8597 290.812 39.1119 291.13C39.4818 291.6 39.0391 292.499 39.5715 292.611C41.8356 293.102 40.0366 290.778 41.8244 290.371C42.9453 290.114 43.2815 291.801 43.2367 292.594C45.938 293.208 43.8868 290.913 46.3134 290.477C47.6697 290.985 47.1933 293.046 48.8186 292.599C48.6056 291.192 48.9082 290.857 50.2364 290.477C51.5927 290.985 51.1163 293.046 52.7416 292.599C52.5286 291.192 52.8312 290.857 54.1595 290.477L55.5605 292.599L56.7206 292.247L58.06 290.477C59.3883 290.857 59.6909 291.186 59.4779 292.594C62.0447 292.873 60.61 292.27 60.9463 291.482C61.714 289.695 63.9502 290.728 63.3953 292.594H65.0542C66.2423 287.109 67.1166 293.135 68.7138 293.158C68.5681 289.455 72.4855 289.946 71.2357 293.147H73.1973C72.3062 290.823 74.9738 290.751 75.17 289.963C75.523 288.583 74.9458 286.707 74.5703 285.349C74.1388 285.053 70.9443 286.109 70.4455 286.5C69.4368 287.282 69.4928 288.857 68.7138 289.242C67.6714 289.756 66.7523 288.65 66.9316 287.829C67.0661 287.215 69.4031 283.936 69.5545 282.814C73.0347 282.49 76.0106 281.037 75.0747 277.033L72.9226 276.111C72.8049 275.653 77.4677 272.263 74.3125 270.816C73.0964 270.258 73.6904 272.229 72.9394 272.777C72.3902 273.179 70.8995 273.145 69.9075 273.676C68.4504 274.452 67.6826 276.48 67.1614 276.804C66.5169 277.2 65.6427 276.876 64.4882 277.77C62.8966 279.004 65.9621 278.546 65.6258 280.015L64.2304 281.412L62.8181 279.194C61.333 278.703 61.8261 280.099 61.1368 280.552C58.9231 281.987 55.8071 281.903 54.4621 285.059C53.1787 285.137 45.9211 285.115 49.379 282.825C50.3429 282.182 52.6463 282.613 54.1707 280.892C54.8936 280.077 54.9384 278.82 55.0561 278.719C55.3307 278.49 58.4467 278.865 60.7893 276.407C62.7733 274.324 61.7981 275.513 64.1855 274.106C65.4969 273.33 67.2679 270.079 69.5376 269.967L70.1037 269.425L68.994 267.202L70.311 266.42C72.861 269.626 75.8537 263.935 75.0915 261.701C74.744 260.69 72.62 260.517 72.9226 259.383L75.198 258.193L75.7192 252.395C74.4638 253.004 73.1748 253.406 72.9226 251.563L75.7192 251.273C74.6207 247.558 76.8344 245.151 76.3244 241.459C76.1787 240.414 75.2989 240.727 75.17 240.292C74.5143 238.035 76.4365 238.454 76.7616 237.527C77.1763 236.337 76.6607 234.477 76.8849 233.153L75.2372 232.79L75.1475 230.886L76.9017 230.271L77.4397 225.334C74.3573 224.893 74.2677 221.552 77.4005 222.792C77.7143 221.636 76.8737 220.229 77.0194 219.251C77.3388 217.073 80.2475 215.593 75.17 216.643V214.414L77.9665 214.967C78.583 213.699 76.7896 212.04 76.9017 211.415C76.997 210.873 78.1739 210.365 78.4204 209.555C78.6558 208.79 78.7287 206.053 78.5437 205.304C78.3868 204.684 77.35 204.696 77.1315 204.377C75.8089 202.405 78.5886 202.411 79.0033 201.199C79.418 199.987 78.9361 198.188 79.1266 196.881L76.8513 195.15C81.0825 193.709 78.7007 191.687 79.6478 188.163L77.1203 188.174L76.8569 186.493H79.6534C78.5942 182.985 80.7687 180.907 80.2587 177.232C80.113 176.187 79.2331 176.5 79.1042 176.065C78.4485 173.808 80.3764 174.227 80.6958 173.3C80.9256 172.629 80.9424 170.205 80.8247 169.435C80.6005 167.977 78.6726 168.563 79.1042 166.664L81.2955 165.776C80.8919 164.62 81.4916 162.458 81.3347 161.643C80.9088 159.403 78.5718 161.235 79.0986 158.839L81.9063 157.147C79.0481 153.818 84.2545 154.365 83.4251 150.36C83.0496 148.551 81.9456 149.048 81.2842 148.098C80.976 147.657 81.245 146.679 80.8023 145.976C80.1746 144.981 76.8849 140.1 76.302 139.798C75.3661 139.312 74.2845 141.083 72.9338 140.128C72.138 138.385 74.6151 137.966 74.6151 137.625C74.6151 135.514 71.4543 136.408 71.247 136.218L71.7457 133.185L69.235 131.777L69.5096 129.275L67.2679 128.035L67.2847 124.539L65.312 123.969C66.8308 118.618 59.5003 120.897 58.9231 120.026C58.5981 119.529 59.0464 118.076 59.7694 117.803C61.5515 117.132 60.6941 119.383 62.2801 118.914L62.8349 116.144L60.8678 115.591L61.1648 114.451L61.1312 114.468Z" fill="black"/>
<path d="M115.678 112.078C115.734 112.212 116.457 112.256 116.569 112.664C116.877 113.804 117.561 116.853 117.057 117.708C116.777 118.183 114.871 118.121 115.499 120.042H118.295C118.497 121.12 117.819 121.891 117.522 122.813C117.225 123.734 118.598 124.243 116.104 123.919C116.082 121.93 114.703 120.573 113.408 122.729C112.91 123.556 113.829 124.332 111.57 123.952C112.523 119.959 108.045 121.467 109.855 125.008L106.24 127.22L104.01 125.639L103.164 127.588L105.4 128.706C104.615 130.538 101.101 129.828 100.916 130.956L101.774 132.906L101.421 133.973L99.2351 134.023V136.251C101.819 137.061 101.197 134.799 103.152 134.581L104.565 136.799L105.966 134.861L104.285 133.738C104.834 132.196 107.356 132.487 107.574 132.269C107.927 131.917 107.216 129.571 110.147 128.354C111.464 127.806 111.862 128.454 112.82 128.303C113.375 128.214 113.935 127.304 114.647 127.304C115.359 127.304 115.885 128.175 116.474 128.309C117.399 128.521 119.898 127.722 121.305 128.393L122.723 124.745C124.365 122.986 126.018 124.678 127.811 125.109C127.621 126.393 126.64 127.454 128.103 128.421C129.947 128.962 129.919 126.65 130.333 126.751C131.404 127.013 132.586 129.415 134.542 128.99C134.806 129.856 133.853 130.258 133.713 130.677C133.023 132.705 136.257 133.286 135.91 130.716C135.607 128.471 137.714 131.923 137.922 132.04C138.678 132.481 142.842 133.196 143.425 134.112C143.75 134.632 143.307 135.749 143.565 136.168C144.064 136.989 146.866 134.978 149.444 137.352C150.554 138.374 148.844 143.194 152.762 139.044C154.034 141.155 157.8 140.954 159.386 142.345C160.294 143.138 159.571 145.272 162.569 144.624C162.704 146.255 161.078 146.909 162.065 148.484L164.251 148.534C163.146 151.662 165.332 153.248 164.839 156.661C164.52 158.856 162.76 159.096 164.817 161.643C163.528 163.352 162.037 160.487 161.588 163.346C162.244 164.609 163.006 164.838 164.245 164.168C163.78 166.955 164.407 169.831 161.46 171.144C163.287 172.909 163.668 174.551 162.995 177.159C162.788 177.969 161.6 178.796 161.645 179.516C161.678 180.064 163.107 181.387 162.564 182.605C159.851 180.695 158.876 184.482 160.619 184.839C161.532 185.029 162.014 183.37 162.569 184.001C161.886 186.772 161.583 187.654 162.564 190.419C158.254 189.19 159.263 192.385 162.558 193.491C160.938 194.988 162.048 196.368 161.97 198.2C158.882 198.244 158.814 201.473 162.009 200.473L161.964 206.014L159.773 206.902C159.229 208.633 161.28 208.533 161.46 209.242C161.639 209.951 161.583 212.889 161.364 213.537C161.045 214.459 159.111 214.057 159.773 216.302C159.89 216.71 160.77 216.626 160.877 217.056C161.09 217.922 160.092 224.669 159.767 225.758C159.453 226.786 154.79 227.629 159.806 229.272C159.263 230.539 159.492 232.461 159.083 233.578C158.77 234.444 157.671 234.958 157.581 235.46C157.503 235.907 158.523 237.007 158.68 238.147C159.128 241.409 157.15 243.006 158.136 245.966L155.855 247.123C155.295 248.888 157.497 248.837 157.548 249.401C157.587 249.848 155.564 257.623 155.284 258.143C154.847 258.953 152.879 259.014 153.737 260.695C153.782 260.79 154.594 260.773 154.903 261.483C155.261 262.315 156.858 266.633 156.948 267.264C157.335 270.034 155.188 271.693 156.416 274.759H153.614C153.3 276.547 154.196 277.022 155.855 277.005L155.289 280.35C153.524 280.97 154.454 278.943 154.157 278.686C153.793 278.373 151.529 278.708 151.372 279.518C151.092 280.959 153.619 280.35 153.048 282.015L148.015 284.255C147.034 281.065 144.602 282.35 146.328 285.372C143.913 285.612 140.494 287.639 138.488 285.657C140.6 284.875 139.844 283.875 140.421 282.596C141.463 280.289 142.366 280.11 141.273 277.005C142.965 277.223 144.893 276.631 143.795 274.765H141.279V268.627C145.364 270.626 144.77 264.348 141.279 267.509V260.248L144.069 260.801C144.31 258.506 143.055 258.171 141.273 259.126V252.423C145.381 254.311 144.854 248.469 141.273 251.306L141.503 245.687L144.069 244.324C144.372 242.637 143.24 242.498 141.901 242.308C142.024 239.996 141.671 236.901 144.053 235.941L144.081 234.829C142.411 234.416 142.949 233.26 142.954 231.763C146.743 234.958 147.695 229.534 143.515 230.646C144.008 227.428 143.038 225.378 146.311 223.653L144.03 221.927C144.238 219.598 143.879 216.844 146.317 215.839L144.635 212.51L145.745 211.661L147.992 212.767C148.127 211.996 148.015 210.141 147.141 209.974C146.222 209.801 145.745 211.437 145.19 210.812L145.796 204.997L147.987 204.109C148.486 202.216 146.3 202.718 146.244 201.328C146.216 200.59 146.681 197.781 146.905 196.993C147.04 196.507 147.936 196.574 148.004 196.2C148.217 195.089 147.275 193.837 147.421 192.67C150.772 193.257 151.658 189.453 147.992 190.436C147.97 188.9 147.875 187.073 148.441 185.627C148.917 184.409 150.24 184.661 150.24 183.454L149.937 182.594C148.032 182.287 148.228 179.455 148.553 177.869C148.811 176.584 150.077 176.109 150.173 175.551C150.285 174.903 148.665 173.847 149.73 172.602L151.848 172.507C152.498 171.652 151.77 170.228 151.988 169.585C152.341 168.558 153.742 168.87 154.096 167.273C154.611 164.927 152.616 164.788 152.05 164.067C151.899 163.877 152.313 162.833 151.972 162.308C151.574 161.71 149.685 161.777 149.102 160.543C152.952 157.962 145.073 156.499 148.536 160.811L145.706 162.241L146.3 166.402C142.842 165.017 142.276 168.223 145.779 168.949C145.196 170.2 145.487 172.255 145.089 173.305C144.759 174.182 143.531 174.076 143.459 174.545C143.324 175.417 144.473 176.539 144.652 177.818C145.14 181.259 142.926 183.125 144.058 186.509C140.853 185.258 140.348 189.185 144.058 189.012C142.853 191.648 144.579 193.742 141.262 195.172C142.091 196.965 143.257 197.06 142.377 199.35L141.463 198.228L139.586 198.239L140.13 200.786L142.383 200.473C141.06 201.875 141.945 204.148 141.469 205.338C140.942 206.662 137.356 206.958 141.284 209.169C140.326 210.7 141.021 212.649 140.696 214.051C140.595 214.476 139.636 214.403 139.564 214.8C139.339 215.984 140.427 217.576 140.141 218.899C136.195 217.123 136.784 221.804 140.141 220.575C139.659 223.613 140.354 226.015 137.344 227.568L137.619 228.417C141.475 229.791 137.608 234.237 137.423 235.477C137.322 236.164 139.048 237.728 138.454 239.013L135.657 238.46L136.207 241.007L137.894 240.688L137.944 245.955L135.657 247.117L137.384 249.887V254.345L135.641 254.931L135.73 256.836L137.372 257.199C137.081 258.662 137.675 260.785 137.35 262.086C137.221 262.594 132.911 264.471 137.882 265.286C137.384 267.42 137.271 268.895 138.454 270.85L136.537 270.347C134.436 272.123 136.184 273.681 138.448 272.531C139.065 273.815 137.283 275.424 137.384 276.083C137.546 277.105 142.029 279.641 135.652 278.675C135.635 279.892 135.231 280.982 136.705 280.959L136.767 281.736L133.416 283.422L133.786 284.852C135.355 285.282 136.072 287.561 135.596 288.93C135.338 289.673 129.358 291.259 128.405 291.264C127.032 291.27 126.59 289.321 124.707 292.074L122.471 290.415L120.789 292.633C119.551 293.292 120.425 290.27 118.542 290.51L117.202 292.281L116.042 292.633L114.647 290.533L113.229 290.963L113.789 293.191C110.186 293.554 106.252 294.917 102.715 295.292C101.6 295.409 100.53 294.694 99.5713 294.845C99.1118 294.917 99.4649 296.425 97.8116 296.001C97.6042 295.945 97.565 295.141 97.3969 295.051C94.3033 293.493 96.2984 297.425 93.614 296.543L93.5691 294.923C91.0248 293.99 91.6413 296.369 89.691 296.543L89.6798 294.873C88.3796 294.253 86.8776 296.001 86.1547 295.884C85.6951 295.811 85.1347 294.984 84.3389 294.884C82.4222 294.644 80.3934 294.928 78.4768 294.303C78.2134 293.208 79.6088 292.761 79.6032 291.795C79.6032 290.913 78.0677 289.963 78.4768 288.723L81.2733 289.282L81.688 287.868C80.8866 286.254 79.9451 286.567 78.4768 287.042C79.5304 284.662 78.6337 281.596 81.6936 280.987C83.6159 280.602 85.2243 282.361 85.768 279.228H86.8664C87.7855 282.389 91.49 281.266 88.5589 278.116C90.0889 278.077 91.4731 276.887 92.835 276.603C93.4234 276.48 94.3313 277.116 94.9422 276.949C95.7941 276.714 95.7604 274.402 96.9541 275.318C97.2007 275.508 97.0326 277.519 98.9212 276.982C100.345 276.58 98.7979 274.637 99.7451 273.922C101.516 272.581 104.038 273.335 105.013 273.017C105.921 272.721 105.871 270.509 107.042 271.408C107.272 271.587 107.16 273.642 109.009 273.073C110.455 272.626 109.115 270.649 109.822 270.012C111.553 268.448 113.195 268.102 115.168 269.168L116.014 267.219C115.768 266.432 111.946 266.247 111.262 266.337C109.043 266.627 108.802 268.437 106.224 266.37C105.271 267.13 105.574 268.392 104.441 269.079C104.161 269.252 98.5906 271.274 98.2599 271.296C97.4697 271.347 96.7356 269.945 95.6203 270.816C95.0991 271.218 95.4578 272.765 93.8774 273.078L93.5972 270.844H91.3611L91.9215 273.637C89.2987 275.167 85.4765 273.626 84.3445 276.435C82.8593 276.809 83.7896 275.028 83.4982 274.776C83.1452 274.463 80.4439 274.704 80.9371 275.91L81.8281 277.547L78.4712 278.111L79.6144 275.586C77.1486 273.134 78.7626 270.732 79.4295 268.174C79.6088 267.487 79.0708 266.929 79.536 266.085C79.7097 265.772 84.2884 261.22 84.6135 261.069C85.5214 260.639 87.2083 260.952 87.3988 260.762C87.5389 260.628 87.3652 259.277 87.7239 258.59C88.3067 257.478 90.2458 256.819 90.2402 255.21C91.7814 257.405 94.2529 258.154 93.5243 254.702L91.9103 254.646C92.1232 252.032 94.8413 253.535 95.6035 252.434C95.9902 251.87 95.1776 250.876 95.525 250.183C95.8725 249.491 97.027 249.346 97.352 248.904C98.1479 247.821 98.8876 245.469 100.345 244.855C101.628 244.313 105.764 246.195 102.575 242.09C103.253 241.146 104.727 241.263 105.445 240.442C106.022 239.778 105.478 238.856 105.714 238.448C106.196 237.611 110.707 231.975 111.256 231.757L111.811 232.896C113.93 233.332 115.022 230.07 112.147 230.612C112.344 229.439 111.979 225.786 110.141 226.172C108.6 226.496 110.035 228.836 109.609 229.523C109.312 230.009 108.095 230.255 107.591 230.902C106.504 232.299 105.938 234.539 103.96 235.661L103.36 234.522L100.883 235.393L103.119 237.058C102.441 238.588 99.9356 238.303 99.42 238.99C98.9044 239.677 99.7171 240.738 99.4705 241.291C99.1847 241.923 98.0246 242.085 97.6827 242.531C97.0382 243.369 95.0823 247.273 93.8774 247.262C93.4683 247.262 92.6725 245.737 91.9047 246.547C90.6325 247.419 92.1625 249.167 91.4171 249.938C90.7782 250.602 89.6517 250.519 89.265 250.898C88.9232 251.234 88.9848 252.222 88.5589 252.686C86.6647 254.752 86.4629 255.244 83.4926 254.92C82.0523 255.797 84.1539 256.735 83.8065 257.445C83.3301 258.411 81.8842 258.31 81.4134 258.707C80.584 259.405 81.3181 261.271 79.5864 260.796C78.813 258.288 78.062 256.612 78.4824 253.836C78.6169 252.965 79.5808 252.3 79.5752 251.574C79.5696 250.993 78.0396 249.379 79.026 248.502L81.2621 249.061L81.6768 247.648C81.0323 246.38 80.2589 246.162 79.026 246.827C79.508 243.794 78.8074 241.381 81.8225 239.834L79.7658 237.644C80.4775 235.17 79.4127 233.511 81.5816 231.785L80.7129 228.389L83.5038 228.104C83.6944 226.294 82.6464 225.909 81.2733 226.719L81.3069 221.178L83.5374 220.229L83.4422 218.385L81.7945 218.028C82.0859 216.57 81.4919 214.431 81.8169 213.141C81.9907 212.454 83.7448 212.51 83.5431 211.376C80.5952 207.527 84.2156 204.467 82.9546 200.467C84.3501 200.937 84.8657 200.875 85.7511 199.624C86.0594 198.295 83.8008 198.088 82.949 198.233V192.653C86.2555 193.072 87.2643 189.933 83.4982 190.134L82.9938 185.169L85.7511 184.27C86.5301 181.918 83.6663 182.354 83.4758 181.7C83.4814 178.846 82.8257 177.003 85.7511 175.612L84.025 173.406C84.2884 172.082 83.7616 170.205 84.0587 169.027C84.238 168.306 86.306 168.418 85.7455 166.687C85.5606 166.117 84.2268 166.111 84.0587 165.452C83.8681 164.698 83.941 161.972 84.1819 161.202C84.4341 160.386 85.6054 159.883 85.7063 159.342C85.8408 158.627 84.1876 157.51 84.6359 156.348H87.438C88.1554 154.063 86.1154 154.505 86.3228 152.723C86.7992 151.36 89.0185 153.181 89.6742 151.595C90.3635 149.919 87.9761 150.416 88.5645 149.377L91.4283 148.193L91.4059 144.663L93.5747 143.719L93.0535 140.725L95.6147 139.597C94.4714 135.933 95.0711 136.883 98.075 135.402L96.971 133.191L99.7339 131.426L99.2015 128.421L101.387 128.37C102.261 125.734 99.1903 125.282 103.461 123.969L103.22 121.478C105.568 119.652 106.005 119.78 105.596 116.647L107.524 116.043C106.829 112.586 110.421 113.083 109.855 109.978C108.533 110.028 106.353 110.318 106.493 108.313C108.959 106.369 109.541 108.313 110.69 108.313C111.48 108.313 112.058 107.168 112.831 107.269C115.796 107.66 115.073 110.715 115.633 112.055L115.678 112.078ZM85.258 172.523C87.6118 172.831 90.0272 173.741 91.9439 171.68C91.0136 169.798 91.0192 167.362 89.1361 166.111C85.4205 165.888 87.623 167.508 87.3652 168.865C87.1298 170.127 84.2044 170.049 85.258 172.529V172.523ZM133.433 170.323C132.855 168.904 133.354 168.485 133.993 167.24C133.444 164.542 131.897 166.787 130.911 166.776C130.333 166.776 129.666 165.972 129.112 165.949C127.559 165.893 126.08 166.675 124.264 165.905L121.322 170.853C118.491 170.099 118.867 169.518 116.401 171.401L114.658 169.904L112.136 171.987L111.027 169.999L109.396 170.406C109.239 173.233 106.263 174.478 107.025 178.098L105.428 178.148C105.114 180.12 105.574 181.002 107.636 180.941C106.784 183.89 108.6 186.71 109.272 189.615C106.19 190.849 106.515 193.547 109.878 192.095L110.472 193.994C109.244 194.547 109.127 194.793 109.289 196.262L111.884 197.669L111.251 199.92L112.478 200.992C115.504 198.814 114.653 201.545 115.661 202.568C115.908 202.819 116.72 202.646 116.961 202.875C118.267 204.104 119.119 207.131 119.999 202.724H121.624C123.003 208.226 123.827 202.372 124.269 202.121C126.136 201.059 129.319 201.093 130.905 199.445L132.586 201.032C134.15 200.959 134.077 199.473 133.987 198.244C133.606 197.853 131.46 199.043 131.796 197.468C131.981 196.591 134.055 189.682 134.273 189.319C134.637 188.721 135.971 188.57 136.201 187.844L135.108 184.286L137.899 184.001L136.997 182.153L135.663 182.611C135.5 182.404 136.151 177.83 136.319 177.383C136.711 176.344 138.106 177.042 137.95 175.054C136.078 173.283 137.137 169.083 133.421 170.323H133.433ZM89.6181 206.706C89.5284 206.55 88.4916 206.394 88.0881 205.751C87.3428 204.562 87.623 200.948 85.499 202.707C84.9609 203.416 85.7343 204.288 85.4821 204.975C85.101 205.997 83.0275 206.544 82.9658 206.913C82.7192 208.477 86.3676 209.823 85.2412 212.761H87.4661C87.7014 211.934 86.9112 210.544 87.1915 209.935C87.6174 209.019 90.6493 208.477 89.6125 206.701L89.6181 206.706ZM83.0387 240.638L84.6807 240.984C89.5789 235.846 87.8864 231.657 80.7521 235.399C82.2092 237.471 83.5711 237.493 83.0387 240.638ZM85.9137 269.286C86.1939 268.8 89.0185 268.465 86.6198 266.381C84.5518 267.655 84.3221 267.738 82.226 266.437C79.6088 267.744 82.5343 269.012 81.8618 271.414C78.5384 268.638 78.0004 273.653 81.0267 273.112C81.6376 270.509 83.3077 273.542 84.8937 273.067C86.3844 272.626 85.4093 270.151 85.9081 269.286H85.9137Z" fill="white"/>
<path d="M61.1316 114.468L60.8346 115.608L62.8017 116.161L62.2469 118.931C60.6665 119.4 61.5183 117.149 59.7361 117.819C59.0132 118.093 58.5648 119.545 58.8899 120.042C59.4615 120.914 66.7976 118.635 65.2788 123.986L67.2515 124.555L67.2347 128.052L69.4764 129.292L69.2018 131.794L71.7125 133.202L71.2137 136.235C71.4211 136.425 74.5875 135.531 74.5819 137.642C74.5819 137.983 72.1048 138.402 72.9006 140.144C74.2457 141.1 75.3273 139.329 76.2688 139.815C76.8517 140.117 80.1414 145.004 80.7691 145.992C81.2174 146.702 80.9428 147.674 81.251 148.115C81.9123 149.064 83.0164 148.567 83.3919 150.377C84.2213 154.387 79.0149 153.84 81.8731 157.163L79.0654 158.856C78.5329 161.246 80.8755 159.42 81.3015 161.66C81.4584 162.469 80.8587 164.637 81.2622 165.793L79.071 166.681C78.6394 168.58 80.5673 167.993 80.7915 169.451C80.9092 170.222 80.8923 172.646 80.6626 173.316C80.3431 174.244 78.4209 173.825 79.071 176.081C79.1999 176.522 80.0797 176.204 80.2254 177.249C80.7298 180.924 78.561 183.002 79.6202 186.504H76.8236L77.087 188.19L79.6146 188.179C78.6674 191.704 81.0493 193.731 76.818 195.167L79.0934 196.898C78.9028 198.205 79.368 200.037 78.9701 201.216C78.5722 202.394 75.7756 202.422 77.0983 204.394C77.3168 204.718 78.3536 204.701 78.5105 205.321C78.7011 206.069 78.6226 208.801 78.3872 209.572C78.1406 210.381 76.9637 210.89 76.8685 211.432C76.7564 212.063 78.5442 213.716 77.9333 214.984L75.1367 214.431V216.659C80.2198 215.609 77.3112 217.09 76.9862 219.268C76.8404 220.245 77.6811 221.653 77.3673 222.809C74.2345 221.569 74.3241 224.909 77.4065 225.35L76.8685 230.288L75.1143 230.902L75.204 232.807L76.8517 233.17C76.6275 234.494 77.1431 236.354 76.7284 237.543C76.4033 238.476 74.4866 238.052 75.1367 240.308C75.2656 240.75 76.1455 240.431 76.2912 241.476C76.8012 245.168 74.5819 247.575 75.686 251.289L72.8894 251.58C73.1416 253.417 74.425 253.015 75.686 252.412L75.1648 258.21L72.8894 259.399C72.5868 260.539 74.7108 260.706 75.0583 261.717C75.8205 263.951 72.8278 269.637 70.2778 266.437L68.9608 267.219L70.0705 269.442L69.5044 269.984C67.2347 270.095 65.4637 273.352 64.1523 274.123C61.7649 275.536 62.74 274.34 60.7561 276.424C58.4135 278.881 55.2975 278.502 55.0229 278.736C54.8996 278.837 54.8604 280.093 54.1374 280.909C52.6131 282.635 50.3153 282.205 49.3458 282.841C45.8935 285.137 53.1511 285.159 54.4289 285.076C55.7739 281.92 58.8843 282.009 61.1036 280.568C61.7985 280.116 61.2997 278.719 62.7849 279.211L64.1972 281.428L65.5926 280.032C65.9289 278.563 62.8577 279.021 64.455 277.787C65.6094 276.893 66.4837 277.217 67.1282 276.82C67.6494 276.496 68.4172 274.469 69.8743 273.693C70.8663 273.162 72.357 273.195 72.9062 272.793C73.6572 272.246 73.0631 270.274 74.2793 270.833C77.4345 272.279 72.7717 275.664 72.8894 276.128L75.0415 277.049C75.9774 281.054 73.0071 282.506 69.5212 282.83C69.3755 283.953 67.0329 287.237 66.8984 287.846C66.7191 288.667 67.6382 289.773 68.6806 289.259C69.4596 288.874 69.4035 287.299 70.4123 286.517C70.9111 286.131 74.1112 285.07 74.5371 285.366C74.9126 286.729 75.4898 288.606 75.1367 289.98C74.935 290.762 72.2729 290.84 73.164 293.169H71.2025C72.4523 289.957 68.5293 289.466 68.6806 293.169C67.089 293.147 66.2147 287.114 65.021 292.599H63.3621C63.9169 290.739 61.6808 289.706 60.913 291.493C60.5712 292.281 62.0059 292.884 59.4447 292.605C59.6577 291.197 59.355 290.868 58.0268 290.488L56.6874 292.259L55.5273 292.61L54.1262 290.488C52.798 290.868 52.4954 291.203 52.7084 292.61C51.0831 293.057 51.5595 290.996 50.2032 290.488C48.875 290.868 48.5724 291.203 48.7853 292.61C47.1601 293.057 47.6365 290.996 46.2802 290.488C43.8592 290.918 45.9047 293.219 43.2035 292.605C43.2483 291.812 42.912 290.125 41.7912 290.382C40.0034 290.79 41.8024 293.113 39.5383 292.622C39.0115 292.504 39.4542 291.611 39.0787 291.141C38.8265 290.823 38.1652 290.806 37.9634 290.259C37.6944 289.527 36.7809 285.104 37.0219 284.796L38.7032 285.092L39.258 283.406L36.9883 282.255C37.7449 280.792 37.2461 278.591 37.5711 277.373C37.7673 276.63 39.9418 276.642 39.258 274.748L37.0499 275.078L35.9067 274.463C35.4751 272.581 37.403 273.57 37.0499 271.676C36.7922 270.269 35.4807 270.514 35.3238 269.889C35.1781 269.308 35.1781 266.208 35.3238 265.638C35.4695 265.069 36.4783 265.074 36.7193 264.694C38.4062 262.03 35.6601 262.667 35.2734 262.125C34.8363 261.505 35.3799 260.276 35.1725 259.55C34.6289 257.662 33.3567 256.204 33.5921 253.792C33.721 252.468 35.1781 252.719 35.335 252.116C35.5368 251.345 32.886 249.854 34.2198 247.932L37.0107 249.044C37.1452 248.273 37.0331 246.419 36.1589 246.251C35.2398 246.078 34.7578 247.72 34.203 247.089C35.3126 245.419 34.9091 243.017 35.3238 241.632C35.5312 240.945 36.7585 241.235 37.0387 239.828C37.4142 237.929 35.604 238.376 35.4807 237.65C35.4415 237.432 35.8114 233.617 35.8955 233.226C36.0132 232.706 37.3582 233.153 37.0387 231.461C36.7753 230.048 35.4639 230.31 35.3182 229.668C35.038 228.462 35.6096 226.68 34.7522 225.334C36.7081 224.736 37.3134 224.541 37.0051 222.245C31.8604 223.474 35.4247 220.05 35.279 219.246C35.1893 218.754 34.0797 218.223 33.7882 217.352C33.3735 216.101 33.3063 214.403 33.0429 213.068C36.3102 212.286 36.3046 209.65 32.886 210.46C31.1991 209.438 33.3847 207.996 33.0709 206.93C32.8804 206.282 31.5185 206.237 31.2103 205.349C30.9805 204.673 31.4569 203.796 31.2495 203.137C30.6498 201.227 29.288 199.171 29.1423 196.854L31.4008 195.167L28.5594 193.988C27.6459 192.743 29.4729 191.855 29.1423 190.737C28.9629 190.134 27.8029 190.017 27.4274 189.453C27.2648 189.207 26.1888 183.946 26.357 183.711L28.3016 184.828C29.8821 183.946 29.1199 181.466 27.4778 182.303C26.9342 182.577 26.7941 183.448 25.7965 183.147C24.5692 181.756 29.8484 178.131 25.3089 178.081L24.1208 172.25L26.9174 172.534C27.3433 171.172 27.5114 170.641 26.0823 169.87L24.1208 170.859C23.325 169.837 26.9678 165.838 23.835 165.826C22.2434 165.826 21.8903 170.217 20.6686 171.322L19.3572 171.429C19.1274 169.379 15.8937 170.289 16.2748 171.691L18.5726 172.909L18.5558 176.405L20.8255 177.254C21.47 177.958 20.5285 179.097 20.8031 180.002C21.0329 180.751 22.249 180.712 22.6133 181.622C22.7814 182.046 24.0872 188.682 24.0704 189.062C23.9919 190.391 22.1874 190.866 22.4395 191.804L24.7429 193.016C24.6084 196.127 25.9815 198.903 26.9118 201.875C26.979 202.31 24.0648 201.953 24.6869 204.092L27.4834 205.226L26.6035 207.773C28.8228 209.605 28.1896 211.705 29.1535 214.163L26.3738 215.269C26.951 217.414 28.5819 216.162 29.7307 217.52C27.4778 220.731 29.3272 220.005 29.826 221.335C30.3976 222.848 30.0502 224.675 30.8572 226.155C27.1808 226.434 28.2344 228.73 31.1879 229.495L31.4176 234.539C30.5434 234.404 28.3353 234.578 28.6155 235.929L31.4176 236.778L30.8908 242.017L28.6155 243.207C28.0494 244.967 30.2631 244.922 30.308 245.486C30.5097 247.966 28.1391 251.323 28.9069 254.104L22.6693 255.188C23.566 258.204 21.5373 257.746 20.9152 258.712C20.6013 259.204 20.8199 260.198 20.45 260.734C19.9288 261.483 15.6023 266.476 15.2044 266.649C14.5431 266.94 13.383 265.873 12.6376 266.929C12.2565 267.465 10.3062 272.682 10.6817 273.084C12.4359 273.648 13.1028 271.375 14.3133 271.402C14.7392 271.414 15.0082 273.871 16.8409 273.084L16.286 269.755C19.3123 269.448 19.9737 265.482 22.1705 263.6C22.5684 263.588 23.9471 266.415 24.9783 264.711L24.6757 262.767L23.0168 262.198L24.1937 260.299C24.9783 260.79 27.3881 261.114 27.4834 259.963C27.5787 258.813 25.8974 258.634 25.8414 258.539C24.883 256.903 29.9213 255.724 29.501 258.288C29.4169 258.779 28.565 259.299 28.6659 259.885C28.7612 260.427 29.9101 260.907 30.1791 261.751C30.5714 262.963 30.0838 264.767 30.8684 266.08L28.6155 267.225C28.184 269.124 30.1062 268.537 30.336 269.989C30.7563 272.693 30.0894 274.072 28.6155 276.145L31.9725 277.837L30.846 279.01L30.8628 280.54C33.4072 281.998 31.6082 286.17 30.8572 288.427L32.1686 289.192L33.6593 288.405L34.7858 290.108C32.7346 292.197 31.3728 290.667 30.0446 290.65C26.8613 290.616 20.0185 290.834 17.3901 288.98C16.8969 288.634 17.2556 287.768 16.8801 287.315C15.4118 285.517 14.9858 287.584 13.7697 287.595C13.4727 287.595 8.50166 285.584 8.27189 285.4C7.27432 284.579 7.28553 282.367 6.75312 281.183L9.00605 280.892V278.664H6.75312L6.71389 273.402L9.00044 272.24C9.66735 270.045 7.30234 271.358 6.80356 269.922L6.71389 265.594C6.79796 264.979 9.66175 265.426 9.00044 263.309L6.80356 262.427C7.58816 259.846 6.37203 258.684 6.2095 256.327L9.00605 256.88V254.652C1.74288 256.132 9.23022 253.065 6.2039 249.915L9.01165 248.223C9.55527 246.475 7.46487 246.575 7.30234 245.883C6.60741 242.967 10.5584 239.554 7.8964 236.225C12.3798 237.974 12.3686 233.338 7.8964 235.103L9.05649 230.958C6.70268 230.025 7.22388 227.54 6.7251 225.367C10.2614 224.686 9.58889 221.268 6.21511 222.815C5.62105 221.53 7.34718 219.972 7.2463 219.279C7.16223 218.726 6.02456 217.888 5.76676 216.838C4.79162 212.873 7.30234 212.091 7.20146 211.353C7.06696 210.376 4.48899 210.018 5.04942 205.762C5.20634 204.556 9.82988 202.908 5.1615 202.115L4.52261 196.854C4.58426 196.284 7.54893 196.971 7.33036 195.178L4.52822 194.329C5.50897 191.581 4.17514 189.944 4.248 187.632C8.27749 191.363 7.78992 183.683 3.97339 187.073L5.07744 182.923C3.01506 182.231 2.85253 179.209 3.49142 177.36C3.78845 176.5 4.98777 176.908 5.13908 175.618C5.38007 173.607 3.47461 174.322 3.42417 172.892C3.32329 170.01 5.85643 167.312 4.52822 164.167C5.92369 164.637 6.43928 164.575 7.32476 163.324C7.6386 161.989 5.38007 161.794 4.52261 161.933C5.62105 159.537 4.50019 156.7 7.33597 155.504L6.2039 153.298L9.00044 151.6C9.38154 149.299 6.61301 150.567 7.89079 147.975C9.19099 148.171 10.2782 149.165 11.2478 147.69L9.01165 145.467C9.90274 143.468 11.8586 144.775 12.3854 144.401C12.8674 144.065 12.9851 142.529 14.0611 141.569C15.8545 139.971 18.2812 140.709 18.5614 140.485C19.2507 139.927 18.7295 138.446 20.5005 137.927L22.1705 140.714C23.6445 139.681 22.9888 138.564 21.9071 137.642L22.462 137.089C24.9054 135.799 26.4578 135.698 29.1367 136.196L30.0334 134.017L30.8684 136.251H33.1045L33.0541 134.062L31.4288 133.464C32.8691 133.526 34.6177 132.023 35.7498 131.889C37.8065 131.643 38.4678 133.442 40.1155 130.107L40.9505 132.342H43.1866L43.1586 129.275C44.8623 128.046 46.8967 128.605 48.365 128.298C48.9983 128.169 51.1167 125.896 50.461 128.694C50.1584 129.99 48.5892 130.705 48.7853 131.493C51.9125 132.911 50.3938 133.861 50.7525 135.402C51.184 137.262 52.232 139.586 52.742 141.507L50.4778 143.233C52.1143 145.853 52.9549 143.501 54.0142 143.596C54.6923 143.658 55.4545 144.708 56.2671 144.557C57.2702 144.367 59.5568 141.228 60.3414 140.764C61.6808 139.966 63.491 141.63 63.3789 138.502H65.0154L65.5702 140.502C67.1618 140.474 67.924 139.966 68.9552 141.569L66.7247 143.244L68.6694 144.641L69.7959 142.965C72.0488 143.836 72.7885 147.707 73.4386 148.266C75.8261 150.321 80.8083 148.551 79.3288 146.305C74.1392 145.467 77.782 144.339 77.3616 142.697C76.6275 141.351 75.473 142.513 74.5763 142.138C73.0407 141.502 71.2866 137.62 69.2354 136.855L69.51 134.028C68.2827 133.47 66.9825 134.905 66.4165 134.939C65.7383 134.978 64.8192 133.738 63.7096 134.067C63.2893 134.19 61.5463 136.788 60.2798 137.396C59.1085 137.955 57.7074 137.826 57.1413 138.19C56.2839 138.742 57.3039 140.642 55.4993 140.172L54.9333 136.263H57.1806L57.175 134.028L54.3784 134.581C53.762 133.313 55.5553 131.655 55.4432 131.029C55.348 130.487 54.1823 129.985 53.9245 129.169C52.7812 125.516 55.6058 122.986 55.4937 122.584C55.3087 121.914 53.039 122.433 53.8292 118.685C54.6082 115.016 58.8731 116.568 59.3887 116.099L59.4167 114.479H61.098L61.1316 114.468ZM25.2641 270.861L17.9897 269.738C15.3725 273.62 24.0816 273.838 25.0175 272.564L25.2641 270.861Z" fill="white"/>
<path d="M58.6097 30.6809C57.1974 30.8708 51.5258 33.9316 51.0439 33.468L56.7098 24.0453C58.335 23.1014 62.7232 29.6922 65.6487 27.648C66.8143 26.8325 64.7295 19.3759 66.1811 17.2758C67.7278 17.1138 67.7391 18.9067 68.9496 19.8227C73.7413 23.4309 70.3787 17.1864 70.1993 16.3095C69.4428 12.6175 75.8036 13.5168 78.135 13.3436C81.6545 18.0913 77.6026 22.8333 78.0005 27.8323C79.7322 30.692 85.3197 21.0683 86.6367 20.0741C88.1219 22.6211 84.4343 24.0621 84.1036 25.9276C83.9411 26.8492 84.1372 26.8381 84.9667 26.7934C88.2676 26.6147 90.2235 20.6103 91.1202 20.6382C92.8015 23.1237 94.4547 25.3244 96.7077 27.3463C97.9518 28.4579 103.113 31.6751 103.45 32.3565C104.542 34.5627 102.379 37.8526 102.57 40.4498C102.71 42.3768 103.993 42.9968 104.262 44.3876C104.946 47.9231 102.413 51.8218 104.817 54.4469C107.888 57.8094 108.914 52.4138 110.455 50.5092C112.747 47.6718 118.172 42.3042 121.792 45.1974C128.411 50.4869 126.691 63.3334 121.462 69.0194C119.018 71.678 109.469 76.5262 106.678 72.985C105.938 72.0467 106.47 69.5779 105.131 68.6731C101.959 73.1191 101.869 79.0508 99.3473 84.1224C92.6333 97.5889 77.5802 107.693 63.0875 98.2815C50.2985 89.9704 46.3194 64.1265 46.0168 49.9507C45.9383 46.376 45.972 42.6002 47.6813 39.3327C52.8148 37.9475 57.713 35.8195 62.8017 34.2946C64.2476 33.8646 66.125 34.1271 67.4813 33.373C68.6189 32.7419 69.4091 30.6809 68.1482 30.6809C65.2788 30.6809 61.2941 30.3234 58.6209 30.6809H58.6097ZM79.6314 32.3565C82.7137 32.1666 85.6952 32.5073 88.7103 33.0826C92.3531 33.7752 99.252 37.981 100.939 33.7529C100.928 31.1835 91.7535 27.9663 89.4053 27.8714C87.0571 27.7764 79.1046 29.0108 79.6258 32.3565H79.6314ZM90.84 43.533C91.1986 43.1755 102.514 46.5882 97.5315 42.1645C93.9279 38.9697 83.616 38.6904 80.1918 42.7007L81.0829 44.0636L84.6752 43.533C81.9964 54.5642 93.3787 54.5084 90.8456 43.533H90.84ZM57.2086 45.7672C56.3679 49.3977 56.3679 52.4027 60.1957 54.0615C64.2196 52.5144 62.8913 48.504 63.0595 45.1695C63.9057 44.0133 67.173 45.5549 67.3019 43.2649C63.6311 40.1426 56.3455 41.4496 52.5458 44.1865C51.1223 45.2086 48.2081 47.5992 51.2512 48.4984L57.2142 45.7727L57.2086 45.7672ZM73.461 41.8518C71.4827 40.1147 68.7142 48.6716 68.165 49.6993C64.78 56.0779 59.6408 60.3396 65.6318 67.2544C67.2795 69.1534 71.3426 72.3651 72.839 69.025C72.6876 67.3214 66.7135 64.4896 66.7975 60.5518C66.8536 57.9769 75.8933 43.9854 73.461 41.8518ZM116.81 55.4523C117.55 54.6368 122.252 52.0843 119.988 50.4924C117.494 48.7386 110.707 57.6921 109.766 59.8872C108.987 61.708 109.805 63.3557 111.581 62.2498C112.131 61.9091 115.757 56.6141 116.81 55.4523ZM90.2403 78.6934C92.0393 77.5763 90.1394 69.321 86.6423 69.7846C85.2749 70.9128 86.138 72.46 85.2637 74.0072C82.3158 79.2072 73.7693 79.4418 68.675 79.3078C67.3636 79.2743 64.4886 77.8444 64.483 80.1232C64.483 81.9944 72.682 83.2343 74.2737 83.2064C78.5497 83.1338 84.4399 80.2852 87.2028 77.0512C88.3629 76.8055 88.5478 79.749 90.2403 78.699V78.6934Z" fill="white"/>
<path d="M102.604 86.5409C102.01 92.6905 101.713 99.0635 102.027 105.269C102.133 107.453 103.114 109.933 103.181 111.977C103.26 114.211 93.3623 134.732 91.4961 138.301C90.8012 139.631 86.6147 147.121 85.5163 146.858C82.0921 140.776 77.3677 135.509 73.5679 129.716C72.2117 127.65 71.2422 125.343 69.9868 123.232C69.2078 121.914 66.4729 118.897 66.2768 117.959C66.0918 117.071 67.5657 112.899 67.7843 111.324C68.0197 109.653 67.4985 107.207 67.9356 105.889C68.5577 104.018 71.2982 105.481 72.6264 105.526C89.1927 106.101 92.5329 98.544 101.32 87.2446C101.679 86.7811 101.309 86.2225 102.598 86.5409H102.604Z" fill="white"/>
<path d="M42.6321 56.9325C42.1558 56.536 36.9886 53.9052 37.5995 56.0835C38.9053 58.7646 42.0045 60.0995 43.0805 62.9145C44.5264 66.7015 44.0724 71.9965 45.4399 75.9175C33.7101 76.3811 25.9033 51.3638 37.5771 48.2639C44.0164 46.5492 42.2623 52.4753 42.6321 56.9325Z" fill="white"/>
<path d="M133.433 170.323C137.143 169.083 136.089 173.283 137.961 175.054C138.123 177.036 136.722 176.344 136.33 177.383C136.162 177.829 135.506 182.404 135.674 182.611L137.008 182.153L137.91 184.001L135.119 184.286L136.212 187.844C135.983 188.576 134.649 188.721 134.284 189.319C134.06 189.682 131.992 196.591 131.807 197.468C131.471 199.043 133.618 197.853 133.999 198.244C134.094 199.479 134.167 200.959 132.598 201.031L130.916 199.445C129.33 201.093 126.141 201.065 124.281 202.121C123.838 202.372 123.014 208.22 121.636 202.724H120.01C119.13 207.131 118.284 204.103 116.973 202.875C116.726 202.646 115.919 202.819 115.673 202.567C114.664 201.545 115.516 198.814 112.489 200.992L111.262 199.92L111.895 197.669L109.3 196.261C109.138 194.792 109.256 194.547 110.483 193.994L109.889 192.095C106.521 193.547 106.201 190.849 109.284 189.615C108.611 186.71 106.79 183.89 107.647 180.941C105.585 181.008 105.125 180.12 105.439 178.148L107.036 178.098C106.269 174.473 109.244 173.227 109.407 170.406L111.038 169.999L112.147 171.987L114.669 169.904L116.412 171.401C118.878 169.518 118.503 170.105 121.333 170.853L124.275 165.905C126.085 166.681 127.57 165.893 129.123 165.949C129.678 165.972 130.345 166.77 130.922 166.776C131.908 166.781 133.455 164.542 134.004 167.239C133.365 168.485 132.867 168.904 133.444 170.323H133.433ZM132.306 173.674H129.504L129.218 176.455L127.369 175.556L127.828 174.227H125.581C127.313 176.4 123.474 177.159 123.334 176.081V174.216L121.658 174.221C123.395 176.388 119.551 177.159 119.411 176.076V174.21H117.741V176.455L115.549 176.372L115.493 174.774C112.562 174.031 115.09 177.427 111.906 176.388C110.847 176.042 111.357 173.886 110.164 175.322L109.973 178.053C114.731 178.919 109.3 180.337 111.015 183.147C113.655 180.287 114.748 184.42 112.926 184.772L111.015 184.543C111.621 186.738 112.893 188.855 113.672 190.832C113.969 191.581 113.661 192.636 113.907 193.391C114.215 194.318 115.465 194.357 115.801 194.887C116.199 195.513 115.398 196.44 115.734 197.122C116.07 197.803 117.281 197.937 117.595 198.406C118.06 199.11 117.147 200.49 119.136 199.92C119.5 199.814 119.635 198.842 119.949 198.507L120.812 198.216L122.224 199.898C123.771 200.484 123.222 198.551 124.236 198.267C124.858 198.093 125.816 198.769 126.724 198.551C128.848 198.038 128.927 194.441 129.498 192.653C128.731 192.715 127.01 192.396 127.262 191.251C127.604 189.687 130.423 190.598 130.625 189.553L129.498 186.789C132.827 185.515 131.247 185.42 131.796 182.929C132.183 181.175 133.259 178.477 132.861 176.824C132.777 176.461 130.597 176.159 132.301 173.657L132.306 173.674Z" fill="black"/>
<path d="M89.6187 206.706C90.6555 208.482 87.6235 209.024 87.1976 209.94C86.9174 210.543 87.7076 211.934 87.4722 212.766H85.2473C86.3738 209.823 82.7254 208.482 82.972 206.913C83.028 206.55 85.1072 206.003 85.4883 204.975C85.7461 204.288 84.9671 203.416 85.5051 202.707C87.6291 200.948 87.3489 204.561 88.0943 205.751C88.4978 206.393 89.5346 206.55 89.6243 206.706H89.6187Z" fill="black"/>
<path d="M85.9137 269.286C85.4093 270.151 86.39 272.626 84.8993 273.067C83.3133 273.542 81.6432 270.509 81.0323 273.112C78.006 273.653 78.544 268.638 81.8674 271.414C82.5343 269.012 79.6088 267.744 82.2317 266.437C84.3277 267.738 84.5574 267.655 86.6254 266.381C89.0241 268.464 86.1995 268.794 85.9193 269.286H85.9137Z" fill="black"/>
<path d="M85.2583 172.523C84.2047 170.043 87.1302 170.122 87.3656 168.859C87.6178 167.502 85.4153 165.882 89.1365 166.106C91.0196 167.357 91.014 169.792 91.9443 171.674C90.0332 173.735 87.6178 172.825 85.2583 172.518V172.523Z" fill="black"/>
<path d="M83.0385 240.638C83.5709 237.493 82.2035 237.471 80.752 235.399C87.8862 231.657 89.5787 235.846 84.6806 240.984L83.0385 240.638Z" fill="black"/>
<path d="M25.2645 270.861L25.0179 272.564C24.0876 273.832 15.3729 273.62 17.9901 269.738L25.2645 270.861Z" fill="black"/>
<path d="M73.4614 41.8518C75.8936 43.991 66.8595 57.977 66.7979 60.5519C66.7082 64.4896 72.688 67.3214 72.8393 69.025C71.3486 72.3595 67.2798 69.1535 65.6322 67.2544C59.6412 60.3396 64.7803 56.0779 68.1653 49.6994C68.7089 48.6716 71.4831 40.1147 73.4614 41.8518Z" fill="black"/>
<path d="M90.2408 78.6934C88.5483 79.7435 88.3633 76.8 87.2032 77.0457C84.4403 80.2797 78.5502 83.1283 74.2741 83.2009C72.6825 83.2288 64.4778 81.9888 64.4834 80.1177C64.489 77.8333 67.364 79.2687 68.6754 79.3022C73.7697 79.4419 82.3163 79.2017 85.2641 74.0017C86.144 72.4545 85.2753 70.9073 86.6428 69.7791C90.1343 69.3155 92.0397 77.5708 90.2408 78.6878V78.6934Z" fill="black"/>
<path d="M90.8403 43.533C93.3734 54.5084 81.9911 54.5643 84.67 43.533L81.0776 44.0636L80.1865 42.7008C83.6107 38.6904 93.9283 38.9697 97.5262 42.1646C102.508 46.5883 91.1934 43.1755 90.8347 43.533H90.8403Z" fill="black"/>
<path d="M57.2085 45.7672L51.2455 48.4929C48.2024 47.5936 51.1166 45.203 52.5401 44.1809C56.3398 41.4496 63.6254 40.137 67.2962 43.2593C67.1673 45.5549 63.9 44.0133 63.0538 45.1639C62.8857 48.4984 64.2195 52.5088 60.19 54.056C56.3679 52.4027 56.3623 49.3921 57.2029 45.7616L57.2085 45.7672Z" fill="black"/>
<path d="M79.6311 32.3565C79.1099 29.0108 86.9896 27.7708 89.4106 27.8713C91.8317 27.9719 100.933 31.1835 100.944 33.7528C99.2518 37.981 92.3585 33.7752 88.7157 33.0826C85.7006 32.5073 82.7191 32.1665 79.6367 32.3565H79.6311Z" fill="black"/>
<path d="M116.81 55.4524C115.757 56.6142 112.131 61.9092 111.581 62.2499C109.805 63.3558 108.987 61.7081 109.766 59.8872C110.707 57.6922 117.494 48.7443 119.988 50.4925C122.252 52.0788 117.55 54.6313 116.81 55.4524Z" fill="black"/>
<path d="M132.306 173.674C130.602 176.171 132.777 176.478 132.866 176.841C133.264 178.5 132.188 181.192 131.802 182.946C131.252 185.437 132.833 185.532 129.504 186.805L130.63 189.57C130.429 190.615 127.604 189.704 127.268 191.268C127.021 192.408 128.742 192.732 129.504 192.67C128.932 194.457 128.848 198.054 126.73 198.568C125.822 198.786 124.869 198.11 124.241 198.283C123.227 198.568 123.776 200.501 122.23 199.914L120.817 198.233L119.954 198.524C119.635 198.859 119.506 199.831 119.142 199.937C117.158 200.506 118.066 199.127 117.6 198.423C117.287 197.948 116.093 197.837 115.74 197.138C115.387 196.44 116.205 195.53 115.807 194.904C115.465 194.374 114.215 194.329 113.913 193.407C113.661 192.653 113.969 191.598 113.677 190.849C112.898 188.872 111.626 186.755 111.021 184.56L112.932 184.789C114.753 184.437 113.661 180.304 111.021 183.164C109.306 180.354 114.731 178.935 109.979 178.07L110.169 175.338C111.357 173.903 110.853 176.059 111.912 176.405C115.095 177.444 112.573 174.048 115.499 174.791L115.555 176.388L117.74 176.472V174.227H119.422V176.092C119.556 177.17 123.395 176.405 121.663 174.238H123.345L123.339 176.092C123.479 177.17 127.318 176.411 125.586 174.238H127.834L127.374 175.567L129.224 176.467L129.509 173.685H132.312L132.306 173.674Z" fill="white"/>
</g>
<defs>
<clipPath id="clip0_255_2606">
<rect width="168" height="300" fill="white"/>
</clipPath>
</defs>
</svg>
