<svg width="152" height="305" viewBox="0 0 152 305" fill="none" xmlns="http://www.w3.org/2000/svg">
<g clip-path="url(#clip0_255_2719)">
<path d="M107.427 0.062622C108.013 2.69585 104.156 2.88922 104.02 5.17553L112.546 3.47502C113.928 4.64092 107.933 6.52343 107.586 6.73954C107 7.10922 106.591 6.70542 106.858 8.01919C123.667 9.86189 125.202 32.6794 125.06 45.8342C125.049 46.9319 124.406 48.0409 124.457 49.2466C124.622 53.3415 127.876 56.242 127.358 62.9246C126.841 69.6073 122.484 70.739 122.768 77.143C123.473 93.0902 130.043 109.544 130.538 126.697C130.589 128.477 129.639 130.911 130.276 132.765C130.686 133.954 139.053 136.337 141.181 137.781C147.233 141.893 151.084 150.219 151.727 157.38C152.841 169.898 150.225 185.157 149.531 197.692C148.029 224.905 148.228 251.926 147.273 279.037C147.193 281.301 146.095 284.31 146.118 286.408C146.152 289.428 148.877 294.615 145.538 297.214C143.473 298.824 135.225 298.34 132.244 298.71C119.338 300.331 106.266 304.192 92.9447 304.915C85.3055 305.33 77.7629 303.891 70.1919 303.732C59.9077 303.516 49.0261 304.369 38.8613 303.777C33.1049 303.442 27.6442 301.684 21.8252 302.054C18.8218 302.247 15.8753 303.311 12.7013 303.214C10.864 303.157 4.56719 302.35 4.01544 300.513C3.5035 294.353 0.909683 288.632 0.466004 282.45C-0.756959 265.484 0.744725 248.678 1.08033 231.833C1.39887 215.709 0.1304 199.551 2.27485 183.547C4.26572 168.675 7.34303 149.912 20.7786 141.194C21.7114 140.585 25.9946 138.885 26.1027 138.435C26.188 134.977 25.0731 131.093 24.948 127.72C24.6067 118.331 31.0059 111.062 33.6225 102.281C35.875 94.7111 36.1424 87.2209 36.2277 79.5146C29.3734 74.4017 27.0754 62.0943 31.8592 55.0249C32.8432 53.5747 34.0434 53.3017 34.8512 52.3292C36.9103 49.8779 36.9615 43.4171 37.8602 39.982C42.1775 23.4887 61.2558 5.64189 78.1895 2.95747C86.2952 1.67214 92.137 3.56033 99.634 6.34143C101.676 3.45227 103.081 -0.568671 107.41 0.0512474L107.427 0.062622ZM121.084 47.8362V32.196C121.084 28.1466 117.609 18.7512 115.06 15.4696C110.584 9.70264 107.706 11.2894 101.71 10.0496C98.6329 9.41259 95.3053 6.76229 91.6194 5.92057C68.6391 0.654104 45.198 23.2499 40.6872 44.5091C40.2948 46.3632 39.2197 50.9187 40.0388 52.3803C40.3744 52.9832 42.6155 54.5984 43.4346 53.5064C44.9306 51.5159 45.2776 44.219 46.7054 41.4209C48.1331 38.6227 50.8122 39.2711 52.2798 37.326C54.5778 34.289 55.852 24.2053 59.9759 23.9608C60.977 23.8982 61.3126 23.9608 61.9213 24.7968C60.96 25.7523 59.5322 26.1333 58.9464 27.4983C58.0249 29.6253 56.819 37.1042 60.2262 37.5933C59.5266 33.305 68.8666 18.4099 72.9905 19.428C73.5195 19.5588 74.3727 22.1693 76.1588 21.6802C74.3557 25.2802 71.9382 30.8652 72.8654 34.9202C73.4513 37.4739 80.5046 43.1271 82.9733 40.1583C79.4921 36.4388 79.7822 31.0529 81.2441 26.4746C84.0029 17.8753 86.0734 26.8215 87.6035 29.8472C90.6922 35.961 96.7956 41.0398 104.025 38.7308C102.819 35.4492 98.9458 33.9534 97.7456 30.5126C97.1654 28.8576 97.0857 27.3845 97.2052 25.6556C99.8217 25.2006 99.6397 28.3116 100.817 30.2851C101.739 31.8263 105.959 35.961 106.056 36.4103C106.238 37.2634 105.243 38.0653 105.18 39.0379C105.015 41.7166 107.034 50.3045 109.725 51.55C111.727 52.477 112.802 49.7016 114.293 48.712C116.716 47.1082 118.382 47.3698 121.09 47.8305L121.084 47.8362ZM73.3034 22.2489C71.4604 20.7929 66.4889 29.1078 65.812 30.3931C64.3672 33.1458 62.5811 36.4274 63.605 39.5384L63.0646 40.1753C60.1807 39.8455 57.274 41.2275 56.1421 37.7127L54.5835 37.6559C52.3367 42.9053 48.7872 47.2788 47.4107 52.9491C42.4563 73.3666 59.1568 109.475 84.4921 99.6932C101.909 92.9651 108.832 74.032 109.685 56.68C109.549 54.4392 104.861 51.2713 103.883 48.257C103.183 46.1072 103.57 43.7811 102.819 41.6427C92.7342 43.2181 88.6103 37.0985 83.8208 29.6367C81.1701 33.2425 85.3567 37.1156 85.7378 39.726C86.153 42.5754 79.7822 43.7015 77.5809 43.2749C76.9438 43.1498 72.7687 40.2208 72.1487 39.6123C67.0008 34.5676 70.2261 27.5381 73.3034 22.2546V22.2489ZM115.919 72.7865L114.827 69.175L116.244 68.3105L119.059 71.1315C124.287 67.4802 125.066 60.9056 123.2 55.1046C120.083 45.402 109.389 53.2221 113.405 60.3369C113.934 60.3255 119.645 52.5396 121.079 56.0885C121.602 57.3909 120.771 57.2885 120.379 57.6809C115.22 62.8848 111.306 66.4906 110.845 74.5609L115.919 72.7865ZM42.5814 60.9113C42.2515 54.2003 35.8864 53.6316 33.6339 60.2118C32.4109 63.7834 34.1287 75.0273 38.4518 75.6301C39.3505 75.7552 44.7827 72.758 43.6792 70.9267C43.264 69.6698 41.3186 70.0338 40.3061 70.0111L41.9728 65.8195C41.7566 64.5854 37.5872 62.8678 36.478 62.1967C35.7954 61.7815 35.2436 61.8668 35.7613 60.6383C36.6429 58.5454 40.9603 61.1616 42.5814 60.917V60.9113ZM115.424 130.843L125.373 132.429L126.204 131.156C126.556 118.751 124.156 106.808 122.313 94.6599C121.357 88.3754 120.51 82.0397 119.935 75.7041L117.677 79.9753C116.517 81.2037 114.759 81.8578 113.126 81.1013C112.068 80.6122 110.766 77.2055 109.714 77.9733C108.377 81.09 106.864 84.9972 105.055 87.8238C103.246 90.6504 99.2927 93.7898 98.2859 96.4116C95.9879 102.383 96.1813 119.03 98.9628 124.831C100.368 127.766 106.648 130.809 107.393 125.991C108.627 118.023 105.442 108.952 106.244 101.064L107.967 100.745C108.61 101.155 110.146 113.946 110.271 115.8C110.493 119.064 109.594 126.316 110.373 128.778C110.612 129.529 111.198 129.882 111.977 129.728C113.041 128.96 112.95 116.858 113.189 114.725C113.695 110.272 115.618 112.057 115.976 115.214C116.249 117.631 114.526 129.91 115.424 130.837V130.843ZM38.6054 80.8227V94.1879C38.6054 104.943 27.7011 117.216 27.7807 127.146C27.8035 130.109 29.2198 134.05 29.5441 137.082L38.4745 135.285C39.214 130.837 42.1548 107.422 46.8646 106.421C50.2605 105.699 46.4323 112.171 46.1252 113.087C45.5563 114.782 40.4313 134.949 42.3084 134.864L48.1388 133.015C49.083 130.12 51.0284 114.128 53.1273 113.263C53.3776 113.161 54.538 113.036 54.538 113.53L51.6939 130.871C56.2729 129.938 61.324 125.974 63.4742 121.897C65.2147 118.598 67.9223 107.883 66.9326 104.545C66.4775 103.02 59.0772 99.3292 57.0749 97.3444C54.902 95.1889 49.0318 84.9574 48.2867 84.4853C47.752 84.1441 45.0501 85.1678 43.1332 84.5536C40.8522 83.8256 40.7783 81.1866 38.611 80.8283L38.6054 80.8227ZM70.4593 104.704C70.5332 110.96 69.6857 117.301 66.7733 122.915C66.0339 124.342 62.2853 128.869 62.5584 129.899L85.5444 149.526C86.7673 149.423 97.2962 131.457 97.4953 129.222C97.592 128.153 95.6694 125.076 95.1972 123.478C92.7172 115.066 92.757 107.496 94.9128 99.0164C87.1257 103.708 79.8164 106.819 70.4593 104.704ZM60.6073 131.628C60.0328 131.133 59.3047 130.774 58.5141 130.877C58.3832 131.923 59.1056 132.657 59.6574 133.425C62.4105 137.213 71.4661 145.726 75.2772 149.088C76.5456 150.208 85.3339 157.158 86.0392 157.01L104.02 131.741L100.692 130.962L87.5523 153.359C85.3396 155.912 80.9654 151.05 78.9859 149.361C72.672 143.992 66.614 136.775 60.613 131.628H60.6073ZM145.538 208.788C146.152 192.783 148.82 176.768 147.842 160.707C147.33 152.273 145.504 143.821 137.313 139.954C128.473 135.779 117.848 134.886 108.4 132.651L88.6558 158.455C86.0904 160.838 84.5205 159.928 81.8812 158.403C71.3751 152.346 63.8155 141.12 55.3855 132.68C54.7712 132.68 51.1308 136.138 50.1353 136.433C38.3153 139.971 27.2631 138.754 17.5306 148.195C9.70364 155.793 6.08025 178.275 5.045 189.172C4.88004 190.884 4.24297 197.618 4.58426 198.727C5.15877 200.586 14.3907 203.783 16.5522 204.386C19.5556 205.222 22.997 206.274 26.0174 205.307C26.2961 201.661 27.0185 197.976 27.9514 194.444C29.2028 189.718 32.0924 179.612 34.0036 175.471C34.2425 174.954 34.3733 174.419 34.908 174.095L36.2903 174.999C34.4416 186.92 28.4121 198.505 29.5042 210.767C30.1186 217.694 33.9695 224.143 35.5906 230.843C38.0707 241.097 38.5144 252.017 36.9444 262.447C53.7246 272.241 74.5662 272.861 93.4055 270.125C105.709 268.34 120.225 265.172 119.958 249.992C119.611 230.286 125.629 220.89 128.399 203.316C129.781 194.558 127.796 185.936 127.847 177.217C127.865 174.419 129.247 173.361 130.208 176.614C130.999 179.299 131.704 187.215 131.869 190.309C132.119 194.99 131.966 199.802 131.363 204.425C132 206.467 143.137 208.503 145.526 208.793L145.538 208.788ZM25.5168 208.788C18.1904 209.322 11.3589 206.478 5.045 203.1C3.08257 209.288 11.9846 211.893 16.7115 212.189C19.0664 212.336 25.9434 212.262 25.5168 208.788ZM145.543 211.625C140.316 212.422 135.737 209.362 130.817 208.839C130.436 209.953 129.736 210.96 130.743 211.916C132.404 213.48 143.86 217.705 145.299 215.646L145.549 211.625H145.543ZM24.3223 298.585C24.9651 296.122 24.1232 293.375 24.4247 291.021C24.7262 288.666 26.3814 286.158 26.6658 283.576C27.337 277.451 26.3587 270.029 26.6658 263.67C27.0242 256.311 28.5998 248.86 28.9582 241.507C29.3791 232.771 29.8967 222.653 26.097 214.714C22.0584 215.095 18.0255 216.124 13.9129 215.561C10.591 215.1 7.71277 212.359 4.48187 211.631C3.36698 219.036 4.11214 226.629 3.9358 234.119C3.53763 251.084 2.87211 268.243 4.55013 285.214C4.98812 289.627 6.7344 294.211 6.26796 298.852C6.46136 299.591 6.96192 299.665 7.61038 299.785C9.61262 300.154 23.452 299.688 24.328 298.585H24.3223ZM144.975 219.588C139.304 220.128 134.349 217.245 129.378 215.055C128.212 215.391 124.571 227.311 124.179 229.233C122.148 239.26 122.666 248.064 122.757 257.954C122.819 264.808 123.633 271.587 123.359 278.452L128.28 296.401C131.886 295.502 143.757 296.566 144.685 292.465L144.975 219.593V219.588ZM34.197 264.387C33.5258 263.329 34.8056 244.521 33.7988 239.465C33.6054 238.487 33.2414 235.984 32.354 235.518L30.6476 274.186L35.693 266.389C36.0457 264.58 34.5554 264.938 34.2027 264.387H34.197ZM116.528 267.361C113.007 268.038 110.169 270.245 106.596 271.359C92.3076 275.818 69.7027 276.216 55.2035 272.662C49.3674 271.234 44.0831 268.539 38.3949 266.747L35.7214 273.822C35.9035 274.692 46.5461 278.008 48.281 278.446C63.3831 282.268 86.682 282.933 101.756 279.026C107.125 277.633 112.25 274.476 117.677 274.186L116.534 267.361H116.528ZM43.0706 279.959C41.074 279.595 35.1811 275.477 33.759 277.018C33.3438 277.468 29.3791 286.59 29.0719 287.699C28.7932 288.723 27.1778 297.265 27.229 297.788C27.4565 300.137 30.841 300.643 32.701 300.854C43.2469 302.031 53.042 300.706 63.3718 300.899C65.374 300.939 72.5753 302.463 73.6219 300.962L74.3216 287.557L73.4797 284.992C67.9451 284.639 62.3251 283.388 56.7792 284.128L53.1046 295.809C52.8372 296.463 51.4436 296.583 51.1251 296.378C49.3219 295.195 52.8884 285.475 53.9407 283.621C53.7246 282.637 48.1217 281.153 46.9215 281.659C45.5336 282.143 43.7475 292.283 43.0023 294.24C42.735 294.939 42.2799 295.337 41.7282 295.798C36.9273 293.273 44.6178 282.421 43.0649 279.964L43.0706 279.959ZM76.7447 301.462C92.7286 303.572 108.803 299.773 124.509 297.237L123.65 291.811L119.088 277.035C118.257 275.352 113.303 278.992 113.257 279.583C113.957 281.682 120.123 291.538 118.803 292.954C117.484 293.159 117.04 292.738 116.272 291.794C114.696 289.849 111.812 281.682 110.277 280.692L103.468 282.171L106.289 295.798C101.784 296.634 101.414 283.786 99.708 283.354L77.2851 284.998L76.7447 301.457V301.462Z" fill="black"/>
<path d="M73.3034 22.2489C70.2261 27.5381 66.9952 34.5676 72.1487 39.6066C72.7687 40.2151 76.9439 43.1441 77.5809 43.2692C79.7823 43.7015 86.1531 42.5754 85.7378 39.7203C85.3567 37.1155 81.1702 33.2425 83.8209 29.631C88.6104 37.0871 92.7286 43.2067 102.819 41.637C103.57 43.7754 103.184 46.1015 103.883 48.2513C104.862 51.2656 109.549 54.4391 109.685 56.6743C108.838 74.0263 101.909 92.9651 84.4921 99.6875C59.1569 109.47 42.4563 73.3609 47.4107 52.9434C48.7873 47.2731 52.3367 42.8996 54.5836 37.6502L56.1421 37.707C57.2741 41.2218 60.1808 39.8398 63.0647 40.1696L63.605 39.5327C62.5755 36.4217 64.3673 33.1401 65.8121 30.3874C66.4833 29.1021 71.4604 20.7872 73.3034 22.2432V22.2489ZM53.3947 47.2617C57.6893 47.3925 61.3923 43.7925 65.8234 44.765C67.6323 45.1631 70.2773 47.6826 71.0225 44.7195C68.7813 41.5573 65.3343 41.1308 61.6881 41.6313C60.2149 41.836 51.347 45.2939 53.3947 47.2617ZM97.757 47.2617C97.6887 41.6825 89.2076 41.4265 85.2486 43.0019C83.3602 43.7527 78.7186 47.9499 82.6548 47.239C85.2259 46.7783 87.0518 44.7934 90.0609 44.9641C92.7457 45.1176 95.0835 47.0911 97.757 47.2617ZM75.573 73.4234C76.1248 71.3646 73.5935 70.6651 73.019 69.4309C71.8245 66.8716 74.0941 65.4441 74.8791 63.3455C76.1134 60.0639 79.2419 52.9093 74.788 51.2713C72.1715 52.7102 74.0599 54.7292 73.7642 57.061C73.3375 60.3881 69.3217 64.5057 69.3103 68.0205C69.2989 71.2964 72.1601 74.2481 75.573 73.4234ZM86.3806 51.8173L84.0882 52.7728C83.6161 62.9417 86.9494 57.2487 92.3248 58.1075C94.1962 58.4089 98.0243 61.736 99.2075 59.2165C100.391 56.697 89.93 54.1605 88.9232 52.3974C87.5865 51.9253 88.1894 54.4562 86.3863 54.0865V51.8173H86.3806ZM69.8905 58.6364C68.4798 51.7661 62.4048 54.951 57.7291 54.1263L56.802 56.9359L55.0728 54.1093L53.3663 54.3425C51.6541 56.4581 53.645 59.8819 56.0852 60.2573C58.5255 60.6326 61.1534 56.697 65.4992 57.624C67.0692 57.9596 67.9963 59.6203 69.8962 58.6364H69.8905ZM65.9713 77.4728C64.4241 80.9933 68.2864 84.3829 70.7551 86.4929C75.7607 90.7755 80.3113 92.8172 84.9244 86.4759C85.789 85.2872 89.9073 77.052 89.8106 76.0169C89.3783 71.4784 81.9438 77.3022 79.3841 78.0927C73.6049 79.8786 71.5515 78.1269 65.9713 77.4785V77.4728Z" fill="white"/>
<path d="M70.4595 104.704C79.8166 106.819 87.1259 103.714 94.913 99.0164C92.7572 107.496 92.7174 115.066 95.1974 123.478C95.6696 125.07 97.5922 128.153 97.4955 129.222C97.2964 131.457 86.7618 149.423 85.5446 149.526L62.5586 129.899C62.2912 128.863 66.034 124.342 66.7735 122.915C69.6859 117.301 70.5391 110.96 70.4595 104.704Z" fill="white"/>
<path d="M60.608 131.627C66.609 136.774 72.6726 143.992 78.9808 149.361C80.9603 151.05 85.3346 155.912 87.5473 153.359L100.687 130.962L104.015 131.741L86.0342 157.01C85.3289 157.152 76.5406 150.208 75.2721 149.088C71.461 145.726 62.4054 137.212 59.6523 133.425C59.0949 132.663 58.3725 131.923 58.509 130.877C59.2997 130.774 60.0278 131.138 60.6023 131.627H60.608Z" fill="white"/>
<path d="M34.1977 264.387C34.5504 264.938 36.0407 264.58 35.688 266.389L30.6426 274.186L32.349 235.518C33.2364 235.984 33.6004 238.487 33.7938 239.465C34.8007 244.521 33.5208 263.329 34.192 264.387H34.1977Z" fill="white"/>
<path d="M25.517 208.787C25.9436 212.262 19.0666 212.336 16.7117 212.188C11.9905 211.893 3.08845 209.288 5.04519 203.1C11.3591 206.478 18.1849 209.322 25.517 208.787Z" fill="white"/>
<path d="M145.544 211.625L145.294 215.646C143.854 217.705 132.398 213.479 130.737 211.915C129.731 210.966 130.43 209.959 130.811 208.839C135.732 209.362 140.311 212.422 145.538 211.625H145.544Z" fill="white"/>
<path d="M94.8223 189.587C97.5697 189.604 101.734 189.849 102.922 192.539C105.061 197.384 106.671 207.917 105.715 213.036C105.186 215.851 101.04 215.959 98.6107 216.17C88.4459 217.062 70.4143 218.342 60.8752 215.806C55.9264 214.492 55.005 213.042 54.5442 207.917C54.2371 204.505 53.6853 194.939 56.8536 193.181C58.361 192.345 66.7397 191.384 69.0491 191.157C76.7737 190.395 87.1831 189.536 94.828 189.581L94.8223 189.587ZM99.4412 192.886L57.9116 195.399L57.5135 195.963C58.9526 199.187 56.2165 210.812 60.0618 212.069C63.1675 213.087 67.4621 212.422 70.7215 213.354L101.751 211.625C102.513 204.988 100.602 199.261 99.4468 192.88L99.4412 192.886Z" fill="black"/>
<path d="M65.9713 77.4727C71.5514 78.1211 73.5992 79.8728 79.3841 78.087C81.9494 77.2964 89.3839 71.4726 89.8105 76.0111C89.9072 77.0462 85.789 85.2814 84.9244 86.4701C80.3169 92.8171 75.7607 90.7697 70.7551 86.4872C68.2864 84.3715 64.4241 80.9875 65.9713 77.4671V77.4727ZM85.2486 79.6908C84.8902 79.4064 76.9495 82.142 76.5001 82.4719C75.1862 83.4274 75.2431 86.8796 78.1839 87.0729C81.4603 87.2834 83.764 82.0624 85.2486 79.6965V79.6908Z" fill="black"/>
<path d="M75.5733 73.4234C72.1604 74.2537 69.2992 71.2963 69.3106 68.0204C69.322 64.5113 73.3378 60.388 73.7644 57.0609C74.0659 54.7348 72.1774 52.7158 74.7883 51.2712C79.2422 52.9035 76.1137 60.0582 74.8793 63.3454C74.0887 65.4441 71.8248 66.8716 73.0193 69.4309C73.5938 70.665 76.125 71.3646 75.5733 73.4234Z" fill="black"/>
<path d="M69.8911 58.6364C67.9912 59.626 67.0697 57.9597 65.4941 57.6241C61.1483 56.6971 58.4862 60.627 56.0801 60.2573C53.674 59.8877 51.649 56.4582 53.3612 54.3425L55.0676 54.1093L56.7969 56.9359L57.724 54.1264C62.3997 54.9454 68.4747 51.7662 69.8854 58.6364H69.8911Z" fill="black"/>
<path d="M86.3806 51.8171V54.0864C88.1895 54.4561 87.5865 51.9252 88.9233 52.3972C89.9301 54.1603 100.391 56.7026 99.2075 59.2164C98.0244 61.7302 94.1962 58.4087 92.3248 58.1073C86.9495 57.2485 83.6162 62.9416 84.0883 52.7726L86.3806 51.8171Z" fill="black"/>
<path d="M53.3952 47.2616C51.3474 45.2881 60.2153 41.8302 61.6886 41.6311C65.3347 41.1307 68.7818 41.5629 71.0229 44.7194C70.2778 47.6881 67.6328 45.163 65.8239 44.7649C61.3928 43.7923 57.6955 47.3924 53.3952 47.2616Z" fill="black"/>
<path d="M97.7571 47.2617C95.0836 47.0911 92.7458 45.1176 90.061 44.964C87.0519 44.7934 85.226 46.7783 82.6549 47.239C78.7187 47.9499 83.3603 43.7526 85.2487 43.0019C89.2077 41.4265 97.6888 41.6825 97.7571 47.2617Z" fill="black"/>
<path d="M86.7903 294.49C82.2738 298.34 81.176 287.347 85.5616 286.687C89.9472 286.027 88.9859 292.619 86.7903 294.49Z" fill="black"/>
<path d="M99.4412 192.886C100.596 199.267 102.501 204.988 101.745 211.631L70.7158 213.36C67.4565 212.427 63.1619 213.093 60.0561 212.075C56.2109 210.818 58.9469 199.193 57.5078 195.968L57.906 195.405L99.4355 192.891L99.4412 192.886ZM70.8409 196.929C70.1185 197.174 69.8228 197.902 69.5554 198.533C69.1004 200.518 76.1423 209.567 77.1207 209.851C79.6577 210.596 90.5506 201.798 85.4426 198.624C82.8715 197.765 81.3584 200.854 79.2765 201.855C77.0411 200.023 74.2197 195.775 70.8466 196.924L70.8409 196.929Z" fill="white"/>
<path d="M85.2493 79.6909C83.7647 82.0568 81.461 87.2835 78.1846 87.0673C75.2438 86.874 75.1869 83.4218 76.5009 82.4663C76.9502 82.1421 84.891 79.4008 85.2493 79.6852V79.6909Z" fill="white"/>
<path d="M70.8406 196.929C74.2137 195.781 77.0351 200.023 79.2705 201.86C81.3581 200.859 82.8712 197.771 85.4366 198.63C90.5446 201.803 79.6517 210.602 77.1147 209.857C76.142 209.572 69.0944 200.518 69.5494 198.539C69.8168 197.908 70.1182 197.18 70.8349 196.935L70.8406 196.929Z" fill="black"/>
</g>
<defs>
<clipPath id="clip0_255_2719">
<rect width="152" height="305" fill="white"/>
</clipPath>
</defs>
</svg>
