<svg width="40" height="40" viewBox="0 0 40 40" fill="none" xmlns="http://www.w3.org/2000/svg">
<path fill-rule="evenodd" clip-rule="evenodd" d="M4.16797 10C4.16797 7.69882 6.03345 5.83334 8.33464 5.83334H31.668C33.9692 5.83334 35.8346 7.69882 35.8346 10V33.3333C35.8346 35.6345 33.9692 37.5 31.668 37.5H8.33464C6.03345 37.5 4.16797 35.6345 4.16797 33.3333V10ZM8.33464 7.50001C6.95392 7.50001 5.83464 8.6193 5.83464 10V33.3333C5.83464 34.7141 6.95392 35.8333 8.33464 35.8333H31.668C33.0487 35.8333 34.168 34.7141 34.168 33.3333V10C34.168 8.6193 33.0487 7.50001 31.668 7.50001H8.33464Z" fill="#0078D2"/>
<path fill-rule="evenodd" clip-rule="evenodd" d="M26.6654 2.5C27.1256 2.5 27.4987 2.8731 27.4987 3.33333V10C27.4987 10.4602 27.1256 10.8333 26.6654 10.8333C26.2051 10.8333 25.832 10.4602 25.832 10V3.33333C25.832 2.8731 26.2051 2.5 26.6654 2.5Z" fill="#0078D2"/>
<path fill-rule="evenodd" clip-rule="evenodd" d="M13.3333 2.5C13.7936 2.5 14.1667 2.8731 14.1667 3.33333V10C14.1667 10.4602 13.7936 10.8333 13.3333 10.8333C12.8731 10.8333 12.5 10.4602 12.5 10V3.33333C12.5 2.8731 12.8731 2.5 13.3333 2.5Z" fill="#0078D2"/>
<path fill-rule="evenodd" clip-rule="evenodd" d="M4.16797 16.6667C4.16797 16.2064 4.54106 15.8333 5.0013 15.8333H35.0013C35.4615 15.8333 35.8346 16.2064 35.8346 16.6667C35.8346 17.1269 35.4615 17.5 35.0013 17.5H5.0013C4.54106 17.5 4.16797 17.1269 4.16797 16.6667Z" fill="#0078D2"/>
</svg>
