<svg width="40" height="40" viewBox="0 0 40 40" fill="none" xmlns="http://www.w3.org/2000/svg">
<path fill-rule="evenodd" clip-rule="evenodd" d="M19.4897 2.67554C19.7906 2.44149 20.212 2.44149 20.5129 2.67554L35.5129 14.3422C35.7159 14.5001 35.8346 14.7428 35.8346 15V33.3333C35.8346 35.6345 33.9692 37.5 31.668 37.5H8.33464C6.03345 37.5 4.16797 35.6345 4.16797 33.3333V15C4.16797 14.7428 4.2867 14.5001 4.48968 14.3422L19.4897 2.67554ZM5.83464 15.4076V33.3333C5.83464 34.714 6.95392 35.8333 8.33464 35.8333H31.668C33.0487 35.8333 34.168 34.714 34.168 33.3333V15.4076L20.0013 4.38905L5.83464 15.4076Z" fill="#0078D2"/>
<path fill-rule="evenodd" clip-rule="evenodd" d="M14.168 20C14.168 19.5398 14.5411 19.1667 15.0013 19.1667H25.0013C25.4615 19.1667 25.8346 19.5398 25.8346 20V36.6667C25.8346 37.1269 25.4615 37.5 25.0013 37.5C24.5411 37.5 24.168 37.1269 24.168 36.6667V20.8333H15.8346V36.6667C15.8346 37.1269 15.4615 37.5 15.0013 37.5C14.5411 37.5 14.168 37.1269 14.168 36.6667V20Z" fill="#0078D2"/>
</svg>
