<svg width="40" height="40" viewBox="0 0 40 40" fill="none" xmlns="http://www.w3.org/2000/svg">
<path fill-rule="evenodd" clip-rule="evenodd" d="M6.66667 5.83332C5.28595 5.83332 4.16667 6.95261 4.16667 8.33332V18.3333C4.16667 22.5326 5.83482 26.5599 8.80414 29.5292C11.7735 32.4985 15.8007 34.1667 20 34.1667C28.7445 34.1667 35.8333 27.0778 35.8333 18.3333V8.33332C35.8333 6.95261 34.714 5.83332 33.3333 5.83332H6.66667ZM2.5 8.33332C2.5 6.03214 4.36548 4.16666 6.66667 4.16666H33.3333C35.6345 4.16666 37.5 6.03214 37.5 8.33332V18.3333C37.5 27.9983 29.665 35.8333 20 35.8333C15.3587 35.8333 10.9075 33.9896 7.62563 30.7077C4.34374 27.4258 2.5 22.9746 2.5 18.3333V8.33332Z" fill="#0078D2"/>
<path fill-rule="evenodd" clip-rule="evenodd" d="M12.7441 16.0774C13.0695 15.752 13.5972 15.752 13.9226 16.0774L20 22.1548L26.0774 16.0774C26.4028 15.752 26.9305 15.752 27.2559 16.0774C27.5814 16.4029 27.5814 16.9305 27.2559 17.2559L20.5893 23.9226C20.2638 24.248 19.7362 24.248 19.4107 23.9226L12.7441 17.2559C12.4186 16.9305 12.4186 16.4029 12.7441 16.0774Z" fill="#0078D2"/>
</svg>
