<svg width="40" height="40" viewBox="0 0 40 40" fill="none" xmlns="http://www.w3.org/2000/svg">
<path fill-rule="evenodd" clip-rule="evenodd" d="M0.88555 9.3799C0.498951 6.30341 3.13234 4.16666 5.96053 4.16666H11.9466C13.1549 4.16666 14.1902 5.03072 14.4063 6.21944L15.4169 11.7775C15.7187 13.4378 15.2869 15.1474 14.2327 16.4651L13.0271 17.9722C12.8122 18.2407 12.7926 18.5968 12.9585 18.8674C13.7411 20.1436 15.1489 22.2995 16.4269 23.5774C17.7048 24.8553 19.8607 26.2631 21.1368 27.0457C21.4075 27.2117 21.7635 27.1921 22.0321 26.9772L23.5392 25.7716C24.8569 24.7174 26.5665 24.2855 28.2267 24.5874L33.7848 25.5979C34.9735 25.8141 35.8376 26.8494 35.8376 28.0576V33.6361C35.8376 36.6719 33.4193 39.3733 30.1964 38.855C24.6754 37.9672 16.7836 35.128 10.2269 28.067C3.85185 21.2016 1.49015 14.1912 0.88555 9.3799ZM5.96053 5.83332C3.85301 5.83332 2.31042 7.35139 2.53921 9.1721C3.10304 13.6589 5.32536 20.3391 11.4483 26.9329C17.6974 33.6628 25.2191 36.3665 30.461 37.2095C32.4518 37.5296 34.1709 35.8808 34.1709 33.6361V28.0576C34.1709 27.6549 33.8829 27.3098 33.4867 27.2377L27.9286 26.2272C26.7427 26.0115 25.5215 26.32 24.5803 27.073L23.0733 28.2787C22.2769 28.9158 21.1575 29.0135 20.2655 28.4665C18.9935 27.6865 16.6812 26.1888 15.2483 24.7559C13.8155 23.323 12.3178 21.0107 11.5378 19.7388C10.9908 18.8468 11.0885 17.7274 11.7256 16.931L12.9313 15.4239C13.6842 14.4827 13.9927 13.2616 13.7771 12.0757L12.7665 6.51759C12.6945 6.12134 12.3494 5.83332 11.9466 5.83332H5.96053Z" fill="#0078D2"/>
</svg>
