<svg width="7" height="13" viewBox="0 0 7 13" fill="none" xmlns="http://www.w3.org/2000/svg">
<path d="M0.0833216 11.4998C0.0826879 11.3902 0.103709 11.2814 0.145179 11.1799C0.18665 11.0784 0.247754 10.986 0.324988 10.9082L4.14999 7.0915C4.2281 7.01403 4.29009 6.92186 4.3324 6.82031C4.3747 6.71876 4.39649 6.60984 4.39649 6.49983C4.39649 6.38982 4.3747 6.2809 4.3324 6.17935C4.29009 6.0778 4.2281 5.98563 4.14999 5.90816L0.324988 2.0915C0.168068 1.93458 0.0799122 1.72175 0.0799122 1.49983C0.0799122 1.27791 0.168068 1.06508 0.324988 0.908162C0.481908 0.751243 0.694737 0.663086 0.916655 0.663086C1.02654 0.663086 1.13534 0.684729 1.23686 0.726779C1.33838 0.76883 1.43062 0.830464 1.50832 0.908162L5.32499 4.73316C5.78129 5.20811 6.03613 5.8412 6.03613 6.49983C6.03613 7.15846 5.78129 7.79155 5.32499 8.2665L1.50832 12.0915C1.43085 12.1696 1.33869 12.2316 1.23714 12.2739C1.13559 12.3162 1.02666 12.338 0.916655 12.338C0.806645 12.338 0.697724 12.3162 0.596174 12.2739C0.494625 12.2316 0.402458 12.1696 0.324988 12.0915C0.247754 12.0136 0.18665 11.9213 0.145179 11.8198C0.103709 11.7182 0.0826879 11.6095 0.0833216 11.4998Z" fill="#464646"/>
</svg>
