<svg width="40" height="40" viewBox="0 0 40 40" fill="none" xmlns="http://www.w3.org/2000/svg">
<path fill-rule="evenodd" clip-rule="evenodd" d="M33.3493 6.59631C31.0494 4.28283 27.585 3.52003 24.5051 4.69555C21.253 5.93679 19.1212 9.07527 19.1654 12.5555V13.3853C13.7985 13.2676 8.78438 10.6072 5.68075 6.18775C5.50821 5.94207 5.21687 5.80819 4.91807 5.83726C4.61927 5.86634 4.3592 6.05389 4.23727 6.32823L4.99878 6.66668C4.23727 6.32823 4.23708 6.32866 4.23687 6.32915L4.23631 6.33041L4.23474 6.33397L4.22984 6.34518L4.21325 6.38379C4.19928 6.41662 4.17965 6.46356 4.15521 6.52387C4.10636 6.64448 4.03826 6.81873 3.95793 7.0409C3.79739 7.48496 3.58744 8.12201 3.3847 8.90594C2.98022 10.4699 2.59896 12.6394 2.70798 15.0379C2.81716 17.4399 3.41935 20.0889 4.99789 22.5813C6.38313 24.7685 8.49585 26.7964 11.6073 28.4257C8.6025 30.1327 5.17118 30.9721 1.69857 30.834C1.31297 30.8187 0.967282 31.0701 0.863075 31.4417C0.758867 31.8132 0.923406 32.2077 1.26075 32.3951C8.99118 36.6898 17.6245 36.7104 24.3487 33.1315C31.0931 29.5417 35.8321 22.375 35.8321 12.5L35.8321 12.4973C35.8309 12.1298 35.8054 11.7631 35.7558 11.3993C37.4056 9.66545 38.5743 7.52751 39.1418 5.19719C39.224 4.85969 39.0882 4.50661 38.8011 4.31114C38.5139 4.11567 38.1356 4.11882 37.8518 4.31904C36.4693 5.29421 34.9523 6.06119 33.3493 6.59631ZM32.47 8.09688C30.6434 5.99662 27.6999 5.26011 25.0994 6.25265C22.499 7.24519 20.7947 9.75566 20.832 12.5388L20.8322 12.55H20.8321V14.2167C20.8321 14.6685 20.4721 15.038 20.0204 15.0497C14.3149 15.1977 8.8886 12.7198 5.2655 8.38299C5.17902 8.66132 5.08799 8.97637 4.99828 9.32325C4.62151 10.7801 4.27361 12.7773 4.37292 14.9622C4.47207 17.1434 5.01572 19.4945 6.40592 21.6896C7.79277 23.8793 10.0538 25.9644 13.6706 27.5718C13.9471 27.6947 14.1352 27.9578 14.1621 28.2592C14.1891 28.5606 14.0505 28.8529 13.8001 29.0228C11.1659 30.8109 8.16092 31.943 5.03462 32.3479C11.4646 34.9122 18.2048 34.5135 23.5656 31.6602C29.7374 28.3752 34.1649 21.7926 34.1655 12.5018C34.164 12.0895 34.1244 11.6781 34.0469 11.2731C33.9947 10.9999 34.0823 10.7187 34.2803 10.5233C35.3345 9.48366 36.1832 8.26309 36.7896 6.92617C35.6905 7.51128 34.5349 7.98785 33.3391 8.34795C33.0252 8.44246 32.6851 8.3442 32.47 8.09688Z" fill="#0078D2"/>
</svg>
