<svg width="60" height="60" viewBox="0 0 60 60" fill="none" xmlns="http://www.w3.org/2000/svg">
<path fill-rule="evenodd" clip-rule="evenodd" d="M8.75 47.5C8.75 41.2868 13.7868 36.25 20 36.25H40C46.2132 36.25 51.25 41.2868 51.25 47.5V52.5C51.25 53.1904 50.6904 53.75 50 53.75C49.3096 53.75 48.75 53.1904 48.75 52.5V47.5C48.75 42.6675 44.8325 38.75 40 38.75H20C15.1675 38.75 11.25 42.6675 11.25 47.5V52.5C11.25 53.1904 10.6904 53.75 10 53.75C9.30964 53.75 8.75 53.1904 8.75 52.5V47.5Z" fill="#0078D2"/>
<path fill-rule="evenodd" clip-rule="evenodd" d="M18.75 17.5C18.75 11.2868 23.7868 6.25 30 6.25C36.2132 6.25 41.25 11.2868 41.25 17.5C41.25 23.7132 36.2132 28.75 30 28.75C23.7868 28.75 18.75 23.7132 18.75 17.5ZM30 8.75C25.1675 8.75 21.25 12.6675 21.25 17.5C21.25 22.3325 25.1675 26.25 30 26.25C34.8325 26.25 38.75 22.3325 38.75 17.5C38.75 12.6675 34.8325 8.75 30 8.75Z" fill="#0078D2"/>
</svg>
