<?xml version="1.0" encoding="UTF-8"?>
<!DOCTYPE svg PUBLIC "-//W3C//DTD SVG 1.1//EN" "http://www.w3.org/Graphics/SVG/1.1/DTD/svg11.dtd">
<!-- Creator: CorelDRAW -->
<svg xmlns="http://www.w3.org/2000/svg" xml:space="preserve" width="272.304mm" height="238.825mm" version="1.1" style="shape-rendering:geometricPrecision; text-rendering:geometricPrecision; image-rendering:optimizeQuality; fill-rule:evenodd; clip-rule:evenodd"
viewBox="0 0 27230.38 23882.46"
 xmlns:xlink="http://www.w3.org/1999/xlink"
 xmlns:xodm="http://www.corel.com/coreldraw/odm/2003">
 <defs>
  <style type="text/css">
   <![CDATA[
    .fil0 {fill:url(#id0)}
   ]]>
  </style>
  <linearGradient id="id0" gradientUnits="userSpaceOnUse" x1="-69.16" y1="12462" x2="27223.25" y2="12462">
   <stop offset="0" style="stop-opacity:1; stop-color:#95F659"/>
   <stop offset="1" style="stop-opacity:1; stop-color:#31A115"/>
  </linearGradient>
 </defs>
 <g id="Слой_x0020_1">
  <metadata id="CorelCorpID_0Corel-Layer"/>
  <path class="fil0" d="M18880.23 23882.99l-8.47 -8.72c-1058.21,-1084.18 -2324.28,-1703.57 -3798.26,-1858.48 -1014.08,-106.42 -1980.83,-24.4 -2918.2,364.21 -833.17,345.45 -1544.7,871.68 -2226.04,1502.99l8950.97 0zm-18384.2 0l3237.12 0c-56.84,-441.11 42.78,-944.64 462.25,-1686.13 344.88,-564.41 873.85,-901.61 1462.5,-1132.96 679.2,-266.94 1410.72,-473.6 2052.6,-681.42 266.53,-74.18 1228.17,-482.99 2077.46,-1053.07 562.22,-377.41 1075.18,-879.65 1304.71,-1207.57 804.19,-1055.95 1132.61,-2433.21 673.93,-3704.64 -451.33,-1223.22 -1466.01,-2083.36 -2644.48,-2547.24 -466.64,-183.74 -950.31,-327.2 -1451.02,-430.67 -331.4,-68.5 -683.62,-142.3 -1057.33,-221.66 -860.33,-182.26 -1624.78,-575 -2232.25,-1249.97 -294.61,-336.61 -531.01,-689.36 -708.91,-1058.59 -464.85,-965.12 -508.07,-1954.61 -129.66,-2968.22 249.04,-666.47 635.7,-1235.58 1159.93,-1707.4 895.9,-771.1 1940.59,-1070.95 3133.45,-899.54 965,138.45 1896.46,618.8 2524.23,1366.97 150.83,180.19 304.89,390.96 461.62,632.31 241.38,371.58 478.97,742.27 712.7,1112.38l0.03 0.03c595.68,936.86 1297.53,1830.85 2238.12,2449.64 802.4,527.99 1759.74,857.51 2718,814.01 1146.41,-52.04 2127.87,-571.47 2914.68,-1393.72 327.83,-342.47 629.21,-711.1 904.43,-1105.32 361.64,-515.33 700.06,-1037.42 1113.17,-1530.41 571.9,-682.9 1454.56,-1002.16 2340.17,-964.24 1296.37,55.54 2236.37,1073.29 2475.99,2304.73 90.86,532.39 29.7,1041.56 -183.17,1528.06 -279.61,638.52 -753.88,1222.34 -1255.21,1707.39 -105.54,102 -211.4,203.72 -318.13,305.43 -583.64,506.51 -1179.94,998.34 -1789.17,1475.46 -144.34,113.16 -407.8,337.48 -789.73,672.61 -807.1,708.15 -1537.18,1506.6 -2094.94,2432.61 -39.42,64.96 -76.75,130.82 -112.31,196.94 -609.83,1087.41 -868.87,2316.81 -696.58,3557.07 92.34,700.52 304.05,1386.97 657.47,2000.18 385.44,639.09 895.02,1155 1528.33,1547.75 789.17,489.76 1731.52,639.12 2645.36,491.24 1015.59,-164.64 1923.81,-608.51 2688.58,-1294.96 236.26,-206.91 470.59,-441.89 703.28,-704.48l0 -5756.63c-770.78,865.38 -1423.07,2059.96 -1959.34,2895.55 -114.39,178.43 -253.18,368.63 -415.77,570.59 -388.39,490.04 -885.9,905.74 -1483.08,1033.9 -345.17,74.08 -589.81,-72.01 -783.58,-338.08 -161.41,-238.4 -265.79,-515.32 -313.43,-830.16 -82.62,-546.21 14.11,-1061.54 290.5,-1545.71 239.94,-420.07 519.27,-798.14 837.97,-1134.15 375.49,-384.21 773.61,-747.26 1194.36,-1089.13 1116.15,-906.82 1813.79,-1440.61 2632.37,-2251.77l0 -9834.44c-1104.66,-887.59 -2461.15,-1281.62 -3879.93,-1226.01 -1460.43,57.33 -2728.56,551.48 -3804.12,1482.51 -812.69,703.44 -1439.57,1730.29 -1974.09,2475.23 -141.46,196.94 -280.21,373.05 -416.93,528.56 -325.79,370.7 -687.45,648.78 -1214.94,418.62 -675.66,-295.17 -1139.35,-920.74 -1537.15,-1524.26 -27.95,-42.62 -308.16,-480.03 -840.64,-1312.29 -557.47,-871.63 -1287.55,-1654.17 -2140.23,-2227.11 -1216.1,-817.55 -2683.27,-1268.79 -4156.66,-1270.27 -1954.11,-2.07 -3626.5,677.6 -5016.96,2038.42 -1574.66,1540.32 -2498.63,3876.29 -2189.35,6079.03 64.4,460.66 170.25,913.97 316.98,1359.31 487.03,1493.18 1405.13,2894.71 2720.5,3771.63 637.14,453.29 1383.81,787.88 2145.06,1007.47 324.59,93.78 644.8,172.85 960.89,236.64 700.06,141.4 1396.92,278.71 2018.19,548.85 458.67,199.01 633.34,705.83 319.6,1116.52 -51.47,67.59 -125.24,142.87 -221.4,225.45 -357.24,308.1 -757.99,546.5 -1202.58,714.96 -102.72,39.02 -687.58,232.44 -756.17,257.38 -463.67,139.04 -909.77,290.87 -1365.53,442.87 -538.06,179.37 -2023.61,820.96 -2945.73,1698.86 -807.42,768.65 -1081.55,1749.46 -1259.13,2347.36 -207.39,664.56 -307,1350.85 -286.9,2037.7z"/>
 </g>
</svg>
