<svg width="40" height="40" viewBox="0 0 40 40" fill="none" xmlns="http://www.w3.org/2000/svg">
<rect width="40" height="40" rx="20" fill="white"/>
<path d="M19.4626 25.7973C19.6111 25.9457 19.8056 26.02 20 26.02C20.1944 26.02 20.389 25.9457 20.5374 25.7973L26.2706 20.0641C26.5675 19.7674 26.5675 19.2859 26.2706 18.9892C25.9737 18.6923 25.4926 18.6923 25.1957 18.9892L20.7601 23.4248V9.90467C20.7601 9.48477 20.4196 9.14453 20 9.14453C19.5804 9.14453 19.2399 9.48477 19.2399 9.90467V23.4248L14.8043 18.9892C14.5074 18.6923 14.0263 18.6923 13.7294 18.9892C13.4325 19.2858 13.4325 19.7674 13.7294 20.0641L19.4626 25.7973ZM28.6149 28.3355H11.3851C10.9655 28.3355 10.625 28.6757 10.625 29.0956C10.625 29.5155 10.9655 29.8558 11.3851 29.8558H28.6149C29.0345 29.8558 29.375 29.5155 29.375 29.0956C29.375 28.6757 29.0345 28.3355 28.6149 28.3355Z" fill="url(#paint0_linear_534_3875)"/>
<defs>
<linearGradient id="paint0_linear_534_3875" x1="29.375" y1="29.8558" x2="10.217" y2="29.4712" gradientUnits="userSpaceOnUse">
<stop stop-color="#0D83D0"/>
<stop offset="1" stop-color="#284D95"/>
</linearGradient>
</defs>
</svg>
